<?xml version="1.0" encoding="utf-8"?>
<!-- Generator: Adobe Illustrator 23.0.5, SVG Export Plug-In . SVG Version: 6.00 Build 0)  -->
<svg version="1.1" id="Layer_1" xmlns="http://www.w3.org/2000/svg" xmlns:xlink="http://www.w3.org/1999/xlink" x="0px" y="0px"
	 viewBox="0 0 667.4 589.5" style="enable-background:new 0 0 667.4 589.5;" xml:space="preserve">
<style type="text/css">
	.st0{fill:#A0616A;}
	.st1{fill:#6C63FF;}
	.st2{fill:#F2F2F2;}
	.st3{fill:#E6E6E6;}
	.st4{fill:#FFFFFF;}
	.st5{fill:#2F2E41;}
	.st6{fill:#3F3D56;}
	.st7{fill:#CACACA;}
</style>
<path class="st0" d="M517,377.6c-2.1-3.7-0.9-8.4,2.8-10.6c0.4-0.2,0.8-0.4,1.2-0.6l-0.4-27.4l12,7.7l-1.5,24.9
	c1.2,4.1-1.2,8.4-5.3,9.6C522.4,382.2,518.7,380.8,517,377.6z"/>
<path class="st1" d="M502.5,228.7c-7.3,1.3-12.8,7.6-12.9,15.1c-0.2,8,2.5,11,6.3,12.1c7,2,18.1,42.4,18.1,42.4s1.2,37.7,3.1,35.9
	s-0.3,2.5,0.3,3.8s-2.7,3.3,0.4,4.8s1.2,13.5,1.2,13.5l14-1c0,0-2.3-9.8,0.8-10.4s1.7-3.4,0.4-5.5s2.3-5.1,0.5-6.1s3.2-40,3.2-40
	l-19.5-57.5C515.1,230.4,508.7,227.6,502.5,228.7z"/>
<polygon class="st1" points="460,230.9 470.1,213.3 483.7,213.3 493.9,231.9 "/>
<path class="st2" d="M432.9,72.2c-8-27-30.8-44.6-58.3-48.4c-0.3,0-0.6,0-0.9,0c-0.4-0.1-0.8-0.2-1.2-0.3
	c-37.8-4.9-79,3.9-111.8,24.4C229.3,67.6,193.1,78.7,156,78.5c-1.2,0-2.3,0-3.5,0.1C124,80,98.8,100.8,91.1,128.1
	c-1,3.6,0.8,6.8,3.6,8.8c5,3.6,8.4,6.1,14.5,7.4c11,2.3,21.9,4.5,33,6.4v-43.9c0-8.7,7-15.7,15.7-15.7h215.5c8.7,0,15.7,7,15.7,15.7
	v54.7c3-0.9,5.8-2.1,8.6-3.4c10.4-5.1,19.3-12.9,25.8-22.5C435.9,117.5,439.2,93.2,432.9,72.2z"/>
<path class="st2" d="M342.2,329.3H151.7c-9.2,0-16.6-7.4-16.6-16.6v-73.9c-23.2-7.1-47.6-9.2-71.7-6.3c-0.4,0.1-0.8,0.2-1.2,0.3
	c-0.3,0-0.6,0-0.9,0c-27.5,3.9-50.2,21.5-58.3,48.4c-6.3,21-3,45.3,9.5,63.4c6.5,9.6,15.4,17.4,25.8,22.5
	c14.3,6.9,29.3,7.4,44.9,7.9c46.8,1.5,93.7-0.3,140.3-5.3c22.9-2.5,45.7-5.7,68.5-9.6c11.6-2,23.2-4.3,34.8-6.7
	c6.1-1.3,9.5-3.8,14.5-7.4c2.8-2,4.6-5.2,3.6-8.8C344.2,334.4,343.3,331.8,342.2,329.3z"/>
<path class="st3" d="M359,307.4H172.1c-7.5,0-13.6-6.1-13.6-13.6V120c0-7.5,6.1-13.6,13.6-13.6H359c7.5,0,13.6,6.1,13.6,13.6v173.7
	C372.6,301.3,366.6,307.4,359,307.4z"/>
<path class="st4" d="M319.7,298.2H181.3c-7.5,0-13.6-6.1-13.6-13.6V129.2c0-7.5,6.1-13.6,13.6-13.6h168.6c7.5,0,13.6,6.1,13.6,13.6
	v125.2C363.4,278.6,343.9,298.2,319.7,298.2z"/>
<circle class="st1" cx="265.6" cy="206.9" r="61"/>
<path class="st4" d="M291.3,203.8l-20.4-24.8c-2.1-2.6-5.9-2.9-8.4-0.8c-0.2,0.2-0.5,0.4-0.7,0.7L240,203.7
	c-2.2,2.5-1.9,6.3,0.6,8.5c2.5,2.2,6.3,1.9,8.5-0.5l11.3-12.8v32.1c0,3.3,2.7,6,6,6s6-2.7,6-6v-31.3l9.7,11.8
	c2.1,2.6,5.9,2.9,8.4,0.8S293.4,206.4,291.3,203.8L291.3,203.8z"/>
<polygon class="st0" points="528.5,578.3 519.4,578.3 515.1,543.4 528.5,543.4 "/>
<path class="st5" d="M528.8,587.8l-27.8,0v-0.4c0-6,4.8-10.8,10.8-10.8h0l5.1-3.9l9.5,3.9l2.4,0L528.8,587.8z"/>
<polygon class="st0" points="460.5,578.3 451.4,578.3 447.1,543.4 460.5,543.4 "/>
<path class="st5" d="M460.8,587.8l-27.8,0v-0.4c0-6,4.8-10.8,10.8-10.8h0l5.1-3.9l9.5,3.9l2.4,0L460.8,587.8z"/>
<path class="st5" d="M531.3,549.4c3.3-2.2,1.4-2,1.4-2s-7.4-59.9-13-78l-6.5-88.3c0,0-0.4,1.8,0-2.5s3.4-1.3,0.4-4.3s-5-4.5-3-6.8
	s7.5-6.8,4.3-9.5s-9.7-20.6-9.7-20.6l-62.5,0.5l2.5-0.5c0,0-7.8-2.9-4.2,0.9s-2,13-4,22c-1.7,7.5-6.6,9.4,0,11c6.6,1.6,0.6,6,0.6,6
	s-9.9,47.1-2.4,78.1c0,0,5.2,76.7,7.8,83.3c2.6,6.6,3.6,2.6,2.6,6.6s-3-3-1,4c1.1,3.7,2,7.4,2.6,11.1l13.6-1c0,0,3.1-9.9,0-12.5
	s-1,5,2.4-0.8s-0.6-3.8-1.6-11.8s8.2-45.3,1.6-68.1l12.2-64.2l19.3,66.4c0,0,10.3,81.1,13.6,84c3.3,2.9,2-4.1,3.3,2.9
	c1.4,7,4.4,5.2,4.4,6c-0.9,9.2,15.3,0.1,15.3,0.1c-0.2-2.3-0.2-4.7,0-7C531.6,552.3,528,551.6,531.3,549.4z"/>
<path class="st6" d="M449,358.3c-4,0-15-5.4-13-7.7s2-9.9,2-12.1s9-83.2,9-83.2l-0.7-19.8c-0.2-4.9,3.7-9,8.6-9.2c0.1,0,0.2,0,0.3,0
	l8.8-3l25-1l12.5,4c4,0,7.2,3.2,7.2,7.2c0,1.1-0.3,2.3-0.8,3.3l0,0c6.6,10.8,9.9,23.3,9.6,36c-0.3,9.5-5.1,21-6.2,31.7
	c-0.1,0.9-0.2,1.9-0.2,2.8c0,0.3-2.1,1.5,0,0.8s-1.1,1.9,0,3.6s3.1,0.6,0.1,2.6s3.6,21.3,3,22c-2,2-6,3-3,6s6,1,2,5s-16,11-16,11
	H449z"/>
<circle class="st0" cx="475.7" cy="189.2" r="21.5"/>
<path class="st0" d="M344.6,255.9c3.9-1.7,8.5,0,10.2,3.9c0.2,0.4,0.3,0.8,0.4,1.3l27.3,2.6l-8.9,11.1l-24.6-4.2
	c-4.2,0.7-8.2-2.1-9-6.3C339.5,260.9,341.4,257.4,344.6,255.9L344.6,255.9z"/>
<path class="st1" d="M474.2,239.9c-1.3-7.3-7.6-12.8-15.1-12.9c-8-0.2-11,2.5-12.1,6.3c-2,7-34.2,31.6-34.2,31.6l-27.7-3
	c-1.7-0.5-0.9-2.1-7.1-0.8c-3.1-2-5.1-1.7-6.8-0.7l-10.2-1.1l1,16c0,0,11-2.6,13,2s1.6,5.3,6,2s4,0,4,0l32,8l50.1-31.4
	C472.5,252.5,475.3,246.2,474.2,239.9L474.2,239.9z"/>
<path class="st5" d="M484.1,208.4l1.4,0.5c-4.4,0.4-12.3,2.8-11.5,1.5s-2.1-6.5-0.7-7.1c1.5-0.5,2.8-1.4,3.8-2.6
	c0.9-1.3,0.9-3.3-0.5-4.1c-1.3-0.8-2.9,0.1-4.2,0.8c-1.3,0.8-3.7-10.4-3.1-13.9c-3.7-2-8.1,1.8-12.2,1.1c-2.5-0.5-4.3-2.5-5.5-4.9
	c1.9-1.8,3.2-4,4-6.4c-1.7,0.9-3.6,1.5-5.5,1.8c-0.3-1.8-0.3-3.7,0.1-5.5c0.7-2.9,2.8-5.3,5.6-6.3c2.9-1,6,0.2,7.6,2.8
	c0.2-2.8-1.5-5.4-4.1-6.4c3.3-1.7,7.4-0.4,9.1,2.9c0.3,0.5,0.5,1.1,0.6,1.7c4.5-2.3,9.7-2.8,14.6-1.6c4.8,1.3,11.3,6.6,11.3,6.6
	C505.9,171.7,505.4,213.2,484.1,208.4z"/>
<path class="st2" d="M598.1,579.2c0.7,0,1.2-0.5,1.3-1.2c0-0.4-0.1-0.7-0.4-0.9l-0.1-0.3l0-0.1c0.7-1.7,2.6-2.4,4.3-1.7
	c0.8,0.3,1.4,1,1.7,1.8c1,2.4,2.2,4.8,2.5,7.3c0.1,1.1,0.1,2.2-0.2,3.3c2.3-5,3.5-10.5,3.5-16.1c0-1.4-0.1-2.8-0.2-4.2
	c-0.1-1.1-0.3-2.3-0.5-3.4c-1.2-6.1-3.9-11.8-7.8-16.6c-1.9-1-3.4-2.6-4.3-4.5c-0.3-0.7-0.6-1.4-0.7-2.2c0.4-1.1,0.6-2.2,0.6-3.4
	c0.3-0.4,0.8-0.7,1.1-1.1c1.6-2.2,3.8-1.8,5,1.2c2.5,1.2,2.5,3.3,1,5.3c-1,1.3-1.1,3-1.9,4.3c0.1,0.1,0.2,0.2,0.3,0.3
	c1.6,2,3,4.2,4.1,6.5c-0.3-2.6,0.1-5.2,1-7.6c0.9-2.3,2.7-4.2,4.2-6.1c1.1-1.5,3.3-1.7,4.7-0.6c0.7,0.5,1.2,1.4,1.3,2.2l0,0.1
	c-0.2,0.1-0.5,0.3-0.7,0.4c-0.8,0.5-1,1.5-0.5,2.3c0.3,0.4,0.7,0.6,1.1,0.7l0,0c-0.1,0.8-0.2,1.6-0.4,2.5c2,7.7-2.3,10.5-8.4,10.6
	c-0.1,0.1-0.3,0.1-0.4,0.2c1.2,3.3,1.9,6.7,2.2,10.2c0.2,2.1,0.1,4.1,0,6.2l0-0.1c0.4-2.3,1.7-4.3,3.4-5.8c2.7-2.2,6.4-3,9.3-4.7
	c0.9-0.6,2.1-0.3,2.6,0.6c0.2,0.4,0.3,0.8,0.3,1.3l0,0.1c-0.4,0.2-0.8,0.4-1.2,0.6c-0.2,0.1-0.5,0.3-0.7,0.4c-0.8,0.5-1,1.5-0.5,2.3
	c0.3,0.4,0.7,0.6,1.1,0.7l0,0l0.1,0c-0.7,1.7-1.8,3.3-3,4.7c-1.2,6.7-6.6,7.3-12.3,5.4h0c-0.6,2.7-1.5,5.4-2.7,7.9h-9.7
	c0-0.1-0.1-0.2-0.1-0.3c0.9,0.1,1.8,0,2.7-0.2c-0.7-0.9-1.4-1.8-2.1-2.6c0,0,0,0,0-0.1c-0.4-0.5-0.7-0.9-1.1-1.3l0,0
	C597.6,581.9,597.8,580.5,598.1,579.2L598.1,579.2z"/>
<path class="st7" d="M276.5,589.2l389.7,0.3c0.7,0,1.2-0.5,1.2-1.2c0-0.7-0.5-1.2-1.2-1.2l-389.7-0.3c-0.7,0-1.2,0.5-1.2,1.2
	C275.3,588.6,275.9,589.2,276.5,589.2z"/>
<path class="st2" d="M256.6,422.3c-7.8,0-14.1-6.3-14.1-14.1s6.3-14.1,14.1-14.1c7.8,0,14.1,6.3,14.1,14.1l0,0
	C270.8,416,264.4,422.3,256.6,422.3z M256.6,396c-6.7,0-12.1,5.4-12.1,12.1s5.4,12.1,12.1,12.1s12.1-5.4,12.1-12.1l0,0
	C268.8,401.4,263.3,396,256.6,396z"/>
<path class="st2" d="M262.2,407.5l-4.4-5.3c-0.5-0.6-1.3-0.6-1.8-0.2c-0.1,0-0.1,0.1-0.1,0.1l-4.7,5.3c-0.5,0.5-0.4,1.4,0.1,1.8
	c0.5,0.5,1.3,0.4,1.8-0.1l2.4-2.8v6.9c0,0.7,0.6,1.3,1.3,1.3c0.7,0,1.3-0.6,1.3-1.3c0,0,0,0,0,0v-6.7l2.1,2.5
	c0.5,0.6,1.3,0.6,1.8,0.2C262.5,408.9,262.6,408,262.2,407.5L262.2,407.5z"/>
<path class="st2" d="M417.6,213.3c-7.8,0-14.1-6.3-14.1-14.1s6.3-14.1,14.1-14.1c7.8,0,14.1,6.3,14.1,14.1l0,0
	C431.8,207,425.4,213.3,417.6,213.3z M417.6,187c-6.7,0-12.1,5.4-12.1,12.1c0,6.7,5.4,12.1,12.1,12.1s12.1-5.4,12.1-12.1v0
	C429.8,192.4,424.3,187,417.6,187L417.6,187z"/>
<path class="st2" d="M423.2,198.5l-4.4-5.3c-0.5-0.6-1.3-0.6-1.8-0.2c-0.1,0-0.1,0.1-0.1,0.1l-4.7,5.3c-0.5,0.5-0.4,1.4,0.1,1.8
	c0.5,0.5,1.3,0.4,1.8-0.1l2.4-2.8v6.9c0,0.7,0.6,1.3,1.3,1.3s1.3-0.6,1.3-1.3c0,0,0,0,0,0v-6.7l2.1,2.5c0.5,0.6,1.3,0.6,1.8,0.2
	C423.5,199.9,423.6,199,423.2,198.5L423.2,198.5z"/>
<path class="st2" d="M98.6,201.3c-7.8,0-14.1-6.3-14.1-14.1c0-7.8,6.3-14.1,14.1-14.1c7.8,0,14.1,6.3,14.1,14.1v0
	C112.8,195,106.4,201.3,98.6,201.3z M98.6,175c-6.7,0-12.1,5.4-12.1,12.1c0,6.7,5.4,12.1,12.1,12.1c6.7,0,12.1-5.4,12.1-12.1
	c0,0,0,0,0,0C110.8,180.4,105.3,175,98.6,175L98.6,175z"/>
<path class="st2" d="M104.2,186.5l-4.4-5.3c-0.5-0.6-1.3-0.6-1.8-0.2c-0.1,0-0.1,0.1-0.1,0.1l-4.7,5.3c-0.5,0.5-0.4,1.4,0.1,1.8
	c0.5,0.5,1.3,0.4,1.8-0.1l2.4-2.8v6.9c0,0.7,0.6,1.3,1.3,1.3c0.7,0,1.3-0.6,1.3-1.3v-6.7l2.1,2.5c0.5,0.6,1.3,0.6,1.8,0.2
	C104.5,187.9,104.6,187,104.2,186.5L104.2,186.5L104.2,186.5z"/>
<path class="st2" d="M211.6,28.3c-7.8,0-14.1-6.3-14.1-14.1c0-7.8,6.3-14.1,14.1-14.1s14.1,6.3,14.1,14.1c0,0,0,0,0,0
	C225.8,22,219.4,28.3,211.6,28.3z M211.6,2c-6.7,0-12.1,5.4-12.1,12.1c0,6.7,5.4,12.1,12.1,12.1c6.7,0,12.1-5.4,12.1-12.1
	c0,0,0,0,0,0C223.8,7.4,218.3,2,211.6,2L211.6,2z"/>
<path class="st2" d="M217.2,13.5l-4.4-5.3c-0.5-0.6-1.3-0.6-1.8-0.2c-0.1,0-0.1,0.1-0.1,0.1l-4.7,5.3c-0.5,0.5-0.4,1.4,0.1,1.8
	c0.5,0.5,1.3,0.4,1.8-0.1l2.4-2.8v6.9c0,0.7,0.6,1.3,1.3,1.3c0.7,0,1.3-0.6,1.3-1.3v-6.7l2.1,2.5c0.5,0.6,1.3,0.6,1.8,0.2
	C217.5,14.9,217.6,14,217.2,13.5L217.2,13.5z"/>
<path class="st4" d="M60.6,306.3c-7.8,0-14.1-6.3-14.1-14.1S52.8,278,60.6,278c7.8,0,14.1,6.3,14.1,14.1c0,0,0,0,0,0
	C74.8,300,68.4,306.3,60.6,306.3z M60.6,280c-6.7,0-12.1,5.4-12.1,12.1c0,6.7,5.4,12.1,12.1,12.1c6.7,0,12.1-5.4,12.1-12.1
	C72.8,285.4,67.3,280,60.6,280L60.6,280z"/>
<path class="st4" d="M66.2,291.5l-4.4-5.3c-0.5-0.6-1.3-0.6-1.8-0.2c-0.1,0-0.1,0.1-0.1,0.1l-4.7,5.3c-0.5,0.5-0.4,1.4,0.1,1.8
	c0.5,0.5,1.3,0.4,1.8-0.1l2.4-2.8v6.9c0,0.7,0.6,1.3,1.3,1.3c0.7,0,1.3-0.6,1.3-1.3v-6.7l2.1,2.5c0.5,0.6,1.3,0.6,1.8,0.2
	C66.5,292.9,66.6,292,66.2,291.5L66.2,291.5L66.2,291.5z"/>
<path class="st4" d="M366.6,69.3c-7.8,0-14.1-6.3-14.1-14.1S358.8,41,366.6,41s14.1,6.3,14.1,14.1c0,0,0,0,0,0
	C380.8,63,374.4,69.3,366.6,69.3z M366.6,43c-6.7,0-12.1,5.4-12.1,12.1s5.4,12.1,12.1,12.1s12.1-5.4,12.1-12.1
	C378.8,48.4,373.3,43,366.6,43z"/>
<path class="st4" d="M372.2,54.5l-4.4-5.3c-0.5-0.6-1.3-0.6-1.8-0.2c-0.1,0-0.1,0.1-0.1,0.1l-4.7,5.3c-0.5,0.5-0.4,1.4,0.1,1.8
	c0.5,0.5,1.3,0.4,1.8-0.1l2.4-2.8v6.9c0,0.7,0.6,1.3,1.3,1.3c0.7,0,1.3-0.6,1.3-1.3c0,0,0,0,0,0v-6.7l2.1,2.5
	c0.5,0.6,1.3,0.6,1.8,0.2C372.5,55.9,372.6,55,372.2,54.5L372.2,54.5z"/>
</svg>
