<?xml version="1.0" encoding="utf-8"?>
<!-- Generator: Adobe Illustrator 23.0.5, SVG Export Plug-In . SVG Version: 6.00 Build 0)  -->
<svg version="1.1" xmlns="http://www.w3.org/2000/svg" xmlns:xlink="http://www.w3.org/1999/xlink" x="0px" y="0px"
	 viewBox="0 0 603.04 458.17" style="enable-background:new 0 0 603.04 458.17;" xml:space="preserve">
<style type="text/css">
	.st0{fill:#CFD0D1;}
	.st1{fill:#FFFFFF;}
	.st2{fill:#B7B7B7;}
	.st3{fill:none;stroke:#969999;stroke-width:2;stroke-linecap:round;stroke-linejoin:round;stroke-miterlimit:10;}
	.st4{fill:none;stroke:#909293;stroke-width:2;stroke-linecap:round;stroke-linejoin:round;stroke-miterlimit:10;}
	.st5{fill:none;stroke:#A9A9AA;stroke-width:2;stroke-linecap:round;stroke-linejoin:round;stroke-miterlimit:10;}
	.st6{fill:#6C63FF;}
</style>
<g id="Floor">
</g>
<g id="Sparkles">
</g>
<g id="Folder_back_part">
	<path class="st0" d="M459.28,134.05v-21.45c0-1.81-1.5-3.28-3.36-3.28H337.19c-1.85,0-3.36,1.47-3.36,3.28v21.45
		c0,1.81-1.5,3.28-3.36,3.28H45.47c-1.85,0-3.36,1.47-3.36,3.28v305.42c0,1.81,1.5,3.28,3.36,3.28h471.27
		c1.85,0,3.36-1.47,3.36-3.28V140.6c0-1.81-1.5-3.28-3.36-3.28h-54.11C460.78,137.32,459.28,135.86,459.28,134.05z"/>
</g>
<g id="Tabs">
	<path class="st1" d="M180.99,81.6V17.67c0-4.84,3.93-8.77,8.77-8.77h329.1c4.84,0,8.77,3.93,8.77,8.77V249.7
		c0,4.4-3.57,7.97-7.97,7.97h-330.7c0,0-7.97-3.57-7.97-7.97V81.6"/>
	<path class="st0" d="M181.81,28.89H527.1c0,0,3.03-9-0.69-14.85c-3.72-5.85-14.17-4.51-14.17-4.51L196.21,8.9
		c0,0-10.2-0.72-13.8,5.28C178.81,20.19,181.81,28.89,181.81,28.89z"/>
	<path class="st0" d="M180.99,81.6V16.87c0-4.4,3.57-7.97,7.97-7.97h330.7c4.4,0,7.97,3.57,7.97,7.97V249.7
		c0,4.4-3.57,7.97-7.97,7.97h-330.7c-4.4,0-7.97-3.57-7.97-7.97V81.6"/>
	<path class="st1" d="M194.69,18.88c0-1.93,1.56-3.49,3.49-3.49c1.93,0,3.49,1.56,3.49,3.49c0,1.93-1.56,3.49-3.49,3.49
		C196.25,22.37,194.69,20.81,194.69,18.88z"/>
	<path class="st1" d="M206.54,18.88c0-1.93,1.56-3.49,3.49-3.49c1.93,0,3.49,1.56,3.49,3.49c0,1.93-1.56,3.49-3.49,3.49
		C208.11,22.37,206.54,20.81,206.54,18.88z"/>
	<path class="st1" d="M218.4,18.88c0-1.93,1.56-3.49,3.49-3.49c1.93,0,3.49,1.56,3.49,3.49c0,1.93-1.56,3.49-3.49,3.49
		C219.96,22.37,218.4,20.81,218.4,18.88z"/>
	<g id="Layer-7_1_">
		<path class="st1" d="M101.31,137.53V66.33c0-4.84,3.93-8.77,8.77-8.77h363.78c4.84,0,8.77,3.93,8.77,8.77v256.12
			c0,4.84-3.93,8.77-8.77,8.77H110.08c0,0-8.77-3.93-8.77-8.77V137.53"/>
	</g>
	<path class="st2" d="M102.21,79.55h379.83c0,0,3.33-9.9-0.76-16.33c-4.09-6.43-15.59-4.96-15.59-4.96l-347.64-0.69
		c0,0-11.22-0.8-15.18,5.81C98.92,69.98,102.21,79.55,102.21,79.55z"/>
	<path class="st3" d="M101.31,137.53V66.33c0-4.84,3.93-8.77,8.77-8.77h363.78c4.84,0,8.77,3.93,8.77,8.77v256.12
		c0,4.84-3.93,8.77-8.77,8.77H110.08c-4.84,0-8.77-3.93-8.77-8.77V137.53"/>
	<path class="st1" d="M116.38,68.54c0-2.12,1.72-3.84,3.84-3.84c2.12,0,3.84,1.72,3.84,3.84c0,2.12-1.72,3.84-3.84,3.84
		C118.11,72.38,116.38,70.66,116.38,68.54z"/>
	<path class="st1" d="M129.42,68.54c0-2.12,1.72-3.84,3.84-3.84c2.12,0,3.84,1.72,3.84,3.84c0,2.12-1.72,3.84-3.84,3.84
		C131.14,72.38,129.42,70.66,129.42,68.54z"/>
	<path class="st1" d="M142.46,68.54c0-2.12,1.72-3.84,3.84-3.84c2.12,0,3.84,1.72,3.84,3.84c0,2.12-1.72,3.84-3.84,3.84
		C144.18,72.38,142.46,70.66,142.46,68.54z"/>
	<path class="st4" d="M137.1,100.46h201.83"/>
	<path class="st5" d="M137.1,109.32h172.16"/>
</g>
<g id="Folder_front_part">
	<path class="st6" d="M492.83,126.42v-21.97c0-1.85-1.5-3.36-3.36-3.36H370.74c-1.85,0-3.36,1.5-3.36,3.36v21.97
		c0,1.85-1.5,3.36-3.36,3.36H78.69c-1.72,0-3.16,1.3-3.34,3L42.51,445.59c-0.21,1.98,1.35,3.71,3.34,3.71h471.24
		c1.72,0,3.16-1.3,3.34-3l32.85-312.81c0.21-1.98-1.35-3.71-3.34-3.71h-53.74C494.33,129.78,492.83,128.27,492.83,126.42z"/>
	<g>
		<g>
			<path class="st1" d="M139.39,234v77.55c0,5.69-4.79,10.3-10.7,10.3c-5.92,0-10.71-4.6-10.71-10.3V234
				c0-5.69,4.79-10.29,10.71-10.29C134.6,223.71,139.39,228.32,139.39,234z"/>
		</g>
		<g>
			<path class="st1" d="M184.74,234v77.55c0,5.69-4.8,10.3-10.71,10.3c-5.92,0-10.71-4.6-10.71-10.3V234
				c0-5.69,4.79-10.29,10.71-10.29C179.95,223.71,184.74,228.32,184.74,234z"/>
		</g>
		<g>
			<path class="st1" d="M375.16,272.77c0,5.69-4.8,10.3-10.71,10.3H71.79c-5.91,0-10.7-4.61-10.7-10.3c0-5.69,4.79-10.29,10.7-10.29
				h292.66C370.35,262.48,375.16,267.09,375.16,272.77z"/>
		</g>
		<g>
			<path class="st1" d="M230.09,234v77.55c0,5.69-4.8,10.3-10.71,10.3c-5.92,0-10.7-4.6-10.7-10.3V234c0-5.69,4.78-10.29,10.7-10.29
				C225.29,223.71,230.09,228.32,230.09,234z"/>
		</g>
		<g>
			<path class="st1" d="M275.43,234v77.55c0,5.69-4.79,10.3-10.71,10.3c-5.91,0-10.7-4.6-10.7-10.3V234
				c0-5.69,4.79-10.29,10.7-10.29C270.64,223.71,275.43,228.32,275.43,234z"/>
		</g>
		<g>
			<path class="st1" d="M320.78,234v77.55c0,5.69-4.78,10.3-10.7,10.3c-5.91,0-10.71-4.6-10.71-10.3V234
				c0-5.69,4.8-10.29,10.71-10.29C315.99,223.71,320.78,228.32,320.78,234z"/>
		</g>
		<g>
			<path class="st1" d="M539.11,272.77c0,18.64-8.65,37.18-23.14,49.61c-12.9,11.07-28.98,16.18-45.24,14.39l-107.52-12
				c-5.4-0.6-9.47-5-9.47-10.22v-83.34c0-5.23,4.07-9.62,9.47-10.23l107.49-12c16.31-1.8,32.4,3.33,45.32,14.41
				C530.48,235.79,539.11,254.26,539.11,272.77z M375.16,305.38l98.02,10.94c10.11,1.11,20.25-2.19,28.55-9.3
				c10.01-8.59,15.98-21.39,15.98-34.25c0-12.74-5.95-25.46-15.93-34.02c-8.3-7.12-18.47-10.43-28.6-9.32l-98,10.93V305.38z"/>
		</g>
		<g>
			<path class="st1" d="M504.68,272.77c0,10.62-4.97,21.02-13.32,27.84c-7.17,5.85-15.95,8.31-24.73,6.91l-19.09-3
				c-5.18-0.81-8.98-5.12-8.98-10.16v-42.98c0-5.04,3.8-9.35,8.98-10.16l19.11-2.99c8.77-1.39,17.57,1.07,24.76,6.93
				C499.72,251.96,504.68,262.28,504.68,272.77z M459.96,285.61l10.13,1.59c3.18,0.5,5.79-0.97,7.4-2.3
				c3.51-2.86,5.78-7.62,5.78-12.13c0-4.39-2.25-9.07-5.73-11.91c-1.63-1.33-4.25-2.82-7.43-2.32l-10.14,1.59V285.61z"/>
		</g>
	</g>
</g>
<g id="Files">
</g>
<g id="Character">
</g>
</svg>
