<?xml version="1.0" encoding="utf-8"?>
<!-- Generator: Adobe Illustrator 23.0.5, SVG Export Plug-In . SVG Version: 6.00 Build 0)  -->
<svg version="1.1" xmlns="http://www.w3.org/2000/svg" xmlns:xlink="http://www.w3.org/1999/xlink" x="0px" y="0px"
	 viewBox="0 0 603.04 458.17" style="enable-background:new 0 0 603.04 458.17;" xml:space="preserve">
<style type="text/css">
	.st0{fill:#CFD0D1;}
	.st1{fill:#FFFFFF;}
	.st2{fill:#B7B7B7;}
	.st3{fill:none;stroke:#969999;stroke-width:2;stroke-linecap:round;stroke-linejoin:round;stroke-miterlimit:10;}
	.st4{fill:none;stroke:#909293;stroke-width:2;stroke-linecap:round;stroke-linejoin:round;stroke-miterlimit:10;}
	.st5{fill:none;stroke:#A9A9AA;stroke-width:2;stroke-linecap:round;stroke-linejoin:round;stroke-miterlimit:10;}
	.st6{fill:#6C63FF;}
</style>
<g id="Floor">
</g>
<g id="Sparkles">
</g>
<g id="Folder_back_part">
	<path class="st0" d="M459.28,134.05v-21.45c0-1.81-1.5-3.28-3.36-3.28H337.19c-1.85,0-3.36,1.47-3.36,3.28v21.45
		c0,1.81-1.5,3.28-3.36,3.28H45.47c-1.85,0-3.36,1.47-3.36,3.28v305.42c0,1.81,1.5,3.28,3.36,3.28h471.27
		c1.85,0,3.36-1.47,3.36-3.28V140.6c0-1.81-1.5-3.28-3.36-3.28h-54.11C460.78,137.32,459.28,135.86,459.28,134.05z"/>
</g>
<g id="Tabs">
	<path class="st1" d="M180.99,81.6V17.67c0-4.84,3.93-8.77,8.77-8.77h329.1c4.84,0,8.77,3.93,8.77,8.77V249.7
		c0,4.4-3.57,7.97-7.97,7.97h-330.7c0,0-7.97-3.57-7.97-7.97V81.6"/>
	<path class="st0" d="M181.81,28.89H527.1c0,0,3.03-9-0.69-14.85c-3.72-5.85-14.17-4.51-14.17-4.51L196.21,8.9
		c0,0-10.2-0.72-13.8,5.28C178.81,20.19,181.81,28.89,181.81,28.89z"/>
	<path class="st0" d="M180.99,81.6V16.87c0-4.4,3.57-7.97,7.97-7.97h330.7c4.4,0,7.97,3.57,7.97,7.97V249.7
		c0,4.4-3.57,7.97-7.97,7.97h-330.7c-4.4,0-7.97-3.57-7.97-7.97V81.6"/>
	<path class="st1" d="M194.69,18.88c0-1.93,1.56-3.49,3.49-3.49c1.93,0,3.49,1.56,3.49,3.49c0,1.93-1.56,3.49-3.49,3.49
		C196.25,22.37,194.69,20.81,194.69,18.88z"/>
	<path class="st1" d="M206.54,18.88c0-1.93,1.56-3.49,3.49-3.49c1.93,0,3.49,1.56,3.49,3.49c0,1.93-1.56,3.49-3.49,3.49
		C208.11,22.37,206.54,20.81,206.54,18.88z"/>
	<path class="st1" d="M218.4,18.88c0-1.93,1.56-3.49,3.49-3.49c1.93,0,3.49,1.56,3.49,3.49c0,1.93-1.56,3.49-3.49,3.49
		C219.96,22.37,218.4,20.81,218.4,18.88z"/>
	<g id="Layer-7_1_">
		<path class="st1" d="M101.31,137.53V66.33c0-4.84,3.93-8.77,8.77-8.77h363.78c4.84,0,8.77,3.93,8.77,8.77v256.12
			c0,4.84-3.93,8.77-8.77,8.77H110.08c0,0-8.77-3.93-8.77-8.77V137.53"/>
	</g>
	<path class="st2" d="M102.21,79.55h379.83c0,0,3.33-9.9-0.76-16.33c-4.09-6.43-15.59-4.96-15.59-4.96l-347.64-0.69
		c0,0-11.22-0.8-15.18,5.81C98.92,69.98,102.21,79.55,102.21,79.55z"/>
	<path class="st3" d="M101.31,137.53V66.33c0-4.84,3.93-8.77,8.77-8.77h363.78c4.84,0,8.77,3.93,8.77,8.77v256.12
		c0,4.84-3.93,8.77-8.77,8.77H110.08c-4.84,0-8.77-3.93-8.77-8.77V137.53"/>
	<path class="st1" d="M116.38,68.54c0-2.12,1.72-3.84,3.84-3.84c2.12,0,3.84,1.72,3.84,3.84c0,2.12-1.72,3.84-3.84,3.84
		C118.11,72.38,116.38,70.66,116.38,68.54z"/>
	<path class="st1" d="M129.42,68.54c0-2.12,1.72-3.84,3.84-3.84c2.12,0,3.84,1.72,3.84,3.84c0,2.12-1.72,3.84-3.84,3.84
		C131.14,72.38,129.42,70.66,129.42,68.54z"/>
	<path class="st1" d="M142.46,68.54c0-2.12,1.72-3.84,3.84-3.84c2.12,0,3.84,1.72,3.84,3.84c0,2.12-1.72,3.84-3.84,3.84
		C144.18,72.38,142.46,70.66,142.46,68.54z"/>
	<path class="st4" d="M137.1,100.46h201.83"/>
	<path class="st5" d="M137.1,109.32h172.16"/>
</g>
<g id="Folder_front_part">
	<path class="st6" d="M492.83,126.42v-21.97c0-1.85-1.5-3.36-3.36-3.36H370.74c-1.85,0-3.36,1.5-3.36,3.36v21.97
		c0,1.85-1.5,3.36-3.36,3.36H78.69c-1.72,0-3.16,1.3-3.34,3L42.51,445.59c-0.21,1.98,1.35,3.71,3.34,3.71h471.24
		c1.72,0,3.16-1.3,3.34-3l32.85-312.81c0.21-1.98-1.35-3.71-3.34-3.71h-53.74C494.33,129.78,492.83,128.27,492.83,126.42z"/>
	<path class="st1" d="M353.64,269.15c-6.03,0-11.74,1.37-16.83,3.82c-8.36-16.95-25.8-28.61-45.98-28.61
		c-25.24,0-46.2,18.25-50.45,42.27c-4.63-2.58-9.95-4.06-15.62-4.06c-17.75,0-32.14,14.39-32.14,32.14
		c0,17.75,14.39,32.14,32.14,32.14h126.51v-0.08c0.78,0.05,1.57,0.08,2.36,0.08c21.46,0,38.85-17.39,38.85-38.85
		S375.1,269.15,353.64,269.15z"/>
	<path class="st1" d="M292.03,207.9c-1.13,0-2.18,0.45-2.91,1.2l-18.05,18.76c-1.54,1.59-1.49,4.13,0.1,5.67
		c1.6,1.54,4.13,1.49,5.67-0.1l11.18-11.53v81.55c0,2.22,1.8,4.01,4.01,4.01c2.22,0,4.01-1.8,4.01-4.01v-81.55l11.03,11.53
		c1.53,1.6,4.07,1.68,5.67,0.15c1.6-1.53,1.68-4.07,0.15-5.67l-17.95-18.76C294.21,208.38,293.18,207.9,292.03,207.9z"/>
</g>
<g id="Files">
</g>
<g id="Character">
</g>
</svg>
