<svg xmlns="http://www.w3.org/2000/svg" width="95.333" height="90.135" viewBox="0 0 95.333 90.135"><defs><style>.a{fill:#e72f2f;}.b{fill:none;}</style></defs><g transform="translate(0)"><path class="a" d="M677.282,1072.2c-1.674.267-3.491.224-4.974.907a8.181,8.181,0,0,1-2.952.581,38.357,38.357,0,0,1-6.385.366,30.892,30.892,0,0,1-6.31-1.4,65.326,65.326,0,0,1-12.73-5.242c-5.072-2.787-8.7-6.907-12.017-11.469a48.9,48.9,0,0,1-5.124-9.887c-1.2-2.824-1.389-6.073-2.539-8.926-1.107-2.749-1.165-5.617-1.447-8.4a12.55,12.55,0,0,1,1.053-7.144,24.987,24.987,0,0,0,1.945-6.763,18.54,18.54,0,0,1,1.885-5.2,35.271,35.271,0,0,0,1.323-3.937,14.111,14.111,0,0,1,3.35-5.313A28.582,28.582,0,0,0,634.6,997.2a17.539,17.539,0,0,1,7.288-5.274c2.474-1.058,4.815-2.43,7.212-3.666a3.448,3.448,0,0,1,.642-.364c3.32-.849,6.458-2.663,9.739-3.1,4.959-.665,10.04-1.3,15.113-.322,2.866.551,5.891.387,8.411,2.26a2.043,2.043,0,0,0,1.435.256c2.684-.486,4.95.82,7.341,1.608.528.174,1.093.233,1.621.408a7,7,0,0,1,1.752.727,25.04,25.04,0,0,0,3.1,2.3c4.289,2,6.863,5.738,9.52,9.327a60.1,60.1,0,0,1,4.775,7.935,27.921,27.921,0,0,1,1.434,4.593c1.184,3.754,3.11,7.271,3.176,11.374.033,2.079.65,4.142.859,6.226a13.1,13.1,0,0,1-.272,2.841,73.991,73.991,0,0,1-1.972,8.444c-.728,2.979-2.358,5.471-3.551,8.176-.747,1.693-2.346,3.041-3.672,4.441-2.038,2.151-3.932,4.443-6.171,6.4a27.692,27.692,0,0,1-5.137,3.843,44.387,44.387,0,0,1-4.211,2.366,57.933,57.933,0,0,1-12.227,3.724c-1.158.184-2.286.562-3.428.852Zm37.694-42.456c-.261-1.96-.431-4.053-.847-6.095a40.441,40.441,0,0,0-1.449-4.619c-.244-.735-.569-1.443-.81-2.179a15.077,15.077,0,0,0-.411-1.614c-1.192-2.6-1.427-5.663-3.694-7.753a.349.349,0,0,1-.123-.208c.019-2.274-1.666-3.638-2.83-5.272a27.516,27.516,0,0,0-8.7-8.037c-1.1-.633-1.969-1.765-3.121-2.178a52.77,52.77,0,0,0-7.542-2.081c-1.817-.36-3.724-.236-5.34-1.4a2.752,2.752,0,0,0-1.179-.272c-2.9-.4-5.8-.812-8.712-1.177a10.324,10.324,0,0,0-2.214-.03c-2.4.219-4.74,1.011-7.2.546a2.668,2.668,0,0,0-1.682.181c-2.7,1.542-5.785,1.96-8.637,3.044a4.93,4.93,0,0,0-1.084.558,23.983,23.983,0,0,1-6.227,3.227,10.935,10.935,0,0,0-4.305,2.267,36.754,36.754,0,0,0-5.94,7.345c-1.9,3.358-3.123,7.1-4.629,10.679-.06.143,0,.332-.037.488a62.1,62.1,0,0,1-1.9,7.084,12.583,12.583,0,0,0-.839,6.943c.127.72.016,1.481.13,2.2a47.211,47.211,0,0,0,.9,4.767c.547,2.054,1.4,4.033,1.867,6.1a18.663,18.663,0,0,0,2.409,6.582,12.477,12.477,0,0,1,1.964,3.376c.683,2.466,3.017,3.839,3.774,6.2,4.365,3.607,8.736,7.125,14.171,9.17a51.084,51.084,0,0,0,11.678,2.89,30.971,30.971,0,0,0,7.339.011c3.978-.461,7.9-1.353,11.876-1.873,3.285-.43,6.147-1.987,9.18-3.081a21.969,21.969,0,0,0,4.327-2.175,40.552,40.552,0,0,0,5.7-4.124c1.787-1.644,3.216-3.672,4.856-5.484.876-.968,1.877-1.82,2.8-2.748a4.112,4.112,0,0,0,.877-1.117c1.636-3.626,3.556-7.116,4.5-11.053A37.29,37.29,0,0,0,714.976,1029.748Z" transform="translate(-622.701 -983.968)"/><path class="b" d="M716.423,1031.3a37.29,37.29,0,0,1-1.118,9.1c-.944,3.937-2.863,7.427-4.5,11.053a4.109,4.109,0,0,1-.877,1.117c-.921.928-1.922,1.781-2.8,2.748-1.64,1.812-3.069,3.839-4.856,5.484a40.591,40.591,0,0,1-5.7,4.124,21.943,21.943,0,0,1-4.327,2.174c-3.033,1.094-5.9,2.651-9.18,3.081-3.973.52-7.9,1.413-11.876,1.873a30.947,30.947,0,0,1-7.339-.011,51.062,51.062,0,0,1-11.678-2.889c-5.435-2.044-9.806-5.563-14.171-9.17-.756-2.36-3.091-3.734-3.774-6.2a12.477,12.477,0,0,0-1.964-3.376,18.661,18.661,0,0,1-2.409-6.582c-.472-2.068-1.32-4.047-1.867-6.1a47.218,47.218,0,0,1-.9-4.767c-.114-.724,0-1.485-.13-2.2a12.582,12.582,0,0,1,.839-6.943,62.059,62.059,0,0,0,1.9-7.084c.04-.156-.023-.345.037-.488,1.506-3.579,2.729-7.321,4.629-10.679a36.753,36.753,0,0,1,5.94-7.345,10.937,10.937,0,0,1,4.305-2.267,23.984,23.984,0,0,0,6.227-3.227,4.924,4.924,0,0,1,1.084-.558c2.852-1.084,5.935-1.5,8.637-3.044a2.667,2.667,0,0,1,1.682-.181c2.461.465,4.805-.327,7.2-.546a10.313,10.313,0,0,1,2.214.03c2.908.365,5.809.774,8.712,1.177a2.75,2.75,0,0,1,1.179.272c1.616,1.161,3.522,1.037,5.34,1.4a52.777,52.777,0,0,1,7.542,2.081c1.151.413,2.023,1.546,3.121,2.178a27.512,27.512,0,0,1,8.7,8.038c1.164,1.634,2.849,3,2.83,5.272a.349.349,0,0,0,.123.208c2.267,2.089,2.5,5.15,3.694,7.753a14.98,14.98,0,0,1,.411,1.614c.242.736.567,1.444.81,2.179a40.426,40.426,0,0,1,1.449,4.619C715.992,1027.243,716.163,1029.336,716.423,1031.3Zm-51.172,20.717c1.772-1.392,3.239-2.665,4.83-3.756,1.313-.9,2.769-1.591,4.169-2.359,2-1.1,4.022-2.162,6.014-3.277,2.663-1.489,5.621-2.423,7.827-4.766,1.216-1.292,2.933-2.1,4.4-3.172,1.881-1.375,2.091-2.575.852-4.635a9.587,9.587,0,0,0-.867-1.191,38.573,38.573,0,0,0-9.474-7.9c-2.812-1.735-5.133-4.117-8.3-5.466-3.119-1.329-6.249-2.646-9.434-3.8-1.883-.681-3.066.223-3.06,2.263.013,4.086.163,8.171.311,12.255.059,1.625.344,3.242.386,4.866.074,2.869-.061,5.746.077,8.611.186,3.872.548,7.736.847,11.781Z" transform="translate(-624.148 -985.516)"/><path class="a" d="M684.672,1064.7l-1.427-.543c-.3-4.046-.661-7.909-.847-11.781-.138-2.865,0-5.742-.077-8.611-.042-1.624-.327-3.241-.386-4.866-.148-4.084-.3-8.169-.311-12.255-.006-2.04,1.177-2.944,3.06-2.263,3.185,1.151,6.315,2.468,9.434,3.8,3.168,1.349,5.489,3.73,8.3,5.466a38.572,38.572,0,0,1,9.474,7.9,9.536,9.536,0,0,1,.867,1.191c1.239,2.06,1.029,3.26-.852,4.635-1.462,1.068-3.179,1.881-4.4,3.173-2.205,2.343-5.164,3.276-7.827,4.765-1.992,1.115-4.013,2.179-6.014,3.277-1.4.768-2.857,1.46-4.169,2.359C687.911,1062.032,686.445,1063.305,684.672,1064.7Zm1.236-8.818c-.757,1.254-.527,2.511-.153,4.106l1.763-1.485-1.669-2.571a3.716,3.716,0,0,1,.928-3.163,16.4,16.4,0,0,0,2.537-4.857c-1.768.583-2.109,2.122-3.086,3.022C684.508,1052.518,685.026,1054.167,685.908,1055.879Zm-1.295-22.614c1.762-.983,2.687-2.55,3.719-4.5C684.608,1030.676,684.165,1031.225,684.614,1033.265Zm.313,11.366.445.482a8.748,8.748,0,0,0,3.343-3.709Zm16.048-4.49,3.829-1.3-1.833-1.318Zm-16.839-1.064.691,2.676.933-1.292Zm1.211-11.185-1.657-.529c.116.714.184,1.137.293,1.808Z" transform="translate(-643.569 -998.2)"/></g></svg>