<svg xmlns="http://www.w3.org/2000/svg" xmlns:xlink="http://www.w3.org/1999/xlink" width="161" height="84" viewBox="0 0 161 84">
  <defs>
    <clipPath id="clip-path">
      <rect id="Rectangle_59" data-name="Rectangle 59" width="161" height="84" transform="translate(42 17.484)"/>
    </clipPath>
    <clipPath id="clip-path-2">
      <rect id="Rectangle_18" data-name="Rectangle 18" width="184.568" height="113.164"/>
    </clipPath>
  </defs>
  <g id="Group_138" data-name="Group 138" transform="translate(-42 -17.484)" clip-path="url(#clip-path)">
    <g id="Group_67" data-name="Group 67" transform="translate(9.322 17.152)" clip-path="url(#clip-path-2)">
      <path id="Path_156" data-name="Path 156" d="M260.849,469.278s-2.8-27.452-4.568-39.2c-1.771-11.605-22.558-9.368-31.507-9.322-8.949-.047-29.736-2.33-31.507,9.322-1.771,11.745-4.568,39.2-4.568,39.2l36.121-1.864Z" transform="translate(-110.072 -373.591)" fill="#404041"/>
    </g>
    <g id="Group_68" data-name="Group 68" transform="translate(9.322 17.152)" clip-path="url(#clip-path-2)">
      <path id="Path_157" data-name="Path 157" d="M253.947,430.114,253.9,425.5l13.749.28-3.356,5.919-7.923.746Z" transform="translate(-144.884 -376.235)" fill="#cdd0d1"/>
    </g>
    <g id="Group_78" data-name="Group 78" transform="translate(9.322 17.152)" clip-path="url(#clip-path-2)">
      <g id="Group_77" data-name="Group 77" transform="translate(87.604 116.287)">
        <g id="Group_76" data-name="Group 76">
          <g id="Group_75" data-name="Group 75">
            <g id="Group_74" data-name="Group 74">
              <g id="Group_73" data-name="Group 73">
                <g id="Group_72" data-name="Group 72">
                  <g id="Group_70" data-name="Group 70" transform="translate(30.407 100.347)">
                    <path id="Path_158" data-name="Path 158" d="M301.3,795.04a1.723,1.723,0,0,0-.932-1.305c-1.818-.792-8.529-3.263-10.347-4.661A13.993,13.993,0,0,1,286.9,784.6l-12.444.653a97.464,97.464,0,0,0-1.258,10.58Z" transform="translate(-273.2 -784.6)" fill="#404041"/>
                    <path id="Path_159" data-name="Path 159" d="M301.4,809.8l-28.1.7-.093-2.75L301.3,807Z" transform="translate(-273.2 -796.56)" fill="#2d2d2d"/>
                    <g id="Group_69" data-name="Group 69" transform="translate(14.342 3.1)">
                      <path id="Path_160" data-name="Path 160" d="M304.124,793.464c0,.047-.047.047-.047.093-.14.233-.186.606.14.746a.772.772,0,0,0,.559,0,6.241,6.241,0,0,0,1.724-.746,3.794,3.794,0,0,0,1.538-1.305c.373-.606-.186-1.119-.839-.979A5.485,5.485,0,0,0,304.124,793.464Z" transform="translate(-303.971 -791.25)" fill="#2d2d2d"/>
                      <path id="Path_161" data-name="Path 161" d="M308.824,796.564c0,.047-.047.047-.047.093-.14.233-.186.606.14.746a.772.772,0,0,0,.559,0,6.241,6.241,0,0,0,1.724-.746,3.794,3.794,0,0,0,1.538-1.305c.373-.606-.186-1.119-.839-.979A5,5,0,0,0,308.824,796.564Z" transform="translate(-306.481 -792.905)" fill="#2d2d2d"/>
                      <path id="Path_162" data-name="Path 162" d="M314.424,798.464c0,.047-.047.047-.047.093-.14.233-.186.606.14.746a.771.771,0,0,0,.559,0,6.239,6.239,0,0,0,1.725-.746,3.8,3.8,0,0,0,1.538-1.305c.373-.606-.186-1.119-.839-.979A5.333,5.333,0,0,0,314.424,798.464Z" transform="translate(-309.471 -793.92)" fill="#2d2d2d"/>
                    </g>
                  </g>
                  <g id="Group_71" data-name="Group 71" transform="translate(0.065 94.699)">
                    <path id="Path_163" data-name="Path 163" d="M208.1,789.828s6.106,4.288,7.784,4.428,10.394-2.1,10.394-3.169a34.1,34.1,0,0,0-.466-3.4c-.513-3.076-1.258-7.131-1.631-7.644-.559-.839,0-5.826,0-5.826s-9-2.1-10.254-1.678c-.979.326-3.915,10.487-5.22,15.1C208.333,788.943,208.1,789.828,208.1,789.828Z" transform="translate(-208.1 -772.481)" fill="#404041"/>
                    <path id="Path_164" data-name="Path 164" d="M208.1,807.191s6.106,4.288,7.784,4.428,10.394-2.1,10.394-3.169a34.106,34.106,0,0,0-.466-3.4c-2.843,1.119-8.9,3.309-10.953,2.61-1.352-.513-3.962-1.631-6.152-2.657C208.333,806.305,208.1,807.191,208.1,807.191Z" transform="translate(-208.1 -789.844)" fill="#2d2d2d"/>
                  </g>
                  <path id="Path_165" data-name="Path 165" d="M208.025,669.414c.186.093.419.14.606.233a35.716,35.716,0,0,0,19.948,1.258l1.352-47.727,6.572-37.24.373-2.33.093,2.33,1.725,35.515-3.216,50.43c.606.28,1.258.466,1.911.7,8.855,2.61,20.275-.7,20.275-.7s-1.305-44.278-1.072-47.587c.14-2.144-1.305-24.7-2.33-40.269-.559-8.389-.979-14.728-.979-14.728H214.643l.14,12.864-.979,39.244C213.9,621.454,207.233,669.088,208.025,669.414Z" transform="translate(-207.96 -569.3)" fill="#36597f"/>
                  <path id="Path_166" data-name="Path 166" d="M222.6,569.4l.14,12.864a86.917,86.917,0,0,0,21.673,3.729l.373-2.33.093,2.33a60,60,0,0,0,17.338-1.864c-.559-8.389-.979-14.728-.979-14.728Z" transform="translate(-215.776 -569.353)" fill="#274763"/>
                  <path id="Path_167" data-name="Path 167" d="M224.1,791.271c-.047,0-.047.047-.093.047-.233.14-.559.373-.373.7a1.449,1.449,0,0,0,.419.326,5.8,5.8,0,0,0,1.818.466,4.151,4.151,0,0,0,2-.093c.653-.233.513-1.025-.093-1.305A5.015,5.015,0,0,0,224.1,791.271Z" transform="translate(-216.3 -687.661)" fill="#2d2d2d"/>
                  <path id="Path_168" data-name="Path 168" d="M224.1,796.454c-.047,0-.047.047-.093.047-.233.14-.559.373-.373.7a1.45,1.45,0,0,0,.419.326,5.8,5.8,0,0,0,1.818.466,4.151,4.151,0,0,0,2-.093c.653-.233.513-1.025-.093-1.3A4.794,4.794,0,0,0,224.1,796.454Z" transform="translate(-216.3 -690.421)" fill="#2d2d2d"/>
                  <path id="Path_169" data-name="Path 169" d="M223.6,801.171c-.047,0-.047.047-.093.047-.233.14-.559.373-.373.7a1.451,1.451,0,0,0,.419.326,5.8,5.8,0,0,0,1.818.466,4.15,4.15,0,0,0,2-.093c.652-.233.513-1.025-.093-1.305A5.015,5.015,0,0,0,223.6,801.171Z" transform="translate(-216.033 -692.947)" fill="#2d2d2d"/>
                </g>
                <path id="Path_170" data-name="Path 170" d="M267.2,682.563c.606.28,1.258.466,1.911.7l3.729-51.129L269.251,589.3l-.7,4.987.093,2.33,1.724,35.515Z" transform="translate(-239.589 -579.978)" fill="#274763"/>
                <path id="Path_171" data-name="Path 171" d="M208.025,669.467c.186.093.419.14.606.233l7.877-48.193.513-52.108h-2.284l.14,12.864-.979,39.244S207.233,669.141,208.025,669.467Z" transform="translate(-207.96 -569.353)" fill="#274763"/>
              </g>
            </g>
          </g>
        </g>
      </g>
    </g>
    <g id="Group_79" data-name="Group 79" transform="translate(9.322 17.152)" clip-path="url(#clip-path-2)">
      <path id="Path_172" data-name="Path 172" d="M262.339,507.2l-.606.093a54.792,54.792,0,0,1-17.664-.326h0l-3.03-9.415-2.237,9.368-1.631.233a54.516,54.516,0,0,1-18.457-.326l-1.119-.233c-.047-8.856.326-72.475,1.491-73.035,1.445-.7,12.771-2.051,15.52-2.47l13.516-.186c3.263.559,12.071,2,13.376,2.657C262.526,434.116,262.433,498.155,262.339,507.2Z" transform="translate(-125.498 -379.118)" fill="#183a63"/>
    </g>
    <g id="Group_80" data-name="Group 80" transform="translate(9.322 17.152)" clip-path="url(#clip-path-2)">
      <path id="Path_173" data-name="Path 173" d="M254.264,463.755c-.186-.326-1.072-27.452-1.072-27.452l-10.487-3.4-1.305.093,2.89,17.059,8.017,11.745,1.958,1.958" transform="translate(-138.21 -380.186)" fill="#909294"/>
    </g>
    <g id="Group_81" data-name="Group 81" transform="translate(9.322 17.152)" clip-path="url(#clip-path-2)">
      <path id="Path_174" data-name="Path 174" d="M200.464,436.7s-7.038,2.89-6.9,4.707c0,0-6.479,15.847-7.97,21.346-2.051,5.453-2.8,15.427-2.8,15.427s13.47-1.818,14.122-2.8c1.119-1.585,4.568-12.351,4.568-12.351Z" transform="translate(-106.922 -382.215)" fill="#283c63"/>
    </g>
    <g id="Group_92" data-name="Group 92" transform="translate(9.322 17.152)" clip-path="url(#clip-path-2)">
      <g id="Group_91" data-name="Group 91" transform="translate(81.284 109.016)">
        <g id="Group_90" data-name="Group 90" transform="translate(8.622 13.465)">
          <g id="Group_89" data-name="Group 89">
            <g id="Group_85" data-name="Group 85">
              <g id="Group_84" data-name="Group 84">
                <g id="Group_83" data-name="Group 83">
                  <g id="Group_82" data-name="Group 82">
                    <path id="Path_175" data-name="Path 175" d="M231.776,586.463c-.28,1.072-7.5-1.678-7.5-1.678l-1.445,1.585,2.89,1.445,2.7,3.868s-.466.792-1.072,1.724a.975.975,0,0,1-.186.28h0c0,.047-.047.047-.047.093a1.417,1.417,0,0,1-.233.326c-.326.466-.652.886-.979,1.305-.047.047-.093.093-.093.14a6.112,6.112,0,0,1-.606.559.806.806,0,0,1-.559.28l-2.7-2.47s-5.034.746-5.733.513a10.9,10.9,0,0,1-2-2.424c-.326-.419-.606-.885-.932-1.352l-.047-.047a2.831,2.831,0,0,0-.326-.466l.932-1.212.233-.326.093-.14.093-.14,3.076-4.148c.093-.047.233-.093.326-.14.419-.14.932-.326,1.445-.466.326-.093.7-.233,1.072-.326a14.4,14.4,0,0,1,4.055-.653,2.729,2.729,0,0,1,1.305.233C228.234,583.807,232.056,585.345,231.776,586.463Z" transform="translate(-212.9 -582.59)" fill="#fc9e80"/>
                  </g>
                </g>
              </g>
            </g>
            <g id="Group_87" data-name="Group 87" transform="translate(10.58 7.602)">
              <g id="Group_86" data-name="Group 86">
                <path id="Path_176" data-name="Path 176" d="M239.515,602.116c-.093.14-.14.233-.233.373a.163.163,0,0,1-.047-.093c-.373-.419-.839-.979-1.4-1.585a12.728,12.728,0,0,0-1.491-1.4c-.093-.093-.186-.14-.28-.233a1.014,1.014,0,0,1-.233-.14,2.4,2.4,0,0,0-.233-.14,1.307,1.307,0,0,1,.28.047c.093,0,.186.047.326.047a3.21,3.21,0,0,0,.373.14,4.823,4.823,0,0,1,1.911,1.258A5.246,5.246,0,0,1,239.515,602.116Z" transform="translate(-235.6 -598.9)" fill="#cd4a57"/>
              </g>
            </g>
            <g id="Group_88" data-name="Group 88" transform="translate(8.949 8.953)">
              <path id="Path_177" data-name="Path 177" d="M236.2,605.622c-.047.047-.093.093-.093.14-.093-.14-.233-.28-.373-.466-.373-.419-.839-.979-1.4-1.585a12.726,12.726,0,0,0-1.491-1.4c-.093-.093-.233-.14-.28-.233a1.021,1.021,0,0,1-.233-.14,2.427,2.427,0,0,0-.233-.14,1.3,1.3,0,0,1,.28.047c.093,0,.186.047.326.047a3.235,3.235,0,0,0,.373.14,4.824,4.824,0,0,1,1.911,1.258,5.457,5.457,0,0,1,1.119,1.864A1.656,1.656,0,0,1,236.2,605.622Z" transform="translate(-232.1 -601.8)" fill="#cd4a57"/>
            </g>
          </g>
        </g>
        <path id="Path_178" data-name="Path 178" d="M194.4,557.2c3.915,7.318,8.716,17.478,8.716,17.478l4.754-6.059L201.438,553.7Z" transform="translate(-194.4 -553.7)" fill="#fc9e80"/>
      </g>
    </g>
    <g id="Group_93" data-name="Group 93" transform="translate(9.322 17.152)" clip-path="url(#clip-path-2)">
      <path id="Path_179" data-name="Path 179" d="M211.533,574.987,209.389,570s-8.483,5.5-8.389,5.826,3.309,5.546,3.309,5.546Z" transform="translate(-116.639 -453.387)" fill="#efeff0"/>
    </g>
    <g id="Group_94" data-name="Group 94" transform="translate(9.322 17.152)" clip-path="url(#clip-path-2)">
      <path id="Path_180" data-name="Path 180" d="M192.221,509.8l5.267,3.4-1.445,4.055s4.661,21.02,5.127,21.207c.466.14-10.207,8.389-10.207,8.389s-9.508-23.3-8.2-29.549C183.691,514.414,192.221,509.8,192.221,509.8Z" transform="translate(-106.835 -421.245)" fill="#36597f"/>
    </g>
    <g id="Group_95" data-name="Group 95" transform="translate(9.322 17.152)" clip-path="url(#clip-path-2)">
      <path id="Path_181" data-name="Path 181" d="M267.2,463.488c.186-.326,1.072-27.452,1.072-27.452l10.487-3.635,1.305.326-2.89,17.059-8.017,11.745-1.957,1.958" transform="translate(-151.985 -379.919)" fill="#909294"/>
    </g>
    <g id="Group_96" data-name="Group 96" transform="translate(9.322 17.152)" clip-path="url(#clip-path-2)">
      <path id="Path_182" data-name="Path 182" d="M274.505,511.2a1.305,1.305,0,1,1-1.305,1.3A1.3,1.3,0,0,1,274.505,511.2Z" transform="translate(-155.189 -421.992)" fill="#274763"/>
      <path id="Path_183" data-name="Path 183" d="M274.505,544.3a1.305,1.305,0,1,1-1.305,1.3A1.3,1.3,0,0,1,274.505,544.3Z" transform="translate(-155.189 -439.665)" fill="#274763"/>
    </g>
    <g id="Group_97" data-name="Group 97" transform="translate(9.322 17.152)" clip-path="url(#clip-path-2)">
      <path id="Path_184" data-name="Path 184" d="M310.525,436.7s7.038,2.89,6.9,4.707c0,0,6.479,15.847,7.97,21.346,2.051,5.453,2.8,15.427,2.8,15.427s-13.47-1.818-14.122-2.8c-1.119-1.585-4.568-12.351-4.568-12.351Z" transform="translate(-174.57 -382.215)" fill="#283c63"/>
    </g>
    <g id="Group_98" data-name="Group 98" transform="translate(9.322 17.152)" clip-path="url(#clip-path-2)">
      <path id="Path_185" data-name="Path 185" d="M267.209,535.593V498.4l-.513.7s-1.678,30.388-.792,38.591Z" transform="translate(-151.156 -415.158)" fill="#274763"/>
    </g>
    <g id="Group_101" data-name="Group 101" transform="translate(9.322 17.152)" clip-path="url(#clip-path-2)">
      <g id="Group_99" data-name="Group 99" transform="translate(101.45 28.263)">
        <path id="Path_186" data-name="Path 186" d="M242.716,390.908a5.732,5.732,0,0,1-4.148-2.75,4.165,4.165,0,0,1-.419-.746c-.606-1.258-.839-5.64.513-6.712.979-.746,1.724.28,2.1.932h0c.14.28.233.513.233.513Z" transform="translate(-237.667 -380.441)" fill="#fdbd8e"/>
        <path id="Path_187" data-name="Path 187" d="M243.216,391.429a6.3,6.3,0,0,1-4.381-2.843c-.047-.14-.14-.233-.186-.373-.606-1.258-.839-5.64.513-6.712.792-.606,1.445-.047,1.818.559h0c.14.28.233.513.233.513Z" transform="translate(-237.934 -380.867)" fill="#fc9e80"/>
        <path id="Path_188" data-name="Path 188" d="M239.079,387.574a2.8,2.8,0,0,0,.093,1.072,8.561,8.561,0,0,0,2.75,3.589,4.3,4.3,0,0,1-.466-2.284c0-.28.047-.559.047-.839C241.5,387.993,239.452,385.476,239.079,387.574Z" transform="translate(-238.411 -383.817)" fill="#fd7d6f"/>
        <path id="Path_189" data-name="Path 189" d="M242.769,392.626l-.047-.047c-.047-.047-.093-.047-.186-.14a3.7,3.7,0,0,1-.559-.606,3.377,3.377,0,0,1-.466-1.165,2.914,2.914,0,0,1,.093-1.538.354.354,0,0,1,.093-.186V388.9h0v-.047l-.047-.093c-.047-.047-.047-.093-.093-.14a2.642,2.642,0,0,0-.373-.606,4.88,4.88,0,0,0-.373-.513c-.14-.14-.233-.28-.373-.419-.14-.093-.233-.186-.373-.186a.674.674,0,0,0-.326.093c-.093.047-.093.093-.14.14v0a.353.353,0,0,1,.093-.186.423.423,0,0,1,.326-.14.9.9,0,0,1,.466.14c.14.093.28.233.466.373a4.948,4.948,0,0,1,.419.513,6.811,6.811,0,0,1,.419.606c.047.047.047.093.093.186l.047.093.047.14.047.093c0,.047-.047.047-.047.093l-.047.14c-.047.047-.047.093-.047.186a3.583,3.583,0,0,0-.14,1.4,3.931,3.931,0,0,0,.326,1.119,5.412,5.412,0,0,0,.419.653.348.348,0,0,0,.14.14Z" transform="translate(-238.699 -383.836)" fill="#cd4a57"/>
      </g>
      <g id="Group_100" data-name="Group 100" transform="translate(124.537 28.263)">
        <path id="Path_190" data-name="Path 190" d="M287.6,390.908a5.732,5.732,0,0,0,4.148-2.75,4.166,4.166,0,0,0,.419-.746c.606-1.258.839-5.64-.513-6.712-.979-.746-1.725.28-2.1.932h0c-.14.28-.233.513-.233.513Z" transform="translate(-287.414 -380.441)" fill="#fdbd8e"/>
        <path id="Path_191" data-name="Path 191" d="M287.2,391.429a6.3,6.3,0,0,0,4.381-2.843c.047-.14.14-.233.186-.373.606-1.258.839-5.64-.513-6.712-.792-.606-1.445-.047-1.818.559h0c-.14.28-.233.513-.233.513Z" transform="translate(-287.2 -380.867)" fill="#fc9e80"/>
        <path id="Path_192" data-name="Path 192" d="M293.843,387.574a2.8,2.8,0,0,1-.093,1.072,8.561,8.561,0,0,1-2.75,3.589,4.3,4.3,0,0,0,.466-2.284c0-.28-.047-.559-.047-.839C291.419,387.993,293.47,385.476,293.843,387.574Z" transform="translate(-289.229 -383.817)" fill="#fd7d6f"/>
        <path id="Path_193" data-name="Path 193" d="M289.7,392.626l.047-.047c.047-.047.093-.047.186-.14a3.7,3.7,0,0,0,.559-.606,3.376,3.376,0,0,0,.466-1.165,2.913,2.913,0,0,0-.093-1.538.353.353,0,0,0-.093-.186V388.9h0v-.047l.047-.093c.047-.047.047-.093.093-.14a2.642,2.642,0,0,1,.373-.606,4.88,4.88,0,0,1,.373-.513c.14-.14.233-.28.373-.419.14-.093.233-.186.373-.186a.674.674,0,0,1,.326.093c.093.047.093.093.14.14v0a.353.353,0,0,0-.093-.186.423.423,0,0,0-.326-.14.9.9,0,0,0-.466.14c-.14.093-.28.233-.466.373a4.947,4.947,0,0,0-.419.513,6.808,6.808,0,0,0-.419.606c-.047.047-.047.093-.093.186l-.047.093-.047.14-.047.093c0,.047.047.047.047.093l.047.14c.047.047.047.093.047.186a3.583,3.583,0,0,1,.14,1.4,3.93,3.93,0,0,1-.326,1.119,5.414,5.414,0,0,1-.419.653.348.348,0,0,1-.14.14A.361.361,0,0,0,289.7,392.626Z" transform="translate(-288.535 -383.836)" fill="#cd4a57"/>
      </g>
    </g>
    <g id="Group_102" data-name="Group 102" transform="translate(9.322 17.152)" clip-path="url(#clip-path-2)">
      <path id="Path_194" data-name="Path 194" d="M267.133,420.828c-1.864.466-3.868,4.1-5.873,4.1-1.585,0-3.169-3.542-4.661-3.868a1.477,1.477,0,0,0,.513-.653c.186-.513.466-8.809.466-8.809l8.716.093s-.186,8.11.513,8.669C266.761,420.409,266.947,420.6,267.133,420.828Z" transform="translate(-146.325 -368.814)" fill="#fc9e80"/>
    </g>
    <g id="Group_103" data-name="Group 103" transform="translate(9.322 17.152)" clip-path="url(#clip-path-2)">
      <path id="Path_195" data-name="Path 195" d="M264.879,418.412a10.768,10.768,0,0,1-6.479-1.025c.14-2.563.093-5.686.093-5.686l8.716.093a50.881,50.881,0,0,0,.047,5.36A4.562,4.562,0,0,1,264.879,418.412Z" transform="translate(-147.287 -368.867)" fill="#fc9e80"/>
    </g>
    <g id="Group_104" data-name="Group 104" transform="translate(9.322 17.152)" clip-path="url(#clip-path-2)">
      <path id="Path_196" data-name="Path 196" d="M265.779,368.678s-1.864,9.415-3.962,11.745c-.093.093-.14.186-.233.233-.093.093-.186.14-.28.233h0c-.093.047-.14.14-.233.186-.047.047-.14.093-.186.14s-.14.093-.186.14a2.511,2.511,0,0,1-.606.326,1.168,1.168,0,0,0-.326.186h-.047c-.093.047-.233.093-.326.14l-.7.28a11.328,11.328,0,0,1-7.644,0l-.7-.28c-.093-.047-.233-.093-.326-.14h-.047a1.169,1.169,0,0,1-.326-.186c-.093-.047-.233-.14-.326-.186h0c-.093-.047-.233-.14-.326-.186a1.971,1.971,0,0,1-.326-.233c-.093-.047-.186-.14-.28-.186-.093-.093-.186-.14-.28-.233l-.233-.233a2.588,2.588,0,0,1-.28-.373,4.1,4.1,0,0,1-.28-.466c-.047-.093-.14-.233-.186-.326-.047-.047-.047-.14-.093-.186-.14-.233-.233-.513-.373-.792-.047-.093-.047-.14-.093-.233a61.564,61.564,0,0,1-2.377-9.415c-.047-.186-.14-.373-.186-.606-.047-.186-.093-.419-.14-.653,0-.093-.047-.233-.047-.326,0-.14-.047-.233-.047-.373-.047-.233-.047-.466-.093-.7v-.14h0a.793.793,0,0,0-.047-.326v-.326a40.34,40.34,0,0,1,.047-4.8s0-.28.047-.7v-.419a.591.591,0,0,1,.047-.28c0-.14.047-.28.047-.419.047-.28.093-.559.14-.886,0-.093.047-.186.047-.326.093-.419.186-.839.326-1.3.047-.093.047-.186.093-.28.14-.373.28-.7.419-1.072l.14-.28a1.168,1.168,0,0,1,.186-.326l.14-.28c0-.047.047-.047.047-.093h0a4.3,4.3,0,0,1,1.025-1.212,5.694,5.694,0,0,1,4.381-.979,37.522,37.522,0,0,0,7.923,0,5.649,5.649,0,0,1,4.381.979,8.708,8.708,0,0,1,2.377,4.8,14.913,14.913,0,0,1,.373,2.983,12.1,12.1,0,0,1,.14,1.352A15.619,15.619,0,0,1,265.779,368.678Z" transform="translate(-139.378 -336.705)" fill="#fc9e80"/>
    </g>
    <g id="Group_105" data-name="Group 105" transform="translate(9.322 17.152)" clip-path="url(#clip-path-2)">
      <path id="Path_197" data-name="Path 197" d="M265.779,371.261s-1.864,9.415-3.962,11.745c-.093.093-.14.186-.233.233-.093.093-.186.14-.28.233h0c-.093.047-.14.14-.233.186-.047.047-.14.093-.186.14s-.14.093-.186.14a2.512,2.512,0,0,1-.606.326,1.168,1.168,0,0,0-.326.186h-.047c-.093.047-.233.093-.326.14l-.7.28a11.328,11.328,0,0,1-7.644,0l-.7-.28c-.093-.047-.233-.093-.326-.14h-.047a1.169,1.169,0,0,1-.326-.186c-.093-.047-.233-.14-.326-.186h0c-.093-.047-.233-.14-.326-.186a1.973,1.973,0,0,1-.326-.233c-.093-.047-.186-.14-.28-.186-.093-.093-.186-.14-.28-.233l-.233-.233a2.589,2.589,0,0,1-.28-.373,4.1,4.1,0,0,1-.28-.466c-.047-.093-.14-.233-.186-.326-.047-.047-.047-.14-.093-.186-.14-.233-.233-.513-.373-.792-.047-.093-.047-.14-.093-.233a61.563,61.563,0,0,1-2.377-9.415c-.047-.186-.14-.373-.186-.606-.047-.186-.093-.419-.14-.653,0-.093-.047-.233-.047-.326,0-.14-.047-.233-.047-.373-.047-.233-.047-.466-.093-.7v-.14a.793.793,0,0,0-.047-.326v-.326a40.341,40.341,0,0,1,.047-4.8s0-.28.047-.7v-.419a.591.591,0,0,1,.047-.28c0-.14.047-.28.047-.419.047-.28.093-.559.14-.886,0-.093.047-.186.047-.326.093-.419.186-.839.326-1.305.047-.093.047-.186.093-.28.14-.373.28-.7.419-1.072l.14-.28a1.168,1.168,0,0,1,.186-.326l.14-.28c0-.047.047-.047.047-.093-1.631,9.182-1.818,19.016,2.843,26.147,2.983,2.983,10.673,4.008,13.33-.466,3.589-6.059,3.915-11.838,4.474-17.711A16.131,16.131,0,0,1,265.779,371.261Z" transform="translate(-139.378 -339.288)" fill="#fc9e80"/>
    </g>
    <g id="Group_106" data-name="Group 106" transform="translate(9.322 17.152)" clip-path="url(#clip-path-2)">
      <path id="Path_198" data-name="Path 198" d="M264.391,350.256c-.093.746-.233,1.818-.373,2.936-.233,1.911-.513,3.868-.513,3.868l-1.585,1.491-1.072-9.042s-1.258-1.818-2-2.983a4.7,4.7,0,0,1-1.445,1.258,12.075,12.075,0,0,1-3.4,1.072l.7-1.538a10.118,10.118,0,0,1-8.669,2.284c.466-.419.979-.839,1.445-1.3a10.46,10.46,0,0,1-6.059-1.072l-1.258,11.559-2.33-1.491s-.28-1.864-.559-4.055c-.28-2.47-.513-5.313-.233-6.385a6.127,6.127,0,0,1,1.025-2.144,10.38,10.38,0,0,1-1.958-3.123c3.356-.186,6.2-2.517,9.415-3.5a12.334,12.334,0,0,1,6.758,0,5.63,5.63,0,0,0-1.258-1.491,12.485,12.485,0,0,1,3.915.606,6.718,6.718,0,0,1,2.89,2.657,4.856,4.856,0,0,0,1.864-3.263s3.03,3.263,1.678,5.5C261.408,342.1,264.624,348.205,264.391,350.256Z" transform="translate(-135.38 -328.77)" fill="#1e1e1e"/>
    </g>
    <g id="Group_107" data-name="Group 107" transform="translate(9.322 17.152)" clip-path="url(#clip-path-2)">
      <path id="Path_199" data-name="Path 199" d="M264.5,350.149c-.093.746-.233,1.818-.373,2.936a6.7,6.7,0,0,1-1.678-4.474,18.659,18.659,0,0,1-2.517-2.89A3.783,3.783,0,0,1,259,343.9a7.035,7.035,0,0,1-3.076,2.517,5.049,5.049,0,0,0,.047-2.051,8.707,8.707,0,0,1-6.572,2.191c.186-.466.373-.932.559-1.445A22.857,22.857,0,0,1,239.19,346a6.579,6.579,0,0,1-.093,4.894,6.279,6.279,0,0,1-1.631,2.191c-.28-2.47-.513-5.313-.233-6.385a6.128,6.128,0,0,1,1.025-2.144,10.759,10.759,0,0,1-1.911-3.029c0-.047-.047-.093-.047-.14,3.356-.186,6.2-2.517,9.415-3.5a12.334,12.334,0,0,1,6.758,0,5.63,5.63,0,0,0-1.258-1.491,12.485,12.485,0,0,1,3.915.606,6.718,6.718,0,0,1,2.89,2.657,4.856,4.856,0,0,0,1.864-3.263s3.03,3.263,1.678,5.5c0,0,.652,1.258,1.352,2.8C263.706,346.654,264.638,349.031,264.5,350.149Z" transform="translate(-135.487 -328.663)" fill="#141414"/>
    </g>
    <g id="Group_108" data-name="Group 108" transform="translate(9.322 17.152)" clip-path="url(#clip-path-2)">
      <path id="Path_200" data-name="Path 200" d="M262.867,344.843a10.666,10.666,0,0,1-4.474-3.5,5.7,5.7,0,0,1-2.284,2.051,2.894,2.894,0,0,0-.326-2.237,6.588,6.588,0,0,1-5.5,2.657,3.987,3.987,0,0,0,.652-2.144,13.505,13.505,0,0,1-7.877,2.144,13.344,13.344,0,0,1-6.712-2.191c0-.047-.047-.093-.047-.14,3.356-.186,6.2-2.517,9.415-3.5a12.334,12.334,0,0,1,6.758,0,5.63,5.63,0,0,0-1.258-1.491,12.487,12.487,0,0,1,3.915.606,6.718,6.718,0,0,1,2.89,2.657,4.856,4.856,0,0,0,1.864-3.263s3.03,3.263,1.678,5.5C261.515,342.046,262.167,343.258,262.867,344.843Z" transform="translate(-135.487 -328.716)"/>
    </g>
    <g id="Group_109" data-name="Group 109" transform="translate(9.322 17.152)" clip-path="url(#clip-path-2)">
      <path id="Path_201" data-name="Path 201" d="M253.6,378.678c0,.932.513,1.631,1.072,1.631s1.025-.746.979-1.678c0-.932-.513-1.631-1.072-1.631S253.55,377.792,253.6,378.678Z" transform="translate(-144.72 -350.34)" fill="#252727"/>
    </g>
    <g id="Group_110" data-name="Group 110" transform="translate(9.322 17.152)" clip-path="url(#clip-path-2)">
      <path id="Path_202" data-name="Path 202" d="M279.1,378.631c0,.886-.466,1.585-1.025,1.585s-.979-.746-.979-1.631.466-1.585,1.025-1.585S279.1,377.746,279.1,378.631Z" transform="translate(-157.271 -350.34)" fill="#252727"/>
    </g>
    <g id="Group_111" data-name="Group 111" transform="translate(9.322 17.152)" clip-path="url(#clip-path-2)">
      <path id="Path_203" data-name="Path 203" d="M267.646,391.3a3.874,3.874,0,0,1-4.148-.7,2.209,2.209,0,0,0,1.724,2.237A2.277,2.277,0,0,0,267.646,391.3Z" transform="translate(-150.007 -357.602)" fill="#fd7d6f"/>
    </g>
    <g id="Group_112" data-name="Group 112" transform="translate(9.322 17.152)" clip-path="url(#clip-path-2)">
      <path id="Path_204" data-name="Path 204" d="M248.187,425.5s-2.424,1.771-4.987,3.4l7.084,9.042,4.987-6.665Z" transform="translate(-139.171 -376.235)" fill="#efeff0"/>
    </g>
    <g id="Group_123" data-name="Group 123" transform="translate(9.322 17.152)" clip-path="url(#clip-path-2)">
      <g id="Group_122" data-name="Group 122" transform="translate(120.7 109.016)">
        <g id="Group_121" data-name="Group 121" transform="translate(0 13.419)">
          <g id="Group_120" data-name="Group 120">
            <g id="Group_116" data-name="Group 116">
              <g id="Group_115" data-name="Group 115">
                <g id="Group_114" data-name="Group 114">
                  <g id="Group_113" data-name="Group 113">
                    <path id="Path_205" data-name="Path 205" d="M278.984,586.41c.28,1.072,7.5-1.678,7.5-1.678l1.445,1.585-2.89,1.445-2.8,3.822s.466.792,1.072,1.724a.974.974,0,0,0,.186.28h0c0,.047.047.047.047.093a1.417,1.417,0,0,0,.233.326c.326.466.653.886.979,1.3.047.047.093.093.093.14a6.1,6.1,0,0,0,.606.559.806.806,0,0,0,.559.28l2.7-2.47s5.034.746,5.733.513a10.9,10.9,0,0,0,2-2.424c.326-.42.606-.886.932-1.352l.047-.047a2.825,2.825,0,0,1,.326-.466l-.932-1.212-.233-.326-.093-.14-.093-.14-3.076-4.148c-.093-.047-.233-.093-.326-.14-.419-.14-.932-.326-1.445-.466-.326-.093-.7-.233-1.072-.326a14.4,14.4,0,0,0-4.055-.653,2.729,2.729,0,0,0-1.3.233C282.572,583.753,278.7,585.291,278.984,586.41Z" transform="translate(-278.969 -582.49)" fill="#fc9e80"/>
                  </g>
                </g>
              </g>
            </g>
            <g id="Group_118" data-name="Group 118" transform="translate(4.396 7.648)">
              <g id="Group_117" data-name="Group 117">
                <path id="Path_206" data-name="Path 206" d="M288.4,602.116c.093.14.14.233.233.373a.163.163,0,0,0,.047-.093c.373-.419.839-.979,1.4-1.585a12.725,12.725,0,0,1,1.491-1.4c.093-.093.186-.14.28-.233a1.015,1.015,0,0,0,.233-.14,2.4,2.4,0,0,1,.233-.14,1.307,1.307,0,0,0-.28.047c-.093,0-.186.047-.326.047a3.209,3.209,0,0,1-.373.14,4.823,4.823,0,0,0-1.911,1.258A5.247,5.247,0,0,0,288.4,602.116Z" transform="translate(-288.4 -598.9)" fill="#cd4a57"/>
              </g>
            </g>
            <g id="Group_119" data-name="Group 119" transform="translate(5.84 9)">
              <path id="Path_207" data-name="Path 207" d="M291.5,605.622c.047.047.093.093.093.14.093-.14.233-.28.373-.466.373-.419.839-.979,1.4-1.585a12.722,12.722,0,0,1,1.491-1.4c.093-.093.233-.14.28-.233a1.021,1.021,0,0,0,.233-.14,2.424,2.424,0,0,1,.233-.14,1.3,1.3,0,0,0-.28.047c-.093,0-.186.047-.326.047a3.233,3.233,0,0,1-.373.14,4.824,4.824,0,0,0-1.911,1.258,5.457,5.457,0,0,0-1.119,1.864A1.657,1.657,0,0,0,291.5,605.622Z" transform="translate(-291.5 -601.8)" fill="#cd4a57"/>
            </g>
          </g>
        </g>
        <path id="Path_208" data-name="Path 208" d="M322.57,557.2c-3.915,7.318-8.716,17.478-8.716,17.478l-4.754-6.059,6.432-14.915Z" transform="translate(-295.057 -553.7)" fill="#fc9e80"/>
      </g>
    </g>
    <g id="Group_124" data-name="Group 124" transform="translate(9.322 17.152)" clip-path="url(#clip-path-2)">
      <path id="Path_209" data-name="Path 209" d="M308.8,574.987,310.944,570s8.483,5.5,8.389,5.826-3.309,5.546-3.309,5.546Z" transform="translate(-174.196 -453.387)" fill="#efeff0"/>
    </g>
    <g id="Group_125" data-name="Group 125" transform="translate(9.322 17.152)" clip-path="url(#clip-path-2)">
      <path id="Path_210" data-name="Path 210" d="M318.932,509.8l-5.267,3.4,1.445,4.055s-4.661,21.02-5.127,21.207c-.466.14,10.207,8.389,10.207,8.389s9.508-23.3,8.2-29.549C327.461,514.414,318.932,509.8,318.932,509.8Z" transform="translate(-174.82 -421.245)" fill="#36597f"/>
    </g>
    <g id="Group_126" data-name="Group 126" transform="translate(9.322 17.152)" clip-path="url(#clip-path-2)">
      <path id="Path_211" data-name="Path 211" d="M268.248,461.67l-3.5-17.2,1.911-2.33-3.123-4.195V437.9h-.047v.047l-3.123,4.195,1.864,2.33L258.6,462.509l4.428,4.381Z" transform="translate(-147.393 -382.856)" fill="#404041"/>
    </g>
    <g id="Group_127" data-name="Group 127" transform="translate(9.322 17.152)" clip-path="url(#clip-path-2)">
      <path id="Path_212" data-name="Path 212" d="M269.2,431.6l6.618-5.5a18.024,18.024,0,0,0,4.381,3.076l-6.479,9Z" transform="translate(-153.053 -376.556)" fill="#efeff0"/>
    </g>
    <g id="Group_128" data-name="Group 128" transform="translate(9.322 17.152)" clip-path="url(#clip-path-2)">
      <path id="Path_213" data-name="Path 213" d="M266.078,433.226l-1.818-.326S261,449.539,252.188,463.8c-8.856-14.262-12.071-30.9-12.071-30.9l-1.818.326s-.047,14.262.652,16.033a5.894,5.894,0,0,0,2.144,2.424,6.888,6.888,0,0,0-.792,3.216c0,1.771,11.7,9.182,11.7,9.182l.186.093.186-.093s11.745-7.411,11.7-9.182a6.649,6.649,0,0,0-.792-3.216,5.894,5.894,0,0,0,2.144-2.424C266.124,447.488,266.078,433.226,266.078,433.226Z" transform="translate(-136.554 -380.186)" fill="#588ba8"/>
    </g>
    <g id="Group_129" data-name="Group 129" transform="translate(9.322 17.152)" clip-path="url(#clip-path-2)">
      <path id="Path_214" data-name="Path 214" d="M217.815,554.484s3.123,6.991,3.309,7.5c.186.466-2.144,1.445-2.1,1.072s.886-.792.932-1.212c.093-.466-2.7-7.737-2.144-7.364" transform="translate(-125.578 -445.095)" fill="#274763"/>
    </g>
    <g id="Group_130" data-name="Group 130" transform="translate(9.322 17.152)" clip-path="url(#clip-path-2)">
      <path id="Path_215" data-name="Path 215" d="M310.431,557.681s-2.7,5.733-2.843,6.245c-.186.466,2.144,1.445,2.1,1.072s-.886-.792-.932-1.212c-.093-.466,2.237-6.479,1.678-6.106" transform="translate(-173.543 -446.801)" fill="#274763"/>
    </g>
    <g id="Group_131" data-name="Group 131" transform="translate(9.322 17.152)" clip-path="url(#clip-path-2)">
      <path id="Path_216" data-name="Path 216" d="M238,380.593l.652,8.809s-.466,1.3-2.191.606-2.7-.746-2.843-1.911c-.14-1.119-.373-4.987-.419-5.733-.047-.792,1.119-1.212,2.051-1.771C236.135,379.987,237.906,378.962,238,380.593Z" transform="translate(-133.83 -351.789)" fill="#404041"/>
    </g>
    <g id="Group_132" data-name="Group 132" transform="translate(9.322 17.152)" clip-path="url(#clip-path-2)">
      <path id="Path_217" data-name="Path 217" d="M291.653,380.193,291,389s.466,1.305,2.191.606,2.7-.746,2.843-1.911c.14-1.119.373-4.987.419-5.733.047-.792-1.119-1.212-2.051-1.771C293.517,379.587,291.792,378.562,291.653,380.193Z" transform="translate(-164.692 -351.576)" fill="#404041"/>
    </g>
    <g id="Group_134" data-name="Group 134" transform="translate(9.322 17.152)" clip-path="url(#clip-path-2)">
      <g id="Group_133" data-name="Group 133" transform="translate(103.377 35.422)">
        <path id="Path_218" data-name="Path 218" d="M249.956,404.469a14.107,14.107,0,0,1-8.156-8.343l.932-.326c0,.047,2,5.779,7.6,7.737Z" transform="translate(-241.8 -395.8)" fill="#404041"/>
      </g>
      <path id="Path_219" data-name="Path 219" d="M263.2,413.276h-3.263a1.552,1.552,0,0,1-1.538-1.538h0a1.552,1.552,0,0,1,1.538-1.538H263.2a1.552,1.552,0,0,1,1.538,1.538h0A1.552,1.552,0,0,1,263.2,413.276Z" transform="translate(-147.287 -368.066)" fill="#404041"/>
    </g>
    <g id="Group_135" data-name="Group 135" transform="translate(9.322 17.152)" clip-path="url(#clip-path-2)">
      <path id="Path_220" data-name="Path 220" d="M289.7,348.439a13,13,0,0,1,2.33,7.457,75.345,75.345,0,0,1-.513,7.97l1.491.792s.7-7.317,0-11.093a12.328,12.328,0,0,0-2.843-5.966Z" transform="translate(-163.998 -334.643)" fill="#404041"/>
    </g>
    <g id="Group_136" data-name="Group 136" transform="translate(9.322 17.152)" clip-path="url(#clip-path-2)">
      <path id="Path_221" data-name="Path 221" d="M239.769,354.692c-.093-.093-.14-.186-.233-.233a1.606,1.606,0,0,1-.559-.559h0a12.223,12.223,0,0,0-.932,3.03c-.7,3.775,0,11.093,0,11.093l1.491-.792a62,62,0,0,1-.513-7.97A11.861,11.861,0,0,1,239.769,354.692Z" transform="translate(-136.252 -338.007)" fill="#404041"/>
    </g>
    <g id="XMLID_4033_" transform="translate(9.322 17.152)" clip-path="url(#clip-path-2)">
      <path id="Path_222" data-name="Path 222" d="M255.793,373.073a5.294,5.294,0,0,0-1.911-.047,6.423,6.423,0,0,0-1.818.606c-.093.047-.186,0-.186-.047-.047-.047,0-.14.047-.186a3.564,3.564,0,0,1,1.911-.839,3.808,3.808,0,0,1,2.051.28c.093.047.093.093.047.186A.469.469,0,0,1,255.793,373.073Z" transform="translate(-143.794 -347.951)" fill="#3c3c3b"/>
    </g>
    <g id="XMLID_4023_" transform="translate(9.322 17.152)" clip-path="url(#clip-path-2)">
      <path id="Path_223" data-name="Path 223" d="M275.46,371.806a3.389,3.389,0,0,1,2-.606,3.947,3.947,0,0,1,2.051.513c.093.047.093.14.047.233-.047.047-.093.093-.186.047a5.183,5.183,0,0,0-1.864-.28,5.115,5.115,0,0,0-1.864.373c-.093.047-.14,0-.186-.093A.142.142,0,0,1,275.46,371.806Z" transform="translate(-156.377 -347.244)" fill="#3c3c3b"/>
    </g>
    <g id="Group_137" data-name="Group 137" transform="translate(9.322 17.152)" clip-path="url(#clip-path-2)">
      <path id="Path_224" data-name="Path 224" d="M267.761,402.559a4.984,4.984,0,0,1-2.47.326,4.278,4.278,0,0,1-2.33-.932c-.047-.047-.047-.093,0-.093.047-.047.047-.047.093,0a5.159,5.159,0,0,0,2.284.792,5.394,5.394,0,0,0,2.424-.233c.047,0,.093,0,.093.047Z" transform="translate(-149.703 -363.595)" fill="#3c3c3b"/>
    </g>
  </g>
</svg>
