<svg xmlns="http://www.w3.org/2000/svg" width="13.333" height="17.381" viewBox="0 0 13.333 17.381">
  <g id="padlock-outlined-svgrepo-com" transform="translate(-4 -2)">
    <path id="Path_4" data-name="Path 4" d="M7.576,9.236H5.81a.808.808,0,0,0-.81.808c0,1.334,0,4.029,0,5.843,0,2.034,3.146,2.494,5.667,2.494s5.667-.46,5.667-2.494V10.044a.808.808,0,0,0-.81-.808H13.758m-6.182,0s0-2.079,0-3.326A2.981,2.981,0,0,1,10.667,3a2.981,2.981,0,0,1,3.091,2.91V9.236m-6.182,0h6.182" transform="translate(0)" fill="none" stroke="#0d206e" stroke-linecap="round" stroke-linejoin="round" stroke-width="2"/>
    <path id="Path_5" data-name="Path 5" d="M12.524,16.119v1.119a.81.81,0,1,1-1.619,0V16.119a1.214,1.214,0,1,1,1.619,0Z" transform="translate(-1.048 -2.095)" fill="#0d206e" fill-rule="evenodd"/>
  </g>
</svg>
