<svg xmlns="http://www.w3.org/2000/svg" width="11" height="10.984" viewBox="0 0 11 10.984">
  <g id="sign-in-svgrepo-com" transform="translate(-3.25 -3.278)">
    <path id="Path_1" data-name="Path 1" d="M16.607,14.26H14.721a.471.471,0,1,1,0-.943h1.886a.729.729,0,0,0,.786-.629V4.851a.729.729,0,0,0-.786-.629H14.721a.471.471,0,0,1,0-.943h1.886a1.66,1.66,0,0,1,1.729,1.59v7.8a1.66,1.66,0,0,1-1.729,1.59Z" transform="translate(-4.086)" fill="#fff"/>
    <path id="Path_2" data-name="Path 2" d="M10.722,13.228a.466.466,0,0,1-.333-.138.471.471,0,0,1,0-.666l2.181-2.181L10.389,8.061a.471.471,0,0,1,.666-.666L13.569,9.91a.471.471,0,0,1,0,.666L11.055,13.09a.466.466,0,0,1-.333.138Z" transform="translate(-2.6 -1.482)" fill="#fff"/>
    <path id="Path_3" data-name="Path 3" d="M10.636,12.193H3.721a.471.471,0,0,1,0-.943h6.914a.471.471,0,0,1,0,.943Z" transform="translate(0 -2.961)" fill="#fff"/>
  </g>
</svg>
