<svg xmlns="http://www.w3.org/2000/svg" width="52.041" height="78.667" viewBox="0 0 52.041 78.667">
  <g id="Untitled-3" transform="translate(-105.237 -68.339)">
    <path id="Path_129" data-name="Path 129" d="M111.076,312.2s-2.539,3.8-3.982,15.746c0,0-3.069,18.248-1.315,18.321l50.689.055s3.69-20.806-4.676-34.122l-33.939,1.735Z" transform="translate(0 -199.316)" fill="#283c63"/>
    <path id="Path_130" data-name="Path 130" d="M177.866,94.591s-11.837-4.768-16.038,2.959.822,20.86-.749,24.989-3.379,4.95-3.379,4.95,4.274,11.928,15.782,11.27,20.4-6.083,16.367-12.165,1.48-21.061.585-23.856c-.877-2.813-4.256-11.782-12.567-8.147" transform="translate(-42.88 -20.268)" fill="#111"/>
    <path id="Path_131" data-name="Path 131" d="M210.42,250.6l-4.567.329-4.567-.329s1.48,8.129-4.987,9.316c0,0,5.772,10.7,9.553,10.558,3.781.146,9.553-10.558,9.553-10.558-6.485-1.187-4.987-9.316-4.987-9.316" transform="translate(-74.429 -148.968)" fill="#fcc6a9"/>
    <path id="Path_132" data-name="Path 132" d="M164.144,318.056c-.877-5.407-2.685-15.508-3.982-15.746-1.79-.329-11.91-2.21-11.91-2.21l-.073.11a10.109,10.109,0,0,1-16.184.658l-.6-.767s-10.12,1.881-11.91,2.21c-1.315.237-3.105,10.321-3.982,15.746Z" transform="translate(-8.388 -189.426)" fill="#283c63"/>
    <path id="Path_133" data-name="Path 133" d="M193.133,114.608s-12.8-.913-12.64,5.681c.164,6.576,2.557,13.1,3.708,16.714,1.151,3.635,7.361,7.489,8.951,7.489s7.8-3.872,8.951-7.489c1.151-3.635,3.544-10.138,3.708-16.714.128-6.594-12.677-5.681-12.677-5.681" transform="translate(-61.508 -37.782)" fill="#fcc6a9"/>
    <path id="Path_134" data-name="Path 134" d="M207.538,187.274a4.212,4.212,0,0,0-3.087-1.607,4.659,4.659,0,0,0-3.251,1s1.461,1.991,3.178,1.991a3.851,3.851,0,0,0,3.16-1.388" transform="translate(-78.434 -95.889)" fill="#fff"/>
    <path id="Path_135" data-name="Path 135" d="M213.969,186.334a1.534,1.534,0,1,1-1.534-1.534,1.532,1.532,0,0,1,1.534,1.534" transform="translate(-86.362 -95.188)" fill="#4b2b11"/>
    <path id="Path_136" data-name="Path 136" d="M207.457,185.176a5.277,5.277,0,0,0-3.178-1.206,10.981,10.981,0,0,0-3.178.621s.621-1.553,3.178-1.5a3.257,3.257,0,0,1,3.178,2.082" transform="translate(-78.352 -93.792)" fill="#33283b"/>
    <path id="Path_137" data-name="Path 137" d="M205.493,192.98c-1.79.347-2.886-.493-4.293-1.681h0s1.461,1.991,3.178,1.991a4.112,4.112,0,0,0,2.941-1.151,11.027,11.027,0,0,1-1.827.84" transform="translate(-78.434 -100.5)" fill="#33283b"/>
    <path id="Path_138" data-name="Path 138" d="M263.5,187.274a4.212,4.212,0,0,1,3.087-1.607,4.658,4.658,0,0,1,3.251,1s-1.461,1.991-3.178,1.991a3.851,3.851,0,0,1-3.16-1.388" transform="translate(-129.354 -95.889)" fill="#fff"/>
    <path id="Path_139" data-name="Path 139" d="M271.7,186.334a1.534,1.534,0,1,0,1.534-1.534,1.532,1.532,0,0,0-1.534,1.534" transform="translate(-136.056 -95.188)" fill="#4b2b11"/>
    <path id="Path_140" data-name="Path 140" d="M263.5,185.176a5.277,5.277,0,0,1,3.178-1.206,10.981,10.981,0,0,1,3.178.621s-.621-1.553-3.178-1.5a3.231,3.231,0,0,0-3.178,2.082" transform="translate(-129.354 -93.792)" fill="#33283b"/>
    <path id="Path_141" data-name="Path 141" d="M266.427,192.98c1.79.347,2.886-.493,4.293-1.681h0s-1.461,1.991-3.178,1.991a4.111,4.111,0,0,1-2.941-1.151,11.757,11.757,0,0,0,1.827.84" transform="translate(-130.253 -100.5)" fill="#33283b"/>
    <path id="Path_142" data-name="Path 142" d="M239.495,198.06a1.686,1.686,0,0,1-1.516-.585,1.11,1.11,0,0,1,.11-1.169,16.994,16.994,0,0,0,1.48-3.982.348.348,0,0,1,.676.164,18.2,18.2,0,0,1-1.553,4.165c-.128.2-.164.365-.11.457.073.146.457.256,1.1.237a.348.348,0,1,1,.037.694.965.965,0,0,1-.219.018" transform="translate(-108.399 -101.123)" fill="#d5774e"/>
    <path id="Path_143" data-name="Path 143" d="M199.083,163.712c-.767.055-2.283,2.466-2.283,2.466.329.128,2.119-.859,2.795-.767s3.16.438,3.635.53,1-1.206,1.059-1.845c.055-.658-4.439-.457-5.206-.384" transform="translate(-74.838 -77.881)" fill="#542e22"/>
    <path id="Path_144" data-name="Path 144" d="M265.612,163.739c-.785-.055-5.389-.274-5.316.365s.585,1.936,1.078,1.845,3.014-.438,3.708-.53,2.521.9,2.85.767c.018.018-1.534-2.393-2.32-2.448" transform="translate(-126.735 -77.908)" fill="#542e22"/>
    <path id="Path_145" data-name="Path 145" d="M228.9,235.1a10.47,10.47,0,0,0,7.6,0s-1.845,3.471-3.726,3.471S228.9,235.1,228.9,235.1" transform="translate(-101.074 -136.3)" fill="#fff"/>
    <path id="Path_146" data-name="Path 146" d="M232.872,237.7c-1.48,0-3.032-1.662-3.854-2.685L229,235s1.918,3.471,3.872,3.471c1.662,0,3.361-2.649,3.726-3.471-.8,1.041-2.3,2.7-3.726,2.7" transform="translate(-101.156 -136.218)" fill="#ee4643"/>
    <path id="Path_147" data-name="Path 147" d="M233.951,235.311c-.53,0-.84-.256-1.352,0-.511-.256-.822,0-1.352,0S228.8,235,228.8,235a7.345,7.345,0,0,0,3.8,1.224A7.6,7.6,0,0,0,236.4,235a22.684,22.684,0,0,1-2.448.311" transform="translate(-100.992 -136.218)" fill="#ee4643"/>
    <path id="Path_148" data-name="Path 148" d="M277.9,83.044s-2.247,6.612-.237,8.9,5.7,4.256,4.8,11.691c-.913,7.453-4.092,17.353,3.471,19.837s10.375-8.9,5.1-10.485c0,0,.749,2.9-2.228,2.63-2.959-.274-2.63-5.7-.585-11.015,2.064-5.3,4.932-12.2-1.407-18.614-5.316-5.407-8.731-3.525-8.914-2.941" transform="translate(-140.246 -11.369)" fill="#212121"/>
    <path id="Path_149" data-name="Path 149" d="M157.363,72.077a16.069,16.069,0,0,0-17.134-2.21c-10.01,4.439-10.1,11.8-8.2,19.417,1.9,7.635,5.553,13.462,1.078,14.979-2.722.913-2.685-2.466-1.973-3.051,0,0-5.389.53-2.923,7.234,2.174,5.9,12.019,4.256,12.787-.986,1.607-10.887-6.375-20.349,1.151-23.125,7.544-2.758,12.038.329,15.216-12.257" transform="translate(-18.248)" fill="#212121"/>
    <path id="Path_150" data-name="Path 150" d="M127.419,339.171H167.7a2.918,2.918,0,0,1,2.85,2.3l.055-.694a2.96,2.96,0,0,0-1.352-2.722,2.863,2.863,0,0,0-1.553-.457H127.455a2.908,2.908,0,0,0-2.9,3.16l.055.694a2.853,2.853,0,0,1,2.813-2.283" transform="translate(-15.777 -220.076)" fill="#90a6c5"/>
    <path id="Path_151" data-name="Path 151" d="M170.421,349.378a3.542,3.542,0,0,0-.055-.877,2.937,2.937,0,0,0-2.85-2.3H127.239a2.918,2.918,0,0,0-2.85,2.3,2.769,2.769,0,0,0-.055.877l.4,4.8,1.425,16.732.037.329a2.925,2.925,0,0,0,2.85,2.667h36.606a4.483,4.483,0,0,0,.493-.037,2.931,2.931,0,0,0,2.429-2.63l.018-.256,1.79-20.9Zm-23.052,7.014a3.653,3.653,0,1,1-3.653,3.653,3.652,3.652,0,0,1,3.653-3.653" transform="translate(-15.597 -227.106)" fill="#d3e0ef"/>
    <path id="Path_152" data-name="Path 152" d="M161.307,385.023a41.942,41.942,0,0,1-26.907,3.854l.018.311a2.925,2.925,0,0,0,2.85,2.667h36.624a4.468,4.468,0,0,0,.493-.037,2.931,2.931,0,0,0,2.429-2.63l.018-.256L178.6,368.2a41.934,41.934,0,0,1-17.3,16.823" transform="translate(-23.836 -245.087)" fill="#adccf2"/>
    <path id="Path_153" data-name="Path 153" d="M235.152,398.276a4.676,4.676,0,1,1-4.676-4.676,4.674,4.674,0,0,1,4.676,4.676" transform="translate(-98.54 -265.847)" fill="#90a6c5"/>
    <path id="Path_154" data-name="Path 154" d="M249.573,409.567a1.012,1.012,0,0,0,.219-.767,1.107,1.107,0,0,0-.712.384.914.914,0,0,0-.237.749,1.015,1.015,0,0,0,.731-.365" transform="translate(-117.363 -278.271)" fill="#fff"/>
    <path id="Path_155" data-name="Path 155" d="M244.126,412.875a1.163,1.163,0,0,0-.9-.475c-.42,0-.6.2-.9.2-.311,0-.53-.2-.9-.2a1.249,1.249,0,0,0-.986.585,2.326,2.326,0,0,0,.274,2.356c.2.311.457.639.8.639.311,0,.384-.2.8-.2s.493.2.8.2c.347,0,.621-.384.822-.676a3.416,3.416,0,0,0,.311-.566,1.029,1.029,0,0,1-.146-1.863" transform="translate(-110.345 -281.213)" fill="#fff"/>
  </g>
</svg>
