<svg xmlns="http://www.w3.org/2000/svg" width="720" height="255" viewBox="0 0 720 255">
    <defs>
        <linearGradient id="linear-gradient" x1=".154" x2="-1.14" y1="1.174" y2="3.696" gradientUnits="objectBoundingBox">
            <stop offset="0" stop-color="#53d8ff"/>
            <stop offset="1" stop-color="#3840f7"/>
        </linearGradient>
        <clipPath id="clip-path">
            <path id="Path_17828-2" d="M323.412 139.74h-80.03a2.531 2.531 0 0 0-2.531 2.531v20.188a2.531 2.531 0 0 0 1.115 2.1l12.8 8.648a.854.854 0 0 0 1.292-.954l-2.562-8.447h69.915a2.531 2.531 0 0 0 2.531-2.531v-19a2.531 2.531 0 0 0-2.528-2.528z" class="cls-1" transform="translate(-240.851 -139.74)"/>
        </clipPath>
        <style>
            .cls-1{fill:#f8f8f8}.cls-3{fill:#f6f6f6}.cls-4{fill:#3f3d56}.cls-24{fill:#62aee9}.cls-7,.cls-8,.cls-9{fill-rule:evenodd}.cls-7{fill:#dedede}.cls-19,.cls-8{fill:#d2d2d2}.cls-12,.cls-9{fill:#2f2e41}.cls-11{fill:#58595b}.cls-13{fill:#f9bcc3}.cls-14{fill:#02b69b}.cls-17{fill:#0da28c}.cls-18{fill:#b2b2b2}.cls-22{fill:#fff}.cls-23{fill:#d0d2d3}.cls-27{fill:url(#linear-gradient)}
        </style>
    </defs>
    <g id="Header_image" transform="translate(0 -40)">
        <g id="Group_15229">
            <g id="Group_15231">
                <g id="Group_15206">
                    <path id="Image-2-720x225" fill="#f0f0f0" d="M0 0h720v255H0z" transform="translate(0 40)"/>
                </g>
                <g id="Group_15230" transform="translate(2168.896 1256.324)">
                    <g id="Group_20995" transform="translate(-1895 -1206.163)">
                        <g id="Group_20994">
                            <g id="Group_20983">
                                <g id="Group_20948">
                                    <g id="Group_20884" transform="rotate(27 -7.365 106.854)">
                                        <g id="Ellipse_132" transform="translate(6.161 22.59)">
                                            <g id="Group_20878">
                                                <circle id="Ellipse_138" cx="11.295" cy="11.295" r="11.295" class="cls-3"/>
                                            </g>
                                            <g id="Group_20879" transform="translate(0 .001)">
                                                <path id="Path_17835" d="M11.3 22.59a11.3 11.3 0 1 1 11.3-11.3 11.3 11.3 0 0 1-11.3 11.3zm0-21.563A10.269 10.269 0 1 0 21.563 11.3 10.269 10.269 0 0 0 11.3 1.028z" class="cls-3"/>
                                            </g>
                                        </g>
                                        <g id="Ellipse_133" transform="translate(16.428)">
                                            <g id="Group_20880" transform="translate(.001)">
                                                <circle id="Ellipse_139" cx="5.134" cy="5.134" r="5.134" class="cls-3"/>
                                            </g>
                                            <g id="Group_20881" transform="translate(0 .001)">
                                                <path id="Path_17836" d="M5.136 10.269a5.134 5.134 0 1 1 5.133-5.134 5.134 5.134 0 0 1-5.133 5.134zm0-9.241a4.107 4.107 0 1 0 4.107 4.106 4.107 4.107 0 0 0-4.107-4.106z" class="cls-3"/>
                                            </g>
                                        </g>
                                        <g id="Ellipse_134" transform="translate(0 10.269)">
                                            <g id="Group_20882">
                                                <circle id="Ellipse_140" cx="4.107" cy="4.107" r="4.107" class="cls-3"/>
                                            </g>
                                            <g id="Group_20883" transform="translate(.001 .003)">
                                                <path id="Path_17837" d="M4.105 8.213a4.107 4.107 0 1 1 4.108-4.107 4.107 4.107 0 0 1-4.108 4.107zm0-7.187a3.08 3.08 0 1 0 3.082 3.079 3.08 3.08 0 0 0-3.082-3.079z" class="cls-3"/>
                                            </g>
                                        </g>
                                    </g>
                                    <g id="Group_20978">
                                        <g id="Path_4557_1_">
                                            <path id="Path_9077_1_" d="M28.084 259.6c-27.656-31.617-54.6-64.91-63.4-102.233-2.976-12.649-3.623-26.3 4.226-37.681S-4.67 100.38 11.152 105c7.469 2.176 15.415 6.865 22.462 4.016 4.31-1.755 6.065-5.673 7.371-9.238 6.248-17.156 11.12-35.322 25.661-49.29 15.022-14.432 39.914-22.633 64.1-21.128s46.974 12.669 58.7 28.767c8.985 12.34 11.484 26.688 14.124 40.63.843 4.413 2.668 9.68 8.326 10.881 5.082 1.08 9.94-1.882 13.843-4.562 11.442-7.9 25.017-15.752 40.489-15.275 16.411.505 30.177 10.81 35.444 22.575s3.566 24.667.2 36.839c-1.628 5.9-2.541 13.688 4.6 16.341a23.023 23.023 0 0 0 7.385.955c8.817.2 18.546.87 24.667 5.685 6.08 4.773 6.655 12.144 5.979 18.757-2.847 27.629-22 52.241-51.37 68.861z" class="cls-3" transform="translate(37.378 -29.185)"/>
                                        </g>
                                        <g id="Group_9047_1_" transform="translate(24.977 227.99)">
                                            <g id="Path_4582_1_">
                                                <path id="Path_9102_1_" d="M2.668 192.97H342.29a1.4 1.4 0 0 1 0 2.807H2.668a1.378 1.378 0 0 1-1.348-1.4 1.355 1.355 0 0 1 1.32-1.4c0 .014.014.014.028 0" class="cls-3" transform="translate(-1.319 -192.97)"/>
                                            </g>
                                        </g>
                                        <ellipse id="Ellipse_1" cx="148.665" cy="10.723" class="cls-4" rx="148.665" ry="10.723" transform="translate(47.474 223.393)"/>
                                    </g>
                                </g>
                                <g id="Group_13735" transform="translate(284.087 180.122)">
                                    <g id="Group_13733">
                                        <g id="Group_13730" fill-rule="evenodd" transform="translate(8.815)">
                                            <path id="Path_10651" fill="#62aee9" d="M22.91 1.685c-4.616-4.7-8.051 1.268-7.573 7.26.456 5.682 5.354 25.18 4.444 33.38h1.873c4.593-10.51 7.172-34.625 1.256-40.64z" transform="translate(-15.293 .005)"/>
                                            <path id="Path_10652" fill="#88cedf" d="M23.876 44.215c4.467-16.575-1.187-39.5-1.2-39.572a.268.268 0 0 0-.518.127c.017.075 5.677 23.019 1.181 39.444z" transform="translate(-18.195 -1.876)"/>
                                        </g>
                                        <g id="Group_13731" transform="translate(0 11.406)">
                                            <path id="Path_10653" d="M5.041 20.434C.177 17.857-1.05 23.482.846 28.133c1.576 3.855 8.518 15.255 11.14 22.586h2.473c.213-10.13-3.672-27.243-9.418-30.285z" class="cls-7" transform="translate(.004 -19.785)"/>
                                            <path id="Path_10654" d="M15.322 52.329C13.714 38.63 4.6 23.749 4.567 23.692a.222.222 0 1 0-.38.231c.034.051 9.083 14.847 10.69 28.407z" class="cls-8" transform="translate(-1.759 -21.395)"/>
                                        </g>
                                        <g id="Group_13732" transform="translate(15.084 18.099)">
                                            <path id="Path_10655" d="M36.694 31.855c4.715-2.057 5.463 3.274 3.365 7.469-1.423 2.847-6.524 10.127-9.964 16.316H26.17c1.342-9.371 5.648-21.658 10.524-23.785z" class="cls-7" transform="translate(-26.17 -31.399)"/>
                                            <path id="Path_10656" d="M28.6 57.157a84.928 84.928 0 0 1 11.089-22.091.206.206 0 0 1 .335.242 84.85 84.85 0 0 0-11 21.849z" class="cls-8" transform="translate(-27.199 -32.917)"/>
                                        </g>
                                    </g>
                                    <g id="Group_13734" transform="translate(5.978 37.919)">
                                        <path id="Path_10657" d="M11.258 65.79h16.3a.888.888 0 0 1 .888.887V70.7a.888.888 0 0 1-.888.888h-16.3a.888.888 0 0 1-.888-.888v-4.023a.9.9 0 0 1 .888-.887z" class="cls-9" transform="translate(-10.37 -65.79)"/>
                                        <path id="Path_10658" d="M14.711 71.47h10.708l2.8 2.518-2.278 8.8H14.2l-2.288-8.8z" class="cls-9" transform="translate(-11.022 -68.196)"/>
                                        <path id="Path_10659" fill="#272631" fill-rule="evenodd" d="M28.214 75.84l-.473 1.809H12.383l-.473-1.809z" transform="translate(-11.022 -70.048)"/>
                                    </g>
                                </g>
                            </g>
                            <g id="Group_20991" transform="translate(85.771 100.111)">
                                <g id="Group_20863" transform="translate(59.059)">
                                    <path id="Path_18017" d="M366.251 239.241c.653 3.489-.756 6.956-3.147 7.746s-4.858-1.4-5.512-4.888.756-6.956 3.146-7.745 4.862 1.398 5.513 4.887z" class="cls-11" transform="translate(-293.539 -207.783)"/>
                                    <path id="Path_17794" d="M1090.206 1158.4s10.534 5.388 2.86 16.964c0 0 9.053 1.046 11.331-1.557a7.416 7.416 0 0 1-.743 1.694s8.771-1.15 11.914-4.474-6.658-47.544-30.021-38.5c0 0-20.771 1.895-14.877 25.308s-1.851 24.713-1.851 24.713a11.186 11.186 0 0 0 3.372.525s1.424-.834 1.581-1.725a5.483 5.483 0 0 1-.4 1.851s8.492-.612 12.136-4.468 6.711-15.638 4.698-20.331z" class="cls-12" transform="translate(-1005.465 -1131.302)"/>
                                    <path id="Path_17796" d="M1070.717 1278c3.145 2.428 5.135 11.191 10.2 12.637 19.006 5.425 29.208-17.144 32.545-28.162a16.556 16.556 0 0 0-6.414-2.334c-1.381-.235-2.839-.417-4.046-.54-2.076-1.765-4.948-8.7-5.125-19.246l-.918.2-15.373 3.375s.448 4.854.557 9.425c.081 3.577.2 4.433-.08 4.858-1.2.2-2.6 3.253-2.6 3.253a.057.057 0 0 1-.009.014 97.794 97.794 0 0 0-8.739 16.524z" class="cls-13" transform="translate(-1003.426 -1203.987)"/>
                                    <g id="Group_20859" transform="translate(0 54.089)">
                                        <path id="Path_17798" d="M1029.415 1359.037s9.038.332 18.852.366h3.506c7.993-.033 15.849-.313 19.19-1.176 3.266-.842 15.828-9.355 25.88-19.67.78 1.858 1.368 3.274 1.382 3.391a52.251 52.251 0 0 0 1.387 6.863 83.259 83.259 0 0 0 6.207 15.879l5.382-.01 42.025-.061s-7.939-12.226-5.807-43.549c.054-.793-7.317-26.065-7.317-26.065s-5.727-1-12.346-1.534c-.623.569-1.91 17.2-10.189 18.157-1.346.155-9.986 13.352-9.986 13.352l-2.616-13.479 3.095-17.883a94.168 94.168 0 0 0-9.452 2.9 10.428 10.428 0 0 0-5.266 4.681c-5.785 10.571-24.558 44.664-26.476 45.461a138.737 138.737 0 0 1-15.712 3.4c-9.574 1.748-19.852 3.409-19.852 3.409z" class="cls-14" transform="translate(-1029.415 -1293.469)"/>
                                        <path id="Path_17799" fill="#bed2fa" d="M1171.544 1507.036l3.009.008-.01-.013z" transform="translate(-1098.136 -1435.818)"/>
                                    </g>
                                    <path id="Path_17797" fill="#e5aeb5" d="M1120.194 1244.334s.452 4.85.557 9.425c8.632-.427 13.035-8.4 14.814-12.8z" transform="translate(-1042.023 -1204.386)"/>
                                    <path id="Path_17800" d="M1121.649 1195.456s20.437-.4 19.991-13.124 1.893-21.344-11.174-21.627-15.43 4.662-16.316 8.945 2.171 25.582 7.5 25.806z" class="cls-13" transform="translate(-1046.041 -1150.888)"/>
                                    <path id="Path_17805" d="M1106.882 1151.486s5.233 15.5 13.08 18.128 10.452-.484 10.452-.484a22.7 22.7 0 0 1-6.448-13.907s-12.68-10.075-17.084-3.737z" class="cls-12" transform="translate(-1032.433 -1143.355)"/>
                                    <path id="Path_17806" d="M1166.442 1158.869s-10.656-.6-13.84 2.436c-2.3 2.188-2.242 3.331-2.42 6.248 0 0-4.66-7.189.135-12.219 5.083-5.334 16.125 3.535 16.125 3.535z" class="cls-12" transform="translate(-1082.217 -1146.177)"/>
                                    <path id="Path_17807" d="M1138.834 1153.257s2.669 14.83 12.424 20.213c0 0-9.449-9.67-9.617-19.345s-2.807-.868-2.807-.868z" class="cls-12" transform="translate(-1063.931 -1143.486)"/>
                                    <path id="Path_17808" d="M1099.452 1171.021c-3.142 3.324-11.913 4.477-11.913 4.477a7.318 7.318 0 0 0 .742-1.7c-4.51 3.654-15.58 1-15.58 1 8.825-1.95 5.978-14.7 2.968-15.24a275.846 275.846 0 0 0-6.848-26.953c.392-.064.612-.084.612-.084 23.361-9.051 33.161 35.179 30.02 38.5z" class="cls-12" transform="translate(-989.348 -1131.302)"/>
                                    <path id="Path_17812" d="M1291.449 1467.528s-9.068-.5-9.949-.044a49.538 49.538 0 0 0-7.064 4.657 48.529 48.529 0 0 0-2.763 4.413s.865.232 1.255-.107 3.349-3.378 3.349-3.378l-3.039 4.463a2.633 2.633 0 0 0 1.468-.489c.417-.442 3.257-3.234 3.257-3.234l.968-.185a10.357 10.357 0 0 0-1.52 1.455 8.927 8.927 0 0 0-.89 1.435 7.322 7.322 0 0 0 1.139-.266c.27-.125 2.816-2.277 2.816-2.277l-1.35 1.78a3.665 3.665 0 0 0 1.21-.24 18.7 18.7 0 0 1 2.635-1.957 12.234 12.234 0 0 0 3.971-.656c1.088-.557 4.5-1.833 4.5-1.833z" class="cls-13" transform="translate(-1247.76 -1355.241)"/>
                                    <path id="Path_17813" d="M1106.793 1286.151s5.86 1.708 7.2 3.055c0 0-6.121 15.658-14.961 22.973l-2.362-1.675v3.808l-8.844 5.788s19.423-29.211 18.969-33.948z" class="cls-17" transform="translate(-1009.655 -1234.508)"/>
                                    <path id="Path_17815" d="M1170.758 1288.738s-2.7 21.312-.478 31.363c0 0-3.62-6.651-4.128-7.871l.609-3.654-2.334.811s2.06-16.991 3.923-19.968 2.551-3.274 2.551-3.274z" class="cls-17" transform="translate(-1092.109 -1234.51)"/>
                                    <path id="Path_17816" d="M1330.419 1472.144s11.308.417 22.358.364c2.741-4.252-.615-9.348-.615-9.348-9.574 1.748-19.852 3.409-19.852 3.409z" class="cls-13" transform="translate(-1330.419 -1352.487)"/>
                                    <path id="Path_17822" d="M1171.544 1457.965s21.511 1.879 33.4 1.349v-11.681c-7.79 2.151-33.391 6.793-33.391 6.793z" class="cls-13" transform="translate(-1128.527 -1342.137)"/>
                                    <path id="Path_17823" d="M1067.708 1295.31s12.3.285 16.11 4.393-3.778 27.353-3.778 27.353-22.931 28.085-34.4 30.065c0 0-5.013.685-7.354.722 0 0 2.295-6.68-1.973-10.873 0 0 4.911-1.375 5.115-1.984s26.28-49.676 26.28-49.676z" class="cls-14" transform="translate(-963.373 -1240.612)"/>
                                </g>
                                <g id="Group_20990" transform="translate(0 62.115)">
                                    <path id="Path_18009" d="M1877.318 588.613h-59.746a6.594 6.594 0 0 1-6.405-5.567l-7.792-44.27a6.716 6.716 0 0 1 6.406-8.023h59.746a6.593 6.593 0 0 1 6.405 5.567l7.792 44.27a6.716 6.716 0 0 1-6.406 8.023z" class="cls-18" transform="translate(-1802.825 -530.753)"/>
                                    <path id="Path_18010" d="M1882.345 584.912l-8.185-43.35a6.793 6.793 0 0 0-6.727-5.453h-62.49a6.9 6.9 0 0 0-1.566 5.781l8.3 45.2a6.938 6.938 0 0 0 6.824 5.684h57.115a6.712 6.712 0 0 0 6.727-7.856z" class="cls-19" transform="translate(-1803.26 -534.31)"/>
                                    <path id="Path_18011" d="M1974.219 704.68h-11.672a3.968 3.968 0 0 1-3.769-4.141V679.2a6.316 6.316 0 0 0-6-6.591h-6.1a6.316 6.316 0 0 0-6 6.591v23.9a7.056 7.056 0 0 0 6.748 7.368l31.857-.219a5.335 5.335 0 0 0-5.064-5.569z" class="cls-18" transform="translate(-1910.705 -643.265)"/>
                                    <path id="Path_18012" d="M1942.755 681.69v23.534a7.26 7.26 0 0 0 6.727 7.234l31.09-.2c0-.509-2.454-1.438-5.482-1.438h-12.626a4.077 4.077 0 0 1-4.078-4.077V681.7a6.49 6.49 0 0 0-6.491-6.49h-2.652a6.49 6.49 0 0 0-6.489 6.483z" class="cls-19" transform="translate(-1912.314 -645.279)"/>
                                </g>
                                <path id="Rectangle_5691" d="M2.444 0h38.969a2.444 2.444 0 0 1 0 4.888H2.444a2.444 2.444 0 1 1 0-4.888z" class="cls-19" transform="translate(69.55 120.474)"/>
                            </g>
                            <ellipse id="Ellipse_135" cx="45.612" cy="4.147" class="cls-4" rx="45.612" ry="4.147" transform="translate(199.616 224.018)"/>
                            <g id="Group_20874" transform="translate(252.85 16.188)">
                                <g id="Group_20872-2">
                                    <path id="Path_17826-2" d="M305.52 139.74h-62.138a2.531 2.531 0 0 0-2.531 2.531v20.188a2.531 2.531 0 0 0 1.115 2.1l12.8 8.648a.854.854 0 0 0 1.292-.954l-2.562-8.447h52.023a2.531 2.531 0 0 0 2.531-2.531v-19a2.531 2.531 0 0 0-2.528-2.528z" class="cls-1" transform="translate(-240.851 -139.74)"/>
                                    <g id="Group_20871-2" clip-path="url(#clip-path)">
                                        <path id="Path_17827-2" fill="#f8f8f8" d="M261.433 182.275l-2.837-2.363h-8.273l10.636 5.909z" transform="translate(-244.652 -155.855)" style="mix-blend-mode:multiply;isolation:isolate" opacity="0.22"/>
                                    </g>
                                </g>
                                <path id="Path_17829-2" d="M299.174 149.064h-45.158c-.4 0-.726-.481-.726-1.075s.325-1.075.726-1.075h45.158c.4 0 .726.481.726 1.075s-.326 1.075-.726 1.075z" class="cls-22" transform="translate(-245.841 -142.619)"/>
                                <path id="Path_17830-2" d="M299.174 158.154h-45.158c-.4 0-.726-.481-.726-1.075s.325-1.075.726-1.075h45.158c.4 0 .726.481.726 1.075s-.326 1.075-.726 1.075z" class="cls-22" transform="translate(-245.841 -146.266)"/>
                                <rect id="Rectangle_5690-2" width="34.523" height="2.149" class="cls-22" rx=".755" transform="translate(7.449 15.184)"/>
                            </g>
                        </g>
                        <g id="Group_20993" transform="translate(218.28 101.42)">
                            <ellipse id="Ellipse_142" cx="7.539" cy="5.21" class="cls-11" rx="7.539" ry="5.21" transform="rotate(-75.1 29.11 10.266)"/>
                            <path id="Path_18013" d="M419.743 200.43s3.193-24.58-17-24.36c0 0 .2-1.016 4.79-1.016s20.227 4.44 15.724 25.376a2.989 2.989 0 0 0-3.514 0z" class="cls-23" transform="translate(-399.836 -175.054)"/>
                            <g id="Group_20992" transform="translate(1.472 33.13)">
                                <path id="Path_18014" d="M399.7 276.926c-.255 0-.511 0-.771-.013a.306.306 0 0 1-.295-.316.3.3 0 0 1 .316-.295 21.9 21.9 0 0 0 16.19-6.458.306.306 0 1 1 .46.4 22.565 22.565 0 0 1-15.9 6.677z" class="cls-23" transform="translate(-398.631 -269.74)"/>
                            </g>
                            <path id="Path_18015" d="M396.537 288.255h-1.3a.809.809 0 1 1 0-1.617h1.294a.809.809 0 0 1 0 1.617z" class="cls-11" transform="translate(-394.432 -247.598)"/>
                            <path id="Path_18016" d="M449.585 250.266c-.413 3.065-2.525 5.551-4.72 5.551s-3.638-2.485-3.226-5.551 2.525-5.552 4.719-5.552 3.642 2.486 3.227 5.552z" class="cls-22" transform="translate(-425.074 -220.343)"/>
                        </g>
                    </g>
                </g>
            </g>
        </g>
        <g id="Group_15257">
            <g id="Group_15241" transform="translate(-155.697 -140.719)">
                <g id="Group_15239" transform="translate(495.761 245.761)">
                    <g id="Group_15236">
                        <circle id="Ellipse_1-2" cx="41.197" cy="41.197" r="41.197" class="cls-24"/>
                    </g>
                    <g id="Group_15237" transform="translate(6.482 6.035)">
                        <path id="Path_13" d="M592.03 283.006a41.2 41.2 0 0 1-56.27 57.3 41.2 41.2 0 1 0 56.27-57.3z" class="cls-24" transform="translate(-535.76 -283.006)"/>
                    </g>
                    <g id="Group_15238" transform="translate(2.752 3.042)">
                        <path id="Path_14" fill="#85c7fa" d="M515.593 307.035a38.249 38.249 0 0 1 68.569-23.316 38.252 38.252 0 1 0-63.487 42.38 38.074 38.074 0 0 1-5.082-19.064z" transform="translate(-512.746 -264.533)"/>
                    </g>
                </g>
                <g id="Group_15240" transform="translate(512.222 260.874)">
                    <path id="Path_15" d="M719.579 355.374h-14.3a.553.553 0 0 1-.54-.693 23.9 23.9 0 0 0 .633-6.419 37.41 37.41 0 0 0-.073-3.774 6.8 6.8 0 0 0-1.218-3.542 4.589 4.589 0 0 0-3.526-1.916c-3.267 0-3.784 3.2-4.088 5.794-.355 3.026-.5 6.155-1.833 8.944a8.319 8.319 0 0 1-4.347 4.452 23.4 23.4 0 0 1-4.467 1.453.553.553 0 0 0-.451.543v21.147a.557.557 0 0 0 .557.557h5.851a.559.559 0 0 1 .447.231 6.32 6.32 0 0 0 5.078 2.55h18.332a4.879 4.879 0 0 0 4.864-4.864 4.254 4.254 0 0 0-.462-1.928.543.543 0 0 1 .145-.672 5.587 5.587 0 0 0 1.632-3.954v-.557a4.254 4.254 0 0 0-.462-1.928.544.544 0 0 1 .145-.672 4.3 4.3 0 0 0 1.633-3.365v-.561a4.253 4.253 0 0 0-.462-1.928.544.544 0 0 1 .145-.672 4.3 4.3 0 0 0 1.633-3.365 4.879 4.879 0 0 0-4.866-4.861z" class="cls-22" transform="translate(-671.104 -339.029)"/>
                    <rect id="Rectangle_1011" width="11.284" height="26.797" class="cls-22" rx="2.744" transform="translate(0 18.255)"/>
                </g>
            </g>
            <g id="Group_15256" opacity="0.436" transform="translate(46.535 -64.024)">
                <g id="Group_15243" transform="translate(449.856 156.625)">
                    <circle id="Ellipse_2" cx="9.258" cy="9.258" r="9.258" class="cls-27" transform="rotate(-71.695 12.166 8.79)"/>
                    <g id="Group_15242" transform="translate(6.966 5.434)">
                        <path id="Rectangle_1012" d="M.938 0h.89a.937.937 0 0 1 .937.937V6.9a.938.938 0 0 1-.937.938h-.89A.938.938 0 0 1 0 6.9V.938A.938.938 0 0 1 .938 0z" class="cls-22" transform="translate(0 2.765)"/>
                        <path id="Path_16" d="M857.567 171.765h-1.341v-1.854c0-.6-.536-.912-1.136-.912h-.038a1.014 1.014 0 0 0-1.085 1l-.436 1.828c-.238 0-.531.15-.531.389v7.084c0 .238.393.3.631.3h3.936a1.354 1.354 0 0 0 1.424-1.488v-4.705a1.481 1.481 0 0 0-1.424-1.642z" class="cls-22" transform="translate(-849.774 -169)"/>
                    </g>
                </g>
                <g id="Group_15245" transform="translate(230.395 203.035)">
                    <circle id="Ellipse_3" cx="10.791" cy="10.791" r="10.791" class="cls-27" transform="rotate(-66.05 15.17 9.86)"/>
                    <g id="Group_15244" transform="translate(8.902 6.953)">
                        <rect id="Rectangle_1013" width="3.226" height="9.217" class="cls-22" rx="1.093" transform="translate(0 3.226)"/>
                        <path id="Path_17" d="M387.225 276.226h-1.538v-2.173c0-.7-.65-1.053-1.348-1.053h-.045a1.178 1.178 0 0 0-1.265 1.159l-.459 2.129c-.278 0-.571.172-.571.451V285c0 .278.359.444.637.444h4.588a1.678 1.678 0 0 0 1.688-1.832v-5.485a1.736 1.736 0 0 0-1.687-1.901z" class="cls-22" transform="translate(-378.313 -273)"/>
                    </g>
                </g>
                <g id="Group_15249" transform="translate(124.15 183.567)">
                    <circle id="Ellipse_5" cx="15.563" cy="15.563" r="15.563" class="cls-27" transform="rotate(-76.35 19.233 15.117)"/>
                    <g id="Group_15248" transform="translate(10.991 7.987)">
                        <rect id="Rectangle_1015" width="4.148" height="12.904" class="cls-22" rx="1.576" transform="translate(0 5.069)"/>
                        <path id="Path_19" d="M166.889 238.069h-2.359v-3.252a1.8 1.8 0 0 0-1.805-1.817h-.065a1.821 1.821 0 0 0-1.824 1.821l-.836 3.145c-.4 0-1 .324-1 .724v11.91c0 .4.871.83 1.272.83h6.617a2.8 2.8 0 0 0 2.711-2.83v-7.91a2.625 2.625 0 0 0-2.711-2.621z" class="cls-22" transform="translate(-153.931 -233)"/>
                    </g>
                </g>
                <g id="Group_15251" transform="translate(507.81 177.799)">
                    <circle id="Ellipse_6" cx="15.563" cy="15.563" r="15.563" class="cls-27" transform="rotate(-75.113 19.562 15.041)"/>
                    <g id="Group_15250" transform="translate(11.229 8.225)">
                        <rect id="Rectangle_1016" width="4.148" height="12.904" class="cls-22" rx="1.576" transform="translate(0 5.069)"/>
                        <path id="Path_20" d="M999.889 226.069h-2.359v-3.252a1.8 1.8 0 0 0-1.8-1.818h-.065a1.821 1.821 0 0 0-1.824 1.821l-.841 3.146c-.4 0-1 .324-1 .724v11.91c0 .4.871.83 1.272.83h6.617a2.8 2.8 0 0 0 2.711-2.832v-7.91a2.625 2.625 0 0 0-2.711-2.619z" class="cls-22" transform="translate(-986.931 -221)"/>
                    </g>
                </g>
                <g id="Group_15253" transform="translate(421.138 195.192)">
                    <circle id="Ellipse_7" cx="8.234" cy="8.234" r="8.234" class="cls-27" transform="rotate(-72.192 10.752 7.84)"/>
                    <g id="Group_15252" transform="translate(6.19 4.657)">
                        <rect id="Rectangle_1017" width="2.304" height="6.913" class="cls-22" rx=".834" transform="translate(0 2.765)"/>
                        <path id="Path_21" d="M792.127 253.765h-1.361v-1.825a.846.846 0 0 0-.841-.941h-.034a.955.955 0 0 0-.965.953l-.419 1.659c-.212 0-.505.166-.505.378v6.3c0 .212.413.385.626.385h3.5a1.411 1.411 0 0 0 1.4-1.444v-4.185a1.282 1.282 0 0 0-1.401-1.28z" class="cls-22" transform="translate(-785.235 -251)"/>
                    </g>
                </g>
                <g id="Group_15255" transform="translate(166.849 156.126)">
                    <circle id="Ellipse_8" cx="9.258" cy="9.258" r="9.258" class="cls-27" transform="rotate(-75.554 11.567 8.965)"/>
                    <g id="Group_15254" transform="translate(6.544 5.011)">
                        <path id="Rectangle_1018" d="M.938 0h.89a.937.937 0 0 1 .937.937V6.9a.938.938 0 0 1-.937.938h-.89A.938.938 0 0 1 0 6.9V.938A.938.938 0 0 1 .938 0z" class="cls-22" transform="translate(0 2.765)"/>
                        <path id="Path_22" d="M242.567 169.765h-1.341v-1.854c0-.6-.536-.912-1.136-.912h-.038a1.014 1.014 0 0 0-1.085 1l-.436 1.828c-.238 0-.531.15-.531.389v7.084c0 .238.393.3.631.3h3.936a1.354 1.354 0 0 0 1.424-1.488v-4.705a1.481 1.481 0 0 0-1.424-1.642z" class="cls-22" transform="translate(-234.774 -167)"/>
                    </g>
                </g>
            </g>
        </g>
    </g>
</svg>
