<?xml version="1.0" encoding="utf-8"?>
<!-- Generator: Adobe Illustrator 23.0.5, SVG Export Plug-In . SVG Version: 6.00 Build 0)  -->
<svg version="1.1" id="Layer_1" xmlns="http://www.w3.org/2000/svg" xmlns:xlink="http://www.w3.org/1999/xlink" x="0px" y="0px"
	 viewBox="0 0 500 500" style="enable-background:new 0 0 500 500;" xml:space="preserve">
<style type="text/css">
	.st0{fill:#1F285A;}
</style>
<path class="st0" d="M61.9,484.1H47.7v14.3h371.2v-14.3h-8v-68.2c0-2.7-2.2-4.9-4.9-4.9l0,0h-55.1c-2.7,0-4.9,2.2-4.9,4.9l0,0v68.2
	H242.2v-96.7c0-3.6-2.9-6.5-6.5-6.5h-108c-3.6,0-6.5,2.9-6.5,6.5v96.7H47.7V15.7c0.2-2.7,1.4-5.1,3.3-7l0,0c2.1-2.1,5-3.4,8-3.4
	h245.2c3,0,5.9,1.2,8,3.4l0.5,0.5c1.9,2.1,2.9,4.8,2.9,7.6V144H457c2.5,0,5,1,6.8,2.8l0,0c1.8,1.8,2.8,4.2,2.8,6.7v338.3
	c0,3.6-2.9,6.5-6.5,6.5h-41.2V484H453V157.7H315.7v326.4h-14.3V19.5H61.9V484.1z M401.2,484.1h-45.5v-63.5h45.5
	C401.2,420.6,401.2,484.1,401.2,484.1z M390.6,185.8H426c0.3,0,0.5,0.4,0.5,0.9v22.9c0,0.4-0.2,0.8-0.5,0.8h-35.4
	c-0.3,0-0.5-0.4-0.5-0.8v-22.9C390.1,186.2,390.3,185.8,390.6,185.8z M390.6,344.7H426c0.3,0,0.5,0.4,0.5,0.8v22.9
	c0,0.4-0.2,0.9-0.5,0.9h-35.4c-0.3,0-0.5-0.4-0.5-0.9v-22.9C390.1,345.1,390.3,344.7,390.6,344.7z M331,344.7h35.3
	c0.3,0,0.6,0.4,0.6,0.8v22.9c0,0.4-0.2,0.9-0.6,0.9H331c-0.3,0-0.6-0.4-0.6-0.9v-22.9C330.5,345.1,330.7,344.7,331,344.7z
	 M390.6,291.8H426c0.3,0,0.5,0.4,0.5,0.9v22.9c0,0.4-0.2,0.9-0.5,0.9h-35.4c-0.3,0-0.5-0.4-0.5-0.9v-22.9
	C390.1,292.1,390.3,291.8,390.6,291.8z M390.6,238.8H426c0.3,0,0.5,0.4,0.5,0.9v22.9c0,0.4-0.2,0.9-0.5,0.9h-35.4
	c-0.3,0-0.5-0.4-0.5-0.9v-22.9C390.1,239.2,390.3,238.8,390.6,238.8z M331,185.8h35.3c0.3,0,0.6,0.4,0.6,0.9v22.9
	c0,0.4-0.2,0.8-0.6,0.8H331c-0.3,0-0.6-0.4-0.6-0.8v-22.9C330.5,186.2,330.7,185.8,331,185.8z M331,291.8h35.3
	c0.3,0,0.6,0.4,0.6,0.9v22.9c0,0.4-0.2,0.9-0.6,0.9H331c-0.3,0-0.6-0.4-0.6-0.9v-22.9C330.5,292.1,330.7,291.8,331,291.8z
	 M331,238.8h35.3c0.3,0,0.6,0.4,0.6,0.9v22.9c0,0.4-0.2,0.9-0.6,0.9H331c-0.3,0-0.6-0.4-0.6-0.9v-22.9
	C330.5,239.2,330.7,238.8,331,238.8z M229.1,484.1h-94.9v-90.1h94.9V484.1z M96.4,55.5h38.4c0.6,0,1.1,0.5,1.1,1.1V95
	c0,0.6-0.5,1.1-1.1,1.1H96.4c-0.6,0-1.1-0.5-1.1-1.1V56.5C95.3,56,95.8,55.5,96.4,55.5z M228.6,55.5H267c0.6,0,1.1,0.5,1.1,1.1V95
	c0,0.6-0.5,1.1-1.1,1.1h-38.4c-0.6,0-1.1-0.5-1.1-1.1V56.5C227.5,56,228,55.5,228.6,55.5z M162.5,55.5h38.4c0.6,0,1.1,0.5,1.1,1.1
	V95c0,0.6-0.5,1.1-1.1,1.1h-38.4c-0.6,0-1.1-0.5-1.1-1.1V56.5C161.4,56,161.9,55.5,162.5,55.5z M96.4,138.8h38.4
	c0.6,0,1.1,0.5,1.1,1.1v38.5c0,0.6-0.5,1.1-1.1,1.1H96.4c-0.6,0-1.1-0.5-1.1-1.1v-38.5C95.3,139.3,95.8,138.8,96.4,138.8z
	 M228.6,138.8H267c0.6,0,1.1,0.5,1.1,1.1v38.5c0,0.6-0.5,1.1-1.1,1.1h-38.4c-0.6,0-1.1-0.5-1.1-1.1v-38.5
	C227.5,139.3,228,138.8,228.6,138.8z M162.5,138.8h38.4c0.6,0,1.1,0.5,1.1,1.1v38.5c0,0.6-0.5,1.1-1.1,1.1h-38.4
	c-0.6,0-1.1-0.5-1.1-1.1v-38.5C161.4,139.3,161.9,138.8,162.5,138.8z M96.4,305.4h38.4c0.6,0,1.1,0.5,1.1,1.1v38.4
	c0,0.6-0.5,1.1-1.1,1.1H96.4c-0.6,0-1.1-0.5-1.1-1.1v-38.4C95.3,305.9,95.8,305.4,96.4,305.4z M228.6,305.4H267
	c0.6,0,1.1,0.5,1.1,1.1v38.4c0,0.6-0.5,1.1-1.1,1.1h-38.4c-0.6,0-1.1-0.5-1.1-1.1v-38.4C227.5,305.9,228,305.4,228.6,305.4z
	 M162.5,305.4h38.4c0.6,0,1.1,0.5,1.1,1.1v38.4c0,0.6-0.5,1.1-1.1,1.1h-38.4c-0.6,0-1.1-0.5-1.1-1.1v-38.4
	C161.4,305.9,161.9,305.4,162.5,305.4z M96.4,221.9h38.4c0.6,0,1.1,0.5,1.1,1.1l0,0v38.6c0,0.6-0.5,1.1-1.1,1.1H96.4
	c-0.6,0-1.1-0.5-1.1-1.1v-38.5c0-0.6,0.5-1.1,1.1-1.1l0,0V221.9z M228.6,221.9H267c0.6,0,1.1,0.5,1.1,1.1l0,0v38.6
	c0,0.6-0.5,1.1-1.1,1.1h-38.4c-0.6,0-1.1-0.5-1.1-1.1v-38.5c0-0.6,0.5-1.1,1.1-1.1l0,0V221.9z M162.5,221.9h38.4
	c0.6,0,1.1,0.5,1.1,1.1l0,0v38.6c0,0.6-0.5,1.1-1.1,1.1h-38.4c-0.6,0-1.1-0.5-1.1-1.1v-38.5c-0.1-0.6,0.3-1.1,0.9-1.2
	C162.4,221.9,162.4,221.9,162.5,221.9z"/>
</svg>
