<?xml version="1.0" encoding="utf-8"?>
<!-- Generator: Adobe Illustrator 23.0.5, SVG Export Plug-In . SVG Version: 6.00 Build 0)  -->
<svg version="1.1" id="Layer_1" xmlns="http://www.w3.org/2000/svg" xmlns:xlink="http://www.w3.org/1999/xlink" x="0px" y="0px"
	 viewBox="0 0 500 500" style="enable-background:new 0 0 500 500;" xml:space="preserve">
<style type="text/css">
	.st0{display:none;fill:#1F285A;}
	.st1{display:none;}
	.st2{fill:#1F285A;}
	.st3{display:none;fill-rule:evenodd;clip-rule:evenodd;fill:#1F285A;}
	.st4{display:inline;fill:#1F285A;}
</style>
<path class="st0" d="M61.9,484.1H47.7v14.3h371.2v-14.3h-8v-68.2c0-2.7-2.2-4.9-4.9-4.9l0,0h-55.1c-2.7,0-4.9,2.2-4.9,4.9l0,0v68.2
	H242.2v-96.7c0-3.6-2.9-6.5-6.5-6.5h-108c-3.6,0-6.5,2.9-6.5,6.5v96.7H47.7V15.7c0.2-2.7,1.4-5.1,3.3-7l0,0c2.1-2.1,5-3.4,8-3.4
	h245.2c3,0,5.9,1.2,8,3.4l0.5,0.5c1.9,2.1,2.9,4.8,2.9,7.6V144H457c2.5,0,5,1,6.8,2.8l0,0c1.8,1.8,2.8,4.2,2.8,6.7v338.3
	c0,3.6-2.9,6.5-6.5,6.5h-41.2V484H453V157.7H315.7v326.4h-14.3V19.5H61.9V484.1z M401.2,484.1h-45.5v-63.5h45.5
	C401.2,420.6,401.2,484.1,401.2,484.1z M390.6,185.8H426c0.3,0,0.5,0.4,0.5,0.9v22.9c0,0.4-0.2,0.8-0.5,0.8h-35.4
	c-0.3,0-0.5-0.4-0.5-0.8v-22.9C390.1,186.2,390.3,185.8,390.6,185.8z M390.6,344.7H426c0.3,0,0.5,0.4,0.5,0.8v22.9
	c0,0.4-0.2,0.9-0.5,0.9h-35.4c-0.3,0-0.5-0.4-0.5-0.9v-22.9C390.1,345.1,390.3,344.7,390.6,344.7z M331,344.7h35.3
	c0.3,0,0.6,0.4,0.6,0.8v22.9c0,0.4-0.2,0.9-0.6,0.9H331c-0.3,0-0.6-0.4-0.6-0.9v-22.9C330.5,345.1,330.7,344.7,331,344.7z
	 M390.6,291.8H426c0.3,0,0.5,0.4,0.5,0.9v22.9c0,0.4-0.2,0.9-0.5,0.9h-35.4c-0.3,0-0.5-0.4-0.5-0.9v-22.9
	C390.1,292.1,390.3,291.8,390.6,291.8z M390.6,238.8H426c0.3,0,0.5,0.4,0.5,0.9v22.9c0,0.4-0.2,0.9-0.5,0.9h-35.4
	c-0.3,0-0.5-0.4-0.5-0.9v-22.9C390.1,239.2,390.3,238.8,390.6,238.8z M331,185.8h35.3c0.3,0,0.6,0.4,0.6,0.9v22.9
	c0,0.4-0.2,0.8-0.6,0.8H331c-0.3,0-0.6-0.4-0.6-0.8v-22.9C330.5,186.2,330.7,185.8,331,185.8z M331,291.8h35.3
	c0.3,0,0.6,0.4,0.6,0.9v22.9c0,0.4-0.2,0.9-0.6,0.9H331c-0.3,0-0.6-0.4-0.6-0.9v-22.9C330.5,292.1,330.7,291.8,331,291.8z
	 M331,238.8h35.3c0.3,0,0.6,0.4,0.6,0.9v22.9c0,0.4-0.2,0.9-0.6,0.9H331c-0.3,0-0.6-0.4-0.6-0.9v-22.9
	C330.5,239.2,330.7,238.8,331,238.8z M229.1,484.1h-94.9v-90.1h94.9V484.1z M96.4,55.5h38.4c0.6,0,1.1,0.5,1.1,1.1V95
	c0,0.6-0.5,1.1-1.1,1.1H96.4c-0.6,0-1.1-0.5-1.1-1.1V56.5C95.3,56,95.8,55.5,96.4,55.5z M228.6,55.5H267c0.6,0,1.1,0.5,1.1,1.1V95
	c0,0.6-0.5,1.1-1.1,1.1h-38.4c-0.6,0-1.1-0.5-1.1-1.1V56.5C227.5,56,228,55.5,228.6,55.5z M162.5,55.5h38.4c0.6,0,1.1,0.5,1.1,1.1
	V95c0,0.6-0.5,1.1-1.1,1.1h-38.4c-0.6,0-1.1-0.5-1.1-1.1V56.5C161.4,56,161.9,55.5,162.5,55.5z M96.4,138.8h38.4
	c0.6,0,1.1,0.5,1.1,1.1v38.5c0,0.6-0.5,1.1-1.1,1.1H96.4c-0.6,0-1.1-0.5-1.1-1.1v-38.5C95.3,139.3,95.8,138.8,96.4,138.8z
	 M228.6,138.8H267c0.6,0,1.1,0.5,1.1,1.1v38.5c0,0.6-0.5,1.1-1.1,1.1h-38.4c-0.6,0-1.1-0.5-1.1-1.1v-38.5
	C227.5,139.3,228,138.8,228.6,138.8z M162.5,138.8h38.4c0.6,0,1.1,0.5,1.1,1.1v38.5c0,0.6-0.5,1.1-1.1,1.1h-38.4
	c-0.6,0-1.1-0.5-1.1-1.1v-38.5C161.4,139.3,161.9,138.8,162.5,138.8z M96.4,305.4h38.4c0.6,0,1.1,0.5,1.1,1.1v38.4
	c0,0.6-0.5,1.1-1.1,1.1H96.4c-0.6,0-1.1-0.5-1.1-1.1v-38.4C95.3,305.9,95.8,305.4,96.4,305.4z M228.6,305.4H267
	c0.6,0,1.1,0.5,1.1,1.1v38.4c0,0.6-0.5,1.1-1.1,1.1h-38.4c-0.6,0-1.1-0.5-1.1-1.1v-38.4C227.5,305.9,228,305.4,228.6,305.4z
	 M162.5,305.4h38.4c0.6,0,1.1,0.5,1.1,1.1v38.4c0,0.6-0.5,1.1-1.1,1.1h-38.4c-0.6,0-1.1-0.5-1.1-1.1v-38.4
	C161.4,305.9,161.9,305.4,162.5,305.4z M96.4,221.9h38.4c0.6,0,1.1,0.5,1.1,1.1l0,0v38.6c0,0.6-0.5,1.1-1.1,1.1H96.4
	c-0.6,0-1.1-0.5-1.1-1.1v-38.5c0-0.6,0.5-1.1,1.1-1.1l0,0V221.9z M228.6,221.9H267c0.6,0,1.1,0.5,1.1,1.1l0,0v38.6
	c0,0.6-0.5,1.1-1.1,1.1h-38.4c-0.6,0-1.1-0.5-1.1-1.1v-38.5c0-0.6,0.5-1.1,1.1-1.1l0,0V221.9z M162.5,221.9h38.4
	c0.6,0,1.1,0.5,1.1,1.1l0,0v38.6c0,0.6-0.5,1.1-1.1,1.1h-38.4c-0.6,0-1.1-0.5-1.1-1.1v-38.5c-0.1-0.6,0.3-1.1,0.9-1.2
	C162.4,221.9,162.4,221.9,162.5,221.9z"/>
<g class="st1">
	<path class="st2" d="M373.4,295.4c-0.1,0.7-0.3,1.3-0.6,1.9c-0.4,1.5-0.5,3.2-0.5,5c0,0.2,0,0.4,0,0.5v121.3
		c1.5,3.8,3.4,6.7,5.7,8.4c2.1,1.7,4.7,2.5,7.8,2.3c0.2,0,0.4,0,0.7,0h34.8l0,0c0.1,0,0.2,0,0.3,0c5.4,0.3,9.3-1.2,12-4.2
		c3-3.4,4.7-8.9,5.3-16.3l0,0v-0.1l10.6-109.4c0-0.2,0-0.4,0-0.5c0.7-6.2-0.6-10.3-3.7-12.6c-3.5-2.7-9.4-3.9-16.9-3.8
		c-0.2,0-0.4,0-0.5,0h-39.2v0c-6,0-10.4,1.2-13,3.6C374.9,292.6,374,293.8,373.4,295.4L373.4,295.4L373.4,295.4z M225.2,118.2h52.9
		c2.1,0,3.7,1.6,3.7,3.7v41.3c0,2-1.7,3.7-3.7,3.7h-52.9c-2.1,0-3.7-1.6-3.7-3.7v-41.3C221.5,119.8,223.2,118.2,225.2,118.2
		L225.2,118.2z M274.4,146.2h-19.6v13.4h19.6V146.2L274.4,146.2z M247.4,146.2H229v13.4h18.5L247.4,146.2L247.4,146.2z M229,138.9
		h18.5v-13.4H229V138.9L229,138.9z M254.7,138.9h19.6v-13.4h-19.6V138.9L254.7,138.9z M123.9,260.3v-96.4c-6,2.3-11.6,2.3-16.2,0.8
		c-3.6-1.2-6.7-3.4-9-6.3s-3.7-6.3-4.1-10.1c-0.7-5.9,1.1-12.6,6.2-18.8l0,0c0.2-0.3,0.5-0.6,0.9-0.9l146-114
		c1.9-1.8,4.8-1.9,6.9-0.3L400.8,128l0,0c0.2,0.2,0.4,0.4,0.6,0.6c6.8,7.3,8.4,15.4,6.8,22.2c-0.8,3.3-2.4,6.4-4.6,8.9
		c-2.2,2.5-5.1,4.4-8.3,5.6c-5.1,1.9-11.2,1.8-17.4-1.1v91.6l-10.7-8.7v-89.3c0-0.4,0-0.7,0.1-1L252.2,67.3l-117.7,89.6
		c0.1,0.4,0.2,0.9,0.2,1.4v99.1L123.9,260.3L123.9,260.3z M108.7,136.5c-2.8,3.7-3.9,7.4-3.5,10.6c0.2,1.8,0.9,3.4,1.9,4.7
		c1,1.2,2.3,2.2,4,2.8c2.8,0.9,6.4,0.7,10.5-1.2l127.4-96.9c1.6-1.2,3.5-1.4,5.2-0.7c1.1,0.4,2.2,1.4,3.1,2.1l122,94.8
		c0,0,0.1,0.1,0.2,0.1c4.5,3.3,8.9,3.8,12.2,2.6c1.6-0.5,2.9-1.5,4-2.7c1.1-1.2,1.8-2.6,2.2-4.2c0.9-3.5-0.2-7.9-4-12.1L251.2,25.3
		L108.7,136.5L108.7,136.5L108.7,136.5z M217,201.5h64.1c2.9,0,5.2,2.4,5.2,5.4v22.8l-10.4-3.6v-13.8l0,0h-53.8v13.8l-10.4,3.6
		v-22.8C211.8,204,214.1,201.5,217,201.5L217,201.5L217,201.5z M335.1,429.6c-0.9-0.8-1.4-1.8-1.7-3L277.6,326
		c-6.2-10.4-11.8-10.6-17.2-7.4c-3.8,2.3-7.9,6-11.9,9.7c-2.5,2.2-4.9,4.5-7,6.2l-9.6,7.9l0,0l-0.1,0c-7,5.6-14.9,8.6-22.3,9.3
		c-4.9,0.4-9.7-0.2-14-1.8c-4.4-1.7-8.3-4.4-11.3-8c-3.2-3.9-5.3-9-5.8-14.9h0c-0.1-1.4,0.3-2.9,1.3-4l30.5-36.3
		c-6.4-0.1-12.1,0.8-17.4,2.5c-8.1,2.5-15.7,7-24.1,12.6c-0.9,0.7-2.1,1.2-3.5,1.2h-35.2v66.4l0.2,42.5h20.4l0,0
		c1.9,0,3.8,1,4.9,2.8l25.4,44.3c3.7,6.5,7,12,11.1,15.7c3.9,3.4,8.9,5.6,16.6,5.8c2.9,0.1,5.7-0.4,8.3-1.5c1.6-0.7,3.2-1.6,4.8-2.7
		l-16.5-30.8c-1.4-2.7-0.4-6.1,2.3-7.6c2.7-1.4,6.1-0.4,7.6,2.3l17.9,33.5c6.7,3.4,12.7,4.4,18.1,3.3c5-1.1,9.7-4,14.1-8.9
		l-25.8-40.5c-1.7-2.6-0.9-6,1.7-7.7c2.6-1.7,6-0.9,7.7,1.7l27.2,42.7c4.8,1.9,9.3,2.4,13.7,1.2c4.2-1.1,8.3-3.8,12.5-8.1
		l-24.6-46.4c-1.4-2.7-0.4-6.1,2.3-7.6c2.7-1.4,6.1-0.4,7.6,2.3l25.5,48c3.3,1.9,7.2,2.4,10.8,1.8c3.2-0.5,6.3-1.9,8.9-3.9
		c2.5-1.9,4.4-4.5,5.3-7.4c1-3.1,0.9-6.7-0.7-10.7L335.1,429.6L335.1,429.6L335.1,429.6z M342.5,419.9h18.6v-117c0-0.2,0-0.3,0-0.4
		c0-1.8,0.1-3.5,0.4-5.2l-19-12.7c-0.1-0.1-0.2-0.2-0.3-0.2c-2.5-1.7-5.4-3.7-8.4-5.8c-10.8-7.6-21.9-15.3-33.8-18.5
		c-6.5-1.7-13.9-2.8-21.5-3c-6.7-0.1-13.4,0.5-19.8,2.1c-3.8,1-7.5,2.3-10.9,4.2c-3,1.6-5.9,3.6-8.4,5.9l-12.7,15.1
		c-0.4,0.7-0.9,1.4-1.6,1.9l-35.1,41.7c0.5,2.6,1.6,4.9,3,6.7c1.7,2.1,3.9,3.6,6.5,4.6c2.7,1,5.8,1.4,9.1,1.1
		c5.4-0.4,11.1-2.6,16.2-6.8l0,0l9.6-7.9c2.5-2,4.5-3.9,6.5-5.8c4.5-4.1,9-8.2,13.7-11c10.9-6.5,21.8-6.7,32.6,11.3l0.1,0.2
		L342.5,419.9L342.5,419.9L342.5,419.9z M363.2,431.1h-14.9c2,5.9,1.9,11.5,0.3,16.4c-1.6,5.1-4.9,9.4-9,12.7c-4,3.2-8.9,5.4-14,6.2
		c-5,0.8-10.2,0.4-15.1-1.6c-5.6,5.9-11.6,9.7-17.8,11.4c-6.2,1.7-12.6,1.4-19-0.9c-6.1,6.7-12.8,10.9-20.2,12.5
		c-7.5,1.6-15.5,0.5-24-3.5c-2.6,2.1-5.4,3.7-8.3,4.9c-4.1,1.7-8.4,2.5-12.9,2.3c-10.7-0.3-18-3.5-23.8-8.6
		c-5.5-4.9-9.2-11.2-13.4-18.5l-23.8-41.5H129c-1.1,5.4-2.9,9.9-5.7,13.5c-4.7,6.1-11.6,9.3-21.1,9.1c-0.1,0-0.2,0-0.3,0H70.2
		c-7.9,1.3-14.8-0.7-20.1-6.9c-4.8-5.5-8-14.4-9.3-27.4c0-0.2,0-0.3-0.1-0.5l-8.3-103c-1.6-11.1,0.2-19,4.6-24.3
		c4.5-5.4,11.3-7.9,19.7-8.3c0.2,0,0.5,0,0.7,0h42.6v0c8-0.1,15,1.2,20.2,4.6c4.2,2.7,7.2,6.6,8.8,11.8h34.7
		c8.7-5.9,16.9-10.5,25.9-13.3c8.8-2.8,18.3-3.7,29.7-2.4l11.6-13.8c0.2-0.3,0.4-0.5,0.7-0.8c3.3-3.1,7-5.7,11-7.8
		c4.2-2.2,8.7-3.9,13.3-5.1c7.4-1.9,15.2-2.6,22.8-2.5c8.6,0.2,17,1.4,24.2,3.3c13.8,3.6,25.8,12,37.4,20.1c2.6,1.8,5.1,3.6,8.2,5.6
		c0.1,0.1,0.2,0.1,0.3,0.2l16.8,11.2c0.9-1.2,1.8-2.3,2.9-3.2c4.8-4.3,11.7-6.5,20.6-6.5v0h39.2c0.2,0,0.3,0,0.5,0
		c10,0,18.2,1.8,23.8,6.2c6.3,4.8,9.2,12.2,8,22.8c0,0.1,0,0.2,0,0.3l-10.6,109.3l0,0c-0.8,9.8-3.4,17.4-8,22.7
		c-4.9,5.6-11.7,8.4-20.7,8.1l0,0h-34.8c-6,0.3-11.1-1.3-15.4-4.8C367.9,438.8,365.3,435.4,363.2,431.1L363.2,431.1L363.2,431.1z
		 M80.7,388.6c4.2,0,7.6,3.4,7.6,7.6c0,4.2-3.4,7.6-7.6,7.6c-4.2,0-7.6-3.4-7.6-7.6C73.1,392,76.5,388.6,80.7,388.6L80.7,388.6z
		 M410.4,388.6c4.2,0,7.6,3.4,7.6,7.6c0,4.2-3.4,7.6-7.6,7.6s-7.6-3.4-7.6-7.6C402.8,392,406.2,388.6,410.4,388.6L410.4,388.6z
		 M118.9,356.3l-0.2-59.1c0-0.1,0-0.2,0-0.4c-0.6-3.7-2.2-6.2-4.6-7.7c-3.2-2.1-8.1-2.9-14.1-2.8h-0.1v0H57.4c-0.1,0-0.2,0-0.2,0
		c-5.3,0.2-9.3,1.5-11.6,4.2c-2.4,2.9-3.3,7.9-2.1,15.7c0,0.2,0,0.3,0,0.5l8.3,103.1v0.2c1.1,10.7,3.4,17.5,6.7,21.3
		c2.6,3,6.1,3.9,10.3,3.1c0.3-0.1,0.7-0.1,1-0.1v0h31.9c0.2,0,0.4,0,0.6,0c5.6,0.1,9.5-1.6,12-4.8c2.9-3.7,4.2-9.5,4.5-17l0,0
		L118.9,356.3L118.9,356.3L118.9,356.3z M287.3,320.5L287.3,320.5L287.3,320.5L287.3,320.5z M287.3,320.5L287.3,320.5L287.3,320.5
		L287.3,320.5z"/>
</g>
<path class="st3" d="M463.4,483V77.8H233.7v139.8L220,206.7V74.1c0.2-2.6,1.3-5,3.1-6.8l0,0c2.1-2.1,4.9-3.3,7.8-3.3h235.2
	c2.9,0,5.7,1.2,7.8,3.2l0.5,0.5c1.8,2,2.8,4.6,2.8,7.3v105.7l0,0V483h-70.7v-92.7c0-3.5-2.8-6.3-6.3-6.3h-44.5v112.7h121.5V483
	H463.4z M45.9,496.7v-134c-5.1,2.1-10.7,2.4-16,0.7c-3.5-1.2-6.5-3.3-8.8-6.1c-2.3-2.9-3.8-6.3-4.2-10c-0.6-6.8,1.6-13.6,6-18.7l0,0
	c0.3-0.3,0.5-0.6,0.9-0.9l143.7-112.4c1.9-1.8,4.8-1.9,6.8-0.3l144.1,112l0,0l0.6,0.6c5.8,5.7,8.4,13.9,6.7,21.9
	c-1.6,6.6-6.4,12-12.7,14.3c-5.6,1.9-11.8,1.5-17.1-1.1V496H282V356.9c0-2.5-98.8-80.7-109.7-89.2c-11.6,8.8-112.4,86.1-112.4,89.5
	v139.5L45.9,496.7z M171.7,360.7c30.3,0.2,54.8,24.7,54.9,55v58.6h-110v-58.6C116.8,385.3,141.4,360.8,171.7,360.7z M176.5,370.5
	v45.4h40.7l0,0C217.2,392.6,199.7,373,176.5,370.5z M176.5,425.4v39.4h40.7v-39.4L176.5,425.4z M166.9,464.8v-39.4h-40.6v39.4H166.9
	z M166.9,415.9v-45.4c-23.1,2.5-40.6,22-40.6,45.2l0,0L166.9,415.9z M106.6,484.7h130.2v9.6H106.6V484.7z M266.7,112.3h36.9
	c0.6,0,1,0.5,1,1V156c0,0.6-0.5,1-1,1h-36.9c-0.6,0-1-0.4-1-1c0,0,0,0,0,0v-42.7C265.6,112.7,266.1,112.3,266.7,112.3z M393.5,112.3
	h36.9c0.6,0,1,0.5,1,1V156c0,0.6-0.5,1-1,1h-36.9c-0.6,0-1-0.4-1-1v-42.7C392.5,112.7,392.9,112.3,393.5,112.3z M330.1,112.3H367
	c0.6,0,1,0.5,1,1V156c0,0.6-0.5,1-1,1h-36.9c-0.6,0-1-0.4-1-1c0,0,0,0,0,0v-42.7C329,112.7,329.5,112.3,330.1,112.3z M266.7,198
	h36.9c0.6,0,1,0.4,1,1v42.7c0,0.6-0.5,1-1,1h-36.9c-0.6,0-1-0.5-1-1v-42.8c0-0.6,0.5-1,1-1c0,0,0,0,0,0V198z M393.5,198h36.9
	c0.6,0,1,0.4,1,1v42.7c0,0.6-0.5,1-1,1h-36.9c-0.6,0-1-0.5-1-1v-42.8c0-0.6,0.5-1,1-1V198z M330.1,198H367c0.6,0,1,0.4,1,1v42.7
	c0,0.6-0.5,1-1,1h-36.9c-0.6,0-1-0.5-1-1v-42.8c0-0.6,0.5-1,1-1c0,0,0,0,0,0V198z M393.5,283.7h36.9c0.6,0,1,0.5,1,1v42.7
	c0,0.6-0.5,1-1,1h-36.9c-0.6,0-1-0.5-1-1v-42.7C392.5,284.2,392.9,283.7,393.5,283.7z M330.1,283.7H367c0.6,0,1,0.5,1,1v42.7
	c0,0.6-0.5,1-1,1h-11.2v-14.1l-26.6-21.1v-8.5C329.1,284.1,329.6,283.7,330.1,283.7L330.1,283.7z"/>
<g class="st1">
	<path class="st4" d="M222.8,394.6v93.3h-11.7v-98.1l-14.8-6L165,418h-8.7l-31.3-34.1l-14.8,6v98.1H98.4v-93.3l-22.1,9.1v84.2H64.7
		v-79.5l-16.1,6.5c-8.7,4.7-15.3,10.6-19.9,17.3c-4.6,6.7-7.2,14.5-8,23.5v32.2H9v-32.3v-0.4c0.8-11,4-20.6,9.9-29.1
		c5.6-8.3,13.7-15.3,24-21c0.2-0.1,0.5-0.3,0.8-0.4l76.1-31.1v-22.3c-0.8-0.7-1.5-1.3-2.2-2.1c-10.6-10.5-17.7-26.1-19.8-49.5
		l-3.8-3.9c-1.2-1-1.9-2.5-1.9-4.1v-9.1h11.7v6.9l3.9,4c1,1,1.5,2.2,1.6,3.4c1.6,21.7,7.6,35.6,16.7,44.5
		c8.8,8.5,20.6,12.8,34.1,14.9c14.5-2.3,26-8.5,34.1-18.1c8.7-10.2,14-24.2,15.7-41.4c0.1-1.1,0.5-2.1,1.2-2.9l3.5-4.3l0.1-7.4
		l11.6,0.1l-0.1,9c0.1,1.3-0.3,2.7-1.2,3.8l-3.7,4.6c-2,18.7-8.2,34.2-18.1,45.8c-1.5,1.7-3,3.3-4.6,4.9v22.4l78.8,32.1
		c0.3,0.1,0.5,0.2,0.8,0.4c10.3,5.6,18.3,12.7,24,21c5.8,8.5,9.1,18.1,9.9,29.1v32.7h-11.7v-32.3c-0.7-9-3.3-16.7-8-23.5
		c-4.6-6.7-11.3-12.6-19.9-17.3l-16.1-6.5V488h-11.7v-84.3l-22.1-9.1L222.8,394.6L222.8,394.6z M403.8,394.6v93.3h-11.7v-98.1
		l-14.8-6L346,418h-8.7l-31.3-34.1l-14.8,6v6c-4.1-3.7-8.8-7.8-14.1-12.5l23.8-9.7v-22.3c-0.8-0.7-1.5-1.3-2.2-2.1
		c-10.6-10.5-17.7-26.1-19.8-49.5l-3.8-3.9c-1.2-1-1.9-2.5-1.9-4.1v-9.1h11.7v6.9l3.9,4c1,1,1.5,2.2,1.6,3.4
		c1.6,21.7,7.6,35.6,16.7,44.5c8.8,8.5,20.6,12.8,34.1,14.9c14.5-2.3,26-8.5,34.1-18.1c8.7-10.2,14-24.2,15.7-41.4
		c0.1-1.1,0.5-2.1,1.2-2.9l3.5-4.3l0.1-7.4l11.6,0.1l-0.1,9c0.1,1.3-0.3,2.7-1.2,3.8l-3.7,4.6c-2,18.7-8.2,34.2-18.1,45.8
		c-1.5,1.7-3,3.3-4.6,4.9v22.4l78.8,32.1c0.3,0.1,0.5,0.2,0.8,0.4c10.3,5.6,18.3,12.7,24,21c5.8,8.5,9.1,18.1,9.9,29.1v32.7h-11.7
		v-32.3c-0.7-9-3.3-16.7-8-23.5c-4.6-6.7-11.3-12.6-19.9-17.3l-16.1-6.5V488h-11.7v-84.3l-22.1-9.1L403.8,394.6L403.8,394.6z
		 M316.6,191.5c-0.7,0-1.3-0.1-1.9-0.3c-16.9,7.6-30.6,24.2-34.3,51.9c-0.4,3-3.3,5.2-6.5,4.8c-3.2-0.4-5.4-3.1-5-6.3
		c4.3-32.3,21-51.9,41.4-60.8c10.4-4.5,21.5-6.3,32.7-5.8c11.1,0.6,22.2,3.6,32,8.7c21,10.9,36.9,31.2,38.1,58.2
		c0.1,3.1-2.4,5.6-5.6,5.8c-3.2,0.1-5.9-2.3-6-5.3c-1-22.6-14.4-39.7-32-48.8c-0.7-0.4-1.5-0.8-2.3-1.1c-0.6,0.2-1.3,0.3-2.1,0.3
		c-5.2-0.1-6.7,9.3-6.9,21.9c-0.1,5.6,0,11.9,0.1,18.3c0.1,5,0.2,10.3,0.2,13.7c0,3.1-2.6,5.6-5.8,5.6c-3.2,0-5.8-2.5-5.8-5.6
		c0-5.6-0.1-9.6-0.2-13.5c-0.1-6.5-0.2-12.9-0.1-18.7c0.3-11.5,1.6-21,5.8-27c-3.3-0.7-6.7-1.2-10.3-1.4c-4.3-0.2-8.7-0.1-12.9,0.6
		c3.8,5.9,5.1,15.5,5.4,26.7c0.2,6,0,12.7-0.1,19.5c-0.1,4-0.2,8.2-0.2,13.9c0,3.1-2.5,5.6-5.6,5.6s-5.6-2.5-5.6-5.6
		c0-3.5,0.1-8.9,0.2-14.1c0.1-6.7,0.2-13.1,0.1-19c-0.3-13-1.7-22.6-7.2-22.4L316.6,191.5L316.6,191.5z M312.6,359.2V374l29,31.6
		l26.4-28.8v-18.1c-7.4,4.3-16,7.2-25.7,8.7c-0.6,0.1-1.3,0.1-1.9,0C330.3,365.9,320.9,363.4,312.6,359.2L312.6,359.2L312.6,359.2z
		 M269.3,249c1.5,3.2,4.5,6,8.5,8.5c12.9,8.1,35.6,12,59,12c23.6,0.1,47.7-3.7,63.1-11.1c6-2.9,10.7-6.3,13-10l10,5.8
		c-3.5,5.6-9.8,10.5-17.8,14.3c-17,8.1-43,12.3-68.3,12.2c-25.5-0.1-50.5-4.5-65.3-13.8c-5.8-3.6-10.2-8.1-12.7-13.2L269.3,249
		L269.3,249L269.3,249z M333.6,431.4h14.1V445h-14.1V431.4L333.6,431.4z M333.6,466.1h14.1v13.6h-14.1V466.1L333.6,466.1z
		 M135.5,191.5c-0.7,0-1.3-0.1-1.9-0.3c-16.9,7.6-30.6,24.2-34.3,51.9c-0.4,3-3.3,5.2-6.5,4.8c-3.2-0.4-5.4-3.1-5-6.3
		c4.3-32.3,21-51.9,41.4-60.8c10.4-4.5,21.5-6.3,32.7-5.8c11.1,0.6,22.2,3.6,32,8.7c21,10.9,36.9,31.2,38.1,58.2
		c0.1,3.1-2.4,5.6-5.6,5.8c-3.2,0.1-5.9-2.3-6-5.3c-1-22.6-14.4-39.7-32-48.8c-0.7-0.4-1.5-0.8-2.3-1.1c-0.6,0.2-1.3,0.3-2.1,0.3
		c-5.2-0.1-6.7,9.3-6.9,21.9c-0.1,5.6,0,11.9,0.1,18.3c0.1,5,0.2,10.3,0.2,13.7c0,3.1-2.6,5.6-5.8,5.6c-3.2,0-5.8-2.5-5.8-5.6
		c0-5.6-0.1-9.6-0.2-13.5c-0.1-6.5-0.2-12.9-0.1-18.7c0.3-11.5,1.6-21,5.8-27c-3.3-0.7-6.7-1.2-10.3-1.4c-4.3-0.2-8.7-0.1-12.9,0.6
		c3.8,5.9,5.1,15.5,5.4,26.7c0.2,6,0,12.7-0.1,19.5c-0.1,4-0.2,8.2-0.2,13.9c0,3.1-2.5,5.6-5.6,5.6s-5.6-2.5-5.6-5.6
		c0-3.5,0.1-8.9,0.2-14.1c0.1-6.7,0.2-13.1,0.1-19c-0.3-13-1.7-22.6-7.2-22.4L135.5,191.5L135.5,191.5z M131.7,359.2V374l29,31.6
		l26.4-28.8v-18.1c-7.4,4.3-16,7.2-25.7,8.7c-0.6,0.1-1.3,0.1-1.9,0C149.3,365.9,140,363.4,131.7,359.2L131.7,359.2L131.7,359.2z
		 M88.3,249c1.5,3.2,4.5,6,8.5,8.5c12.9,8.1,35.6,12,59,12c23.6,0.1,47.7-3.7,63.1-11.1c6-2.9,10.7-6.3,13-10l10,5.8
		c-3.5,5.6-9.8,10.5-17.8,14.3c-17,8.1-43,12.3-68.3,12.2c-25.5-0.1-50.5-4.5-65.3-13.8c-5.8-3.6-10.2-8.1-12.7-13.2L88.3,249
		L88.3,249L88.3,249z M152.6,431.4h14.1V445h-14.1V431.4L152.6,431.4z M152.6,466.1h14.1v13.6h-14.1V466.1L152.6,466.1z"/>
</g>
<g>
	<path class="st2" d="M231,85.6c6.2,0,12.4,0.6,18.2,1.9v-48c0-5-2.1-9.6-5.4-12.9s-7.9-5.4-12.9-5.4c-5,0-9.6,2.1-12.9,5.4
		c-3.3,3.3-5.4,7.9-5.4,12.9v48C218.6,86.2,224.7,85.6,231,85.6L231,85.6z M223.3,334.7c0-4.7,3.8-8.4,8.4-8.4s8.4,3.8,8.4,8.4v29
		c16.7-0.2,32.6-2.3,47.7-6.4l-46.4-92.5c-3.5,0.4-7,0.6-10.5,0.6c-3.6,0-7.2-0.2-10.7-0.6l-45.2,90.1c16.5,4.6,32.6,7.4,48.2,8.4
		V334.7L223.3,334.7z M240.2,380.5v28c0,4.7-3.8,8.4-8.4,8.4s-8.4-3.8-8.4-8.4V380c-18-1.2-36.7-4.5-55.9-10l-59.1,117.8
		c-1,2.1-2.7,3.8-5.1,4.6c-4.4,1.4-9.2-1-10.6-5.4l-25.8-80.5c-0.7-2.1-0.7-4.4,0.4-6.5l86.5-178.7c-8-13.4-12.6-29.1-12.6-45.8
		c0-24.8,10.1-47.3,26.3-63.5c8.1-8.1,17.7-14.7,28.4-19.2V39.4c0-9.7,3.9-18.4,10.3-24.8c6.3-6.4,15.1-10.3,24.8-10.3
		s18.4,3.9,24.8,10.3s10.3,15.1,10.3,24.8v53.2c10.7,4.5,20.3,11.1,28.4,19.2c16.3,16.3,26.3,38.7,26.3,63.5
		c0,16.8-4.6,32.5-12.6,46l48.1,99.2c24-21,43.2-49.2,56.1-83.7c1.6-4.3,6.5-6.6,10.8-4.9c4.3,1.6,6.6,6.5,4.9,10.8
		c-14.6,38.8-36.6,70.4-64.3,93.5l30.8,63.7c1,2.1,1.1,4.5,0.4,6.5l-25.8,80.5c-1.4,4.4-6.2,6.8-10.6,5.4c-2.4-0.8-4.2-2.5-5.1-4.6
		l-57.8-115.3C278.2,377.6,259.6,380.3,240.2,380.5L240.2,380.5z M155.3,356.7c0.2-0.4,0.3-0.7,0.6-1.1l47.5-94.7
		c-13.7-4.4-26-12-35.9-22c-0.8-0.8-1.6-1.7-2.4-2.5L83.8,404.2l18.6,58L155.3,356.7L155.3,356.7z M304.2,352c4-1.5,7.9-3.1,11.8-5
		c9.4-4.4,18.4-9.6,26.9-15.7l-45.9-94.7c-0.8,0.8-1.6,1.6-2.3,2.4c-10,10-22.3,17.6-36,22L304.2,352L304.2,352z M350.2,346.6
		c-8.6,6-17.7,11.2-27.2,15.6c-3.7,1.7-7.5,3.3-11.3,4.9l47.7,95.2l18.6-58L350.2,346.6L350.2,346.6z M291,217
		c0.4-0.7,0.8-1.4,1.4-2c7.4-11.4,11.7-25,11.7-39.6c0-20.2-8.1-38.4-21.4-51.6c-13.2-13.2-31.4-21.4-51.6-21.4s-38.4,8.1-51.6,21.4
		C166.2,137,158,155.2,158,175.4s8.1,38.4,21.4,51.6c13.2,13.2,31.4,21.4,51.6,21.4s38.4-8.2,51.6-21.4
		C285.7,223.9,288.4,220.6,291,217L291,217z M231,139.8c9.8,0,18.7,4,25.2,10.4c6.4,6.4,10.4,15.3,10.4,25.2s-4,18.7-10.4,25.2
		C249.7,207,240.8,211,231,211s-18.7-4-25.2-10.4c-6.4-6.4-10.4-15.3-10.4-25.2s4-18.7,10.4-25.2C212.3,143.8,221.2,139.8,231,139.8
		L231,139.8z M244.2,162.2c-3.4-3.4-8.1-5.5-13.2-5.5s-9.9,2.1-13.2,5.5c-3.4,3.4-5.5,8.1-5.5,13.2c0,5.2,2.1,9.9,5.5,13.2
		s8.1,5.5,13.2,5.5s9.9-2.1,13.2-5.5c3.4-3.4,5.5-8.1,5.5-13.2C249.7,170.2,247.6,165.5,244.2,162.2L244.2,162.2z"/>
</g>
</svg>
