<svg xmlns="http://www.w3.org/2000/svg" width="17" height="15.118" viewBox="0 0 17 15.118">
  <g id="email-open-svgrepo-com" transform="translate(-2 -2.264)">
    <path id="Path_6" data-name="Path 6" d="M4,9l5.167,3.875a2.5,2.5,0,0,0,3,0L17.333,9" transform="translate(-0.167 -0.952)" fill="none" stroke="#0d206e" stroke-linecap="round" stroke-linejoin="round" stroke-width="2"/>
    <path id="Path_7" data-name="Path 7" d="M3,8.2a1.667,1.667,0,0,1,.857-1.457L9.691,3.5a1.667,1.667,0,0,1,1.619,0l5.833,3.241A1.667,1.667,0,0,1,18,8.2v6.519a1.667,1.667,0,0,1-1.667,1.667H4.667A1.667,1.667,0,0,1,3,14.715Z" transform="translate(0 0)" fill="none" stroke="#0d206e" stroke-linecap="round" stroke-width="2"/>
  </g>
</svg>
