<?xml version="1.0" encoding="utf-8"?>
<!-- Generator: Adobe Illustrator 23.0.5, SVG Export Plug-In . SVG Version: 6.00 Build 0)  -->
<svg version="1.1" id="Layer_1" xmlns="http://www.w3.org/2000/svg" xmlns:xlink="http://www.w3.org/1999/xlink" x="0px" y="0px"
	 viewBox="0 0 42 35" style="enable-background:new 0 0 42 35;" xml:space="preserve">
<style type="text/css">
	.st0{fill:#E9EEF4;}
	.st1{opacity:0.3;fill:#A1BEF7;enable-background:new    ;}
	.st2{fill:#2E2F76;}
	.st3{fill:#001A2D;}
	.st4{fill:#C7E2FF;}
	.st5{fill:url(#SVGID_1_);}
	.st6{fill:#FFFFFF;}
	.st7{fill:url(#SVGID_2_);}
	.st8{fill:#0F2D5C;}
	.st9{fill:#0E3A82;}
	.st10{fill:#9E2067;}
	.st11{fill:#F09959;}
	.st12{fill:#E38540;}
	.st13{fill:url(#SVGID_3_);}
	.st14{fill:#0C0C0C;}
	.st15{fill:#C44E94;}
	.st16{fill:#FB8627;}
	.st17{fill:url(#SVGID_4_);}
	.st18{fill:url(#SVGID_5_);}
	.st19{fill:url(#SVGID_6_);}
	.st20{fill:url(#SVGID_7_);}
	.st21{fill:url(#SVGID_8_);}
	.st22{fill:url(#SVGID_9_);}
	.st23{fill:url(#SVGID_10_);}
	.st24{fill:url(#SVGID_11_);}
	.st25{opacity:0.5;fill:#99A8C2;enable-background:new    ;}
	.st26{fill:#1F5CB1;}
	.st27{fill:#1B1E56;}
</style>
<g>
	<g>
		<path class="st0" d="M7,15.3L7,15.3C7,15.3,7,15.2,7,15.3l0.8-1.4h0.1V14L7,15.3C7.1,15.3,7.1,15.3,7,15.3z"/>
	</g>
	<g>
		<path class="st0" d="M7.5,15.3L7.5,15.3C7.4,15.3,7.4,15.2,7.5,15.3l0.8-1.4h0.1V14L7.5,15.3L7.5,15.3z"/>
	</g>
	<g>
		<path class="st0" d="M8,15.3C7.9,15.3,7.9,15.3,8,15.3C7.9,15.3,7.9,15.2,8,15.3l0.8-1.4h0.1V14L8,15.3L8,15.3z"/>
	</g>
	<g>
		<path class="st0" d="M8.4,15.3L8.4,15.3C8.3,15.3,8.3,15.2,8.4,15.3l0.8-1.4h0.1V14L8.4,15.3L8.4,15.3z"/>
	</g>
	<g>
		<path class="st0" d="M8.9,15.3C8.9,15.3,8.8,15.3,8.9,15.3C8.8,15.3,8.8,15.2,8.9,15.3l0.8-1.4h0.1V14L8.9,15.3L8.9,15.3z"/>
	</g>
	<g>
		<path class="st0" d="M9.3,15.3L9.3,15.3C9.3,15.3,9.2,15.2,9.3,15.3l0.8-1.4h0.1V14L9.3,15.3C9.4,15.3,9.3,15.3,9.3,15.3z"/>
	</g>
	<g>
		<path class="st0" d="M9.8,15.3C9.8,15.3,9.7,15.3,9.8,15.3C9.7,15.3,9.7,15.2,9.8,15.3l0.8-1.4h0.1V14L9.8,15.3L9.8,15.3z"/>
	</g>
	<g>
		<path class="st0" d="M10.2,15.3L10.2,15.3C10.2,15.3,10.2,15.2,10.2,15.3l0.8-1.4h0.1V14L10.2,15.3C10.3,15.3,10.2,15.3,10.2,15.3
			z"/>
	</g>
	<g>
		<path class="st0" d="M10.7,15.3L10.7,15.3C10.6,15.3,10.6,15.2,10.7,15.3l0.8-1.4h0.1V14L10.7,15.3L10.7,15.3z"/>
	</g>
	<g>
		<path class="st0" d="M11.1,15.3L11.1,15.3C11.1,15.3,11.1,15.2,11.1,15.3l0.8-1.4H12V14L11.1,15.3C11.2,15.3,11.2,15.3,11.1,15.3z
			"/>
	</g>
</g>
<ellipse class="st1" cx="21.5" cy="26.7" rx="18" ry="0.5"/>
<path class="st2" d="M32.4,25.8H10.6V12.7c0-0.9,0.7-1.5,1.5-1.5h18.8c0.9,0,1.5,0.7,1.5,1.5V25.8z"/>
<rect x="10.6" y="25.6" class="st3" width="21.9" height="0.2"/>
<path class="st2" d="M34.1,26.7H8.9c-0.5,0-0.8-0.4-0.8-0.8l0,0c0-0.1,0-0.1,0.1-0.1h26.7c0.1,0,0.1,0,0.1,0.1l0,0
	C35,26.4,34.6,26.7,34.1,26.7z"/>
<path class="st4" d="M24,26h-5c-0.1,0-0.2-0.1-0.2-0.2l0,0l0,0H24l0,0l0,0C24.1,25.9,24.1,26,24,26z"/>
<linearGradient id="SVGID_1_" gradientUnits="userSpaceOnUse" x1="14.1271" y1="24.4244" x2="31.4332" y2="8.0537" gradientTransform="matrix(1 0 0 -1 0 36)">
	<stop  offset="0" style="stop-color:#FFFFFF"/>
	<stop  offset="1" style="stop-color:#C1D5F0"/>
</linearGradient>
<polygon class="st5" points="11.3,25.1 11.3,12 31.7,12 31.7,25.1 "/>
<path class="st2" d="M29.6,21h-4.5c-0.1,0-0.3,0.1-0.3,0.3V24c0,0.1,0.1,0.3,0.3,0.3h4.5c0.1,0,0.3-0.1,0.3-0.3v-2.7
	C29.9,21.1,29.7,21,29.6,21z M27.9,21.8L27.9,21.8h0.8l0,0l0,0l0,0H27.9C27.9,21.9,27.9,21.9,27.9,21.8L27.9,21.8z M27.9,22.6
	L27.9,22.6h0.8l0,0l0,0l0,0H27.9C27.9,22.7,27.9,22.6,27.9,22.6L27.9,22.6z M26.8,23.1h-1.5v-1.7h1.5V23.1z M27.5,23.5
	c-0.1,0-0.2-0.1-0.2-0.2s0.1-0.2,0.2-0.2s0.2,0.1,0.2,0.2S27.6,23.5,27.5,23.5z M27.5,22.7c-0.1,0-0.2-0.1-0.2-0.2s0.1-0.2,0.2-0.2
	s0.2,0.1,0.2,0.2S27.6,22.7,27.5,22.7z M27.5,21.9c-0.1,0-0.2-0.1-0.2-0.2s0.1-0.2,0.2-0.2s0.2,0.1,0.2,0.2S27.6,21.9,27.5,21.9z
	 M28.8,23.4L28.8,23.4H28l0,0l0,0l0,0H28.8C28.8,23.3,28.8,23.4,28.8,23.4L28.8,23.4z M29.1,23.4H29c0,0-0.1,0-0.1-0.1
	c0,0,0-0.1,0.1-0.1h0.1C29.1,23.3,29.1,23.4,29.1,23.4L29.1,23.4z M29.5,23.1C29.5,23.2,29.4,23.2,29.5,23.1H28l0,0l0,0l0,0H29.5
	C29.4,23.1,29.5,23.1,29.5,23.1L29.5,23.1z M28.9,22.6L28.9,22.6l0.2-0.1c0,0,0.1,0,0.1,0.1c0,0,0,0.1-0.1,0.1L28.9,22.6
	C28.9,22.7,28.9,22.6,28.9,22.6z M29.5,22.4C29.5,22.4,29.4,22.4,29.5,22.4H28l0,0l0,0l0,0H29.5C29.4,22.3,29.5,22.3,29.5,22.4
	L29.5,22.4z M28.9,21.8L28.9,21.8l0.2-0.1c0,0,0.1,0,0.1,0.1s0,0.1-0.1,0.1L28.9,21.8C28.9,21.9,28.9,21.9,28.9,21.8z M29.5,21.6
	C29.5,21.6,29.4,21.6,29.5,21.6H28l0,0l0,0l0,0H29.5C29.4,21.5,29.5,21.5,29.5,21.6L29.5,21.6z"/>
<g>
	<g>
		<path class="st2" d="M37.1,23.4h-0.8c0,0.2-0.2,0.4-0.4,0.4V24c0,0.5,0.3,0.9,0.7,1.1l0,0l0,0c0.4-0.2,0.7-0.6,0.7-1.1v-0.3
			C37.2,23.7,37.1,23.6,37.1,23.4z M37,24.4l-0.2,0.2l-0.2-0.2l-0.2,0.2l-0.2-0.2l0.2-0.2L36.3,24l0.2-0.2l0.2,0.2l0.2-0.2L37,24
			l-0.2,0.2L37,24.4z"/>
	</g>
</g>
<path class="st2" d="M36.3,13.1v-1.2c0-0.1-0.1-0.1-0.1-0.1c-0.1,0-0.1,0.1-0.1,0.1l0,0H36c-0.1,0-0.1,0.1-0.1,0.1
	c0,0.1,0.1,0.1,0.1,0.1v0.2c-0.1,0-0.1,0.1-0.1,0.1c0,0.1,0.1,0.1,0.1,0.1h0.1V13c-0.3,0.1-0.5,0.3-0.5,0.6s0.3,0.6,0.6,0.6
	s0.6-0.3,0.6-0.6C36.8,13.4,36.6,13.1,36.3,13.1z M36.2,14c-0.2,0-0.3-0.2-0.3-0.3c0-0.2,0.2-0.3,0.3-0.3c0.2,0,0.3,0.2,0.3,0.3
	S36.4,14,36.2,14z"/>
<path class="st2" d="M32.4,19.6c-1.2,0.2-2.1,1.3-2.1,2.6c0,1.3,0.9,2.3,2.1,2.6V19.6z"/>
<g>
	<circle class="st2" cx="33" cy="22.1" r="2.6"/>
</g>
<g>
	<path class="st6" d="M34.3,21.1c-0.1-0.1-0.2-0.2-0.2-0.3c-0.1-0.1-0.2-0.1-0.3-0.2c-0.1,0-0.1,0-0.2-0.1c-0.2,0-0.3,0-0.5,0
		s-0.3,0-0.5,0c-0.1,0-0.2,0-0.2,0.1c-0.1,0-0.2,0.1-0.3,0.2c-0.1,0.1-0.2,0.2-0.2,0.3c-0.1,0.2-0.2,0.4-0.1,0.7
		c0,0.2,0.1,0.5,0.2,0.7c-0.1,0.2-0.1,0.4,0,0.5c0.1,0.2,0.3,0.3,0.5,0.3l0.3-0.3l-0.2,0.5c0,0,0.3,0.2,0.6,0.2s0.6-0.2,0.6-0.2
		L33.5,23l0.3,0.3c0.2,0,0.4-0.1,0.5-0.3c0.1-0.2,0.1-0.4,0-0.5c0.1-0.2,0.2-0.5,0.2-0.7C34.5,21.5,34.5,21.3,34.3,21.1z M32.3,22.3
		L32.3,22.3c-0.2-0.2,0-0.5,0.2-0.4c0.1,0.1,0.3,0.2,0.4,0.4C32.6,22.4,32.4,22.4,32.3,22.3z M33.1,22.8l-0.2,0.1l0.2-0.4l0.2,0.4
		L33.1,22.8z M33.9,22.3L33.9,22.3c-0.2,0.1-0.4,0.1-0.6,0c0.1-0.2,0.2-0.3,0.4-0.4C33.9,21.8,34.1,22.1,33.9,22.3z"/>
</g>
<linearGradient id="SVGID_2_" gradientUnits="userSpaceOnUse" x1="25.2683" y1="28.8" x2="27.3644" y2="28.8" gradientTransform="matrix(1 0 0 -1 0 36)">
	<stop  offset="0" style="stop-color:#2E2F76"/>
	<stop  offset="1" style="stop-color:#9E2067"/>
</linearGradient>
<path class="st7" d="M27,6.1h-1.3c-0.2,0-0.4,0.2-0.4,0.4v1.1c0,0.2,0.2,0.4,0.4,0.4H26l0.3,0.3L26.6,8H27c0.2,0,0.4-0.2,0.4-0.4
	V6.5C27.4,6.3,27.2,6.1,27,6.1z"/>
<path class="st6" d="M26.6,6.8c0,0.2-0.1,0.3-0.3,0.3S26,7,26,6.8c0-0.2,0.1-0.3,0.3-0.3S26.6,6.6,26.6,6.8z M26.3,7.1
	c-0.3,0-0.5,0.2-0.5,0.4h1.1C26.8,7.3,26.6,7.1,26.3,7.1z"/>
<path class="st6" d="M30,8.7L30,8.7L30,8.7c-0.1,0-0.1,0-0.2,0h-0.1c-0.1,0-0.1,0-0.2-0.1c-0.1,0-0.1-0.1-0.2-0.1l0,0
	c0.1,0,0.2,0,0.3,0c0.1,0,0.2-0.1,0.3-0.2c-0.3,0-0.4-0.2-0.4-0.3l0,0c0,0,0,0,0.1,0l0,0l0,0l0,0c0,0-0.1,0-0.1-0.1l-0.1-0.1
	l-0.1-0.1c0-0.1,0-0.1,0-0.2l0,0c0,0,0,0,0.1,0h0.1l0,0l0,0c0,0-0.1,0-0.1-0.1l-0.1-0.1V7.2V7.1c0-0.1,0-0.1,0.1-0.1l0,0l0.1,0.1
	c0.1,0.1,0.2,0.2,0.3,0.2c0.1,0,0.1,0.1,0.2,0.1s0.1,0,0.2,0h0.1l0,0c0-0.1,0-0.1,0-0.2s0-0.1,0-0.1L30.4,7l0.1-0.1
	c0.1,0,0.1,0,0.2,0h0.1h0.1L31,7l0,0c0,0,0,0,0.1,0s0.1,0,0.2-0.1l0,0l0,0c0,0.1-0.1,0.1-0.1,0.2l-0.1,0.1l0,0l0,0l0,0
	c0.1,0,0.1,0,0.2-0.1l0,0l0,0c-0.1,0.1-0.1,0.1-0.2,0.2l0,0c0,0.1,0,0.1,0,0.2s0,0.2-0.1,0.3c-0.1,0.2-0.2,0.3-0.3,0.5
	c-0.1,0.1-0.2,0.2-0.4,0.3C30.2,8.7,30.1,8.7,30,8.7C30.2,8.7,30.1,8.7,30,8.7C30.1,8.7,30,8.7,30,8.7z"/>
<path class="st2" d="M24,8.4V8.2l0,0h-1.3l0,0v0.2l0,0h0.1c0,0.5,0.1,0.6,0.3,0.7c0.2,0.1,0.2,0.2,0.2,0.3s-0.1,0.2-0.2,0.3
	c-0.2,0.1-0.3,0.3-0.3,0.7h-0.1l0,0v0.2l0,0H24l0,0v-0.2l0,0l0,0c0-0.5-0.1-0.6-0.3-0.7c-0.2-0.1-0.2-0.2-0.2-0.3s0.1-0.2,0.2-0.3
	C23.8,9,24,8.9,24,8.4L24,8.4L24,8.4z M23.9,10.5h-1.1c0-0.2,0.5-0.3,0.6-0.4C23.4,10.2,23.9,10.3,23.9,10.5z M23.5,9.1
	C23.5,9.1,23.5,9.2,23.5,9.1c-0.1,0.1-0.2,0.1-0.2,0.2c0,0-0.1-0.1-0.2-0.2l0,0C23,9,22.9,8.9,22.9,8.8h1C23.8,8.9,23.6,9,23.5,9.1z
	"/>
<path class="st6" d="M18.1,10.2c0.2,0.2,0.5,0.4,0.7,0.5l0,0l0,0c0.3-0.1,0.5-0.3,0.7-0.5H18.1z"/>
<path class="st2" d="M18.9,10.5L18.9,10.5L18.9,10.5c-0.8-0.3-1.3-1.1-1.3-1.9V7.8h2.7v0.9C20.3,9.5,19.7,10.2,18.9,10.5z"/>
<path class="st6" d="M19.2,8.6c0-0.2-0.1-0.3-0.3-0.3c-0.2,0-0.3,0.1-0.3,0.3c0,0.1,0.1,0.2,0.2,0.3c-0.1,0.1-0.2,0.3-0.2,0.6h0.6
	c0-0.3-0.1-0.5-0.2-0.6C19.2,8.8,19.2,8.7,19.2,8.6z"/>
<g>
	<path class="st2" d="M19.9,7.8h-0.4V7c0-0.1-0.1-0.2-0.2-0.2h-0.6c-0.1,0-0.2,0.1-0.2,0.2v0.4L18,7.3V7c0-0.4,0.3-0.6,0.6-0.6h0.6
		c0.4,0,0.6,0.3,0.6,0.6L19.9,7.8L19.9,7.8z"/>
</g>
<path class="st8" d="M16.5,31.8c0,0,0.2,0.5,0.6,0.5c0.4,0.1,0.9,0.3,0.3,0.3c-0.6,0.1-1,0.1-1.3,0.1c-0.3,0-0.1-0.5-0.1-0.7
	C16,31.7,16.5,31.8,16.5,31.8z"/>
<path class="st8" d="M13.1,31.8c0,0,0,0.9,0.2,0.9s0.5,0.2,0.2,0.2s-0.7,0.1-0.8-0.2c-0.2-0.4-0.4-0.4-0.4-0.6
	c0.1-0.2,0.3-0.6,0.3-0.6L13.1,31.8z"/>
<path class="st9" d="M16.5,22.3l0.1,9.7c0,0-0.4,0.2-0.7,0.3s-1.4-4.1-1.4-4.9s-0.9-3.3-0.8-4.1C13.8,22.4,16.5,22.3,16.5,22.3z"/>
<path class="st8" d="M14.9,22.5c0.1,0,0.1,0,0.2,0l1.5,0.4V26c-0.5,1.6-1.1,3-1.5,3.9c-0.3-1.1-0.5-2.2-0.6-2.5c0-0.4-0.2-1.2-0.4-2
	L14.9,22.5z"/>
<path class="st9" d="M16.3,23.9c-0.4,3.6-3.1,8.2-3.1,8.2s-0.6,0-0.6-0.3c-0.1-0.3,0-3,0.8-3.8c0.7-0.9,0.4-4.5,0.4-4.5L16.3,23.9z"
	/>
<path class="st10" d="M13.9,19.1c-0.8,1-1.2,2.6-1.2,3s1.1,1,1.1,1L13.9,19.1z"/>
<polygon class="st11" points="14.7,17 14.5,18.8 15.6,19.8 15.5,17.6 "/>
<path class="st10" d="M14.5,18.3c0,0-0.4,0.2-0.8,1.5c-0.4,1.3-0.4,4.6-0.4,4.6s1.1,0.7,2.5,0.6c0.9-0.1,1.3-0.3,1.3-0.3
	s-0.2-3-0.4-4.1C16.4,19.5,14.9,18.2,14.5,18.3z"/>
<path class="st12" d="M15.2,18.5c-0.3-0.3-0.5-0.8-0.5-1.1v-0.3h0.1l0.7,0.5v1.1C15.5,18.7,15.4,18.6,15.2,18.5z"/>
<path class="st11" d="M15,17.4c0.2,0.5,0.6,0.8,1,0.7c0.4-0.1,0.6-0.6,0.4-1.2c-0.2-0.5-0.6-0.8-1-0.7C15,16.4,14.8,16.9,15,17.4z"
	/>
<linearGradient id="SVGID_3_" gradientUnits="userSpaceOnUse" x1="14.3237" y1="17.3549" x2="16.0493" y2="17.3549" gradientTransform="matrix(1 0 0 -1 0 36)">
	<stop  offset="0" style="stop-color:#FFC34E"/>
	<stop  offset="1" style="stop-color:#D868AB"/>
</linearGradient>
<path class="st13" d="M14.6,17.9l-0.3,0.5l1.7,1c0,0-0.2-0.5-0.2-0.7S14.6,17.8,14.6,17.9z"/>
<path class="st14" d="M16.3,15.8c0.7,0.1,0.2,1.1,0,1.1s-0.3-0.2-0.5-0.1s-0.4-0.2-0.5-0.2s0,0.7,0.1,0.8c0.1,0.1-0.1,0.1-0.1,0.1
	s-0.1-0.4-0.2-0.4c-0.1,0-0.2,0.4-0.3,0.5c-0.2,0.1-0.2,0.1-0.2,0.1s-0.2-0.7-0.3-0.8c-0.2-0.1-0.1-0.6,0.1-0.7
	c0.2-0.1,0.2-0.5,0.5-0.6s0.5,0.1,0.9,0C16.2,15.6,16.1,15.8,16.3,15.8z"/>
<path class="st11" d="M14.8,17.3c0.1,0.1,0.2,0.2,0.3,0.1s0.1-0.2,0-0.3C15,17,14.9,16.9,14.8,17C14.7,17,14.7,17.2,14.8,17.3z"/>
<path class="st10" d="M14.2,19.3c0,0,1.8,1.7,2.5,2.2c0.1,0.5,0.1,1.1,0.2,1.7c-0.3-0.1-1.3-0.5-1.8-0.9
	C14.4,21.7,13.9,20.3,14.2,19.3z"/>
<path class="st11" d="M18.7,21.1c0,0,0.3-0.5,0.5-0.5s0.2,0,0.4,0c0.1,0,0.2,0.2,0,0.6s-0.7,0.5-0.8,0.5S18.7,21.1,18.7,21.1z"/>
<path class="st15" d="M14.4,18.9c-0.6,0.2-0.3,1.8,0.2,2.5c0.3,0.5,1.2,0.9,1.8,0.9c0.5,0.1,2.6-0.5,2.6-0.5s0-0.8-0.1-0.7
	c-0.2,0-1.9,0.3-2.4-0.1C15.8,20.4,15.1,18.6,14.4,18.9z"/>
<g>
	<path class="st16" d="M19.2,21C19.2,21,19.3,20.9,19.2,21l0.4-0.5v-0.1h-0.1l-0.3,0.5C19.1,20.9,19.1,20.9,19.2,21L19.2,21z"/>
</g>
<linearGradient id="SVGID_4_" gradientUnits="userSpaceOnUse" x1="29.938" y1="24" x2="33.4145" y2="24" gradientTransform="matrix(1 0 0 -1 0 36)">
	<stop  offset="0" style="stop-color:#2E2F76"/>
	<stop  offset="1" style="stop-color:#9E2067"/>
</linearGradient>
<path class="st17" d="M31.6,10.2c0.6,0,1.4-0.2,1.7-0.3c0,0,0.1,0,0.1,0.1v1.7c0,1.3-1.7,2.4-1.7,2.4S30,13,30,11.7V10
	c0,0,0-0.1,0.1-0.1C30.3,10,31,10.2,31.6,10.2z"/>
<linearGradient id="SVGID_5_" gradientUnits="userSpaceOnUse" x1="30.1561" y1="24" x2="33.1964" y2="24" gradientTransform="matrix(1 0 0 -1 0 36)">
	<stop  offset="0" style="stop-color:#2E2F76"/>
	<stop  offset="1" style="stop-color:#9E2067"/>
</linearGradient>
<path class="st18" d="M31.7,10.5c0.5,0,1-0.2,1.3-0.3c0.1,0,0.2,0,0.2,0.1v1.4c0,1.2-1.5,2.1-1.5,2.1s-1.5-0.9-1.5-2.1v-1.3
	c0-0.1,0.1-0.1,0.2-0.1C30.6,10.3,31.2,10.5,31.7,10.5z"/>
<linearGradient id="SVGID_6_" gradientUnits="userSpaceOnUse" x1="30.4833" y1="24" x2="31.6923" y2="24" gradientTransform="matrix(1 0 0 -1 0 36)">
	<stop  offset="0" style="stop-color:#2E2F76"/>
	<stop  offset="1" style="stop-color:#9E2067"/>
</linearGradient>
<path class="st19" d="M31.7,10.8v2.6c0,0-1.2-0.8-1.2-1.7v-1c0-0.1,0.1-0.1,0.1-0.1C30.8,10.7,31.3,10.8,31.7,10.8z"/>
<linearGradient id="SVGID_7_" gradientUnits="userSpaceOnUse" x1="31.6923" y1="24.05" x2="32.9444" y2="24.05" gradientTransform="matrix(1 0 0 -1 0 36)">
	<stop  offset="0" style="stop-color:#2E2F76"/>
	<stop  offset="1" style="stop-color:#9E2067"/>
</linearGradient>
<path class="st20" d="M31.7,10.8v2.6c0,0,1.3-0.8,1.3-1.7v-1.1c0-0.1-0.1-0.1-0.1-0.1C32.6,10.7,32.1,10.8,31.7,10.8z"/>
<path class="st2" d="M29.5,20.2H19.2c-0.5,0-0.9-0.4-0.9-0.9l0,0c0-0.5,0.4-0.9,0.9-0.9h10.2c0.5,0,0.9,0.4,0.9,0.9l0,0
	C30.3,19.9,29.9,20.2,29.5,20.2z"/>
<path class="st6" d="M29.5,19.9H19.2c-0.3,0-0.5-0.2-0.5-0.5l0,0c0-0.3,0.2-0.5,0.5-0.5h10.2c0.3,0,0.5,0.2,0.5,0.5l0,0
	C30,19.7,29.8,19.9,29.5,19.9z"/>
<g>
	<g>
		<path class="st2" d="M20,19.7C19.9,19.7,19.9,19.7,20,19.7l-0.1-0.6c0,0,0-0.1,0.1-0.1c0,0,0.1,0,0.1,0.1L20,19.7
			C20.1,19.7,20,19.7,20,19.7z"/>
		<path class="st2" d="M20.3,19.6c0,0-0.1,0.1-0.1,0l-0.5-0.3c0,0-0.1-0.1,0-0.1c0,0,0.1-0.1,0.1,0l0.5,0.3
			C20.3,19.5,20.3,19.5,20.3,19.6z"/>
		<path class="st2" d="M19.7,19.6v-0.1l0.4-0.3h0.1v0.1l-0.4,0.3C19.7,19.6,19.7,19.6,19.7,19.6z"/>
	</g>
	<g>
		<path class="st2" d="M21.2,19.7C21.2,19.7,21.1,19.7,21.2,19.7l-0.1-0.6c0,0,0-0.1,0.1-0.1c0,0,0.1,0,0.1,0.1L21.2,19.7
			C21.3,19.7,21.3,19.7,21.2,19.7z"/>
		<path class="st2" d="M21.5,19.6c0,0-0.1,0.1-0.1,0L21,19.3c0,0-0.1-0.1,0-0.1c0,0,0.1-0.1,0.1,0l0.5,0.3
			C21.6,19.5,21.6,19.5,21.5,19.6z"/>
		<path class="st2" d="M20.9,19.6v-0.1l0.4-0.3h0.1v0.1L21,19.6C21,19.6,21,19.6,20.9,19.6z"/>
	</g>
	<g>
		<path class="st2" d="M22.5,19.7C22.5,19.7,22.4,19.7,22.5,19.7l-0.1-0.6c0,0,0-0.1,0.1-0.1c0,0,0.1,0,0.1,0.1L22.5,19.7
			C22.6,19.7,22.6,19.7,22.5,19.7z"/>
		<path class="st2" d="M22.8,19.6c0,0-0.1,0.1-0.1,0l-0.5-0.3c0,0-0.1-0.1,0-0.1c0,0,0.1-0.1,0.1,0l0.5,0.3
			C22.8,19.5,22.8,19.5,22.8,19.6z"/>
		<path class="st2" d="M22.2,19.6v-0.1l0.4-0.3h0.1v0.1l-0.4,0.3C22.3,19.6,22.2,19.6,22.2,19.6z"/>
	</g>
	<g>
		<path class="st2" d="M23.8,19.7C23.7,19.7,23.7,19.7,23.8,19.7l-0.1-0.6c0,0,0-0.1,0.1-0.1c0,0,0.1,0,0.1,0.1L23.8,19.7
			C23.9,19.7,23.8,19.7,23.8,19.7z"/>
		<path class="st2" d="M24.1,19.6c0,0-0.1,0.1-0.1,0l-0.5-0.3c0,0-0.1-0.1,0-0.1c0,0,0.1-0.1,0.1,0l0.5,0.3
			C24.1,19.5,24.1,19.5,24.1,19.6z"/>
		<path class="st2" d="M23.5,19.6v-0.1l0.4-0.3H24v0.1l-0.4,0.3H23.5z"/>
	</g>
	<g>
		<path class="st2" d="M25.1,19.7C25,19.7,25,19.7,25.1,19.7L25,19.1c0,0,0-0.1,0.1-0.1c0,0,0.1,0,0.1,0.1L25.1,19.7
			C25.2,19.7,25.1,19.7,25.1,19.7z"/>
		<path class="st2" d="M25.4,19.6c0,0-0.1,0.1-0.1,0l-0.5-0.3c0,0-0.1-0.1,0-0.1c0,0,0.1-0.1,0.1,0l0.5,0.3
			C25.4,19.5,25.4,19.5,25.4,19.6z"/>
		<path class="st2" d="M24.8,19.6v-0.1l0.4-0.3h0.1v0.1l-0.4,0.3H24.8z"/>
	</g>
</g>
<path class="st2" d="M26.8,19.7H26c0,0-0.1,0-0.1-0.1l0,0c0,0,0-0.1,0.1-0.1h0.8C26.9,19.5,26.9,19.6,26.8,19.7L26.8,19.7
	C26.9,19.6,26.9,19.7,26.8,19.7z"/>
<path class="st2" d="M28.1,19.7h-0.8c0,0-0.1,0-0.1-0.1l0,0c0,0,0-0.1,0.1-0.1h0.8C28.2,19.5,28.2,19.6,28.1,19.7L28.1,19.7
	C28.2,19.6,28.2,19.7,28.1,19.7z"/>
<path class="st2" d="M29.4,19.7h-0.8c0,0-0.1,0-0.1-0.1l0,0c0,0,0-0.1,0.1-0.1h0.8C29.4,19.5,29.4,19.6,29.4,19.7L29.4,19.7
	C29.4,19.6,29.4,19.7,29.4,19.7z"/>
<g>
	
		<linearGradient id="SVGID_8_" gradientUnits="userSpaceOnUse" x1="33.8079" y1="19.1" x2="37.3253" y2="19.1" gradientTransform="matrix(1 0 0 -1 0 36)">
		<stop  offset="0" style="stop-color:#2E2F76"/>
		<stop  offset="1" style="stop-color:#9E2067"/>
	</linearGradient>
	<path class="st21" d="M37,17.9c0-0.1,0.1-0.1,0.1-0.2v-0.1l-0.2-0.2c0-0.1,0.1-0.3,0.1-0.4l0.3-0.1c0-0.1,0-0.2,0-0.3L37,16.5
		c0-0.1-0.1-0.3-0.2-0.4l0.2-0.3c-0.1-0.1-0.1-0.2-0.2-0.2l-0.3,0.2c-0.1,0-0.1-0.1-0.2-0.1c-0.1,0-0.1,0-0.2-0.1v-0.3
		c-0.1,0-0.2,0-0.3-0.1l-0.2,0.3c-0.1,0-0.3,0-0.4,0.1L35,15.3c-0.1,0-0.2,0.1-0.3,0.1l0.1,0.3c-0.1,0.1-0.2,0.2-0.3,0.3l-0.4,0
		c0,0.1-0.1,0.1-0.1,0.2v0.1l0.2,0.2c0,0.1-0.1,0.3-0.1,0.4L33.8,17c0,0.1,0,0.2,0,0.3l0.3,0.1c0,0.1,0.1,0.3,0.2,0.4L34.2,18
		c0.1,0.1,0.1,0.2,0.2,0.2l0.3-0.2c0.1,0,0.1,0.1,0.2,0.1c0.1,0,0.1,0,0.2,0.1v0.3c0.1,0,0.2,0,0.3,0.1l0.2-0.3c0.1,0,0.3,0,0.4-0.1
		l0.2,0.3c0.1,0,0.2-0.1,0.3-0.1l-0.1-0.3c0.1-0.1,0.2-0.2,0.3-0.3L37,17.9z M35.3,17.6C35,17.4,34.8,17,35,16.7s0.6-0.5,0.9-0.3
		c0.3,0.2,0.5,0.6,0.3,0.9S35.6,17.7,35.3,17.6z"/>
	<g>
		
			<linearGradient id="SVGID_9_" gradientUnits="userSpaceOnUse" x1="36.0396" y1="18.4" x2="36.7994" y2="18.4" gradientTransform="matrix(1 0 0 -1 0 36)">
			<stop  offset="0" style="stop-color:#2E2F76"/>
			<stop  offset="1" style="stop-color:#9E2067"/>
		</linearGradient>
		<path class="st22" d="M36.1,18.1C36.1,18.1,36,18.1,36.1,18.1C36,18,36,18,36.1,18.1c0.2-0.2,0.4-0.4,0.6-0.6
			c0.1-0.1,0.1-0.2,0.1-0.4l0,0l0,0c0,0.1-0.1,0.3-0.1,0.4C36.6,17.8,36.3,18,36.1,18.1L36.1,18.1z"/>
	</g>
	<g>
		
			<linearGradient id="SVGID_10_" gradientUnits="userSpaceOnUse" x1="36.4259" y1="19.6" x2="36.7365" y2="19.6" gradientTransform="matrix(1 0 0 -1 0 36)">
			<stop  offset="0" style="stop-color:#2E2F76"/>
			<stop  offset="1" style="stop-color:#9E2067"/>
		</linearGradient>
		<path class="st23" d="M36.7,16.6L36.7,16.6c-0.1-0.2-0.2-0.3-0.3-0.4l0,0l0,0C36.6,16.2,36.7,16.4,36.7,16.6
			C36.7,16.5,36.7,16.6,36.7,16.6L36.7,16.6z"/>
	</g>
	<g>
		
			<linearGradient id="SVGID_11_" gradientUnits="userSpaceOnUse" x1="35.8161" y1="20.15" x2="36.1509" y2="20.15" gradientTransform="matrix(1 0 0 -1 0 36)">
			<stop  offset="0" style="stop-color:#2E2F76"/>
			<stop  offset="1" style="stop-color:#9E2067"/>
		</linearGradient>
		<path class="st24" d="M36.1,15.9L36.1,15.9c-0.1,0-0.2-0.1-0.3-0.1l0,0l0,0C35.9,15.8,36,15.8,36.1,15.9
			C36.1,15.9,36.2,15.9,36.1,15.9L36.1,15.9z"/>
	</g>
</g>
<path class="st2" d="M15.1,10.8H8.3c-0.1,0-0.1-0.1-0.1-0.1V6.9c0-0.1,0.1-0.1,0.1-0.1h6.8c0.1,0,0.1,0.1,0.1,0.1v3.8
	C15.3,10.8,15.2,10.8,15.1,10.8z"/>
<path class="st6" d="M15,10.7H8.4c-0.1,0-0.1,0-0.1-0.1V7.1C8.3,7,8.4,7,8.4,7H15c0.1,0,0.1,0,0.1,0.1v3.5L15,10.7z"/>
<path class="st2" d="M14.8,10.4H8.6c-0.1,0-0.1-0.1-0.1-0.1v-3c0-0.1,0.1-0.1,0.1-0.1h6.1c0.1,0,0.1,0.1,0.1,0.1v3
	C14.9,10.4,14.9,10.4,14.8,10.4z"/>
<circle class="st6" cx="11.7" cy="8.8" r="1.1"/>
<circle class="st2" cx="11.7" cy="8.8" r="1"/>
<polygon class="st6" points="12.2,8.8 11.8,9 11.5,9.2 11.5,8.8 11.5,8.4 11.8,8.6 "/>
<path class="st25" d="M13.5,8.1H8.2v2.6c0,0.1,0.1,0.1,0.1,0.1h5.3V8.3C13.6,8.2,13.5,8.1,13.5,8.1z"/>
<path class="st2" d="M12.8,12.4H6c-0.1,0-0.1-0.1-0.1-0.1V8.5C5.9,8.4,6,8.4,6,8.4h6.8c0.1,0,0.1,0.1,0.1,0.1v3.8
	C13,12.4,12.9,12.4,12.8,12.4z"/>
<path class="st6" d="M12.7,12.2H6.2c-0.1,0-0.1,0-0.1-0.1V8.7c0-0.1,0-0.1,0.1-0.1h6.5c0.1,0,0.1,0,0.1,0.1v3.5
	C12.8,12.2,12.8,12.2,12.7,12.2z"/>
<path class="st2" d="M12.5,12H6.4c-0.1,0-0.1-0.1-0.1-0.1v-3c0-0.1,0.1-0.1,0.1-0.1h6.1c0.1,0,0.1,0.1,0.1,0.1v3
	C12.6,12,12.6,12,12.5,12z"/>
<circle class="st6" cx="9.4" cy="10.4" r="1.1"/>
<path class="st2" d="M10.4,10.4c0,0.5-0.4,1-1,1c-0.5,0-1-0.4-1-1c0-0.5,0.4-1,1-1S10.4,9.9,10.4,10.4z"/>
<polygon class="st6" points="9.9,10.3 9.5,10.5 9.2,10.7 9.2,10.3 9.2,9.9 9.5,10.1 "/>
<rect id="XMLID_663_" x="4.4" y="20" class="st26" width="7" height="4.2"/>
<polygon id="XMLID_851_" class="st27" points="4.4,20 7.9,17.9 11.4,20 "/>
<rect id="XMLID_970_" x="5.6" y="18.5" class="st6" width="4.8" height="5.4"/>
<g id="XMLID_965_">
	<rect id="XMLID_969_" x="5.9" y="19.3" class="st2" width="4.1" height="0.1"/>
	<rect id="XMLID_968_" x="5.9" y="19.7" class="st2" width="4.1" height="0.1"/>
	<rect id="XMLID_967_" x="5.9" y="20" class="st2" width="4.1" height="0.1"/>
	<rect id="XMLID_966_" x="5.9" y="20.4" class="st2" width="1.9" height="0.1"/>
</g>
<g id="XMLID_984_">
	<rect id="XMLID_988_" x="5.9" y="21" class="st2" width="4.1" height="0.1"/>
	<rect id="XMLID_987_" x="5.9" y="21.4" class="st2" width="4.1" height="0.1"/>
	<rect id="XMLID_986_" x="5.9" y="21.7" class="st2" width="4.1" height="0.1"/>
	<rect id="XMLID_985_" x="5.9" y="22.1" class="st2" width="1.9" height="0.1"/>
</g>
<polygon id="XMLID_848_" class="st27" points="4.4,24.3 7.9,22.2 11.4,24.3 "/>
<polygon id="XMLID_849_" class="st2" points="4.4,20 7.9,22.2 4.4,24.3 "/>
<polygon id="XMLID_950_" class="st2" points="11.4,20 7.9,22.2 11.4,24.3 "/>
<g>
	<path class="st2" d="M2.1,16L2.1,16L2.1,16C2.1,15.9,2.1,15.9,2.1,16C2.1,15.9,2.1,15.9,2.1,16C2.1,15.9,2.1,15.9,2.1,16
		C2.1,15.9,2.1,15.9,2.1,16C2,15.9,2,15.9,2.1,16C2,15.9,2,15.9,2.1,16C2,16,2,16,2,16l0,0l0,0l0,0l0,0l0,0l0,0l0,0l0,0
		C2,16,2,16.1,2.1,16C2.1,16.1,2.1,16,2.1,16L2.1,16L2.1,16L2.1,16L2.1,16L2.1,16L2.1,16z"/>
	<path class="st2" d="M2.7,16L2.7,16L2.7,16C2.7,15.9,2.7,15.9,2.7,16C2.7,15.9,2.7,15.9,2.7,16C2.7,15.9,2.7,15.9,2.7,16
		C2.6,16,2.6,16,2.7,16L2.7,16L2.7,16L2.7,16L2.7,16L2.7,16L2.7,16L2.7,16L2.7,16C2.6,16,2.6,16.1,2.7,16C2.7,16.1,2.7,16,2.7,16
		L2.7,16L2.7,16L2.7,16L2.7,16L2.7,16L2.7,16z"/>
	<path class="st2" d="M3.3,16L3.3,16L3.3,16C3.2,15.9,3.2,15.9,3.3,16C3.2,15.9,3.2,15.9,3.3,16C3.2,15.9,3.2,15.9,3.3,16
		C3.2,16,3.2,16,3.3,16L3.3,16L3.3,16L3.3,16L3.3,16L3.3,16L3.3,16L3.3,16L3.3,16C3.2,16,3.2,16.1,3.3,16C3.2,16.1,3.2,16,3.3,16
		L3.3,16L3.3,16L3.3,16L3.3,16L3.3,16L3.3,16z"/>
	<path class="st2" d="M3.9,16C3.9,16,3.8,16,3.9,16C3.8,16,3.8,16,3.9,16C3.8,15.9,3.8,15.9,3.9,16C3.8,15.9,3.8,15.9,3.9,16
		C3.8,15.9,3.8,15.9,3.9,16C3.8,15.9,3.8,15.9,3.9,16C3.8,15.9,3.8,15.9,3.9,16C3.8,15.9,3.8,15.9,3.9,16C3.8,16,3.8,16,3.9,16
		L3.9,16L3.9,16L3.9,16L3.9,16L3.9,16L3.9,16L3.9,16L3.9,16C3.8,16,3.8,16.1,3.9,16C3.8,16.1,3.8,16,3.9,16C3.8,16,3.8,16,3.9,16
		C3.8,16,3.9,16,3.9,16L3.9,16L3.9,16L3.9,16L3.9,16z"/>
	<path class="st2" d="M4.4,16L4.4,16L4.4,16C4.4,15.9,4.4,15.9,4.4,16C4.4,15.9,4.4,15.9,4.4,16C4.3,15.9,4.3,15.9,4.4,16
		C4.3,16,4.3,16,4.4,16L4.4,16L4.4,16L4.4,16L4.4,16L4.4,16L4.4,16L4.4,16L4.4,16C4.3,16,4.4,16.1,4.4,16C4.4,16.1,4.4,16,4.4,16
		L4.4,16L4.4,16L4.4,16L4.4,16L4.4,16L4.4,16z"/>
	<path class="st2" d="M4.9,16L4.9,16L4.9,16C4.9,16,4.9,16.1,4.9,16C5,16.1,5,16.1,4.9,16C5,16.1,5,16,4.9,16C5,16,5,16,4.9,16
		C5,16,5,16,4.9,16L4.9,16L4.9,16L4.9,16L4.9,16L4.9,16L4.9,16L4.9,16L4.9,16C5,15.9,5,15.9,4.9,16C5,15.9,5,15.9,4.9,16
		C5,15.9,5,15.9,4.9,16C4.9,15.9,4.9,15.9,4.9,16L4.9,16L4.9,16L4.9,16L4.9,16L4.9,16L4.9,16z"/>
	<path class="st2" d="M2.1,16.5L2.1,16.5L2.1,16.5H2l0,0l0,0l0,0l0,0l0,0C2,16.6,2,16.6,2.1,16.5C2,16.6,2,16.6,2.1,16.5
		C2,16.6,2,16.6,2.1,16.5C2.1,16.6,2.1,16.6,2.1,16.5C2.1,16.6,2.1,16.6,2.1,16.5C2.1,16.6,2.1,16.6,2.1,16.5
		C2.1,16.6,2.1,16.6,2.1,16.5C2.1,16.6,2.1,16.6,2.1,16.5C2.1,16.6,2.1,16.6,2.1,16.5C2.1,16.6,2.1,16.6,2.1,16.5
		C2.1,16.6,2.1,16.6,2.1,16.5C2.1,16.6,2.1,16.6,2.1,16.5C2.1,16.6,2.1,16.6,2.1,16.5C2.1,16.6,2.1,16.5,2.1,16.5z"/>
	<path class="st2" d="M2.7,16.5L2.7,16.5L2.7,16.5L2.7,16.5L2.7,16.5L2.7,16.5C2.6,16.5,2.6,16.5,2.7,16.5L2.7,16.5L2.7,16.5
		L2.7,16.5L2.7,16.5L2.7,16.5L2.7,16.5L2.7,16.5L2.7,16.5C2.6,16.5,2.6,16.6,2.7,16.5C2.6,16.6,2.6,16.6,2.7,16.5
		C2.6,16.6,2.6,16.6,2.7,16.5C2.6,16.6,2.6,16.6,2.7,16.5C2.6,16.6,2.6,16.6,2.7,16.5C2.7,16.6,2.7,16.6,2.7,16.5
		C2.7,16.6,2.7,16.6,2.7,16.5C2.7,16.6,2.7,16.6,2.7,16.5C2.7,16.6,2.7,16.6,2.7,16.5C2.7,16.6,2.7,16.6,2.7,16.5
		C2.7,16.6,2.7,16.5,2.7,16.5z"/>
	<path class="st2" d="M3.3,16.5L3.3,16.5L3.3,16.5C3.2,16.5,3.2,16.5,3.3,16.5C3.2,16.5,3.2,16.5,3.3,16.5
		C3.2,16.5,3.2,16.5,3.3,16.5C3.2,16.5,3.2,16.5,3.3,16.5L3.3,16.5L3.3,16.5L3.3,16.5L3.3,16.5L3.3,16.5C3.2,16.6,3.2,16.6,3.3,16.5
		C3.2,16.6,3.2,16.6,3.3,16.5C3.2,16.6,3.2,16.6,3.3,16.5C3.2,16.6,3.2,16.6,3.3,16.5C3.3,16.6,3.3,16.6,3.3,16.5
		C3.3,16.6,3.3,16.6,3.3,16.5C3.3,16.6,3.3,16.6,3.3,16.5C3.3,16.6,3.3,16.6,3.3,16.5C3.3,16.6,3.3,16.6,3.3,16.5
		C3.3,16.6,3.3,16.6,3.3,16.5C3.3,16.6,3.3,16.5,3.3,16.5z"/>
	<path class="st2" d="M3.9,16.5C3.9,16.5,3.8,16.5,3.9,16.5C3.8,16.5,3.8,16.5,3.9,16.5C3.8,16.5,3.8,16.5,3.9,16.5
		C3.8,16.5,3.8,16.5,3.9,16.5C3.8,16.5,3.8,16.5,3.9,16.5C3.8,16.5,3.8,16.5,3.9,16.5L3.9,16.5L3.9,16.5L3.9,16.5L3.9,16.5L3.9,16.5
		L3.9,16.5L3.9,16.5L3.9,16.5C3.8,16.6,3.8,16.6,3.9,16.5C3.8,16.6,3.8,16.6,3.9,16.5C3.8,16.6,3.8,16.6,3.9,16.5
		C3.8,16.6,3.8,16.6,3.9,16.5C3.8,16.6,3.8,16.6,3.9,16.5C3.8,16.6,3.8,16.6,3.9,16.5C3.8,16.6,3.8,16.6,3.9,16.5
		C3.8,16.6,3.8,16.6,3.9,16.5C3.8,16.6,3.8,16.6,3.9,16.5C3.8,16.6,3.9,16.6,3.9,16.5C3.9,16.6,3.9,16.6,3.9,16.5
		C3.9,16.6,3.9,16.6,3.9,16.5C3.9,16.6,3.9,16.6,3.9,16.5C3.9,16.6,3.9,16.5,3.9,16.5z"/>
	<path class="st2" d="M4.4,16.5L4.4,16.5L4.4,16.5L4.4,16.5L4.4,16.5L4.4,16.5C4.3,16.5,4.3,16.5,4.4,16.5L4.4,16.5L4.4,16.5
		L4.4,16.5L4.4,16.5L4.4,16.5L4.4,16.5L4.4,16.5L4.4,16.5C4.3,16.6,4.3,16.6,4.4,16.5C4.3,16.6,4.3,16.6,4.4,16.5
		C4.4,16.6,4.4,16.6,4.4,16.5C4.4,16.6,4.4,16.6,4.4,16.5C4.4,16.6,4.4,16.6,4.4,16.5C4.4,16.6,4.4,16.6,4.4,16.5
		C4.4,16.6,4.4,16.6,4.4,16.5C4.4,16.6,4.4,16.6,4.4,16.5C4.4,16.6,4.4,16.6,4.4,16.5C4.4,16.6,4.4,16.6,4.4,16.5
		C4.4,16.6,4.4,16.5,4.4,16.5z"/>
	<path class="st2" d="M5,16.5L5,16.5L5,16.5L5,16.5C4.9,16.5,4.9,16.5,5,16.5C4.9,16.5,4.9,16.5,5,16.5C4.9,16.5,4.9,16.5,5,16.5
		L5,16.5L5,16.5L5,16.5L5,16.5L5,16.5C4.9,16.6,4.9,16.6,5,16.5C5,16.6,5,16.6,5,16.5C5,16.6,5,16.6,5,16.5C5,16.6,5,16.6,5,16.5
		C5,16.6,5,16.6,5,16.5C5,16.6,5,16.6,5,16.5C5,16.6,5,16.6,5,16.5C5,16.6,5,16.6,5,16.5C5,16.6,5,16.6,5,16.5C5,16.6,5,16.6,5,16.5
		C5,16.6,5,16.5,5,16.5z"/>
	<path class="st2" d="M2.1,17.1L2.1,17.1L2.1,17.1L2.1,17.1L2.1,17.1L2.1,17.1L2.1,17.1C2,17.1,2,17.1,2.1,17.1
		C2,17.1,2,17.1,2.1,17.1c-0.1,0-0.1,0-0.1,0l0,0l0,0l0,0l0,0l0,0l0,0l0,0l0,0C2,17.2,2,17.2,2.1,17.1C2.1,17.2,2.1,17.2,2.1,17.1
		C2.1,17.2,2.1,17.2,2.1,17.1C2.1,17.2,2.1,17.2,2.1,17.1C2.1,17.2,2.1,17.2,2.1,17.1C2.1,17.2,2.1,17.2,2.1,17.1
		C2.1,17.2,2.1,17.2,2.1,17.1C2.1,17.2,2.1,17.2,2.1,17.1C2.1,17.2,2.1,17.2,2.1,17.1L2.1,17.1L2.1,17.1z"/>
	<path class="st2" d="M2.7,17.1L2.7,17.1L2.7,17.1L2.7,17.1L2.7,17.1L2.7,17.1C2.6,17.1,2.6,17.1,2.7,17.1
		C2.6,17.1,2.6,17.1,2.7,17.1C2.6,17.1,2.6,17.1,2.7,17.1C2.6,17.1,2.6,17.1,2.7,17.1L2.7,17.1L2.7,17.1L2.7,17.1L2.7,17.1L2.7,17.1
		L2.7,17.1L2.7,17.1L2.7,17.1C2.6,17.2,2.6,17.2,2.7,17.1C2.6,17.2,2.6,17.2,2.7,17.1C2.6,17.2,2.6,17.2,2.7,17.1
		C2.6,17.2,2.6,17.2,2.7,17.1C2.7,17.2,2.7,17.2,2.7,17.1C2.7,17.2,2.7,17.2,2.7,17.1C2.7,17.2,2.7,17.2,2.7,17.1
		C2.7,17.2,2.7,17.2,2.7,17.1C2.7,17.2,2.7,17.2,2.7,17.1L2.7,17.1L2.7,17.1z"/>
	<path class="st2" d="M3.3,17.1L3.3,17.1L3.3,17.1L3.3,17.1C3.2,17.1,3.2,17.1,3.3,17.1C3.2,17.1,3.2,17.1,3.3,17.1
		C3.2,17.1,3.2,17.1,3.3,17.1C3.2,17.1,3.2,17.1,3.3,17.1C3.2,17.1,3.2,17.1,3.3,17.1C3.2,17.1,3.2,17.1,3.3,17.1L3.3,17.1L3.3,17.1
		L3.3,17.1L3.3,17.1L3.3,17.1L3.3,17.1L3.3,17.1L3.3,17.1C3.2,17.2,3.2,17.2,3.3,17.1C3.2,17.2,3.2,17.2,3.3,17.1
		C3.2,17.2,3.2,17.2,3.3,17.1C3.2,17.2,3.2,17.2,3.3,17.1C3.2,17.2,3.2,17.2,3.3,17.1C3.2,17.2,3.2,17.2,3.3,17.1
		C3.2,17.2,3.2,17.2,3.3,17.1C3.3,17.2,3.3,17.2,3.3,17.1C3.3,17.2,3.3,17.2,3.3,17.1C3.3,17.2,3.3,17.2,3.3,17.1
		C3.3,17.2,3.3,17.2,3.3,17.1C3.3,17.2,3.3,17.2,3.3,17.1L3.3,17.1L3.3,17.1z"/>
	<path class="st2" d="M3.9,17.1C3.9,17.1,3.8,17.1,3.9,17.1C3.8,17.1,3.8,17.1,3.9,17.1C3.8,17.1,3.8,17.1,3.9,17.1
		C3.8,17.1,3.8,17.1,3.9,17.1C3.8,17.1,3.8,17.1,3.9,17.1C3.8,17.1,3.8,17.1,3.9,17.1C3.8,17.1,3.8,17.1,3.9,17.1
		C3.8,17.1,3.8,17.1,3.9,17.1C3.8,17.1,3.8,17.1,3.9,17.1L3.9,17.1L3.9,17.1L3.9,17.1L3.9,17.1L3.9,17.1L3.9,17.1L3.9,17.1L3.9,17.1
		C3.8,17.2,3.8,17.2,3.9,17.1C3.8,17.2,3.8,17.2,3.9,17.1C3.8,17.2,3.8,17.2,3.9,17.1C3.8,17.2,3.8,17.2,3.9,17.1
		C3.8,17.2,3.8,17.2,3.9,17.1C3.8,17.2,3.8,17.2,3.9,17.1C3.8,17.2,3.9,17.2,3.9,17.1C3.9,17.2,3.9,17.2,3.9,17.1
		C3.9,17.2,3.9,17.2,3.9,17.1L3.9,17.1L3.9,17.1z"/>
	<path class="st2" d="M4.4,17.1L4.4,17.1L4.4,17.1L4.4,17.1L4.4,17.1L4.4,17.1L4.4,17.1L4.4,17.1C4.3,17.1,4.3,17.1,4.4,17.1
		C4.3,17.1,4.3,17.1,4.4,17.1L4.4,17.1L4.4,17.1L4.4,17.1L4.4,17.1L4.4,17.1L4.4,17.1L4.4,17.1L4.4,17.1C4.3,17.2,4.3,17.2,4.4,17.1
		C4.3,17.2,4.3,17.2,4.4,17.1C4.4,17.2,4.4,17.2,4.4,17.1C4.4,17.2,4.4,17.2,4.4,17.1C4.4,17.2,4.4,17.2,4.4,17.1
		C4.4,17.2,4.4,17.2,4.4,17.1C4.4,17.2,4.4,17.2,4.4,17.1C4.4,17.2,4.4,17.2,4.4,17.1C4.4,17.2,4.4,17.2,4.4,17.1
		C4.4,17.2,4.4,17.2,4.4,17.1C4.4,17.2,4.4,17.2,4.4,17.1C4.4,17.2,4.4,17.2,4.4,17.1L4.4,17.1L4.4,17.1z"/>
	<path class="st2" d="M5,17.1L5,17.1L5,17.1L5,17.1L5,17.1L5,17.1C5,17.1,4.9,17.1,5,17.1C4.9,17.1,4.9,17.1,5,17.1
		C4.9,17.1,4.9,17.1,5,17.1C4.9,17.1,4.9,17.1,5,17.1L5,17.1L5,17.1L5,17.1L5,17.1L5,17.1L5,17.1L5,17.1L5,17.1
		C4.9,17.2,4.9,17.2,5,17.1C4.9,17.2,4.9,17.2,5,17.1C4.9,17.2,4.9,17.2,5,17.1C4.9,17.2,4.9,17.2,5,17.1C5,17.2,5,17.2,5,17.1
		C5,17.2,5,17.2,5,17.1C5,17.2,5,17.2,5,17.1C5,17.2,5,17.2,5,17.1C5,17.2,5,17.2,5,17.1L5,17.1L5,17.1z"/>
</g>
<g>
	<path class="st2" d="M30.8,28.8L30.8,28.8L30.8,28.8L30.8,28.8L30.8,28.8C30.8,28.8,30.7,28.8,30.8,28.8
		C30.7,28.8,30.7,28.8,30.8,28.8C30.7,28.8,30.7,28.8,30.8,28.8C30.7,28.8,30.7,28.8,30.8,28.8c-0.1,0-0.1,0-0.1,0l0,0l0,0l0,0l0,0
		l0,0l0,0l0,0l0,0C30.7,28.9,30.7,28.9,30.8,28.8C30.7,28.9,30.8,28.9,30.8,28.8C30.8,28.9,30.8,28.9,30.8,28.8
		C30.8,28.9,30.8,28.9,30.8,28.8C30.8,28.9,30.8,28.9,30.8,28.8C30.8,28.9,30.8,28.9,30.8,28.8C30.8,28.9,30.8,28.8,30.8,28.8
		L30.8,28.8z"/>
	<path class="st2" d="M31.4,28.8L31.4,28.8L31.4,28.8C31.4,28.8,31.3,28.8,31.4,28.8C31.3,28.8,31.3,28.8,31.4,28.8
		C31.3,28.8,31.3,28.8,31.4,28.8c-0.1,0-0.1,0-0.1,0l0,0l0,0l0,0l0,0l0,0l0,0l0,0l0,0C31.3,28.9,31.3,28.9,31.4,28.8
		C31.3,28.9,31.3,28.9,31.4,28.8C31.4,28.9,31.4,28.9,31.4,28.8C31.4,28.9,31.4,28.9,31.4,28.8C31.4,28.9,31.4,28.9,31.4,28.8
		C31.4,28.9,31.4,28.9,31.4,28.8C31.4,28.9,31.4,28.8,31.4,28.8L31.4,28.8z"/>
	<path class="st2" d="M31.9,28.8L31.9,28.8L31.9,28.8L31.9,28.8L31.9,28.8L31.9,28.8c-0.1,0-0.1,0-0.1,0l0,0l0,0l0,0l0,0l0,0l0,0
		l0,0l0,0C31.9,28.9,31.9,28.9,31.9,28.8C31.9,28.9,31.9,28.9,31.9,28.8C31.9,28.9,31.9,28.9,31.9,28.8
		C31.9,28.9,31.9,28.9,31.9,28.8C31.9,28.9,31.9,28.9,31.9,28.8C31.9,28.9,31.9,28.9,31.9,28.8C31.9,28.9,31.9,28.8,31.9,28.8
		L31.9,28.8z"/>
	<path class="st2" d="M32.5,28.8L32.5,28.8L32.5,28.8L32.5,28.8L32.5,28.8L32.5,28.8L32.5,28.8C32.4,28.8,32.4,28.8,32.5,28.8
		C32.4,28.8,32.4,28.8,32.5,28.8C32.4,28.8,32.4,28.8,32.5,28.8L32.5,28.8L32.5,28.8L32.5,28.8L32.5,28.8L32.5,28.8L32.5,28.8
		L32.5,28.8L32.5,28.8C32.4,28.9,32.4,28.9,32.5,28.8C32.5,28.9,32.5,28.9,32.5,28.8C32.5,28.9,32.5,28.9,32.5,28.8
		C32.5,28.9,32.5,28.9,32.5,28.8C32.5,28.9,32.5,28.9,32.5,28.8C32.5,28.9,32.5,28.9,32.5,28.8C32.5,28.9,32.5,28.8,32.5,28.8
		L32.5,28.8z"/>
	<path class="st2" d="M33.1,28.8L33.1,28.8L33.1,28.8L33.1,28.8C33,28.8,33,28.8,33.1,28.8C33,28.8,33,28.8,33.1,28.8
		C33,28.8,33,28.8,33.1,28.8L33.1,28.8L33.1,28.8L33.1,28.8L33.1,28.8L33.1,28.8L33.1,28.8L33.1,28.8L33.1,28.8
		C33,28.9,33,28.9,33.1,28.8C33.1,28.9,33.1,28.9,33.1,28.8C33.1,28.9,33.1,28.9,33.1,28.8C33.1,28.9,33.1,28.9,33.1,28.8
		C33.1,28.9,33.1,28.9,33.1,28.8C33.1,28.9,33.1,28.9,33.1,28.8C33.1,28.9,33.1,28.8,33.1,28.8L33.1,28.8z"/>
	<path class="st2" d="M33.6,28.9L33.6,28.9L33.6,28.9L33.6,28.9L33.6,28.9L33.6,28.9C33.6,28.9,33.7,28.9,33.6,28.9
		C33.7,28.9,33.7,28.9,33.6,28.9L33.6,28.9L33.6,28.9L33.6,28.9L33.6,28.9L33.6,28.9L33.6,28.9L33.6,28.9L33.6,28.9
		C33.7,28.8,33.7,28.8,33.6,28.9C33.7,28.8,33.6,28.8,33.6,28.9C33.6,28.8,33.6,28.8,33.6,28.9C33.6,28.8,33.6,28.8,33.6,28.9
		C33.6,28.8,33.6,28.8,33.6,28.9C33.6,28.8,33.6,28.8,33.6,28.9C33.6,28.8,33.6,28.8,33.6,28.9C33.6,28.8,33.6,28.9,33.6,28.9
		L33.6,28.9L33.6,28.9z"/>
	<path class="st2" d="M30.8,29.4L30.8,29.4L30.8,29.4h-0.1l0,0l0,0l0,0l0,0l0,0C30.7,29.5,30.7,29.5,30.8,29.4
		C30.7,29.5,30.7,29.5,30.8,29.4C30.7,29.5,30.7,29.5,30.8,29.4C30.7,29.5,30.7,29.5,30.8,29.4C30.7,29.5,30.7,29.5,30.8,29.4
		C30.7,29.5,30.8,29.5,30.8,29.4C30.8,29.5,30.8,29.5,30.8,29.4C30.8,29.5,30.8,29.5,30.8,29.4C30.8,29.5,30.8,29.5,30.8,29.4
		C30.8,29.5,30.8,29.5,30.8,29.4C30.8,29.5,30.8,29.4,30.8,29.4L30.8,29.4L30.8,29.4L30.8,29.4z"/>
	<path class="st2" d="M31.4,29.4L31.4,29.4L31.4,29.4C31.4,29.4,31.3,29.4,31.4,29.4C31.3,29.4,31.3,29.4,31.4,29.4
		C31.3,29.4,31.3,29.4,31.4,29.4c-0.1,0-0.1,0-0.1,0l0,0l0,0l0,0l0,0l0,0l0,0l0,0l0,0C31.3,29.4,31.3,29.5,31.4,29.4
		C31.3,29.5,31.3,29.5,31.4,29.4C31.3,29.5,31.3,29.5,31.4,29.4C31.3,29.5,31.3,29.5,31.4,29.4C31.3,29.5,31.3,29.5,31.4,29.4
		C31.3,29.5,31.3,29.5,31.4,29.4C31.3,29.5,31.3,29.5,31.4,29.4C31.3,29.5,31.4,29.5,31.4,29.4C31.4,29.5,31.4,29.4,31.4,29.4
		L31.4,29.4L31.4,29.4z"/>
	<path class="st2" d="M31.9,29.4L31.9,29.4L31.9,29.4L31.9,29.4L31.9,29.4L31.9,29.4c-0.1,0-0.1,0-0.1,0l0,0l0,0l0,0l0,0l0,0
		C31.9,29.5,31.9,29.5,31.9,29.4C31.9,29.5,31.9,29.5,31.9,29.4C31.9,29.5,31.9,29.5,31.9,29.4C31.9,29.5,31.9,29.5,31.9,29.4
		C31.9,29.5,31.9,29.5,31.9,29.4C31.9,29.5,31.9,29.5,31.9,29.4C31.9,29.5,31.9,29.5,31.9,29.4C31.9,29.5,31.9,29.4,31.9,29.4
		L31.9,29.4L31.9,29.4L31.9,29.4z"/>
	<path class="st2" d="M32.5,29.4L32.5,29.4L32.5,29.4L32.5,29.4L32.5,29.4L32.5,29.4C32.4,29.4,32.4,29.4,32.5,29.4L32.5,29.4
		L32.5,29.4L32.5,29.4L32.5,29.4L32.5,29.4L32.5,29.4L32.5,29.4L32.5,29.4C32.4,29.5,32.4,29.5,32.5,29.4
		C32.4,29.5,32.4,29.5,32.5,29.4C32.4,29.5,32.4,29.5,32.5,29.4C32.5,29.5,32.5,29.5,32.5,29.4C32.5,29.5,32.5,29.5,32.5,29.4
		C32.5,29.5,32.5,29.5,32.5,29.4C32.5,29.5,32.5,29.5,32.5,29.4C32.5,29.5,32.5,29.5,32.5,29.4C32.5,29.5,32.5,29.5,32.5,29.4
		C32.5,29.5,32.5,29.5,32.5,29.4C32.5,29.5,32.5,29.4,32.5,29.4L32.5,29.4L32.5,29.4L32.5,29.4z"/>
	<path class="st2" d="M33.1,29.4L33.1,29.4L33.1,29.4L33.1,29.4L33.1,29.4L33.1,29.4C33,29.4,33,29.4,33.1,29.4L33.1,29.4L33.1,29.4
		L33.1,29.4L33.1,29.4L33.1,29.4L33.1,29.4L33.1,29.4L33.1,29.4C33,29.5,33,29.5,33.1,29.4C33,29.5,33,29.5,33.1,29.4
		C33,29.5,33,29.5,33.1,29.4C33,29.5,33,29.5,33.1,29.4C33,29.5,33.1,29.5,33.1,29.4C33.1,29.5,33.1,29.5,33.1,29.4
		C33.1,29.5,33.1,29.5,33.1,29.4C33.1,29.5,33.1,29.5,33.1,29.4C33.1,29.5,33.1,29.4,33.1,29.4L33.1,29.4L33.1,29.4z"/>
	<path class="st2" d="M33.7,29.4L33.7,29.4L33.7,29.4C33.7,29.4,33.6,29.4,33.7,29.4C33.6,29.4,33.6,29.4,33.7,29.4
		C33.6,29.4,33.6,29.4,33.7,29.4C33.6,29.4,33.6,29.4,33.7,29.4L33.7,29.4L33.7,29.4L33.7,29.4L33.7,29.4L33.7,29.4
		C33.6,29.5,33.6,29.5,33.7,29.4C33.6,29.5,33.6,29.5,33.7,29.4C33.6,29.5,33.6,29.5,33.7,29.4C33.6,29.5,33.7,29.5,33.7,29.4
		C33.7,29.5,33.7,29.5,33.7,29.4C33.7,29.5,33.7,29.5,33.7,29.4C33.7,29.5,33.7,29.5,33.7,29.4C33.7,29.5,33.7,29.4,33.7,29.4
		L33.7,29.4L33.7,29.4L33.7,29.4z"/>
	<path class="st2" d="M30.8,30L30.8,30L30.8,30L30.8,30L30.8,30C30.8,30,30.7,30,30.8,30C30.7,29.9,30.7,29.9,30.8,30
		C30.7,30,30.7,30,30.8,30C30.7,30,30.7,30,30.8,30c-0.1,0-0.1,0-0.1,0l0,0l0,0l0,0l0,0l0,0l0,0l0,0l0,0
		C30.7,30.1,30.7,30.1,30.8,30C30.7,30.1,30.7,30.1,30.8,30C30.7,30.1,30.8,30.1,30.8,30C30.8,30.1,30.8,30.1,30.8,30
		C30.8,30.1,30.8,30.1,30.8,30C30.8,30.1,30.8,30,30.8,30L30.8,30L30.8,30L30.8,30L30.8,30L30.8,30z"/>
	<path class="st2" d="M31.4,30L31.4,30L31.4,30C31.4,30,31.3,30,31.4,30C31.3,30,31.3,30,31.4,30C31.3,30,31.3,30,31.4,30
		C31.3,29.9,31.3,29.9,31.4,30C31.3,30,31.3,30,31.4,30C31.3,30,31.3,30,31.4,30c-0.1,0-0.1,0-0.1,0l0,0l0,0l0,0l0,0l0,0l0,0l0,0
		l0,0C31.3,30.1,31.3,30.1,31.4,30C31.3,30.1,31.3,30.1,31.4,30C31.3,30.1,31.3,30.1,31.4,30C31.3,30.1,31.3,30.1,31.4,30
		C31.3,30.1,31.3,30.1,31.4,30C31.4,30.1,31.4,30,31.4,30L31.4,30L31.4,30L31.4,30L31.4,30L31.4,30z"/>
	<path class="st2" d="M31.9,30L31.9,30L31.9,30L31.9,30L31.9,30L31.9,30C31.9,29.9,31.9,29.9,31.9,30L31.9,30L31.9,30
		c-0.1,0-0.1,0-0.1,0l0,0l0,0l0,0l0,0l0,0l0,0l0,0l0,0C31.8,30.1,31.8,30.1,31.9,30C31.9,30.1,31.9,30.1,31.9,30
		C31.9,30.1,31.9,30.1,31.9,30C31.9,30.1,31.9,30.1,31.9,30C31.9,30.1,31.9,30.1,31.9,30C31.9,30.1,31.9,30.1,31.9,30
		C31.9,30.1,31.9,30.1,31.9,30C31.9,30.1,31.9,30.1,31.9,30C31.9,30.1,31.9,30,31.9,30L31.9,30L31.9,30L31.9,30L31.9,30L31.9,30z"/>
	<path class="st2" d="M32.5,30L32.5,30L32.5,30L32.5,30L32.5,30L32.5,30C32.5,29.9,32.5,29.9,32.5,30C32.4,30,32.4,30,32.5,30
		C32.4,30,32.4,30,32.5,30C32.4,30,32.4,30,32.5,30L32.5,30L32.5,30L32.5,30L32.5,30L32.5,30L32.5,30L32.5,30L32.5,30
		C32.4,30.1,32.4,30.1,32.5,30C32.4,30.1,32.4,30.1,32.5,30C32.4,30.1,32.4,30.1,32.5,30C32.5,30.1,32.5,30.1,32.5,30
		C32.5,30.1,32.5,30.1,32.5,30C32.5,30.1,32.5,30,32.5,30L32.5,30L32.5,30L32.5,30L32.5,30L32.5,30z"/>
	<path class="st2" d="M33.1,30L33.1,30L33.1,30L33.1,30L33.1,30L33.1,30C33,29.9,33,29.9,33.1,30C33,30,33,30,33.1,30
		C33,30,33,30,33.1,30C33,30,33,30,33.1,30L33.1,30L33.1,30L33.1,30L33.1,30L33.1,30L33.1,30L33.1,30L33.1,30
		C33,30.1,33,30.1,33.1,30C33,30.1,33,30.1,33.1,30C33,30.1,33,30.1,33.1,30C33,30.1,33,30.1,33.1,30C33,30.1,33.1,30.1,33.1,30
		C33.1,30.1,33.1,30.1,33.1,30C33.1,30.1,33.1,30.1,33.1,30C33.1,30.1,33.1,30.1,33.1,30C33.1,30.1,33.1,30,33.1,30L33.1,30L33.1,30
		L33.1,30L33.1,30L33.1,30z"/>
	<path class="st2" d="M33.7,30L33.7,30L33.7,30L33.7,30C33.7,30,33.6,30,33.7,30C33.6,30,33.6,30,33.7,30
		C33.6,29.9,33.6,29.9,33.7,30C33.6,30,33.6,30,33.7,30C33.6,30,33.6,30,33.7,30C33.6,30,33.6,30,33.7,30L33.7,30L33.7,30L33.7,30
		L33.7,30L33.7,30L33.7,30L33.7,30L33.7,30C33.6,30.1,33.6,30.1,33.7,30C33.6,30.1,33.6,30.1,33.7,30C33.6,30.1,33.6,30.1,33.7,30
		C33.6,30.1,33.6,30.1,33.7,30C33.6,30.1,33.7,30.1,33.7,30C33.7,30.1,33.7,30,33.7,30L33.7,30L33.7,30L33.7,30L33.7,30L33.7,30z"/>
</g>
<path class="st6" d="M31.1,11.6C31.1,11.6,31.2,11.6,31.1,11.6C31.2,11.6,31.2,11.6,31.1,11.6c0.1,0.1,0.1,0.1,0.1,0.1c0,0,0,0,0,0
	l0,0c0,0,0,0,0,0c0,0,0,0,0,0c0,0,0,0,0,0c0,0,0,0,0,0c0,0,0,0,0,0c0,0,0,0,0,0.1c0,0,0,0,0,0.1c0,0,0,0,0,0.1l0,0c0,0,0,0,0,0
	c0,0,0,0,0,0l0,0c0,0,0,0,0,0.1c0,0,0,0,0,0.1c0,0,0,0,0,0c0,0,0,0,0,0l0,0l-0.2,0c0,0,0,0,0,0l0,0c0,0,0,0,0,0l0.1-0.1l0.1-0.2
	c0-0.1,0.1-0.1,0.1-0.2c0-0.1,0.1-0.1,0.1-0.2c0-0.1,0.1-0.1,0.1-0.1c0,0,0.1-0.1,0.1-0.1c0,0,0.1-0.1,0.1-0.1c0,0,0.1,0,0.1-0.1
	c0,0,0.1,0,0.1-0.1c0,0,0,0,0,0c0,0,0,0,0,0c0,0,0,0-0.1,0.1c0,0,0,0-0.1,0.1c0,0,0,0-0.1,0.1c0,0,0,0-0.1,0.1c0,0-0.1,0.1-0.1,0.2
	c0,0,0,0.1-0.1,0.1c0,0,0,0.1,0,0.1c0,0.1-0.1,0.1-0.1,0.2c0,0.1-0.1,0.1-0.1,0.2c0,0,0,0.1,0,0.1c0,0,0,0.1,0,0.1c0,0,0,0.1,0,0.1
	l0,0l0,0l-0.1,0.3l-0.1-0.3l0-0.1c0,0,0,0,0,0c0,0,0,0,0,0l0-0.1L31.3,12c0,0,0,0,0-0.1l0,0l0,0c0,0,0,0,0-0.1c0,0,0,0,0-0.1
	c0,0,0,0,0-0.1c0,0,0,0,0-0.1C31.1,11.7,31.1,11.7,31.1,11.6C31.1,11.6,31.1,11.6,31.1,11.6C31.1,11.6,31.1,11.6,31.1,11.6
	C31.1,11.6,31.1,11.6,31.1,11.6z"/>
<path class="st10" d="M35.1,7C35.1,7,35.2,7,35.1,7C35.2,7,35.1,7,35.1,7C35.1,7.1,35.1,7.1,35.1,7c0,0.1,0,0.1,0,0.1c0,0,0,0,0,0
	C35.1,7.1,35.1,7.1,35.1,7C35,7.1,35,7.1,35,7c0,0,0,0,0,0C35,7,35,7,35.1,7C35.1,7,35.1,7,35.1,7C35.1,7,35.1,7,35.1,7z M35.7,7
	C35.7,7,35.7,7,35.7,7C35.7,7,35.6,7,35.7,7c-0.1,0-0.1,0-0.1,0c0,0,0,0,0,0C35.6,7,35.6,7.1,35.7,7c-0.1,0.1-0.1,0.1-0.1,0.1
	c0,0,0,0,0,0c0,0,0,0,0,0C35.7,7.1,35.7,7.1,35.7,7C35.7,7.1,35.7,7.1,35.7,7C35.7,7,35.7,7,35.7,7C35.7,7,35.7,7,35.7,7
	C35.7,7,35.7,7,35.7,7z M36.2,7C36.2,7,36.2,7,36.2,7C36.2,7,36.2,7,36.2,7C36.2,7,36.2,7,36.2,7c0,0.1,0,0.1,0,0.1c0,0,0,0,0,0
	c0,0,0,0,0,0c0,0,0,0,0,0c0,0,0,0,0,0C36.3,7.1,36.3,7,36.2,7C36.3,7,36.3,7,36.2,7C36.3,7,36.2,7,36.2,7z M36.9,7
	C36.9,7,36.9,7,36.9,7C36.8,7,36.8,7,36.9,7c-0.1,0-0.1,0-0.1,0c0,0,0,0,0,0c0,0,0,0,0,0C36.8,7.1,36.8,7.1,36.9,7
	c-0.1,0.1-0.1,0.1,0,0.1C36.8,7.1,36.9,7.1,36.9,7C36.9,7.1,36.9,7,36.9,7C36.9,7,36.9,7,36.9,7C36.9,7,36.9,7,36.9,7z M37.4,7
	C37.4,7,37.4,7,37.4,7C37.4,7,37.4,7,37.4,7C37.3,7,37.3,7,37.4,7c0,0.1,0,0.1,0,0.1c0,0,0,0,0,0c0,0,0,0,0,0c0,0,0,0,0,0
	c0,0,0,0,0,0C37.5,7.1,37.5,7.1,37.4,7C37.5,7,37.5,7,37.4,7C37.5,7,37.5,7,37.4,7C37.4,7,37.4,7,37.4,7z M37.9,7.1
	C37.9,7.1,38,7.1,37.9,7.1C38,7.1,38,7.1,37.9,7.1C38,7.1,38,7.1,37.9,7.1C38,7.1,38,7.1,37.9,7.1c0.1,0,0.1,0,0.1,0c0,0,0,0,0,0
	C38,7,38,7,37.9,7.1C38,7,38,7,37.9,7.1C37.9,7,37.9,7,37.9,7.1C37.9,7,37.9,7,37.9,7.1C37.9,7.1,37.9,7.1,37.9,7.1z M35.1,7.5
	C35.1,7.5,35.1,7.6,35.1,7.5C35,7.6,35,7.6,35.1,7.5C35,7.6,35,7.6,35.1,7.5c0,0.1,0,0.1,0,0.1c0,0,0,0,0,0c0,0,0,0,0,0c0,0,0,0,0,0
	C35.1,7.6,35.1,7.6,35.1,7.5C35.1,7.6,35.2,7.6,35.1,7.5C35.2,7.6,35.1,7.6,35.1,7.5C35.1,7.5,35.1,7.5,35.1,7.5z M35.6,7.5
	C35.6,7.5,35.6,7.6,35.6,7.5C35.6,7.6,35.6,7.6,35.6,7.5c0,0.1,0,0.1,0,0.1c0,0,0,0,0,0c0,0,0,0,0,0c0,0,0,0,0,0
	C35.7,7.6,35.7,7.6,35.6,7.5C35.7,7.6,35.7,7.6,35.6,7.5C35.7,7.6,35.7,7.6,35.6,7.5C35.7,7.5,35.7,7.5,35.6,7.5z M36.2,7.5
	C36.2,7.5,36.2,7.6,36.2,7.5C36.2,7.6,36.2,7.6,36.2,7.5C36.2,7.6,36.2,7.6,36.2,7.5c0,0.1,0,0.1,0,0.1c0,0,0,0,0,0c0,0,0,0,0,0
	c0,0,0,0,0,0C36.3,7.6,36.3,7.6,36.2,7.5C36.3,7.6,36.3,7.6,36.2,7.5C36.3,7.6,36.3,7.6,36.2,7.5C36.3,7.5,36.2,7.5,36.2,7.5z
	 M36.8,7.6C36.8,7.6,36.8,7.6,36.8,7.6C36.8,7.6,36.8,7.6,36.8,7.6c0,0.1,0,0.1,0,0.1C36.8,7.7,36.9,7.7,36.8,7.6
	c0.1,0.1,0.1,0.1,0.1,0C36.9,7.6,36.9,7.6,36.8,7.6C36.8,7.5,36.8,7.5,36.8,7.6z M37.4,7.6C37.4,7.5,37.4,7.5,37.4,7.6
	C37.4,7.5,37.4,7.6,37.4,7.6c-0.1,0-0.1,0-0.1,0c0,0,0,0,0,0C37.4,7.6,37.4,7.6,37.4,7.6c-0.1,0.1-0.1,0.1-0.1,0.1c0,0,0,0,0,0
	c0,0,0,0,0,0C37.4,7.7,37.4,7.7,37.4,7.6C37.5,7.6,37.5,7.6,37.4,7.6C37.5,7.6,37.5,7.6,37.4,7.6C37.5,7.6,37.5,7.6,37.4,7.6z
	 M38,7.5C38,7.5,37.9,7.6,38,7.5C37.9,7.6,37.9,7.6,38,7.5C37.9,7.6,37.9,7.6,38,7.5c0,0.1,0,0.1,0,0.1c0,0,0,0,0,0c0,0,0,0,0,0
	c0,0,0,0,0,0c0,0,0,0,0,0C38,7.6,38,7.6,38,7.5C38,7.6,38,7.6,38,7.5C38,7.6,38,7.6,38,7.5C38,7.5,38,7.5,38,7.5z M35.1,8.1
	C35.1,8.1,35.1,8.1,35.1,8.1C35.1,8.1,35.1,8.1,35.1,8.1c-0.1,0-0.1,0-0.1,0c0,0,0,0,0,0C35,8.2,35,8.2,35.1,8.1
	c-0.1,0.1-0.1,0.1,0,0.1C35.1,8.2,35.1,8.2,35.1,8.1C35.1,8.2,35.2,8.2,35.1,8.1C35.2,8.2,35.1,8.2,35.1,8.1
	C35.1,8.1,35.1,8.1,35.1,8.1z M35.6,8.1C35.6,8.1,35.6,8.1,35.6,8.1C35.6,8.1,35.6,8.2,35.6,8.1c0,0.1,0,0.1,0,0.1c0,0,0,0,0,0
	c0,0,0,0,0,0c0,0,0,0,0,0C35.7,8.2,35.7,8.2,35.6,8.1C35.7,8.2,35.7,8.2,35.6,8.1C35.7,8.2,35.7,8.1,35.6,8.1
	C35.7,8.1,35.7,8.1,35.6,8.1z M36.2,8.1C36.2,8.1,36.2,8.1,36.2,8.1C36.2,8.1,36.2,8.1,36.2,8.1C36.2,8.2,36.2,8.2,36.2,8.1
	c0,0.1,0,0.1,0,0.1c0,0,0,0,0,0c0,0,0,0,0,0c0,0,0,0,0,0c0,0,0,0,0,0C36.3,8.2,36.3,8.2,36.2,8.1C36.3,8.2,36.3,8.1,36.2,8.1
	C36.3,8.1,36.2,8.1,36.2,8.1z M36.8,8.1C36.8,8.1,36.8,8.2,36.8,8.1C36.8,8.2,36.8,8.2,36.8,8.1C36.8,8.2,36.8,8.2,36.8,8.1
	c0,0.1,0,0.1,0,0.1C36.8,8.2,36.9,8.2,36.8,8.1c0.1,0.1,0.1,0.1,0.1,0C36.9,8.2,36.9,8.1,36.8,8.1C36.8,8.1,36.8,8.1,36.8,8.1z
	 M37.4,8.1C37.4,8.1,37.4,8.1,37.4,8.1C37.4,8.1,37.4,8.1,37.4,8.1C37.3,8.2,37.3,8.2,37.4,8.1c0,0.1,0,0.1,0,0.1c0,0,0,0,0,0
	c0,0,0,0,0,0c0,0,0,0,0,0c0,0,0,0,0,0C37.5,8.2,37.5,8.2,37.4,8.1C37.5,8.2,37.5,8.2,37.4,8.1C37.5,8.2,37.5,8.1,37.4,8.1
	C37.4,8.1,37.4,8.1,37.4,8.1z M37.9,8.1C37.9,8.1,37.9,8.2,37.9,8.1C37.9,8.2,37.9,8.2,37.9,8.1C37.9,8.2,37.9,8.2,37.9,8.1
	c0,0.1,0,0.1,0,0.1c0,0,0,0,0,0c0,0,0,0,0,0C38,8.2,38,8.2,37.9,8.1C38,8.2,38,8.2,38,8.2c0,0,0,0,0,0C38,8.2,38,8.1,37.9,8.1
	C38,8.1,38,8.1,37.9,8.1z M35.1,8.7C35.1,8.7,35.1,8.7,35.1,8.7C35.1,8.7,35.1,8.7,35.1,8.7c-0.1,0-0.1,0-0.1,0c0,0,0,0,0,0
	C35,8.8,35,8.8,35.1,8.7c-0.1,0.1-0.1,0.1,0,0.1C35.1,8.8,35.1,8.8,35.1,8.7C35.1,8.8,35.2,8.8,35.1,8.7C35.2,8.8,35.1,8.7,35.1,8.7
	C35.1,8.7,35.1,8.7,35.1,8.7z M35.7,8.7C35.7,8.7,35.6,8.7,35.7,8.7C35.6,8.7,35.6,8.7,35.7,8.7c-0.1,0.1-0.1,0.1-0.1,0.1
	c0,0,0,0,0,0c0,0,0,0,0,0c0,0,0,0,0,0c0,0,0,0,0,0C35.7,8.8,35.7,8.8,35.7,8.7C35.7,8.7,35.7,8.7,35.7,8.7
	C35.7,8.7,35.7,8.7,35.7,8.7z M36.3,8.7C36.3,8.7,36.2,8.7,36.3,8.7C36.2,8.7,36.2,8.7,36.3,8.7c-0.1,0-0.1,0-0.1,0c0,0,0,0,0,0
	C36.2,8.8,36.2,8.8,36.3,8.7c-0.1,0.1-0.1,0.1-0.1,0.1c0,0,0,0,0,0c0,0,0,0,0,0C36.3,8.8,36.3,8.8,36.3,8.7
	C36.3,8.8,36.3,8.8,36.3,8.7C36.3,8.8,36.3,8.7,36.3,8.7C36.3,8.7,36.3,8.7,36.3,8.7z M36.8,8.7C36.8,8.7,36.8,8.7,36.8,8.7
	C36.8,8.8,36.8,8.8,36.8,8.7c0,0.1,0,0.1,0,0.1c0,0,0,0,0,0c0,0,0,0,0,0C36.9,8.8,36.9,8.8,36.8,8.7c0.1,0.1,0.1,0.1,0.1,0
	C36.9,8.7,36.9,8.7,36.8,8.7C36.8,8.7,36.8,8.7,36.8,8.7z M37.4,8.7C37.4,8.7,37.4,8.7,37.4,8.7C37.4,8.7,37.4,8.7,37.4,8.7
	c-0.1,0-0.1,0-0.1,0c0,0,0,0,0,0C37.4,8.8,37.4,8.8,37.4,8.7c-0.1,0.1-0.1,0.1-0.1,0.1c0,0,0,0,0,0c0,0,0,0,0,0
	C37.4,8.8,37.4,8.8,37.4,8.7C37.5,8.8,37.5,8.8,37.4,8.7C37.5,8.8,37.5,8.7,37.4,8.7C37.5,8.7,37.5,8.7,37.4,8.7z M37.9,8.7
	C37.9,8.7,37.9,8.7,37.9,8.7C37.9,8.8,37.9,8.8,37.9,8.7C37.9,8.8,37.9,8.8,37.9,8.7c0,0.1,0,0.1,0,0.1c0,0,0,0,0,0c0,0,0,0,0,0
	C38,8.8,38,8.8,37.9,8.7C38,8.8,38,8.8,38,8.8c0,0,0,0,0,0C38,8.7,38,8.7,37.9,8.7C38,8.7,38,8.7,37.9,8.7z M35.1,9.3
	C35.1,9.3,35.1,9.3,35.1,9.3C35.1,9.3,35.1,9.3,35.1,9.3c-0.1,0-0.1,0-0.1,0S35,9.4,35.1,9.3c-0.1,0.1-0.1,0.1-0.1,0.1c0,0,0,0,0,0
	C35.1,9.4,35.1,9.4,35.1,9.3C35.1,9.4,35.1,9.4,35.1,9.3C35.1,9.4,35.2,9.3,35.1,9.3C35.2,9.3,35.1,9.3,35.1,9.3
	C35.1,9.3,35.1,9.3,35.1,9.3z M35.7,9.3C35.7,9.3,35.6,9.3,35.7,9.3C35.6,9.3,35.6,9.3,35.7,9.3c-0.1,0.1-0.1,0.1-0.1,0.1
	c0,0,0,0,0,0c0,0,0,0,0,0c0,0,0,0,0,0c0,0,0,0,0,0C35.7,9.4,35.7,9.4,35.7,9.3C35.7,9.3,35.7,9.3,35.7,9.3
	C35.7,9.3,35.7,9.3,35.7,9.3z M36.2,9.3C36.2,9.3,36.2,9.3,36.2,9.3C36.2,9.3,36.2,9.3,36.2,9.3C36.2,9.3,36.2,9.3,36.2,9.3
	c0,0.1,0,0.1,0,0.1c0,0,0,0,0,0c0,0,0,0,0,0c0,0,0,0,0,0c0,0,0,0,0,0C36.3,9.4,36.3,9.4,36.2,9.3C36.3,9.3,36.3,9.3,36.2,9.3
	C36.3,9.3,36.2,9.3,36.2,9.3z M36.8,9.3C36.8,9.3,36.8,9.3,36.8,9.3C36.8,9.3,36.8,9.3,36.8,9.3c-0.1,0.1-0.1,0.1-0.1,0.1
	c0,0,0,0,0,0c0,0,0,0,0,0C36.9,9.4,36.9,9.4,36.8,9.3C36.9,9.3,36.9,9.3,36.8,9.3C36.9,9.3,36.9,9.3,36.8,9.3z M37.4,9.3
	C37.4,9.3,37.4,9.3,37.4,9.3C37.4,9.3,37.4,9.3,37.4,9.3C37.3,9.3,37.3,9.3,37.4,9.3c0,0.1,0,0.1,0,0.1c0,0,0,0,0,0c0,0,0,0,0,0
	c0,0,0,0,0,0c0,0,0,0,0,0C37.5,9.4,37.5,9.4,37.4,9.3C37.5,9.4,37.5,9.3,37.4,9.3C37.5,9.3,37.5,9.3,37.4,9.3
	C37.4,9.3,37.4,9.3,37.4,9.3z M38,9.3C38,9.3,37.9,9.3,38,9.3C37.9,9.3,37.9,9.3,38,9.3C37.9,9.3,37.9,9.4,38,9.3c0,0.1,0,0.1,0,0.1
	c0,0,0,0,0,0c0,0,0,0,0,0c0,0,0,0,0,0c0,0,0,0,0,0C38,9.4,38,9.4,38,9.3C38,9.4,38,9.3,38,9.3C38,9.3,38,9.3,38,9.3
	C38,9.3,38,9.3,38,9.3z"/>
<g>
	<path class="st10" d="M24.8,1.7C24.8,1.7,24.8,1.7,24.8,1.7C24.7,1.7,24.7,1.7,24.8,1.7C24.7,1.6,24.7,1.6,24.8,1.7
		C24.7,1.6,24.7,1.6,24.8,1.7C24.7,1.6,24.7,1.6,24.8,1.7C24.7,1.6,24.7,1.6,24.8,1.7C24.7,1.6,24.7,1.6,24.8,1.7
		C24.7,1.6,24.7,1.6,24.8,1.7C24.7,1.6,24.7,1.6,24.8,1.7C24.7,1.7,24.7,1.7,24.8,1.7C24.7,1.7,24.7,1.7,24.8,1.7
		c-0.1,0-0.1,0-0.1,0c0,0,0,0,0,0c0,0,0,0,0,0C24.7,1.7,24.7,1.7,24.8,1.7C24.7,1.7,24.7,1.7,24.8,1.7C24.7,1.7,24.7,1.7,24.8,1.7
		C24.7,1.7,24.7,1.7,24.8,1.7C24.7,1.7,24.7,1.7,24.8,1.7C24.7,1.7,24.7,1.7,24.8,1.7C24.8,1.7,24.8,1.7,24.8,1.7
		C24.8,1.7,24.8,1.7,24.8,1.7C24.8,1.7,24.8,1.7,24.8,1.7C24.8,1.7,24.8,1.7,24.8,1.7C24.8,1.7,24.8,1.7,24.8,1.7z"/>
	<path class="st10" d="M25.2,1.7C25.2,1.7,25.2,1.7,25.2,1.7C25.2,1.7,25.2,1.7,25.2,1.7C25.2,1.6,25.2,1.6,25.2,1.7
		C25.2,1.6,25.2,1.6,25.2,1.7C25.2,1.6,25.2,1.6,25.2,1.7C25.2,1.6,25.2,1.6,25.2,1.7C25.2,1.7,25.2,1.7,25.2,1.7
		C25.2,1.7,25.2,1.7,25.2,1.7c-0.1,0-0.1,0-0.1,0c0,0,0,0,0,0c0,0,0,0,0,0C25.1,1.7,25.1,1.7,25.2,1.7C25.2,1.7,25.2,1.7,25.2,1.7
		C25.2,1.7,25.2,1.7,25.2,1.7C25.2,1.7,25.2,1.7,25.2,1.7C25.2,1.7,25.2,1.7,25.2,1.7C25.2,1.7,25.2,1.7,25.2,1.7
		C25.2,1.7,25.2,1.7,25.2,1.7C25.2,1.7,25.2,1.7,25.2,1.7C25.3,1.7,25.3,1.7,25.2,1.7C25.3,1.7,25.3,1.7,25.2,1.7
		C25.2,1.7,25.2,1.7,25.2,1.7z"/>
	<path class="st10" d="M25.7,1.7C25.7,1.7,25.7,1.7,25.7,1.7C25.7,1.7,25.7,1.7,25.7,1.7C25.7,1.6,25.7,1.6,25.7,1.7
		C25.7,1.6,25.7,1.6,25.7,1.7C25.7,1.6,25.7,1.6,25.7,1.7C25.7,1.6,25.7,1.6,25.7,1.7C25.7,1.7,25.6,1.7,25.7,1.7
		C25.6,1.7,25.6,1.7,25.7,1.7c-0.1,0-0.1,0-0.1,0c0,0,0,0,0,0c0,0,0,0,0,0C25.6,1.7,25.6,1.7,25.7,1.7C25.6,1.7,25.6,1.7,25.7,1.7
		C25.6,1.7,25.7,1.7,25.7,1.7C25.7,1.7,25.7,1.7,25.7,1.7C25.7,1.7,25.7,1.7,25.7,1.7C25.7,1.7,25.7,1.7,25.7,1.7
		C25.7,1.7,25.7,1.7,25.7,1.7C25.7,1.7,25.7,1.7,25.7,1.7C25.7,1.7,25.7,1.7,25.7,1.7C25.7,1.7,25.7,1.7,25.7,1.7
		C25.7,1.7,25.7,1.7,25.7,1.7z"/>
	<path class="st10" d="M26.2,1.7C26.2,1.7,26.2,1.7,26.2,1.7C26.2,1.7,26.2,1.7,26.2,1.7C26.2,1.6,26.2,1.6,26.2,1.7
		C26.2,1.6,26.2,1.6,26.2,1.7C26.2,1.6,26.2,1.6,26.2,1.7C26.2,1.6,26.2,1.6,26.2,1.7C26.2,1.6,26.2,1.6,26.2,1.7
		C26.2,1.6,26.2,1.6,26.2,1.7C26.2,1.6,26.1,1.6,26.2,1.7C26.1,1.7,26.1,1.7,26.2,1.7C26.1,1.7,26.1,1.7,26.2,1.7
		c-0.1,0-0.1,0-0.1,0c0,0,0,0,0,0c0,0,0,0,0,0C26.1,1.7,26.1,1.7,26.2,1.7C26.1,1.7,26.1,1.7,26.2,1.7C26.1,1.7,26.1,1.7,26.2,1.7
		C26.2,1.7,26.2,1.7,26.2,1.7C26.2,1.7,26.2,1.7,26.2,1.7C26.2,1.7,26.2,1.7,26.2,1.7C26.2,1.7,26.2,1.7,26.2,1.7
		C26.2,1.7,26.2,1.7,26.2,1.7C26.2,1.7,26.2,1.7,26.2,1.7C26.2,1.7,26.2,1.7,26.2,1.7C26.2,1.7,26.2,1.7,26.2,1.7z"/>
	<path class="st10" d="M26.7,1.7C26.7,1.7,26.7,1.7,26.7,1.7C26.7,1.7,26.7,1.7,26.7,1.7C26.7,1.6,26.7,1.6,26.7,1.7
		C26.7,1.6,26.7,1.6,26.7,1.7C26.7,1.6,26.6,1.6,26.7,1.7C26.6,1.6,26.6,1.6,26.7,1.7C26.6,1.7,26.6,1.7,26.7,1.7
		C26.6,1.7,26.6,1.7,26.7,1.7c-0.1,0-0.1,0-0.1,0c0,0,0,0,0,0c0,0,0,0,0,0C26.6,1.7,26.6,1.7,26.7,1.7C26.6,1.7,26.6,1.7,26.7,1.7
		C26.6,1.7,26.6,1.7,26.7,1.7C26.6,1.7,26.7,1.7,26.7,1.7C26.7,1.7,26.7,1.7,26.7,1.7C26.7,1.7,26.7,1.7,26.7,1.7
		C26.7,1.7,26.7,1.7,26.7,1.7C26.7,1.7,26.7,1.7,26.7,1.7C26.7,1.7,26.7,1.7,26.7,1.7C26.7,1.7,26.7,1.7,26.7,1.7
		C26.7,1.7,26.7,1.7,26.7,1.7z"/>
	<path class="st10" d="M27.1,1.7C27.1,1.7,27.1,1.7,27.1,1.7C27.1,1.7,27.1,1.7,27.1,1.7C27.1,1.7,27.2,1.7,27.1,1.7
		C27.2,1.7,27.2,1.7,27.1,1.7C27.2,1.7,27.2,1.7,27.1,1.7C27.2,1.7,27.2,1.7,27.1,1.7C27.2,1.7,27.2,1.7,27.1,1.7
		C27.2,1.7,27.2,1.7,27.1,1.7C27.2,1.7,27.2,1.7,27.1,1.7c0.1,0,0.1,0,0.1,0c0,0,0,0,0,0c0,0,0,0,0,0C27.2,1.7,27.2,1.7,27.1,1.7
		C27.2,1.7,27.2,1.7,27.1,1.7C27.2,1.7,27.2,1.7,27.1,1.7C27.2,1.6,27.2,1.6,27.1,1.7C27.2,1.6,27.2,1.6,27.1,1.7
		C27.2,1.6,27.2,1.6,27.1,1.7C27.2,1.6,27.1,1.6,27.1,1.7C27.1,1.7,27.1,1.7,27.1,1.7C27.1,1.7,27.1,1.7,27.1,1.7
		C27.1,1.7,27.1,1.7,27.1,1.7C27.1,1.7,27.1,1.7,27.1,1.7C27.1,1.7,27.1,1.7,27.1,1.7C27.1,1.7,27.1,1.7,27.1,1.7z"/>
	<path class="st10" d="M24.8,2.2C24.8,2.2,24.8,2.2,24.8,2.2C24.7,2.1,24.7,2.1,24.8,2.2C24.7,2.1,24.7,2.1,24.8,2.2
		C24.7,2.1,24.7,2.1,24.8,2.2C24.7,2.2,24.7,2.2,24.8,2.2c-0.1,0-0.1,0-0.1,0c0,0,0,0,0,0C24.7,2.2,24.7,2.2,24.8,2.2
		C24.7,2.2,24.7,2.2,24.8,2.2C24.7,2.2,24.7,2.2,24.8,2.2C24.7,2.2,24.7,2.2,24.8,2.2C24.7,2.2,24.7,2.2,24.8,2.2
		C24.7,2.2,24.7,2.2,24.8,2.2C24.7,2.2,24.7,2.2,24.8,2.2C24.7,2.2,24.7,2.2,24.8,2.2C24.7,2.2,24.7,2.2,24.8,2.2
		C24.7,2.2,24.7,2.2,24.8,2.2C24.8,2.2,24.8,2.2,24.8,2.2C24.8,2.2,24.8,2.2,24.8,2.2C24.8,2.2,24.8,2.2,24.8,2.2
		C24.8,2.2,24.8,2.2,24.8,2.2C24.8,2.2,24.8,2.2,24.8,2.2z"/>
	<path class="st10" d="M25.2,2.2C25.2,2.2,25.2,2.2,25.2,2.2C25.2,2.1,25.2,2.1,25.2,2.2C25.2,2.1,25.2,2.1,25.2,2.2
		C25.2,2.1,25.2,2.1,25.2,2.2C25.2,2.1,25.2,2.1,25.2,2.2C25.2,2.1,25.2,2.1,25.2,2.2C25.2,2.1,25.2,2.1,25.2,2.2
		C25.2,2.2,25.2,2.2,25.2,2.2c-0.1,0-0.1,0-0.1,0c0,0,0,0,0,0c0,0,0,0,0,0C25.1,2.2,25.1,2.2,25.2,2.2C25.2,2.2,25.2,2.2,25.2,2.2
		C25.2,2.2,25.2,2.2,25.2,2.2C25.2,2.2,25.2,2.2,25.2,2.2C25.2,2.2,25.2,2.2,25.2,2.2C25.2,2.2,25.2,2.2,25.2,2.2
		C25.2,2.2,25.2,2.2,25.2,2.2C25.2,2.2,25.2,2.2,25.2,2.2C25.2,2.2,25.2,2.2,25.2,2.2C25.2,2.2,25.2,2.2,25.2,2.2
		C25.2,2.2,25.2,2.2,25.2,2.2C25.2,2.2,25.3,2.2,25.2,2.2C25.3,2.2,25.3,2.2,25.2,2.2C25.2,2.2,25.2,2.2,25.2,2.2z"/>
	<path class="st10" d="M25.7,2.2C25.7,2.2,25.7,2.2,25.7,2.2C25.7,2.1,25.7,2.1,25.7,2.2C25.7,2.1,25.7,2.1,25.7,2.2
		C25.7,2.1,25.7,2.1,25.7,2.2C25.7,2.1,25.7,2.1,25.7,2.2C25.7,2.1,25.7,2.1,25.7,2.2C25.7,2.1,25.6,2.1,25.7,2.2
		C25.6,2.2,25.6,2.2,25.7,2.2c-0.1,0-0.1,0-0.1,0c0,0,0,0,0,0C25.6,2.2,25.6,2.2,25.7,2.2C25.7,2.2,25.7,2.2,25.7,2.2
		C25.7,2.2,25.7,2.2,25.7,2.2C25.7,2.2,25.7,2.2,25.7,2.2C25.7,2.2,25.7,2.2,25.7,2.2C25.7,2.2,25.7,2.2,25.7,2.2
		C25.7,2.2,25.7,2.2,25.7,2.2C25.7,2.2,25.7,2.2,25.7,2.2C25.7,2.2,25.7,2.2,25.7,2.2C25.7,2.2,25.7,2.2,25.7,2.2
		C25.7,2.2,25.7,2.2,25.7,2.2C25.7,2.2,25.7,2.2,25.7,2.2z"/>
	<path class="st10" d="M26.2,2.2C26.2,2.2,26.2,2.2,26.2,2.2C26.2,2.1,26.2,2.1,26.2,2.2C26.2,2.1,26.2,2.1,26.2,2.2
		C26.2,2.1,26.2,2.1,26.2,2.2C26.2,2.1,26.2,2.1,26.2,2.2C26.2,2.1,26.2,2.1,26.2,2.2C26.1,2.1,26.1,2.1,26.2,2.2
		C26.1,2.2,26.1,2.2,26.2,2.2c-0.1,0-0.1,0-0.1,0c0,0,0,0,0,0c0,0,0,0,0,0C26.1,2.2,26.1,2.2,26.2,2.2C26.1,2.2,26.1,2.2,26.2,2.2
		C26.1,2.2,26.1,2.2,26.2,2.2C26.1,2.2,26.2,2.2,26.2,2.2C26.2,2.2,26.2,2.2,26.2,2.2C26.2,2.2,26.2,2.2,26.2,2.2
		C26.2,2.2,26.2,2.2,26.2,2.2C26.2,2.2,26.2,2.2,26.2,2.2C26.2,2.2,26.2,2.2,26.2,2.2C26.2,2.2,26.2,2.2,26.2,2.2
		C26.2,2.2,26.2,2.2,26.2,2.2C26.2,2.2,26.2,2.2,26.2,2.2C26.2,2.2,26.2,2.2,26.2,2.2C26.2,2.2,26.2,2.2,26.2,2.2
		C26.2,2.2,26.2,2.2,26.2,2.2C26.2,2.2,26.2,2.2,26.2,2.2C26.2,2.2,26.2,2.2,26.2,2.2z"/>
	<path class="st10" d="M26.7,2.2C26.7,2.2,26.7,2.2,26.7,2.2C26.7,2.1,26.7,2.1,26.7,2.2C26.7,2.1,26.7,2.1,26.7,2.2
		C26.7,2.1,26.7,2.1,26.7,2.2C26.7,2.1,26.7,2.1,26.7,2.2C26.7,2.1,26.7,2.1,26.7,2.2C26.6,2.1,26.6,2.1,26.7,2.2
		C26.6,2.2,26.6,2.2,26.7,2.2c-0.1,0-0.1,0-0.1,0c0,0,0,0,0,0c0,0,0,0,0,0C26.6,2.2,26.6,2.2,26.7,2.2C26.6,2.2,26.6,2.2,26.7,2.2
		C26.6,2.2,26.6,2.2,26.7,2.2C26.6,2.2,26.6,2.2,26.7,2.2C26.6,2.2,26.7,2.2,26.7,2.2C26.7,2.2,26.7,2.2,26.7,2.2
		C26.7,2.2,26.7,2.2,26.7,2.2C26.7,2.2,26.7,2.2,26.7,2.2C26.7,2.2,26.7,2.2,26.7,2.2C26.7,2.2,26.7,2.2,26.7,2.2
		C26.7,2.2,26.7,2.2,26.7,2.2C26.7,2.2,26.7,2.2,26.7,2.2C26.7,2.2,26.7,2.2,26.7,2.2C26.7,2.2,26.7,2.2,26.7,2.2z"/>
	<path class="st10" d="M27.2,2.2C27.2,2.2,27.2,2.2,27.2,2.2C27.2,2.1,27.2,2.1,27.2,2.2C27.2,2.1,27.2,2.1,27.2,2.2
		C27.2,2.1,27.2,2.1,27.2,2.2C27.1,2.1,27.1,2.1,27.2,2.2C27.1,2.1,27.1,2.1,27.2,2.2C27.1,2.1,27.1,2.1,27.2,2.2
		C27.1,2.2,27.1,2.2,27.2,2.2c-0.1,0-0.1,0-0.1,0c0,0,0,0,0,0C27.1,2.2,27.1,2.2,27.2,2.2C27.1,2.2,27.2,2.2,27.2,2.2
		C27.2,2.2,27.2,2.2,27.2,2.2C27.2,2.2,27.2,2.2,27.2,2.2C27.2,2.2,27.2,2.2,27.2,2.2C27.2,2.2,27.2,2.2,27.2,2.2
		C27.2,2.2,27.2,2.2,27.2,2.2C27.2,2.2,27.2,2.2,27.2,2.2C27.2,2.2,27.2,2.2,27.2,2.2C27.2,2.2,27.2,2.2,27.2,2.2
		C27.2,2.2,27.2,2.2,27.2,2.2C27.2,2.2,27.2,2.2,27.2,2.2z"/>
	<path class="st10" d="M24.8,2.7C24.8,2.6,24.8,2.6,24.8,2.7C24.7,2.6,24.7,2.6,24.8,2.7C24.7,2.6,24.7,2.6,24.8,2.7
		C24.7,2.6,24.7,2.6,24.8,2.7C24.7,2.6,24.7,2.6,24.8,2.7C24.7,2.6,24.7,2.6,24.8,2.7C24.7,2.6,24.7,2.6,24.8,2.7
		C24.7,2.6,24.7,2.6,24.8,2.7C24.7,2.6,24.7,2.6,24.8,2.7C24.7,2.6,24.7,2.6,24.8,2.7C24.7,2.6,24.7,2.6,24.8,2.7
		c-0.1,0-0.1,0-0.1,0c0,0,0,0,0,0c0,0,0,0,0,0C24.7,2.7,24.7,2.7,24.8,2.7C24.7,2.7,24.7,2.7,24.8,2.7C24.7,2.7,24.7,2.7,24.8,2.7
		C24.7,2.7,24.7,2.7,24.8,2.7C24.7,2.7,24.7,2.7,24.8,2.7C24.7,2.7,24.7,2.7,24.8,2.7C24.7,2.7,24.7,2.7,24.8,2.7
		C24.7,2.7,24.7,2.7,24.8,2.7C24.7,2.7,24.7,2.7,24.8,2.7C24.8,2.7,24.8,2.7,24.8,2.7C24.8,2.7,24.8,2.7,24.8,2.7
		C24.8,2.7,24.8,2.7,24.8,2.7C24.8,2.7,24.8,2.7,24.8,2.7C24.8,2.7,24.8,2.7,24.8,2.7z"/>
	<path class="st10" d="M25.2,2.7C25.2,2.6,25.2,2.6,25.2,2.7C25.2,2.6,25.2,2.6,25.2,2.7C25.2,2.6,25.2,2.6,25.2,2.7
		C25.2,2.6,25.2,2.6,25.2,2.7C25.2,2.6,25.2,2.6,25.2,2.7C25.2,2.6,25.2,2.6,25.2,2.7C25.2,2.6,25.2,2.6,25.2,2.7
		C25.2,2.6,25.2,2.6,25.2,2.7C25.2,2.6,25.2,2.6,25.2,2.7C25.2,2.6,25.2,2.6,25.2,2.7C25.2,2.6,25.2,2.6,25.2,2.7
		c-0.1,0-0.1,0-0.1,0c0,0,0,0,0,0c0,0,0,0,0,0C25.1,2.7,25.1,2.7,25.2,2.7C25.2,2.7,25.2,2.7,25.2,2.7C25.2,2.7,25.2,2.7,25.2,2.7
		C25.2,2.7,25.2,2.7,25.2,2.7C25.2,2.7,25.2,2.7,25.2,2.7C25.2,2.7,25.2,2.7,25.2,2.7C25.2,2.7,25.2,2.7,25.2,2.7
		C25.2,2.7,25.2,2.7,25.2,2.7C25.2,2.7,25.2,2.7,25.2,2.7C25.2,2.7,25.2,2.7,25.2,2.7C25.2,2.7,25.2,2.7,25.2,2.7
		C25.3,2.7,25.3,2.7,25.2,2.7C25.3,2.7,25.3,2.7,25.2,2.7C25.2,2.7,25.2,2.7,25.2,2.7z"/>
	<path class="st10" d="M25.7,2.7C25.7,2.6,25.7,2.6,25.7,2.7C25.7,2.6,25.7,2.6,25.7,2.7C25.7,2.6,25.7,2.6,25.7,2.7
		C25.7,2.6,25.7,2.6,25.7,2.7C25.7,2.6,25.7,2.6,25.7,2.7C25.7,2.6,25.7,2.6,25.7,2.7C25.7,2.6,25.7,2.6,25.7,2.7
		C25.7,2.6,25.7,2.6,25.7,2.7C25.7,2.6,25.7,2.6,25.7,2.7C25.7,2.6,25.6,2.6,25.7,2.7C25.6,2.6,25.6,2.6,25.7,2.7
		c-0.1,0-0.1,0-0.1,0c0,0,0,0,0,0c0,0,0,0,0,0C25.6,2.7,25.6,2.7,25.7,2.7C25.6,2.7,25.6,2.7,25.7,2.7C25.6,2.7,25.7,2.7,25.7,2.7
		C25.7,2.7,25.7,2.7,25.7,2.7C25.7,2.7,25.7,2.7,25.7,2.7C25.7,2.7,25.7,2.7,25.7,2.7C25.7,2.7,25.7,2.7,25.7,2.7
		C25.7,2.7,25.7,2.7,25.7,2.7C25.7,2.7,25.7,2.7,25.7,2.7C25.7,2.7,25.7,2.7,25.7,2.7C25.7,2.7,25.7,2.7,25.7,2.7
		C25.7,2.7,25.7,2.7,25.7,2.7C25.7,2.7,25.7,2.7,25.7,2.7C25.7,2.7,25.7,2.7,25.7,2.7C25.7,2.7,25.7,2.7,25.7,2.7
		C25.7,2.7,25.7,2.7,25.7,2.7C25.7,2.7,25.7,2.7,25.7,2.7z"/>
	<path class="st10" d="M26.2,2.7C26.2,2.6,26.2,2.6,26.2,2.7C26.2,2.6,26.2,2.6,26.2,2.7C26.2,2.6,26.2,2.6,26.2,2.7
		C26.2,2.6,26.2,2.6,26.2,2.7C26.2,2.6,26.2,2.6,26.2,2.7C26.2,2.6,26.2,2.6,26.2,2.7C26.2,2.6,26.2,2.6,26.2,2.7
		C26.2,2.6,26.2,2.6,26.2,2.7C26.2,2.6,26.1,2.6,26.2,2.7C26.1,2.6,26.1,2.6,26.2,2.7C26.1,2.6,26.1,2.6,26.2,2.7
		c-0.1,0-0.1,0-0.1,0c0,0,0,0,0,0c0,0,0,0,0,0C26.1,2.7,26.1,2.7,26.2,2.7C26.1,2.7,26.1,2.7,26.2,2.7C26.1,2.7,26.1,2.7,26.2,2.7
		C26.1,2.7,26.2,2.7,26.2,2.7C26.2,2.7,26.2,2.7,26.2,2.7C26.2,2.7,26.2,2.7,26.2,2.7C26.2,2.7,26.2,2.7,26.2,2.7
		C26.2,2.7,26.2,2.7,26.2,2.7C26.2,2.7,26.2,2.7,26.2,2.7C26.2,2.7,26.2,2.7,26.2,2.7C26.2,2.7,26.2,2.7,26.2,2.7
		C26.2,2.7,26.2,2.7,26.2,2.7C26.2,2.7,26.2,2.7,26.2,2.7C26.2,2.7,26.2,2.7,26.2,2.7z"/>
	<path class="st10" d="M26.7,2.7C26.7,2.6,26.7,2.6,26.7,2.7C26.7,2.6,26.7,2.6,26.7,2.7C26.7,2.6,26.7,2.6,26.7,2.7
		C26.7,2.6,26.7,2.6,26.7,2.7C26.7,2.6,26.7,2.6,26.7,2.7C26.7,2.6,26.7,2.6,26.7,2.7C26.7,2.6,26.7,2.6,26.7,2.7
		C26.7,2.6,26.6,2.6,26.7,2.7C26.6,2.6,26.6,2.6,26.7,2.7C26.6,2.6,26.6,2.6,26.7,2.7C26.6,2.6,26.6,2.6,26.7,2.7
		c-0.1,0-0.1,0-0.1,0c0,0,0,0,0,0c0,0,0,0,0,0C26.6,2.7,26.6,2.7,26.7,2.7C26.6,2.7,26.6,2.7,26.7,2.7C26.6,2.7,26.6,2.7,26.7,2.7
		C26.6,2.7,26.6,2.7,26.7,2.7C26.6,2.7,26.7,2.7,26.7,2.7C26.7,2.7,26.7,2.7,26.7,2.7C26.7,2.7,26.7,2.7,26.7,2.7
		C26.7,2.7,26.7,2.7,26.7,2.7C26.7,2.7,26.7,2.7,26.7,2.7C26.7,2.7,26.7,2.7,26.7,2.7C26.7,2.7,26.7,2.7,26.7,2.7
		C26.7,2.7,26.7,2.7,26.7,2.7C26.7,2.7,26.7,2.7,26.7,2.7C26.7,2.7,26.7,2.7,26.7,2.7C26.7,2.7,26.7,2.7,26.7,2.7
		C26.7,2.7,26.7,2.7,26.7,2.7C26.7,2.7,26.7,2.7,26.7,2.7z"/>
	<path class="st10" d="M27.2,2.7C27.2,2.6,27.2,2.6,27.2,2.7C27.2,2.6,27.2,2.6,27.2,2.7C27.2,2.6,27.2,2.6,27.2,2.7
		C27.2,2.6,27.2,2.6,27.2,2.7C27.2,2.6,27.2,2.6,27.2,2.7C27.2,2.6,27.2,2.6,27.2,2.7C27.2,2.6,27.2,2.6,27.2,2.7
		C27.1,2.6,27.1,2.6,27.2,2.7C27.1,2.6,27.1,2.6,27.2,2.7C27.1,2.6,27.1,2.6,27.2,2.7C27.1,2.6,27.1,2.6,27.2,2.7
		c-0.1,0-0.1,0-0.1,0c0,0,0,0,0,0c0,0,0,0,0,0C27.1,2.7,27.1,2.7,27.2,2.7C27.1,2.7,27.1,2.7,27.2,2.7C27.1,2.7,27.1,2.7,27.2,2.7
		C27.1,2.7,27.1,2.7,27.2,2.7C27.1,2.7,27.1,2.7,27.2,2.7C27.2,2.7,27.2,2.7,27.2,2.7C27.2,2.7,27.2,2.7,27.2,2.7
		C27.2,2.7,27.2,2.7,27.2,2.7C27.2,2.7,27.2,2.7,27.2,2.7C27.2,2.7,27.2,2.7,27.2,2.7C27.2,2.7,27.2,2.7,27.2,2.7
		C27.2,2.7,27.2,2.7,27.2,2.7C27.2,2.7,27.2,2.7,27.2,2.7C27.2,2.7,27.2,2.7,27.2,2.7z"/>
	<path class="st10" d="M24.8,3.1C24.8,3.1,24.8,3.1,24.8,3.1C24.7,3.1,24.7,3.1,24.8,3.1C24.7,3.1,24.7,3.1,24.8,3.1
		C24.7,3.1,24.7,3.1,24.8,3.1C24.7,3.1,24.7,3.1,24.8,3.1c-0.1,0-0.1,0-0.1,0c0,0,0,0,0,0c0,0,0,0,0,0C24.7,3.2,24.7,3.2,24.8,3.1
		C24.7,3.2,24.7,3.2,24.8,3.1C24.7,3.2,24.7,3.2,24.8,3.1C24.7,3.2,24.7,3.2,24.8,3.1C24.7,3.2,24.7,3.2,24.8,3.1
		C24.7,3.2,24.7,3.2,24.8,3.1C24.8,3.2,24.8,3.2,24.8,3.1C24.8,3.2,24.8,3.2,24.8,3.1C24.8,3.2,24.8,3.2,24.8,3.1
		C24.8,3.2,24.8,3.2,24.8,3.1C24.8,3.2,24.8,3.1,24.8,3.1z"/>
	<path class="st10" d="M25.2,3.1C25.2,3.1,25.2,3.1,25.2,3.1C25.2,3.1,25.2,3.1,25.2,3.1C25.2,3.1,25.2,3.1,25.2,3.1
		C25.2,3.1,25.2,3.1,25.2,3.1C25.2,3.1,25.2,3.1,25.2,3.1c-0.1,0-0.1,0-0.1,0c0,0,0,0,0,0c0,0,0,0,0,0C25.1,3.2,25.1,3.2,25.2,3.1
		C25.2,3.2,25.2,3.2,25.2,3.1C25.2,3.2,25.2,3.2,25.2,3.1C25.2,3.2,25.2,3.2,25.2,3.1C25.2,3.2,25.2,3.2,25.2,3.1
		C25.2,3.2,25.2,3.2,25.2,3.1C25.2,3.2,25.2,3.2,25.2,3.1C25.2,3.2,25.2,3.2,25.2,3.1C25.3,3.2,25.3,3.2,25.2,3.1
		C25.3,3.2,25.3,3.2,25.2,3.1C25.2,3.2,25.2,3.1,25.2,3.1z"/>
	<path class="st10" d="M25.7,3.1C25.7,3.1,25.7,3.1,25.7,3.1C25.7,3.1,25.7,3.1,25.7,3.1C25.7,3.1,25.7,3.1,25.7,3.1
		C25.7,3.1,25.7,3.1,25.7,3.1C25.7,3.1,25.7,3.1,25.7,3.1C25.7,3.1,25.7,3.1,25.7,3.1C25.7,3.1,25.6,3.1,25.7,3.1
		C25.6,3.1,25.6,3.1,25.7,3.1c-0.1,0-0.1,0-0.1,0c0,0,0,0,0,0c0,0,0,0,0,0C25.6,3.2,25.6,3.2,25.7,3.1C25.6,3.2,25.6,3.2,25.7,3.1
		C25.6,3.2,25.7,3.2,25.7,3.1C25.7,3.2,25.7,3.2,25.7,3.1C25.7,3.2,25.7,3.2,25.7,3.1C25.7,3.2,25.7,3.2,25.7,3.1
		C25.7,3.2,25.7,3.2,25.7,3.1C25.7,3.2,25.7,3.2,25.7,3.1C25.7,3.2,25.7,3.2,25.7,3.1C25.7,3.2,25.7,3.2,25.7,3.1
		C25.7,3.2,25.7,3.2,25.7,3.1C25.7,3.2,25.7,3.2,25.7,3.1C25.7,3.2,25.7,3.2,25.7,3.1C25.7,3.2,25.7,3.1,25.7,3.1z"/>
	<path class="st10" d="M26.2,3.1C26.2,3.1,26.2,3.1,26.2,3.1C26.2,3.1,26.2,3.1,26.2,3.1C26.2,3.1,26.2,3.1,26.2,3.1
		C26.1,3.1,26.1,3.1,26.2,3.1C26.1,3.1,26.1,3.1,26.2,3.1c-0.1,0-0.1,0-0.1,0c0,0,0,0,0,0c0,0,0,0,0,0C26.1,3.2,26.1,3.2,26.2,3.1
		C26.1,3.2,26.1,3.2,26.2,3.1C26.1,3.2,26.1,3.2,26.2,3.1C26.2,3.2,26.2,3.2,26.2,3.1C26.2,3.2,26.2,3.2,26.2,3.1
		C26.2,3.2,26.2,3.2,26.2,3.1C26.2,3.2,26.2,3.2,26.2,3.1C26.2,3.2,26.2,3.2,26.2,3.1C26.2,3.2,26.2,3.2,26.2,3.1
		C26.2,3.2,26.2,3.2,26.2,3.1C26.2,3.2,26.2,3.1,26.2,3.1z"/>
	<path class="st10" d="M26.7,3.1C26.7,3.1,26.7,3.1,26.7,3.1C26.7,3.1,26.7,3.1,26.7,3.1C26.7,3.1,26.7,3.1,26.7,3.1
		C26.7,3.1,26.7,3.1,26.7,3.1C26.7,3.1,26.7,3.1,26.7,3.1C26.7,3.1,26.7,3.1,26.7,3.1C26.6,3.1,26.6,3.1,26.7,3.1
		C26.6,3.1,26.6,3.1,26.7,3.1c-0.1,0-0.1,0-0.1,0c0,0,0,0,0,0c0,0,0,0,0,0C26.6,3.2,26.6,3.2,26.7,3.1C26.6,3.2,26.6,3.2,26.7,3.1
		C26.6,3.2,26.6,3.2,26.7,3.1C26.6,3.2,26.7,3.2,26.7,3.1C26.7,3.2,26.7,3.2,26.7,3.1C26.7,3.2,26.7,3.2,26.7,3.1
		C26.7,3.2,26.7,3.2,26.7,3.1C26.7,3.2,26.7,3.2,26.7,3.1C26.7,3.2,26.7,3.2,26.7,3.1C26.7,3.2,26.7,3.2,26.7,3.1
		C26.7,3.2,26.7,3.2,26.7,3.1C26.7,3.2,26.7,3.2,26.7,3.1C26.7,3.2,26.7,3.2,26.7,3.1C26.7,3.2,26.7,3.1,26.7,3.1z"/>
	<path class="st10" d="M27.2,3.1C27.2,3.1,27.2,3.1,27.2,3.1C27.2,3.1,27.2,3.1,27.2,3.1C27.2,3.1,27.2,3.1,27.2,3.1
		C27.1,3.1,27.1,3.1,27.2,3.1C27.1,3.1,27.1,3.1,27.2,3.1c-0.1,0-0.1,0-0.1,0c0,0,0,0,0,0c0,0,0,0,0,0C27.1,3.2,27.1,3.2,27.2,3.1
		C27.1,3.2,27.1,3.2,27.2,3.1C27.1,3.2,27.1,3.2,27.2,3.1C27.1,3.2,27.2,3.2,27.2,3.1C27.2,3.2,27.2,3.2,27.2,3.1
		C27.2,3.2,27.2,3.2,27.2,3.1C27.2,3.2,27.2,3.2,27.2,3.1C27.2,3.2,27.2,3.2,27.2,3.1C27.2,3.2,27.2,3.2,27.2,3.1
		C27.2,3.2,27.2,3.2,27.2,3.1C27.2,3.2,27.2,3.1,27.2,3.1z"/>
	<path class="st10" d="M24.8,3.6C24.8,3.6,24.8,3.6,24.8,3.6C24.7,3.6,24.7,3.6,24.8,3.6C24.7,3.6,24.7,3.6,24.8,3.6
		C24.7,3.6,24.7,3.6,24.8,3.6C24.7,3.6,24.7,3.6,24.8,3.6c-0.1,0-0.1,0-0.1,0c0,0,0,0,0,0C24.7,3.7,24.7,3.7,24.8,3.6
		C24.7,3.7,24.7,3.7,24.8,3.6C24.7,3.7,24.7,3.7,24.8,3.6C24.7,3.7,24.7,3.7,24.8,3.6C24.7,3.7,24.7,3.7,24.8,3.6
		C24.7,3.7,24.7,3.7,24.8,3.6C24.7,3.7,24.7,3.7,24.8,3.6C24.7,3.7,24.7,3.7,24.8,3.6C24.7,3.7,24.7,3.7,24.8,3.6
		C24.8,3.7,24.8,3.7,24.8,3.6C24.8,3.7,24.8,3.6,24.8,3.6C24.8,3.6,24.8,3.6,24.8,3.6z"/>
	<path class="st10" d="M25.2,3.6C25.2,3.6,25.2,3.6,25.2,3.6C25.2,3.6,25.2,3.6,25.2,3.6C25.2,3.6,25.2,3.6,25.2,3.6
		C25.2,3.6,25.2,3.6,25.2,3.6C25.2,3.6,25.2,3.6,25.2,3.6C25.2,3.6,25.2,3.6,25.2,3.6C25.2,3.6,25.2,3.6,25.2,3.6
		C25.2,3.6,25.2,3.6,25.2,3.6c-0.1,0-0.1,0-0.1,0c0,0,0,0,0,0C25.1,3.7,25.2,3.7,25.2,3.6C25.2,3.7,25.2,3.7,25.2,3.6
		C25.2,3.7,25.2,3.7,25.2,3.6C25.2,3.7,25.2,3.7,25.2,3.6C25.2,3.7,25.2,3.7,25.2,3.6C25.2,3.7,25.2,3.7,25.2,3.6
		C25.2,3.7,25.3,3.7,25.2,3.6C25.3,3.7,25.3,3.6,25.2,3.6C25.2,3.6,25.2,3.6,25.2,3.6z"/>
	<path class="st10" d="M25.7,3.6C25.7,3.6,25.7,3.6,25.7,3.6C25.7,3.6,25.7,3.6,25.7,3.6C25.7,3.6,25.7,3.6,25.7,3.6
		C25.7,3.6,25.7,3.6,25.7,3.6C25.7,3.6,25.7,3.6,25.7,3.6C25.7,3.6,25.7,3.6,25.7,3.6C25.7,3.6,25.6,3.6,25.7,3.6
		C25.6,3.6,25.6,3.6,25.7,3.6c-0.1,0-0.1,0-0.1,0c0,0,0,0,0,0C25.6,3.7,25.6,3.7,25.7,3.6C25.7,3.7,25.7,3.7,25.7,3.6
		C25.7,3.7,25.7,3.7,25.7,3.6C25.7,3.7,25.7,3.7,25.7,3.6C25.7,3.7,25.7,3.7,25.7,3.6C25.7,3.7,25.7,3.7,25.7,3.6
		C25.7,3.7,25.7,3.7,25.7,3.6C25.7,3.7,25.7,3.7,25.7,3.6C25.7,3.7,25.7,3.7,25.7,3.6C25.7,3.7,25.7,3.7,25.7,3.6
		C25.7,3.7,25.7,3.6,25.7,3.6C25.7,3.6,25.7,3.6,25.7,3.6z"/>
	<path class="st10" d="M26.2,3.6C26.2,3.6,26.2,3.6,26.2,3.6C26.2,3.6,26.2,3.6,26.2,3.6C26.2,3.6,26.2,3.6,26.2,3.6
		C26.2,3.6,26.2,3.6,26.2,3.6C26.2,3.6,26.2,3.6,26.2,3.6C26.2,3.6,26.1,3.6,26.2,3.6C26.1,3.6,26.1,3.6,26.2,3.6
		C26.1,3.6,26.1,3.6,26.2,3.6c-0.1,0-0.1,0-0.1,0c0,0,0,0,0,0C26.1,3.7,26.1,3.7,26.2,3.6C26.2,3.7,26.2,3.7,26.2,3.6
		C26.2,3.7,26.2,3.7,26.2,3.6C26.2,3.7,26.2,3.7,26.2,3.6C26.2,3.7,26.2,3.6,26.2,3.6C26.2,3.6,26.2,3.6,26.2,3.6z"/>
	<path class="st10" d="M26.7,3.6C26.7,3.6,26.7,3.6,26.7,3.6C26.7,3.6,26.7,3.6,26.7,3.6C26.7,3.6,26.7,3.6,26.7,3.6
		C26.6,3.6,26.6,3.6,26.7,3.6C26.6,3.6,26.6,3.6,26.7,3.6c-0.1,0-0.1,0-0.1,0c0,0,0,0,0,0C26.6,3.7,26.6,3.7,26.7,3.6
		C26.6,3.7,26.6,3.7,26.7,3.6C26.6,3.7,26.7,3.7,26.7,3.6C26.7,3.7,26.7,3.7,26.7,3.6C26.7,3.7,26.7,3.7,26.7,3.6
		C26.7,3.7,26.7,3.7,26.7,3.6C26.7,3.7,26.7,3.7,26.7,3.6C26.7,3.7,26.7,3.7,26.7,3.6C26.7,3.7,26.7,3.7,26.7,3.6
		C26.7,3.7,26.7,3.7,26.7,3.6C26.7,3.7,26.7,3.6,26.7,3.6C26.7,3.6,26.7,3.6,26.7,3.6z"/>
	<path class="st10" d="M27.2,3.6C27.2,3.6,27.2,3.6,27.2,3.6C27.2,3.6,27.2,3.6,27.2,3.6C27.2,3.6,27.2,3.6,27.2,3.6
		C27.2,3.6,27.2,3.6,27.2,3.6C27.2,3.6,27.2,3.6,27.2,3.6C27.2,3.6,27.1,3.6,27.2,3.6C27.1,3.6,27.1,3.6,27.2,3.6
		C27.1,3.6,27.1,3.6,27.2,3.6c-0.1,0-0.1,0-0.1,0c0,0,0,0,0,0C27.1,3.7,27.1,3.7,27.2,3.6C27.1,3.7,27.2,3.7,27.2,3.6
		C27.2,3.7,27.2,3.7,27.2,3.6C27.2,3.7,27.2,3.7,27.2,3.6C27.2,3.7,27.2,3.7,27.2,3.6C27.2,3.7,27.2,3.7,27.2,3.6
		C27.2,3.7,27.2,3.7,27.2,3.6C27.2,3.7,27.2,3.6,27.2,3.6C27.2,3.6,27.2,3.6,27.2,3.6z"/>
</g>
<g>
	<path class="st10" d="M35,2.2C35,2.2,35,2.2,35,2.2C35,2.2,35,2.2,35,2.2C35,2.2,35,2.2,35,2.2C35,2.2,35,2.2,35,2.2
		C35,2.2,35,2.2,35,2.2C34.9,2.2,34.9,2.2,35,2.2C34.9,2.2,34.9,2.2,35,2.2C34.9,2.2,34.9,2.2,35,2.2C34.9,2.2,34.9,2.2,35,2.2
		C34.9,2.2,34.9,2.2,35,2.2C34.9,2.2,34.9,2.2,35,2.2c-0.1,0-0.1,0-0.1,0c0,0,0,0,0,0c0,0,0,0,0,0C34.9,2.3,34.9,2.3,35,2.2
		C34.9,2.3,34.9,2.3,35,2.2C34.9,2.3,34.9,2.3,35,2.2C34.9,2.3,34.9,2.3,35,2.2C35,2.3,35,2.3,35,2.2C35,2.3,35,2.3,35,2.2
		C35,2.3,35,2.3,35,2.2C35,2.3,35,2.3,35,2.2C35,2.3,35,2.3,35,2.2C35,2.2,35,2.2,35,2.2C35,2.2,35,2.2,35,2.2z"/>
	<path class="st10" d="M35.5,2.2C35.5,2.2,35.5,2.2,35.5,2.2C35.5,2.2,35.5,2.2,35.5,2.2C35.5,2.2,35.5,2.2,35.5,2.2
		C35.5,2.2,35.5,2.2,35.5,2.2C35.5,2.2,35.5,2.2,35.5,2.2C35.4,2.2,35.4,2.2,35.5,2.2C35.4,2.2,35.4,2.2,35.5,2.2
		C35.4,2.2,35.4,2.2,35.5,2.2c-0.1,0-0.1,0-0.1,0c0,0,0,0,0,0c0,0,0,0,0,0C35.4,2.3,35.4,2.3,35.5,2.2C35.4,2.3,35.4,2.3,35.5,2.2
		C35.4,2.3,35.4,2.3,35.5,2.2C35.4,2.3,35.4,2.3,35.5,2.2C35.5,2.3,35.5,2.3,35.5,2.2C35.5,2.3,35.5,2.3,35.5,2.2
		C35.5,2.3,35.5,2.3,35.5,2.2C35.5,2.3,35.5,2.3,35.5,2.2C35.5,2.3,35.5,2.3,35.5,2.2C35.5,2.2,35.5,2.2,35.5,2.2
		C35.5,2.2,35.5,2.2,35.5,2.2z"/>
	<path class="st10" d="M36,2.2C36,2.2,36,2.2,36,2.2C36,2.2,36,2.2,36,2.2C36,2.2,35.9,2.2,36,2.2C35.9,2.2,35.9,2.2,36,2.2
		C35.9,2.2,35.9,2.2,36,2.2C35.9,2.2,35.9,2.2,36,2.2C35.9,2.2,35.9,2.2,36,2.2C35.9,2.2,35.9,2.2,36,2.2c-0.1,0-0.1,0-0.1,0
		c0,0,0,0,0,0c0,0,0,0,0,0C35.9,2.3,35.9,2.3,36,2.2C35.9,2.3,35.9,2.3,36,2.2C35.9,2.3,35.9,2.3,36,2.2C35.9,2.3,35.9,2.3,36,2.2
		C35.9,2.3,36,2.3,36,2.2C36,2.3,36,2.3,36,2.2C36,2.3,36,2.3,36,2.2C36,2.3,36,2.3,36,2.2C36,2.3,36,2.3,36,2.2
		C36,2.2,36,2.2,36,2.2C36,2.2,36,2.2,36,2.2z"/>
	<path class="st10" d="M36.5,2.2C36.5,2.2,36.5,2.2,36.5,2.2C36.5,2.2,36.5,2.2,36.5,2.2C36.5,2.2,36.5,2.2,36.5,2.2
		C36.4,2.2,36.4,2.2,36.5,2.2C36.4,2.2,36.4,2.2,36.5,2.2C36.4,2.2,36.4,2.2,36.5,2.2C36.4,2.2,36.4,2.2,36.5,2.2
		C36.4,2.2,36.4,2.2,36.5,2.2C36.4,2.2,36.4,2.2,36.5,2.2C36.4,2.2,36.4,2.2,36.5,2.2C36.4,2.2,36.4,2.2,36.5,2.2
		c-0.1,0-0.1,0-0.1,0c0,0,0,0,0,0c0,0,0,0,0,0C36.4,2.3,36.4,2.3,36.5,2.2C36.4,2.3,36.4,2.3,36.5,2.2C36.4,2.3,36.4,2.3,36.5,2.2
		C36.4,2.3,36.4,2.3,36.5,2.2C36.4,2.3,36.5,2.3,36.5,2.2C36.5,2.3,36.5,2.3,36.5,2.2C36.5,2.3,36.5,2.3,36.5,2.2
		C36.5,2.3,36.5,2.3,36.5,2.2C36.5,2.3,36.5,2.3,36.5,2.2C36.5,2.2,36.5,2.2,36.5,2.2C36.5,2.2,36.5,2.2,36.5,2.2z"/>
	<path class="st10" d="M37,2.2C37,2.2,37,2.2,37,2.2C37,2.2,37,2.2,37,2.2C36.9,2.2,36.9,2.2,37,2.2C36.9,2.2,36.9,2.2,37,2.2
		C36.9,2.2,36.9,2.2,37,2.2C36.9,2.2,36.9,2.2,37,2.2C36.9,2.2,36.9,2.2,37,2.2C36.9,2.2,36.9,2.2,37,2.2c-0.1,0-0.1,0-0.1,0
		c0,0,0,0,0,0c0,0,0,0,0,0C36.9,2.3,36.9,2.3,37,2.2C36.9,2.3,36.9,2.3,37,2.2C36.9,2.3,36.9,2.3,37,2.2C36.9,2.3,36.9,2.3,37,2.2
		C36.9,2.3,36.9,2.3,37,2.2C37,2.3,37,2.3,37,2.2C37,2.3,37,2.3,37,2.2C37,2.3,37,2.3,37,2.2C37,2.3,37,2.3,37,2.2
		C37,2.2,37,2.2,37,2.2C37,2.2,37,2.2,37,2.2z"/>
	<path class="st10" d="M37.4,2.3C37.4,2.3,37.4,2.3,37.4,2.3C37.4,2.3,37.4,2.3,37.4,2.3C37.4,2.3,37.4,2.3,37.4,2.3
		C37.4,2.3,37.4,2.3,37.4,2.3C37.4,2.3,37.4,2.3,37.4,2.3C37.4,2.3,37.4,2.3,37.4,2.3C37.4,2.3,37.4,2.3,37.4,2.3
		C37.4,2.3,37.4,2.3,37.4,2.3C37.5,2.3,37.5,2.3,37.4,2.3c0.1,0,0.1,0,0.1,0c0,0,0,0,0,0c0,0,0,0,0,0C37.5,2.2,37.5,2.2,37.4,2.3
		C37.5,2.2,37.5,2.2,37.4,2.3C37.4,2.2,37.4,2.2,37.4,2.3C37.4,2.2,37.4,2.2,37.4,2.3C37.4,2.2,37.4,2.2,37.4,2.3
		C37.4,2.2,37.4,2.2,37.4,2.3C37.4,2.2,37.4,2.2,37.4,2.3C37.4,2.2,37.4,2.2,37.4,2.3C37.4,2.2,37.4,2.2,37.4,2.3
		C37.4,2.2,37.4,2.2,37.4,2.3C37.4,2.2,37.4,2.2,37.4,2.3C37.4,2.3,37.4,2.3,37.4,2.3C37.4,2.3,37.4,2.3,37.4,2.3z"/>
	<path class="st10" d="M35,2.7C35,2.7,35,2.7,35,2.7C35,2.7,35,2.7,35,2.7C35,2.7,34.9,2.7,35,2.7C34.9,2.7,34.9,2.7,35,2.7
		C34.9,2.7,34.9,2.7,35,2.7c-0.1,0-0.1,0-0.1,0c0,0,0,0,0,0C34.9,2.8,34.9,2.8,35,2.7C34.9,2.8,34.9,2.8,35,2.7
		C34.9,2.8,34.9,2.8,35,2.7C34.9,2.8,34.9,2.8,35,2.7C34.9,2.8,34.9,2.8,35,2.7C34.9,2.8,35,2.8,35,2.7C35,2.8,35,2.8,35,2.7
		C35,2.8,35,2.8,35,2.7C35,2.8,35,2.8,35,2.7C35,2.8,35,2.8,35,2.7C35,2.8,35,2.8,35,2.7C35,2.8,35,2.8,35,2.7C35,2.8,35,2.7,35,2.7
		C35,2.7,35,2.7,35,2.7C35,2.7,35,2.7,35,2.7z"/>
	<path class="st10" d="M35.5,2.7C35.5,2.7,35.5,2.7,35.5,2.7C35.5,2.7,35.5,2.7,35.5,2.7C35.5,2.7,35.5,2.7,35.5,2.7
		C35.5,2.7,35.5,2.7,35.5,2.7C35.5,2.7,35.5,2.7,35.5,2.7C35.4,2.7,35.4,2.7,35.5,2.7C35.4,2.7,35.4,2.7,35.5,2.7
		C35.4,2.7,35.4,2.7,35.5,2.7c-0.1,0-0.1,0-0.1,0c0,0,0,0,0,0c0,0,0,0,0,0C35.4,2.8,35.4,2.8,35.5,2.7C35.4,2.8,35.4,2.8,35.5,2.7
		C35.4,2.8,35.4,2.8,35.5,2.7C35.4,2.8,35.4,2.8,35.5,2.7C35.4,2.8,35.4,2.8,35.5,2.7C35.4,2.8,35.4,2.8,35.5,2.7
		C35.4,2.8,35.4,2.8,35.5,2.7C35.4,2.8,35.4,2.8,35.5,2.7C35.5,2.8,35.5,2.8,35.5,2.7C35.5,2.8,35.5,2.8,35.5,2.7
		C35.5,2.8,35.5,2.8,35.5,2.7C35.5,2.8,35.5,2.8,35.5,2.7C35.5,2.7,35.5,2.7,35.5,2.7C35.5,2.7,35.5,2.7,35.5,2.7z"/>
	<path class="st10" d="M36,2.7C36,2.7,36,2.7,36,2.7C36,2.7,36,2.7,36,2.7C36,2.7,35.9,2.7,36,2.7C35.9,2.7,35.9,2.7,36,2.7
		C35.9,2.7,35.9,2.7,36,2.7C35.9,2.7,35.9,2.7,36,2.7C35.9,2.7,35.9,2.7,36,2.7C35.9,2.7,35.9,2.7,36,2.7c-0.1,0-0.1,0-0.1,0
		c0,0,0,0,0,0C35.9,2.8,35.9,2.8,36,2.7C35.9,2.8,35.9,2.8,36,2.7C35.9,2.8,35.9,2.8,36,2.7C35.9,2.8,35.9,2.8,36,2.7
		C36,2.8,36,2.8,36,2.7C36,2.8,36,2.8,36,2.7C36,2.8,36,2.8,36,2.7C36,2.8,36,2.8,36,2.7C36,2.8,36,2.8,36,2.7C36,2.8,36,2.7,36,2.7
		C36,2.7,36,2.7,36,2.7C36,2.7,36,2.7,36,2.7z"/>
	<path class="st10" d="M36.5,2.7C36.5,2.7,36.5,2.7,36.5,2.7C36.5,2.7,36.5,2.7,36.5,2.7C36.5,2.7,36.5,2.7,36.5,2.7
		C36.4,2.7,36.4,2.7,36.5,2.7C36.4,2.7,36.4,2.7,36.5,2.7C36.4,2.7,36.4,2.7,36.5,2.7C36.4,2.7,36.4,2.7,36.5,2.7
		C36.4,2.7,36.4,2.7,36.5,2.7c-0.1,0-0.1,0-0.1,0c0,0,0,0,0,0c0,0,0,0,0,0C36.4,2.8,36.4,2.8,36.5,2.7C36.4,2.8,36.4,2.8,36.5,2.7
		C36.4,2.8,36.4,2.8,36.5,2.7C36.4,2.8,36.4,2.8,36.5,2.7C36.4,2.8,36.4,2.8,36.5,2.7C36.4,2.8,36.4,2.8,36.5,2.7
		C36.4,2.8,36.4,2.8,36.5,2.7C36.4,2.8,36.4,2.8,36.5,2.7C36.4,2.8,36.4,2.8,36.5,2.7C36.4,2.8,36.4,2.8,36.5,2.7
		C36.5,2.8,36.5,2.8,36.5,2.7C36.5,2.8,36.5,2.8,36.5,2.7C36.5,2.8,36.5,2.8,36.5,2.7C36.5,2.8,36.5,2.8,36.5,2.7
		C36.5,2.8,36.5,2.7,36.5,2.7C36.5,2.7,36.5,2.7,36.5,2.7C36.5,2.7,36.5,2.7,36.5,2.7z"/>
	<path class="st10" d="M37,2.7C37,2.7,37,2.7,37,2.7C37,2.7,37,2.7,37,2.7C36.9,2.7,36.9,2.7,37,2.7C36.9,2.7,36.9,2.7,37,2.7
		C36.9,2.7,36.9,2.7,37,2.7C36.9,2.7,36.9,2.7,37,2.7C36.9,2.7,36.9,2.7,37,2.7C36.9,2.7,36.9,2.7,37,2.7c-0.1,0-0.1,0-0.1,0
		c0,0,0,0,0,0c0,0,0,0,0,0C36.9,2.8,36.9,2.8,37,2.7C36.9,2.8,36.9,2.8,37,2.7C36.9,2.8,36.9,2.8,37,2.7C36.9,2.8,36.9,2.8,37,2.7
		C36.9,2.8,36.9,2.8,37,2.7C36.9,2.8,36.9,2.8,37,2.7C36.9,2.8,36.9,2.8,37,2.7C36.9,2.8,36.9,2.8,37,2.7C36.9,2.8,36.9,2.8,37,2.7
		C36.9,2.8,36.9,2.8,37,2.7C36.9,2.8,36.9,2.8,37,2.7C37,2.8,37,2.8,37,2.7C37,2.7,37,2.7,37,2.7C37,2.7,37,2.7,37,2.7z"/>
	<path class="st10" d="M37.5,2.7C37.5,2.7,37.5,2.7,37.5,2.7C37.4,2.7,37.4,2.7,37.5,2.7C37.4,2.7,37.4,2.7,37.5,2.7
		C37.4,2.7,37.4,2.7,37.5,2.7C37.4,2.7,37.4,2.7,37.5,2.7C37.4,2.7,37.4,2.7,37.5,2.7C37.4,2.7,37.4,2.7,37.5,2.7
		C37.4,2.7,37.4,2.7,37.5,2.7c-0.1,0-0.1,0-0.1,0c0,0,0,0,0,0C37.4,2.8,37.4,2.8,37.5,2.7C37.4,2.8,37.4,2.8,37.5,2.7
		C37.4,2.8,37.4,2.8,37.5,2.7C37.4,2.8,37.4,2.8,37.5,2.7C37.4,2.8,37.4,2.8,37.5,2.7C37.4,2.8,37.4,2.8,37.5,2.7
		C37.4,2.8,37.4,2.8,37.5,2.7C37.5,2.8,37.5,2.8,37.5,2.7C37.5,2.8,37.5,2.8,37.5,2.7C37.5,2.8,37.5,2.7,37.5,2.7
		C37.5,2.7,37.5,2.7,37.5,2.7C37.5,2.7,37.5,2.7,37.5,2.7z"/>
	<path class="st10" d="M35,3.2C35,3.2,35,3.2,35,3.2C35,3.2,35,3.2,35,3.2C35,3.2,35,3.2,35,3.2C35,3.2,35,3.2,35,3.2
		C35,3.2,35,3.2,35,3.2C34.9,3.2,34.9,3.2,35,3.2C34.9,3.2,34.9,3.2,35,3.2C34.9,3.2,34.9,3.2,35,3.2C34.9,3.2,34.9,3.2,35,3.2
		C34.9,3.2,34.9,3.2,35,3.2C34.9,3.2,34.9,3.2,35,3.2c-0.1,0-0.1,0-0.1,0c0,0,0,0,0,0s0,0,0,0C34.9,3.2,34.9,3.3,35,3.2
		C34.9,3.3,34.9,3.3,35,3.2C34.9,3.3,34.9,3.3,35,3.2C34.9,3.3,34.9,3.3,35,3.2C34.9,3.3,35,3.3,35,3.2C35,3.3,35,3.3,35,3.2
		C35,3.3,35,3.3,35,3.2C35,3.3,35,3.3,35,3.2C35,3.3,35,3.3,35,3.2C35,3.3,35,3.3,35,3.2C35,3.3,35,3.2,35,3.2C35,3.2,35,3.2,35,3.2
		C35,3.2,35,3.2,35,3.2C35,3.2,35,3.2,35,3.2z"/>
	<path class="st10" d="M35.5,3.2C35.5,3.2,35.5,3.2,35.5,3.2C35.5,3.2,35.5,3.2,35.5,3.2C35.5,3.2,35.5,3.2,35.5,3.2
		C35.5,3.2,35.5,3.2,35.5,3.2C35.5,3.2,35.5,3.2,35.5,3.2C35.4,3.2,35.4,3.2,35.5,3.2C35.4,3.2,35.4,3.2,35.5,3.2
		C35.4,3.2,35.4,3.2,35.5,3.2C35.4,3.2,35.4,3.2,35.5,3.2C35.4,3.2,35.4,3.2,35.5,3.2C35.4,3.2,35.4,3.2,35.5,3.2
		c-0.1,0-0.1,0-0.1,0c0,0,0,0,0,0s0,0,0,0C35.4,3.2,35.4,3.3,35.5,3.2C35.4,3.3,35.4,3.3,35.5,3.2C35.4,3.3,35.4,3.3,35.5,3.2
		C35.4,3.3,35.4,3.3,35.5,3.2C35.4,3.3,35.4,3.3,35.5,3.2C35.4,3.3,35.4,3.3,35.5,3.2C35.4,3.3,35.4,3.3,35.5,3.2
		C35.5,3.3,35.5,3.3,35.5,3.2C35.5,3.3,35.5,3.3,35.5,3.2C35.5,3.3,35.5,3.3,35.5,3.2C35.5,3.3,35.5,3.2,35.5,3.2
		C35.5,3.2,35.5,3.2,35.5,3.2C35.5,3.2,35.5,3.2,35.5,3.2C35.5,3.2,35.5,3.2,35.5,3.2z"/>
	<path class="st10" d="M36,3.2C36,3.2,36,3.2,36,3.2C36,3.2,36,3.2,36,3.2C36,3.2,36,3.2,36,3.2C36,3.2,36,3.2,36,3.2
		C35.9,3.2,35.9,3.2,36,3.2C35.9,3.2,35.9,3.2,36,3.2C35.9,3.2,35.9,3.2,36,3.2C35.9,3.2,35.9,3.2,36,3.2C35.9,3.2,35.9,3.2,36,3.2
		C35.9,3.2,35.9,3.2,36,3.2C35.9,3.2,35.9,3.2,36,3.2c-0.1,0-0.1,0-0.1,0c0,0,0,0,0,0s0,0,0,0C35.9,3.2,35.9,3.3,36,3.2
		C35.9,3.3,35.9,3.3,36,3.2C35.9,3.3,35.9,3.3,36,3.2C35.9,3.3,35.9,3.3,36,3.2C35.9,3.3,35.9,3.3,36,3.2C35.9,3.3,35.9,3.3,36,3.2
		C35.9,3.3,35.9,3.3,36,3.2C35.9,3.3,35.9,3.3,36,3.2C35.9,3.3,35.9,3.3,36,3.2C36,3.3,36,3.3,36,3.2C36,3.3,36,3.3,36,3.2
		C36,3.3,36,3.3,36,3.2C36,3.3,36,3.3,36,3.2C36,3.3,36,3.2,36,3.2C36,3.2,36,3.2,36,3.2C36,3.2,36,3.2,36,3.2C36,3.2,36,3.2,36,3.2
		z"/>
	<path class="st10" d="M36.5,3.2C36.5,3.2,36.5,3.2,36.5,3.2C36.5,3.2,36.5,3.2,36.5,3.2C36.5,3.2,36.5,3.2,36.5,3.2
		C36.4,3.2,36.4,3.2,36.5,3.2C36.4,3.2,36.4,3.2,36.5,3.2C36.4,3.2,36.4,3.2,36.5,3.2C36.4,3.2,36.4,3.2,36.5,3.2
		C36.4,3.2,36.4,3.2,36.5,3.2C36.4,3.2,36.4,3.2,36.5,3.2C36.4,3.2,36.4,3.2,36.5,3.2C36.4,3.2,36.4,3.2,36.5,3.2
		c-0.1,0-0.1,0-0.1,0c0,0,0,0,0,0s0,0,0,0C36.4,3.2,36.4,3.3,36.5,3.2C36.4,3.3,36.4,3.3,36.5,3.2C36.4,3.3,36.4,3.3,36.5,3.2
		C36.4,3.3,36.4,3.3,36.5,3.2C36.4,3.3,36.4,3.3,36.5,3.2C36.4,3.3,36.4,3.3,36.5,3.2C36.4,3.3,36.4,3.3,36.5,3.2
		C36.4,3.3,36.5,3.3,36.5,3.2C36.5,3.3,36.5,3.3,36.5,3.2C36.5,3.3,36.5,3.3,36.5,3.2C36.5,3.3,36.5,3.2,36.5,3.2
		C36.5,3.2,36.5,3.2,36.5,3.2C36.5,3.2,36.5,3.2,36.5,3.2C36.5,3.2,36.5,3.2,36.5,3.2z"/>
	<path class="st10" d="M37,3.2C37,3.2,37,3.2,37,3.2C37,3.2,37,3.2,37,3.2C36.9,3.2,36.9,3.2,37,3.2C36.9,3.2,36.9,3.2,37,3.2
		C36.9,3.2,36.9,3.2,37,3.2C36.9,3.2,36.9,3.2,37,3.2C36.9,3.2,36.9,3.2,37,3.2C36.9,3.2,36.9,3.2,37,3.2C36.9,3.2,36.9,3.2,37,3.2
		C36.9,3.2,36.9,3.2,37,3.2C36.9,3.2,36.9,3.2,37,3.2c-0.1,0-0.1,0-0.1,0c0,0,0,0,0,0s0,0,0,0C36.9,3.2,36.9,3.3,37,3.2
		C36.9,3.3,36.9,3.3,37,3.2C36.9,3.3,36.9,3.3,37,3.2C36.9,3.3,36.9,3.3,37,3.2C36.9,3.3,36.9,3.3,37,3.2C36.9,3.3,36.9,3.3,37,3.2
		C36.9,3.3,36.9,3.3,37,3.2C36.9,3.3,36.9,3.3,37,3.2C36.9,3.3,36.9,3.3,37,3.2C36.9,3.3,36.9,3.3,37,3.2C36.9,3.3,36.9,3.3,37,3.2
		C37,3.3,37,3.3,37,3.2C37,3.3,37,3.3,37,3.2C37,3.3,37,3.2,37,3.2C37,3.2,37,3.2,37,3.2C37,3.2,37,3.2,37,3.2C37,3.2,37,3.2,37,3.2
		z"/>
	<path class="st10" d="M37.5,3.2C37.5,3.2,37.5,3.2,37.5,3.2C37.4,3.2,37.4,3.2,37.5,3.2C37.4,3.2,37.4,3.2,37.5,3.2
		C37.4,3.2,37.4,3.2,37.5,3.2C37.4,3.2,37.4,3.2,37.5,3.2C37.4,3.2,37.4,3.2,37.5,3.2C37.4,3.2,37.4,3.2,37.5,3.2
		C37.4,3.2,37.4,3.2,37.5,3.2C37.4,3.2,37.4,3.2,37.5,3.2C37.4,3.2,37.4,3.2,37.5,3.2C37.4,3.2,37.4,3.2,37.5,3.2
		c-0.1,0-0.1,0-0.1,0c0,0,0,0,0,0s0,0,0,0C37.4,3.2,37.4,3.3,37.5,3.2C37.4,3.3,37.4,3.3,37.5,3.2C37.4,3.3,37.4,3.3,37.5,3.2
		C37.4,3.3,37.4,3.3,37.5,3.2C37.4,3.3,37.4,3.3,37.5,3.2C37.4,3.3,37.4,3.3,37.5,3.2C37.4,3.3,37.4,3.3,37.5,3.2
		C37.4,3.3,37.4,3.3,37.5,3.2C37.4,3.3,37.4,3.3,37.5,3.2C37.5,3.3,37.5,3.3,37.5,3.2C37.5,3.3,37.5,3.2,37.5,3.2
		C37.5,3.2,37.5,3.2,37.5,3.2C37.5,3.2,37.5,3.2,37.5,3.2C37.5,3.2,37.5,3.2,37.5,3.2z"/>
</g>
</svg>
