<svg xmlns="http://www.w3.org/2000/svg" width="22.488" height="23.592" viewBox="0 0 22.488 23.592">
  <g id="Group_1" data-name="Group 1" transform="translate(-868.512 -562.408)">
    <text id="_" data-name="****" transform="translate(884 584)" fill="#9e2067" font-size="6" font-family="Poppins-Bold, Poppins" font-weight="700"><tspan x="-6.408" y="0">****</tspan></text>
    <path id="key-svgrepo-com_1_" data-name="key-svgrepo-com (1)" d="M17.06,6.739A4.749,4.749,0,0,1,12.3,11.478a3.876,3.876,0,0,1-2.1-.551l-.664.661c-.39.389-.285.5-.111.692a1.28,1.28,0,0,1,.222.3,1.367,1.367,0,0,1,0,1.543,1.442,1.442,0,0,1-2.324,0l-.221.22A1.252,1.252,0,1,1,5.219,16l-.775.771a1.047,1.047,0,0,1-1.439,0l-.664-.661a1.05,1.05,0,0,1,0-1.543L8.1,8.833a4.3,4.3,0,0,1-.553-2.094,4.759,4.759,0,0,1,9.517,0ZM12.3,8.392a1.653,1.653,0,1,0-1.66-1.653A1.657,1.657,0,0,0,12.3,8.392Z" transform="matrix(0.951, -0.309, 0.309, 0.951, 865.991, 565.778)" fill="#9e2067" fill-rule="evenodd"/>
  </g>
</svg>
