<svg xmlns="http://www.w3.org/2000/svg" width="10.102" height="10.091" viewBox="0 0 10.102 10.091">
  <g id="sign-in-svgrepo-com" transform="translate(-8.624 5.222) rotate(-45)">
    <path id="Path_2" data-name="Path 2" d="M10.845,14.794a.588.588,0,0,1-.421-.175.6.6,0,0,1,0-.841l2.754-2.754L10.425,8.27a.6.6,0,0,1,.841-.841L14.441,10.6a.6.6,0,0,1,0,.841L11.266,14.62a.588.588,0,0,1-.421.175Z" transform="translate(-1.444 -1.482)" fill="#fff"/>
    <path id="Path_3" data-name="Path 3" d="M12.576,12.441H3.845a.6.6,0,0,1,0-1.191h8.731a.6.6,0,0,1,0,1.191Z" transform="translate(0 -2.304)" fill="#fff"/>
  </g>
</svg>
