<svg xmlns="http://www.w3.org/2000/svg" width="17" height="21.922" viewBox="0 0 17 21.922">
  <path id="user-question-alt-1-svgrepo-com-1" d="M100,87.427a1.095,1.095,0,0,0,2.19,0Zm9.71-6.511a1.1,1.1,0,1,0,.309-2.17Zm2.348-8.835a3.289,3.289,0,0,1-3.288,3.288v2.193a5.482,5.482,0,0,0,5.481-5.481ZM108.77,75.37a3.289,3.289,0,0,1-3.288-3.288h-2.193a5.482,5.482,0,0,0,5.481,5.481Zm-3.288-3.288a3.289,3.289,0,0,1,3.288-3.288V66.6a5.482,5.482,0,0,0-5.481,5.481h2.193Zm3.288-3.288a3.289,3.289,0,0,1,3.288,3.288h2.193A5.482,5.482,0,0,0,108.77,66.6Zm-6.576,18.634a6.575,6.575,0,0,1,6.576-6.576V78.658a8.769,8.769,0,0,0-8.77,8.77Zm6.576-6.576a6.808,6.808,0,0,1,.94.066l.309-2.17a8.745,8.745,0,0,0-1.253-.089v2.193Zm5.534-.082a1.134,1.134,0,1,1-1.134-1.134A1.132,1.132,0,0,1,114.3,80.769Zm2.7,0a1.134,1.134,0,1,1-1.134-1.134A1.132,1.132,0,0,1,117,80.769Zm-2.7,2.795a1.134,1.134,0,1,1-1.134-1.134A1.132,1.132,0,0,1,114.3,83.564Zm2.7,0a1.134,1.134,0,1,1-1.134-1.134A1.132,1.132,0,0,1,117,83.564Zm-2.7,2.565a1.134,1.134,0,1,1-1.134-1.134A1.132,1.132,0,0,1,114.3,86.129Zm2.7,0a1.134,1.134,0,1,1-1.134-1.134A1.132,1.132,0,0,1,117,86.129Z" transform="translate(-100 -66.6)" fill="#9e2067"/>
</svg>
