<svg xmlns="http://www.w3.org/2000/svg" width="17.006" height="17.006" viewBox="0 0 17.006 17.006"><defs><style>.a{fill:#2a364d;}.b{fill:#fff;}</style></defs><path class="a" d="M479.184,816.611a8.5,8.5,0,1,1,6.014-2.489A8.512,8.512,0,0,1,479.184,816.611Z" transform="translate(-470.681 -799.605)"/><path class="b" d="M483.842,808.14h-2.874v-2.874a.876.876,0,0,0-1.752,0h0v2.874h-2.874a.876.876,0,1,0,0,1.752h2.874v2.874a.876.876,0,0,0,1.752,0v-2.874h2.874a.876.876,0,0,0,0-1.752Z" transform="translate(-471.589 -800.513)"/></svg>