<svg xmlns="http://www.w3.org/2000/svg" width="20.309" height="20.309" viewBox="0 0 20.309 20.309"><defs><style>.a{fill:#fff;stroke:#2a364d;}.b{fill:#2a364d;}</style></defs><g transform="translate(-302 -4240)"><path class="a" d="M480.335,818.913a9.649,9.649,0,1,1,6.828-2.826A9.665,9.665,0,0,1,480.335,818.913Z" transform="translate(-168.181 3440.895)"/><path class="b" d="M483.842,808.14h-2.874v-2.874a.876.876,0,0,0-1.752,0h0v2.874h-2.874a.876.876,0,1,0,0,1.752h2.874v2.874a.876.876,0,0,0,1.752,0v-2.874h2.874a.876.876,0,0,0,0-1.752Z" transform="translate(-167.466 3441.61)"/></g></svg>