<svg xmlns="http://www.w3.org/2000/svg" width="21.865" height="21.659" viewBox="0 0 21.865 21.659"><defs><style>.a{fill:#2a364d;}</style></defs><g transform="translate(-698.679 -355.772)"><path class="a" d="M719.215,357.7h-1.827v-1.412a.52.52,0,1,0-1.04,0V357.7h-6.216v-1.412a.52.52,0,1,0-1.039,0V357.7h-6.246v-1.412a.52.52,0,1,0-1.04,0V357.7h-1.8a1.33,1.33,0,0,0-1.328,1.329V376.1a1.33,1.33,0,0,0,1.328,1.329h19.208a1.33,1.33,0,0,0,1.329-1.329V359.033A1.33,1.33,0,0,0,719.215,357.7Zm-19.208,1.04h1.8v.643a.52.52,0,1,0,1.04,0v-.643h6.246v.643a.52.52,0,1,0,1.039,0v-.643h6.216v.643a.52.52,0,1,0,1.04,0v-.643h1.827a.289.289,0,0,1,.289.289v2.875H699.719v-2.875A.289.289,0,0,1,700.007,358.744Zm19.208,17.647H700.007a.289.289,0,0,1-.289-.289V362.948H719.5V376.1A.289.289,0,0,1,719.215,376.391Z" transform="translate(0 0)"/><path class="a" d="M715.189,370.636l-4.949,5.827-1.668-1.616a.52.52,0,0,0-.724.747l2.066,2a.519.519,0,0,0,.362.146h.025a.521.521,0,0,0,.371-.183l5.308-6.25a.52.52,0,1,0-.792-.673Z" transform="translate(-2.729 -4.445)"/></g></svg>