<svg xmlns="http://www.w3.org/2000/svg" width="26.55" height="31.483" viewBox="0 0 26.55 31.483"><defs><style>.a{fill:#939598;}</style></defs><g transform="translate(-1142.615 -489.709)"><path class="a" d="M1163.48,523.139h-7.795a.454.454,0,0,0-.454.454h0v1.713a.454.454,0,0,0,.454.432h1.734v4.76a.454.454,0,0,0,.431.454h3.461a.454.454,0,0,0,.431-.454v-4.76h1.735a.455.455,0,0,0,.454-.432v-1.732A.454.454,0,0,0,1163.48,523.139Zm-5.2,2.6h.868v4.329h-.868Zm2.6,4.329h-.845v-4.329h.867Zm2.162-5.192h-6.922v-.867h6.922Z" transform="translate(-3.692 -9.782)"/><g transform="translate(1148.884 489.709)"><path class="a" d="M1161.253,489.709a.371.371,0,0,0-.37.37v1a.37.37,0,0,0,.741,0v-1a.37.37,0,0,0-.37-.37Z" transform="translate(-1154.229 -489.709)"/><path class="a" d="M1164.928,490.37a.371.371,0,0,0-.475.221l-.341.938a.37.37,0,0,0,.22.474h0a.378.378,0,0,0,.475-.222l.341-.938A.369.369,0,0,0,1164.928,490.37Z" transform="translate(-1155.167 -489.896)"/><path class="a" d="M1167.894,492.211a.368.368,0,0,0-.251.132l-.641.764a.372.372,0,0,0,.045.522.38.38,0,0,0,.522-.046l.641-.765a.37.37,0,0,0-.044-.521h0A.37.37,0,0,0,1167.894,492.211Z" transform="translate(-1155.995 -490.441)"/><path class="a" d="M1170.571,495.255a.368.368,0,0,0-.5-.136h0l-.863.5a.371.371,0,0,0-.136.506.381.381,0,0,0,.507.135l.863-.5a.371.371,0,0,0,.136-.506Z" transform="translate(-1156.609 -491.278)"/><path class="a" d="M1152.9,495.552l-.864-.5a.367.367,0,0,0-.185-.05.37.37,0,0,0-.186.691l.864.5a.381.381,0,0,0,.506-.137A.369.369,0,0,0,1152.9,495.552Z" transform="translate(-1151.477 -491.258)"/><path class="a" d="M1155.3,493.271a.365.365,0,0,0-.085-.27l-.641-.765a.367.367,0,0,0-.252-.131h-.034a.37.37,0,0,0-.283.608l.641.765a.38.38,0,0,0,.521.046A.367.367,0,0,0,1155.3,493.271Z" transform="translate(-1152.193 -490.41)"/><path class="a" d="M1158.275,491.4l-.341-.937a.37.37,0,0,0-.7.253l.34.937a.379.379,0,0,0,.475.222.372.372,0,0,0,.212-.192A.362.362,0,0,0,1158.275,491.4Z" transform="translate(-1153.156 -489.857)"/></g><path class="a" d="M1161.587,496.822a2.652,2.652,0,0,0-2.272,1.309,2.558,2.558,0,0,0-2.218-1.309,2.8,2.8,0,0,0-2.668,2.733,2.826,2.826,0,0,0,.083,1.039,4.46,4.46,0,0,0,1.365,2.278l3.435,3.117,3.494-3.117a4.455,4.455,0,0,0,1.365-2.278,2.853,2.853,0,0,0,.084-1.039A2.8,2.8,0,0,0,1161.587,496.822Z" transform="translate(-3.452 -2.081)"/><g transform="translate(1142.615 499.397)"><path class="a" d="M1149.845,503.4c-.17.1-.341.2-.509.318a11.2,11.2,0,0,0-4.928,9.312v7.795h-.454a.455.455,0,0,0-.432.432v1.3h-.454a.454.454,0,0,0-.453.454v1.73a.454.454,0,0,0,.453.454h6.968a.454.454,0,0,0,.454-.454v-1.753a.454.454,0,0,0-.454-.454h-.432v-1.282a.454.454,0,0,0-.432-.432h-.454v-7.79a6.932,6.932,0,0,1,3.3-5.905,2.548,2.548,0,0,1,.489-.333l-1.048-.951A5.891,5.891,0,0,1,1149.845,503.4Zm-.171,1.141a6.05,6.05,0,0,0,.454.741,9.463,9.463,0,0,0-4,7.749v7.795h-.849v-7.808A10.341,10.341,0,0,1,1149.675,504.546Zm-.068,18.878v.854h-6.059v-.854Zm-.868-1.712v.867l-4.329-.018v-.849Zm-.862-8.674v7.792h-.867v-7.8a8.631,8.631,0,0,1,3.689-7.074,8.189,8.189,0,0,0,.639.613A7.8,7.8,0,0,0,1147.876,513.038Z" transform="translate(-1142.615 -503.405)"/><path class="a" d="M1167.213,505.846l-1.048.951a2.551,2.551,0,0,1,.489.333,6.931,6.931,0,0,1,3.3,5.905v7.79h-.454a.454.454,0,0,0-.432.432v1.282h-.432a.454.454,0,0,0-.454.454v1.753a.454.454,0,0,0,.454.454h6.968a.455.455,0,0,0,.454-.454v-1.73a.454.454,0,0,0-.454-.454h-.454v-1.3a.455.455,0,0,0-.431-.432h-.454v-7.795a11.2,11.2,0,0,0-4.928-9.312c-.167-.117-.339-.214-.509-.318A5.893,5.893,0,0,1,1167.213,505.846Zm6.18,7.176v7.808h-.849v-7.795a9.462,9.462,0,0,0-4-7.749,6.081,6.081,0,0,0,.454-.741A10.342,10.342,0,0,1,1173.393,513.022Zm1.73,10.4v.854h-6.059v-.854Zm-.863-1.712v.849l-4.328.018v-.867Zm-6.927-15.137a8.352,8.352,0,0,0,.64-.613,8.633,8.633,0,0,1,3.688,7.074v7.8h-.867v-7.792A7.8,7.8,0,0,0,1167.333,506.575Z" transform="translate(-1149.506 -503.405)"/></g></g></svg>