<svg xmlns="http://www.w3.org/2000/svg" width="16" height="13.722" viewBox="0 0 16 13.722"><defs><style>.a{fill:#fff;}</style></defs><g transform="translate(0 -31.842)"><g transform="translate(0 31.842)"><path class="a" d="M15.038,37.579a1.145,1.145,0,0,0-.2-.015H3.552L3.8,37.45a2.29,2.29,0,0,0,.647-.458l3.165-3.165a1.185,1.185,0,0,0,.166-1.517,1.145,1.145,0,0,0-1.717-.149L.335,37.885a1.145,1.145,0,0,0,0,1.619h0l5.724,5.724a1.145,1.145,0,0,0,1.717-.114A1.185,1.185,0,0,0,7.611,43.6l-3.16-3.171a2.29,2.29,0,0,0-.572-.418l-.343-.155H14.777a1.185,1.185,0,0,0,1.208-.962A1.145,1.145,0,0,0,15.038,37.579Z" transform="translate(0 -31.842)"/></g></g></svg>