<svg xmlns="http://www.w3.org/2000/svg" width="12.666" height="21.713" viewBox="0 0 12.666 21.713"><defs><style>.a{fill:#2a364d;}.b{fill:#40ae19;}.c{fill:#fff;}</style></defs><g transform="translate(-106.667)"><path class="a" d="M214.689,348.572a.452.452,0,0,1-.452-.452,2.138,2.138,0,0,1,.483-1.22,1.784,1.784,0,0,0,.422-1.042c0-.331-.414-.633-.814-.932-.489-.362-1-.734-1-1.33a2.124,2.124,0,0,1,.61-1.344c.131-.163.295-.362.295-.465a.452.452,0,0,1,.9,0,1.7,1.7,0,0,1-.5,1.033,1.378,1.378,0,0,0-.409.776c0,.139.377.418.626.6.527.389,1.183.872,1.183,1.66a2.631,2.631,0,0,1-.577,1.55,1.357,1.357,0,0,0-.328.712A.452.452,0,0,1,214.689,348.572Z" transform="translate(-102.141 -326.858)"/><path class="b" d="M216.822,310.815l-1.357-1.357a.452.452,0,0,0-.64,0l-1.357,1.357a.452.452,0,0,0,.319.773H216.5a.452.452,0,0,0,.32-.773Z" transform="translate(-102.145 -296.207)"/><path class="b" d="M113,0a6.34,6.34,0,0,0-6.333,6.333c0,3.566,3.832,7.69,6.333,7.69s6.333-4.125,6.333-7.69A6.34,6.34,0,0,0,113,0Z"/><path class="c" d="M149.785,47.643a.452.452,0,0,1-.452-.452,4.529,4.529,0,0,1,4.524-4.524.452.452,0,1,1,0,.9,3.619,3.619,0,0,0-3.619,3.619A.452.452,0,0,1,149.785,47.643Z" transform="translate(-40.857 -40.858)"/></g></svg>