<svg xmlns="http://www.w3.org/2000/svg" width="16" height="15.491" viewBox="0 0 16 15.491"><defs><style>.a{fill:#2a364d;}</style></defs><path class="a" d="M582.532,614.523a1.375,1.375,0,0,0-1.352-1.087.272.272,0,1,0,0,.543h0a.816.816,0,1,1,.061,1.63.529.529,0,0,1-.061,0,.272.272,0,1,0,0,.543h0a1.375,1.375,0,0,0,1.352-1.087h3.615v2.447H571.254v-2.446h4.686a.272.272,0,1,0,0-.543h-.5a.823.823,0,1,1,.777,1.087.272.272,0,0,0,0,.543h0a1.358,1.358,0,1,0-1.356-1.63H570.7v14.4h16v-14.4Zm3.615,13.862H571.254v-10.33h14.893Z" transform="translate(-570.698 -613.435)"/><path class="a" d="M577,613.979a.816.816,0,0,1,0,1.63.272.272,0,0,0,0,.543h0a1.359,1.359,0,1,0,0-2.717.272.272,0,0,0,0,.543h0Z" transform="translate(-569.82 -613.435)"/><path class="a" d="M578.447,613.979a.816.816,0,0,1,0,1.63.272.272,0,0,0,0,.543,1.359,1.359,0,1,0,0-2.717.272.272,0,0,0,0,.543Z" transform="translate(-569.609 -613.435)"/><circle class="a" cx="0.691" cy="0.691" r="0.691" transform="translate(2.515 6.332)"/><circle class="a" cx="0.691" cy="0.691" r="0.691" transform="translate(2.515 9.095)"/><circle class="a" cx="0.691" cy="0.691" r="0.691" transform="translate(2.515 11.858)"/><circle class="a" cx="0.691" cy="0.691" r="0.691" transform="translate(7.648 6.332)"/><circle class="a" cx="0.691" cy="0.691" r="0.691" transform="translate(7.648 9.095)"/><circle class="a" cx="0.691" cy="0.691" r="0.691" transform="translate(7.648 11.858)"/><circle class="a" cx="0.691" cy="0.691" r="0.691" transform="translate(12.103 6.332)"/><circle class="a" cx="0.691" cy="0.691" r="0.691" transform="translate(12.103 9.095)"/></svg>