<svg xmlns="http://www.w3.org/2000/svg" width="14.966" height="14" viewBox="0 0 14.966 14"><defs><style>.a{fill:#2a364d;}</style></defs><path class="a" d="M22.724,37.517H22v-.483a.241.241,0,0,0-.241-.241h-.241V31h.241A.241.241,0,0,0,22,30.759v-.724a.241.241,0,0,0-.241-.241H19.345v-.724a.241.241,0,0,0-.241-.241h-.241V28.1a.241.241,0,0,0-.241-.241h-.241v-.483a2.532,2.532,0,0,0-.86-1.939,3.022,3.022,0,0,0-1.795-.708v-.492a.241.241,0,1,0-.483,0v.492a3.022,3.022,0,0,0-1.795.708,2.532,2.532,0,0,0-.86,1.939v.483h-.241a.241.241,0,0,0-.241.241v.724h-.241a.241.241,0,0,0-.241.241v.724H9.207a.241.241,0,0,0-.241.241v.724A.241.241,0,0,0,9.207,31h.241v5.793H9.207a.241.241,0,0,0-.241.241v.483H8.241a.241.241,0,0,0,0,.483H22.724a.241.241,0,0,0,0-.483ZM13.764,25.8a2.771,2.771,0,0,1,3.437,0,2,2,0,0,1,.683,1.334h-4.8a2,2,0,0,1,.683-1.334Zm-.7,1.816H17.9v.241H13.069Zm-.483.724h5.793v.483H12.586Zm-.483.966h6.759v.483H12.1Zm-2.655.966H21.517v.241H9.448Zm7.724,5.793V34.138a.241.241,0,0,0,.241-.241v-.724a.241.241,0,0,0-.241-.241H13.793a.241.241,0,0,0-.241.241V33.9a.241.241,0,0,0,.241.241v1.931a.241.241,0,0,0-.241.241v.483H9.931V31h11.1v5.793H17.414V36.31A.241.241,0,0,0,17.172,36.069Zm-.241.483v.241h-2.9v-.241Zm-2.655-.483V34.138h.966v1.931Zm1.448,0V34.138h.966v1.931Zm-1.69-2.414v-.241h2.9v.241Zm7.483,3.862H9.448v-.241H21.517Z" transform="translate(-8 -24)"/></svg>