<svg xmlns="http://www.w3.org/2000/svg" width="21.423" height="23.64" viewBox="0 0 21.423 23.64"><defs><style>.a{fill:#2a364d;}</style></defs><g transform="translate(-456.554 -355.187)"><g transform="translate(456.554 355.187)"><path class="a" d="M476.592,355.187H459.97a1.386,1.386,0,0,0-1.385,1.385v1.108h-.277a1.754,1.754,0,0,0,0,3.509h.277v1.539h-.277a1.754,1.754,0,1,0,0,3.509h.277v1.539h-.277a1.755,1.755,0,0,0,0,3.51h.277v1.539h-.277a1.754,1.754,0,0,0,0,3.509h.277v1.108a1.387,1.387,0,0,0,1.385,1.385h16.622a1.386,1.386,0,0,0,1.385-1.385v-20.87A1.386,1.386,0,0,0,476.592,355.187ZM458.585,375.41h-.277a.831.831,0,1,1,0-1.662h.277Zm0-5.048h-.277a.831.831,0,1,1,0-1.662h.277Zm0-5.049h-.277a.831.831,0,1,1,0-1.662h.277Zm0-5.048h-.277a.831.831,0,1,1,0-1.662h.277Zm2.032-.831V377.9h-.647a.462.462,0,0,1-.461-.461v-20.87a.463.463,0,0,1,.461-.462h.647Zm16.437,18.007a.462.462,0,0,1-.461.461H461.541V356.11h15.052a.463.463,0,0,1,.461.462Z" transform="translate(-456.554 -355.187)"/></g><path class="a" d="M476.525,373.735a4.564,4.564,0,0,0-3.041-4.294,2.6,2.6,0,1,0-3.04,0,4.564,4.564,0,0,0-3.041,4.294Zm-6.394-6.394a1.833,1.833,0,1,1,1.833,1.833A1.835,1.835,0,0,1,470.131,367.341Zm-1.882,5.625a3.794,3.794,0,0,1,7.431,0Z" transform="translate(-2.534 -2.232)"/></g></svg>