<svg xmlns="http://www.w3.org/2000/svg" width="22.954" height="23.08" viewBox="0 0 22.954 23.08"><path d="M284.832,342.7l-3.241-3.241-.01-.012a1.217,1.217,0,0,0-.848-.429,1.324,1.324,0,0,0-.888.441l-2.013,2.01a1.2,1.2,0,0,1-1.477.26c-.023-.012-.047-.029-.071-.042-.17-.106-.37-.206-.582-.312a7.7,7.7,0,0,1-.724-.395,21.535,21.535,0,0,1-5.223-4.752,12.967,12.967,0,0,1-1.9-3.1l-.017-.052a1.2,1.2,0,0,1,.306-1.336c.005-.012.017-.017.029-.029.512-.459.983-.93,1.477-1.435.171-.161.332-.334.506-.507a1.107,1.107,0,0,0,.258-.258,1.12,1.12,0,0,0-.258-1.563l-1.607-1.606c-.187-.194-.376-.383-.557-.571-.367-.371-.7-.718-1.06-1.053l-.017-.017a1.268,1.268,0,0,0-.866-.412,1.342,1.342,0,0,0-.893.417l-2.006,2a2.691,2.691,0,0,0-.814,1.747,8.415,8.415,0,0,0,.659,3.682,23.854,23.854,0,0,0,4.234,7.053,26.157,26.157,0,0,0,8.683,6.8,12.756,12.756,0,0,0,4.589,1.376h.27a2.835,2.835,0,0,0,2.212-.937,15.871,15.871,0,0,1,1.136-1.177c.253-.246.488-.471.718-.717l0-.005a1.163,1.163,0,0,0,0-1.83Z" transform="translate(-262.324 -324.287)"/></svg>