<svg xmlns="http://www.w3.org/2000/svg" width="17.235" height="11.597" viewBox="0 0 17.235 11.597"><defs><style>.a{fill:#fff200;}</style></defs><path class="a" d="M16.557,47.4a.482.482,0,0,1-.013.144l-1.063,4.252a.483.483,0,0,1-.466.366l-6.379.032H2.255a.483.483,0,0,1-.469-.366L.723,47.555a.482.482,0,0,1-.013-.147,1.015,1.015,0,1,1,.949-.185L2.99,48.564a1.806,1.806,0,0,0,2.723-.184l2.187-2.9a1.015,1.015,0,1,1,1.45-.017l0,0,2.172,2.906a1.813,1.813,0,0,0,1.445.724,1.792,1.792,0,0,0,1.276-.529l1.339-1.339a1.015,1.015,0,1,1,.972.166ZM15.377,53.7a.483.483,0,0,0-.483-.483H2.395a.483.483,0,0,0-.483.483v1.16a.483.483,0,0,0,.483.483h12.5a.483.483,0,0,0,.483-.483Z" transform="translate(0 -43.75)"/></svg>