<svg xmlns="http://www.w3.org/2000/svg" width="12.712" height="15.516" viewBox="0 0 12.712 15.516"><defs><style>.a{fill:#fff;stroke:#fff;stroke-width:0.5px;}</style></defs><g transform="translate(0.261 0.252)"><path class="a" d="M222.75,154.7a.352.352,0,0,0-.352.352V161.7a.352.352,0,0,0,.7,0v-6.647A.352.352,0,0,0,222.75,154.7Zm0,0" transform="translate(-214.58 -149.264)"/><path class="a" d="M104.75,154.7a.352.352,0,0,0-.352.352V161.7a.352.352,0,0,0,.7,0v-6.647A.352.352,0,0,0,104.75,154.7Zm0,0" transform="translate(-100.73 -149.264)"/><path class="a" d="M1,4.469v8.664a1.94,1.94,0,0,0,.516,1.338,1.732,1.732,0,0,0,1.257.543H9.422a1.731,1.731,0,0,0,1.257-.543,1.94,1.94,0,0,0,.516-1.338V4.469a1.343,1.343,0,0,0-.345-2.642h-1.8v-.44A1.381,1.381,0,0,0,7.656,0H4.533A1.381,1.381,0,0,0,3.141,1.388v.44H1.34A1.343,1.343,0,0,0,1,4.469Zm8.426,9.842H2.768A1.114,1.114,0,0,1,1.7,13.133V4.5h8.792v8.633a1.114,1.114,0,0,1-1.069,1.178ZM3.844,1.388A.678.678,0,0,1,4.533.7H7.656a.678.678,0,0,1,.689.686v.44h-4.5ZM1.34,2.531h9.509a.633.633,0,0,1,0,1.266H1.34a.633.633,0,1,1,0-1.266Zm0,0" transform="translate(0 0)"/><path class="a" d="M163.75,154.7a.352.352,0,0,0-.352.352V161.7a.352.352,0,1,0,.7,0v-6.647A.352.352,0,0,0,163.75,154.7Zm0,0" transform="translate(-157.655 -149.264)"/></g></svg>