<svg xmlns="http://www.w3.org/2000/svg" width="18" height="18" viewBox="0 0 18 18"><defs><style>.a{fill:#636466;}</style></defs><path class="a" d="M17.793,3.921,14.083.211a.718.718,0,0,0-1.015,0L1.387,11.867a.718.718,0,0,0-.191.341L.023,17.116a.717.717,0,0,0,.865.865L5.8,16.808a.716.716,0,0,0,.341-.191L17.794,4.936A.718.718,0,0,0,17.793,3.921ZM5.264,15.458l-3.572.854.854-3.572L13.575,1.733l2.7,2.7Z" transform="translate(-0.004 0)"/><g transform="translate(10.311 2.939)"><g transform="translate(0 0)"><rect class="a" width="1.436" height="5.28" transform="translate(0 1.015) rotate(-45)"/></g></g><g transform="translate(3.202 4.806)"><g transform="translate(0 0)"><rect class="a" width="12.693" height="1.436" transform="translate(0 8.975) rotate(-45)"/></g></g><g transform="translate(1.359 11.915)"><g transform="translate(0 0)"><rect class="a" width="1.436" height="5.247" transform="translate(0 1.015) rotate(-45)"/></g></g></svg>