<svg xmlns="http://www.w3.org/2000/svg" width="21.423" height="20.384" viewBox="0 0 21.423 20.384"><defs><style>.a{fill:#2a364d;}</style></defs><g transform="translate(-639.229 -428.782)"><g transform="translate(639.229 428.782)"><path class="a" d="M660.652,431.573a2.8,2.8,0,0,0-2.792-2.792H642.02a2.8,2.8,0,0,0-2.792,2.792v17.268a.325.325,0,0,0,.325.325.336.336,0,0,0,.2-.066l4.526-3.507H657.86a2.794,2.794,0,0,0,2.792-2.792ZM660,442.8a2.144,2.144,0,0,1-2.141,2.142h-13.69a.322.322,0,0,0-.2.069l-4.094,3.172V431.573a2.144,2.144,0,0,1,2.142-2.142l15.841,0A2.144,2.144,0,0,1,660,431.57Z" transform="translate(-639.229 -428.782)"/><g transform="translate(2.953 3.102)"><path class="a" d="M651.986,440.6h0c-.107.116-.216.219-.334.335a6.793,6.793,0,0,0-.53.547,1.321,1.321,0,0,1-1.03.436h-.13a5.976,5.976,0,0,1-2.136-.64,12.152,12.152,0,0,1-4.042-3.167,11.105,11.105,0,0,1-1.972-3.284,3.886,3.886,0,0,1-.305-1.715,1.25,1.25,0,0,1,.376-.813l.935-.933a.617.617,0,0,1,.415-.195.588.588,0,0,1,.4.193l.009.008c.166.156.326.318.492.491.084.087.173.174.26.26l.747.747a.518.518,0,0,1,.125.723.5.5,0,0,1-.125.126c-.08.08-.156.158-.236.236-.23.235-.449.453-.687.669l-.014.012a.557.557,0,0,0-.141.622l.008.025a5.981,5.981,0,0,0,.884,1.443h0a10.056,10.056,0,0,0,2.433,2.207c.109.066.221.127.336.183.092.044.182.092.27.145l.034.018a.562.562,0,0,0,.687-.121l.938-.937a.62.62,0,0,1,.414-.205.553.553,0,0,1,.389.2h0l1.51,1.51a.543.543,0,0,1,.134.754A.553.553,0,0,1,651.986,440.6Z" transform="translate(-641.503 -431.171)"/></g><g transform="translate(9.57 3.098)"><path class="a" d="M655.081,432.466h-7.832a.649.649,0,1,1,0-1.3h7.832a.649.649,0,1,1,0,1.3Z" transform="translate(-646.6 -431.168)"/><g transform="translate(2.128 3.151)"><path class="a" d="M654.592,434.893h-5.7a.649.649,0,0,1,0-1.3h5.7a.649.649,0,1,1,0,1.3Z" transform="translate(-648.239 -433.595)"/></g><g transform="translate(4.475 6.3)"><path class="a" d="M654.052,437.318H650.7a.649.649,0,0,1,0-1.3h3.356a.649.649,0,0,1,0,1.3Z" transform="translate(-650.047 -436.02)"/></g><g transform="translate(6.153 9.452)"><path class="a" d="M653.667,439.746h-1.679a.649.649,0,1,1,0-1.3h1.679a.649.649,0,1,1,0,1.3Z" transform="translate(-651.339 -438.448)"/></g></g></g></g></svg>