<?xml version="1.0" encoding="utf-8"?>
<!-- Generator: Adobe Illustrator 25.1.0, SVG Export Plug-In . SVG Version: 6.00 Build 0)  -->
<svg version="1.1" id="Layer_1" xmlns="http://www.w3.org/2000/svg" xmlns:xlink="http://www.w3.org/1999/xlink" x="0px" y="0px"
	 viewBox="0 0 8 8" style="enable-background:new 0 0 8 8;" xml:space="preserve">
<style type="text/css">
	.st0{fill:#2A364D;}
</style>
<g>
	<path class="st0" d="M4.1,3.8c0,0.2,0.2,0.4,0.4,0.4c0,0,0,0,0,0c0.2,0,0.4-0.2,0.4-0.4c0,0,0,0,0,0c0-0.2-0.1-0.4-0.3-0.4
		c0,0,0,0-0.1,0C4.3,3.4,4.1,3.6,4.1,3.8z"/>
	<path class="st0" d="M5.8,1.9c0.2,0,0.3-0.2,0.3-0.4c0,0,0,0,0,0c0-0.2-0.1-0.4-0.3-0.4c0,0,0,0,0,0c-0.2,0-0.4,0.2-0.4,0.4
		C5.4,1.7,5.5,1.9,5.8,1.9C5.8,1.9,5.8,1.9,5.8,1.9z"/>
	<path class="st0" d="M3.4,1.3c0.1,0,0.2-0.1,0.2-0.2c0,0,0,0,0,0c0-0.1-0.1-0.2-0.2-0.2c0,0,0,0,0,0c-0.1,0-0.2,0.1-0.2,0.2
		c0,0,0,0,0,0.1C3.1,1.2,3.2,1.3,3.4,1.3z"/>
	<path class="st0" d="M7.3,4.3c0-0.1-0.1-0.2-0.2-0.2c-0.1,0-0.2,0.1-0.2,0.2c0,0.1,0.1,0.2,0.2,0.2c0,0,0,0,0,0
		C7.1,4.5,7.2,4.4,7.3,4.3z"/>
	<path class="st0" d="M5.7,5.3C3.9,5.3,2.4,3.8,2.4,2c0-0.4,0.1-0.8,0.2-1.1c-1.1,0.6-1.8,1.7-1.8,3c0,1.8,1.5,3.3,3.3,3.3
		c1.4,0,2.7-0.9,3.1-2.2C6.7,5.2,6.2,5.3,5.7,5.3z"/>
</g>
</svg>
