<svg xmlns="http://www.w3.org/2000/svg" width="17.715" height="14" viewBox="0 0 17.715 14"><defs><style>.a{fill:#2a364d;}</style></defs><g transform="translate(0 0.955)"><path class="a" d="M847.275,547.358h3.618v1.971h-3.618a.986.986,0,0,1,0-1.971Z" transform="translate(-839.314 -537.238)"/><path class="a" d="M847.275,539.143H857.87v1.971H847.275a.985.985,0,0,1,0-1.971Z" transform="translate(-846.29 -539.143)"/><path class="a" d="M847.269,543.252h7.989v1.971h-7.978a.986.986,0,0,1-.011-1.971Z" transform="translate(-843.678 -538.19)"/></g><path class="a" d="M842.922,541.048H841.31l2.433-2.68,2.433,2.68h-1.612v8.64h1.612l-2.433,2.68-2.433-2.68h1.612Z" transform="translate(-828.461 -538.368)"/></svg>