<svg xmlns="http://www.w3.org/2000/svg" width="17.983" height="16.082" viewBox="0 0 17.983 16.082"><defs><style>.a{fill:#fff;}</style></defs><g transform="translate(-19 -58.793)"><path class="a" d="M17.281,76H.7c-.388,0-.7.466-.7,1.041s.314,1.041.7,1.041H17.281c.388,0,.7-.466.7-1.041S17.669,76,17.281,76Z" transform="translate(19 -17.207)"/><path class="a" d="M17.281,76H.7c-.388,0-.7.466-.7,1.041s.314,1.041.7,1.041H17.281c.388,0,.7-.466.7-1.041S17.669,76,17.281,76Z" transform="translate(19 -10.207)"/><path class="a" d="M17.281,76H.7c-.388,0-.7.466-.7,1.041s.314,1.041.7,1.041H17.281c.388,0,.7-.466.7-1.041S17.669,76,17.281,76Z" transform="translate(19 -3.207)"/></g></svg>