<svg xmlns="http://www.w3.org/2000/svg" width="14" height="13.989" viewBox="0 0 14 13.989"><defs><style>.a{fill:#c13a54;}</style></defs><path class="a" d="M50.017,13.982a7,7,0,1,0-.7,0S50.03,14,50.017,13.982Zm1.218-.888a7.349,7.349,0,0,0,1.253-2.945h2.627A6.315,6.315,0,0,1,51.235,13.095Zm.678-3.645H47.421a14.356,14.356,0,0,1-.2-2.45,14.356,14.356,0,0,1,.2-2.45h4.492a14.357,14.357,0,0,1,.2,2.45A14.357,14.357,0,0,1,51.913,9.45ZM55.967,7a6.265,6.265,0,0,1-.5,2.45H52.622a15.462,15.462,0,0,0,0-4.9h2.849A6.265,6.265,0,0,1,55.967,7Zm-.852-3.15H52.488A7.349,7.349,0,0,0,51.235.905,6.316,6.316,0,0,1,55.115,3.85ZM49.667.7c.79,0,1.642,1.206,2.1,3.15H47.563C48.025,1.906,48.877.7,49.667.7ZM48.1.905A7.349,7.349,0,0,0,46.846,3.85H44.219A6.316,6.316,0,0,1,48.1.905ZM43.367,7a6.265,6.265,0,0,1,.5-2.45h2.849a15.463,15.463,0,0,0,0,4.9H43.863A6.265,6.265,0,0,1,43.367,7Zm.852,3.15h2.627A7.349,7.349,0,0,0,48.1,13.095,6.315,6.315,0,0,1,44.219,10.15Zm3.344,0h4.208c-.462,1.944-1.313,3.15-2.1,3.15S48.025,12.094,47.563,10.15Z" transform="translate(-42.667)"/></svg>