<svg xmlns="http://www.w3.org/2000/svg" width="10.84" height="14.2" viewBox="0 0 10.84 14.2"><defs><style>.a{fill:#2a364d;stroke:#707070;stroke-width:0.2px;}</style></defs><g transform="translate(0.1 0.1)"><path class="a" d="M706.431,681.3a3.08,3.08,0,1,0,0,6.16h0a3.08,3.08,0,0,0,0-6.16Zm0,5.6a2.52,2.52,0,1,1,2.521-2.521A2.523,2.523,0,0,1,706.43,686.9Z" transform="translate(-701.111 -679.058)"/><path class="a" d="M704.672,677.3h0a5.352,5.352,0,0,0-5.319,5.356c0,4.1,4.655,8.29,4.854,8.466a.7.7,0,0,0,.932,0c.2-.177,4.854-4.381,4.854-8.466A5.352,5.352,0,0,0,704.672,677.3Zm.092,13.4a.141.141,0,0,1-.188,0c-.19-.17-4.666-4.2-4.666-8.049a4.76,4.76,0,1,1,9.52,0C709.431,686.492,704.954,690.533,704.765,690.7Z" transform="translate(-699.351 -677.298)"/></g></svg>