<svg xmlns="http://www.w3.org/2000/svg" width="14" height="14" viewBox="0 0 14 14"><defs><style>.a{fill:#fff;}</style></defs><g transform="translate(0 0)"><path class="a" d="M749.961,678.6a.277.277,0,0,1,.131.085c.184.18.371.368.551.55l.279.28.409.41.4.4h0a.429.429,0,0,1,.1.145.406.406,0,0,1-.1.142l-.147.148c-.282.286-.575.582-.865.862l-.006.005-.005.005a1.081,1.081,0,0,0-.24,1.231,6.893,6.893,0,0,0,1.058,1.7,11.577,11.577,0,0,0,2.8,2.548h0a5.293,5.293,0,0,0,.483.259c.083.041.163.08.235.12a1.106,1.106,0,0,0,.541.146,1.088,1.088,0,0,0,.793-.354c.336-.345.685-.691,1.024-1.027a.272.272,0,0,1,.125-.085.285.285,0,0,1,.128.086c.546.543,1.11,1.1,1.662,1.658a.149.149,0,0,1-.007.278c-.1.1-.206.2-.316.311-.219.213-.445.433-.662.674a.95.95,0,0,1-.784.322l-.116,0a5.705,5.705,0,0,1-2.209-.653,12.984,12.984,0,0,1-2.328-1.454,13.313,13.313,0,0,1-1.976-1.916,11.675,11.675,0,0,1-2.09-3.473h0v0a3.947,3.947,0,0,1-.32-1.7.82.82,0,0,1,.26-.571h0c.223-.212.437-.428.644-.637.134-.135.271-.273.407-.407h0a.262.262,0,0,1,.128-.085m0-.874a1.06,1.06,0,0,0-.741.337c-.35.345-.684.7-1.04,1.035a1.687,1.687,0,0,0-.53,1.139,4.83,4.83,0,0,0,.373,2.077,12.649,12.649,0,0,0,2.24,3.732,13.876,13.876,0,0,0,4.591,3.592,6.648,6.648,0,0,0,2.544.74c.054,0,.109,0,.163,0a1.817,1.817,0,0,0,1.436-.613c.3-.333.633-.636.947-.953a.991.991,0,0,0,.006-1.509q-.83-.835-1.667-1.663a.979.979,0,0,0-1.483,0c-.347.344-.693.687-1.034,1.037a.2.2,0,0,1-.285.052c-.225-.122-.464-.221-.679-.356a10.743,10.743,0,0,1-2.593-2.359,6.166,6.166,0,0,1-.929-1.489.214.214,0,0,1,.052-.274c.347-.335.685-.678,1.026-1.023a.983.983,0,0,0,0-1.517c-.271-.274-.541-.543-.813-.816s-.557-.563-.839-.839a1.063,1.063,0,0,0-.741-.335Z" transform="translate(-747.639 -676.377)"/><path class="a" d="M757.694,683.309l1.075-.183a4.826,4.826,0,0,0-4.081-3.959l-.152,1.081a3.727,3.727,0,0,1,3.158,3.061Z" transform="translate(-747.607 -676.37)"/><path class="a" d="M759.374,678.649a7.929,7.929,0,0,0-4.544-2.266l-.152,1.081a6.918,6.918,0,0,1,5.853,5.672l1.075-.184A7.992,7.992,0,0,0,759.374,678.649Z" transform="translate(-747.606 -676.383)"/></g></svg>