<svg xmlns="http://www.w3.org/2000/svg" xmlns:xlink="http://www.w3.org/1999/xlink" width="304" height="163.242" viewBox="0 0 304 163.242"><defs><style>.a{fill:#fff;}.b{filter:url(#a);}</style><filter id="a" x="0" y="0" width="304" height="163.242" filterUnits="userSpaceOnUse"><feOffset dy="3" input="SourceAlpha"/><feGaussianBlur stdDeviation="3" result="b"/><feFlood flood-opacity="0.161"/><feComposite operator="in" in2="b"/><feComposite in="SourceGraphic"/></filter></defs><g transform="translate(9 6)"><g class="b" transform="matrix(1, 0, 0, 1, -9, -6)"><path class="a" d="M8.57,149.592v-3.375a2.482,2.482,0,1,0,0-4.954v-2.071a2.482,2.482,0,0,0,0-4.965v-2.059a2.482,2.482,0,0,0,0-4.965v-2.071a2.482,2.482,0,1,0,0-4.954v-2.071a2.482,2.482,0,1,0,0-4.965v-2.059a2.482,2.482,0,1,0,0-4.965V104.05a2.482,2.482,0,1,0,0-4.954V97.025a2.482,2.482,0,1,0,0-4.965V90a2.482,2.482,0,1,0,0-4.965V82.966a2.482,2.482,0,1,0,0-4.954V75.941a2.482,2.482,0,1,0,0-4.965V68.917a2.482,2.482,0,1,0,0-4.965V61.882a2.482,2.482,0,1,0,0-4.954V54.858a2.482,2.482,0,0,0,0-4.965V47.833a2.482,2.482,0,0,0,0-4.965V40.8a2.482,2.482,0,1,0,0-4.954V33.774a2.482,2.482,0,0,0,0-4.965V26.75a2.482,2.482,0,0,0,0-4.965V19.714a2.482,2.482,0,1,0,0-4.954V12.69a2.482,2.482,0,1,0,0-4.965V4.35h286V7.782a2.482,2.482,0,0,0,0,4.965v2.071a2.482,2.482,0,1,0,0,4.954v2.071a2.482,2.482,0,0,0,0,4.965v2.059a2.482,2.482,0,0,0,0,4.965V35.9a2.482,2.482,0,1,0,0,4.954v1.991a2.482,2.482,0,0,0,0,4.965V49.87a2.482,2.482,0,0,0,0,4.965v2.071a2.482,2.482,0,1,0,0,4.954V63.93a2.482,2.482,0,0,0,0,4.965v2.059a2.482,2.482,0,0,0,0,4.965v2.071a2.482,2.482,0,1,0,0,4.954v2.071a2.482,2.482,0,0,0,0,4.965v2.059a2.482,2.482,0,0,0,0,4.965v2.071a2.482,2.482,0,1,0,0,4.954V106.1a2.482,2.482,0,0,0,0,4.965v2.059a2.482,2.482,0,0,0,0,4.965v2.071a2.482,2.482,0,1,0,0,4.954v2.071a2.482,2.482,0,0,0,0,4.965v2.059a2.482,2.482,0,0,0,0,4.965v2.059a2.482,2.482,0,1,0,0,4.953v3.375Z" transform="translate(0.43 1.65)"/></g></g></svg>