<svg xmlns="http://www.w3.org/2000/svg" width="11.99" height="12" viewBox="0 0 11.99 12"><defs><style>.a{fill:#2a364d;}</style></defs><path class="a" d="M-423.309,222.576a3.38,3.38,0,0,0-3.344-3.415,3.388,3.388,0,0,0-3.412,3.35,3.387,3.387,0,0,0,3.348,3.415A3.376,3.376,0,0,0-423.309,222.576Z" transform="translate(432.683 -216.541)"/><path class="a" d="M-401.576,284.576c0,.279,0,.558,0,.838,0,.136.044.247.194.249s.2-.113.2-.244q0-.853,0-1.705c0-.129-.039-.245-.2-.248s-.2.111-.2.243C-401.576,284-401.575,284.287-401.576,284.576Z" transform="translate(407.376 -273.663)"/><path class="a" d="M-401.183,196.824h0c0-.288,0-.576,0-.865,0-.126-.036-.256-.185-.261-.166-.006-.211.125-.211.266,0,.566,0,1.133,0,1.7,0,.138.053.242.2.244s.194-.119.2-.248C-401.181,197.381-401.183,197.1-401.183,196.824Z" transform="translate(407.379 -195.698)"/><path class="a" d="M-364.708,247.663h-.867c-.134,0-.245.045-.244.2s.114.194.246.194c.568,0,1.136,0,1.7,0,.131,0,.251-.047.246-.2s-.109-.2-.249-.2C-364.15,247.665-364.429,247.663-364.708,247.663Z" transform="translate(375.612 -241.858)"/><path class="a" d="M-452.388,248.063v0h.833c.129,0,.251-.033.257-.185.006-.171-.119-.208-.262-.208-.556,0-1.111,0-1.667,0-.149,0-.275.051-.276.2s.143.193.282.194Z" transform="translate(453.503 -241.862)"/><path class="a" d="M-446.5,266.609a.18.18,0,0,0,.058-.01c.542-.307,1.085-.613,1.623-.927a.163.163,0,0,0,.053-.236.177.177,0,0,0-.256-.074c-.535.3-1.066.606-1.6.911a.172.172,0,0,0-.074.231A.174.174,0,0,0-446.5,266.609Z" transform="translate(447.467 -257.557)"/><path class="a" d="M-427.345,202.634c-.2.079-.2.2-.1.374q.423.716.832,1.44c.068.12.156.2.285.132.155-.079.112-.212.043-.333q-.414-.721-.832-1.44A.278.278,0,0,0-427.345,202.634Z" transform="translate(430.415 -201.859)"/><path class="a" d="M-426.3,278.824a.162.162,0,0,0-.131-.174c-.132-.028-.2.052-.256.154q-.408.711-.824,1.418c-.071.12-.128.251.009.339.156.1.252-.017.328-.149q.393-.685.791-1.368A.41.41,0,0,0-426.3,278.824Z" transform="translate(430.478 -269.38)"/><path class="a" d="M-382.37,203c0-.131-.035-.2-.121-.224-.126-.031-.2.047-.257.15-.268.466-.54.929-.81,1.393-.075.13-.185.275.009.382.171.094.248-.058.319-.179q.393-.67.78-1.342A1.523,1.523,0,0,0-382.37,203Z" transform="translate(391.459 -201.981)"/><path class="a" d="M-368.632,266.539a.189.189,0,0,0-.081-.189c-.075-.048-.152-.094-.229-.138-.431-.248-.861-.5-1.294-.741-.106-.06-.223-.106-.318.024a.162.162,0,0,0,.052.257c.532.311,1.065.62,1.605.915A.165.165,0,0,0-368.632,266.539Z" transform="translate(379.857 -257.624)"/><path class="a" d="M-382.381,280.361a.3.3,0,0,0-.025-.093c-.3-.525-.606-1.049-.915-1.57a.172.172,0,0,0-.259-.057.171.171,0,0,0-.061.237q.452.8.919,1.6a.19.19,0,0,0,.239.067C-382.4,280.521-382.385,280.455-382.381,280.361Z" transform="translate(391.465 -269.345)"/><path class="a" d="M-370.334,223.349a.664.664,0,0,0,.077-.032c.534-.3,1.07-.6,1.6-.908a.173.173,0,0,0,.06-.259.172.172,0,0,0-.255-.06c-.12.069-.246.129-.366.2q-.582.329-1.162.662c-.1.056-.187.128-.137.26A.2.2,0,0,0-370.334,223.349Z" transform="translate(379.797 -219.112)"/><path class="a" d="M-446.456,221.918a.224.224,0,0,0-.2.158c-.031.119.049.186.138.237.5.285,1,.565,1.5.853.128.074.23.067.3-.062s-.023-.221-.132-.283q-.722-.413-1.446-.823C-446.35,221.968-446.4,221.944-446.456,221.918Z" transform="translate(447.426 -218.99)"/><path class="a" d="M-366.786,237.267c.287-.077.586-.151.881-.239a.176.176,0,0,0,.126-.235.167.167,0,0,0-.205-.131q-.462.114-.918.248a.171.171,0,0,0-.11.241C-366.98,237.249-366.9,237.277-366.786,237.267Z" transform="translate(376.685 -232.081)"/><path class="a" d="M-392.121,282.464c.065.233.145.54.238.845a.163.163,0,0,0,.215.109.175.175,0,0,0,.145-.224c-.077-.3-.158-.6-.247-.891a.174.174,0,0,0-.234-.128C-392.107,282.206-392.136,282.286-392.121,282.464Z" transform="translate(398.98 -272.507)"/><path class="a" d="M-366.038,257.556a.177.177,0,0,0,.222-.13.169.169,0,0,0-.118-.236c-.3-.084-.594-.16-.892-.234a.17.17,0,0,0-.225.137.173.173,0,0,0,.14.224Z" transform="translate(376.713 -250.109)"/><path class="a" d="M-432.208,273.93c.016,0,.053,0,.071-.02.239-.237.481-.471.71-.717a.162.162,0,0,0-.035-.239.158.158,0,0,0-.238,0q-.331.321-.654.651a.185.185,0,0,0-.033.221A.173.173,0,0,0-432.208,273.93Z" transform="translate(434.766 -264.278)"/><path class="a" d="M-412.138,282.427a.185.185,0,0,0-.146-.233.2.2,0,0,0-.241.164c-.076.276-.143.555-.212.832a.181.181,0,0,0,.136.251.172.172,0,0,0,.223-.139C-412.3,283.017-412.222,282.731-412.138,282.427Z" transform="translate(417.3 -272.528)"/><path class="a" d="M-412.8,205.663c.071.27.144.569.232.863a.182.182,0,0,0,.24.119.17.17,0,0,0,.12-.235q-.109-.432-.231-.861a.181.181,0,0,0-.224-.146C-412.775,205.43-412.815,205.522-412.8,205.663Z" transform="translate(417.349 -204.314)"/><path class="a" d="M-443.637,236.5a.2.2,0,0,0-.234.162c-.025.119.064.186.164.215.277.081.556.15.834.228a.176.176,0,0,0,.24-.11.181.181,0,0,0-.126-.26C-443.044,236.65-443.334,236.579-443.637,236.5Z" transform="translate(444.951 -231.94)"/><path class="a" d="M-443.609,257.366c.25-.068.557-.146.859-.237a.173.173,0,0,0,.109-.241.166.166,0,0,0-.213-.115c-.3.073-.594.149-.888.235a.175.175,0,0,0-.134.229C-443.846,257.335-443.766,257.372-443.609,257.366Z" transform="translate(444.96 -249.946)"/><path class="a" d="M-375.372,217.054c0-.1-.034-.162-.109-.191a.218.218,0,0,0-.245.061c-.2.2-.394.393-.59.59-.086.087-.131.185-.031.286a.2.2,0,0,0,.293-.006c.215-.206.423-.42.63-.635A.312.312,0,0,0-375.372,217.054Z" transform="translate(385.014 -214.485)"/><path class="a" d="M-392.192,206.352c-.008.15.024.238.147.257a.185.185,0,0,0,.22-.152c.076-.277.145-.556.223-.832a.2.2,0,0,0-.133-.261.177.177,0,0,0-.23.136C-392.052,205.794-392.124,206.092-392.192,206.352Z" transform="translate(399.041 -204.274)"/><path class="a" d="M-375.38,273.686c0-.016,0-.053-.021-.071-.242-.245-.483-.491-.733-.728-.069-.066-.15-.019-.21.04a.156.156,0,0,0-.019.237c.225.235.455.467.69.692a.177.177,0,0,0,.222,0A.166.166,0,0,0-375.38,273.686Z" transform="translate(385.019 -264.237)"/><path class="a" d="M-432.229,216.811a.191.191,0,0,0-.163.112.2.2,0,0,0,.067.241c.188.192.381.379.572.569.1.1.2.143.309.03.091-.1.053-.2-.034-.29l-.569-.572A.242.242,0,0,0-432.229,216.811Z" transform="translate(434.766 -214.453)"/></svg>