<svg xmlns="http://www.w3.org/2000/svg" width="19.21" height="23.64" viewBox="0 0 19.21 23.64"><defs><style>.a{fill:#2a364d;}</style></defs><g transform="translate(-656.555 -355.775)"><path class="a" d="M674.348,373.6v-7.359a8.188,8.188,0,0,0-6-7.891v-.385a2.187,2.187,0,0,0-4.375,0v.385a8.187,8.187,0,0,0-6,7.891V373.6a2.324,2.324,0,0,0-1.417,2.137v.934h7.022v.164a2.583,2.583,0,1,0,5.165,0v-.164h7.023v-.934A2.324,2.324,0,0,0,674.348,373.6Zm-6.715,3.071v.164a1.473,1.473,0,0,1-2.946,0v-.164Zm5.605-3.253h-4.311a.555.555,0,1,0,0,1.11l4.62,0,.137.027a1.21,1.21,0,0,1,.959,1.01H657.677a1.212,1.212,0,0,1,.959-1.01l.447-.088v-8.222a7.078,7.078,0,0,1,14.155,0Zm-6-15.293a8.138,8.138,0,0,0-2.154,0v-.16a1.077,1.077,0,1,1,2.154,0Z"/><path class="a" d="M670.884,378.953h-.026a.555.555,0,0,0-.555.555.562.562,0,0,0,.581.555.555.555,0,1,0,0-1.11Z" transform="translate(-3.285 -5.539)"/></g></svg>