<svg xmlns="http://www.w3.org/2000/svg" width="25" height="25" viewBox="0 0 25 25"><defs><style>.a{fill:#2a364d;}</style></defs><g transform="translate(-525.298 -354.838)"><path class="a" d="M549.527,367.663a.663.663,0,0,1,0-.65l.687-1.225a.664.664,0,0,0-.129-.813l-1.032-.953a.662.662,0,0,1-.2-.617l.274-1.377a.664.664,0,0,0-.373-.733l-1.276-.588a.662.662,0,0,1-.382-.526l-.164-1.394a.665.665,0,0,0-.582-.582l-1.395-.164a.666.666,0,0,1-.526-.382l-.587-1.275a.664.664,0,0,0-.733-.374l-1.378.275a.665.665,0,0,1-.617-.2l-.954-1.032a.664.664,0,0,0-.813-.129l-1.223.686a.665.665,0,0,1-.65,0l-1.225-.687a.664.664,0,0,0-.813.129l-.953,1.032a.665.665,0,0,1-.617.2l-1.377-.275a.663.663,0,0,0-.733.374l-.588,1.275a.665.665,0,0,1-.525.382l-1.395.164a.664.664,0,0,0-.582.582l-.164,1.4a.665.665,0,0,1-.382.525l-1.276.588a.664.664,0,0,0-.373.733l.274,1.377a.662.662,0,0,1-.2.617l-1.031.953a.664.664,0,0,0-.129.813l.687,1.225a.666.666,0,0,1,0,.649l-.687,1.225a.664.664,0,0,0,.129.813l1.031.952a.663.663,0,0,1,.2.618l-.274,1.377a.663.663,0,0,0,.374.733l1.275.587a.665.665,0,0,1,.382.526l.164,1.394a.664.664,0,0,0,.582.582l1.394.164a.665.665,0,0,1,.526.382l.588,1.276a.665.665,0,0,0,.733.374l1.377-.275a.664.664,0,0,1,.617.2l.953,1.032a.664.664,0,0,0,.813.129l1.225-.687a.663.663,0,0,1,.65,0l1.225.687a.664.664,0,0,0,.813-.129l.953-1.032a.665.665,0,0,1,.618-.2l1.377.275a.666.666,0,0,0,.733-.374l.587-1.276a.666.666,0,0,1,.526-.382l1.395-.164a.664.664,0,0,0,.581-.582l.165-1.394a.661.661,0,0,1,.382-.526l1.275-.587a.664.664,0,0,0,.374-.733l-.274-1.377a.663.663,0,0,1,.2-.618l1.032-.952a.664.664,0,0,0,.129-.813Zm-1.1,0,.58,1.035a.664.664,0,0,1-.129.813l-.872.8a.663.663,0,0,0-.2.618l.232,1.163a.665.665,0,0,1-.374.733l-1.077.5a.665.665,0,0,0-.382.525l-.14,1.179a.664.664,0,0,1-.581.582l-1.179.138a.664.664,0,0,0-.526.383l-.495,1.076a.665.665,0,0,1-.733.375l-1.164-.232a.665.665,0,0,0-.617.2l-.8.872a.664.664,0,0,1-.813.129l-1.034-.58a.663.663,0,0,0-.65,0l-1.034.58a.664.664,0,0,1-.813-.129l-.8-.872a.665.665,0,0,0-.618-.2l-1.164.232a.665.665,0,0,1-.733-.374l-.5-1.077a.664.664,0,0,0-.525-.382l-1.177-.138a.664.664,0,0,1-.582-.582l-.139-1.179a.665.665,0,0,0-.382-.525l-1.077-.5a.663.663,0,0,1-.374-.733l.232-1.163a.663.663,0,0,0-.2-.618l-.871-.8a.664.664,0,0,1-.129-.813l.58-1.035a.665.665,0,0,0,0-.649l-.58-1.035a.664.664,0,0,1,.129-.813l.871-.8a.663.663,0,0,0,.2-.618l-.232-1.163a.664.664,0,0,1,.373-.733l1.077-.5a.665.665,0,0,0,.382-.525l.139-1.178a.664.664,0,0,1,.582-.582l1.178-.139a.662.662,0,0,0,.525-.381l.5-1.077a.664.664,0,0,1,.733-.374l1.164.232a.665.665,0,0,0,.618-.2l.8-.872a.664.664,0,0,1,.813-.129l1.035.58a.663.663,0,0,0,.65,0l1.034-.58a.664.664,0,0,1,.813.129l.8.871a.663.663,0,0,0,.617.2l1.164-.232a.664.664,0,0,1,.733.374l.5,1.077a.664.664,0,0,0,.526.383l1.178.138a.664.664,0,0,1,.581.581l.14,1.179a.665.665,0,0,0,.382.525l1.077.5a.665.665,0,0,1,.374.733l-.232,1.163a.663.663,0,0,0,.2.618l.872.8a.664.664,0,0,1,.129.813l-.58,1.035A.661.661,0,0,0,548.432,367.663Z"/><path class="a" d="M539.78,369.786a.33.33,0,0,0-.466,0l-3.869,3.87a.33.33,0,0,1-.466-.466l8.672-8.672a.33.33,0,0,1,.466,0,.33.33,0,0,1,0,.466l-3.87,3.869a.33.33,0,0,0,.466.466l3.87-3.869a.989.989,0,0,0-1.4-1.4l-8.672,8.672a.989.989,0,0,0,1.4,1.4l3.869-3.87A.33.33,0,0,0,539.78,369.786Z" transform="translate(-1.749 -1.749)"/><path class="a" d="M544.18,370.753a2.967,2.967,0,1,0,2.967,2.967A2.97,2.97,0,0,0,544.18,370.753Zm0,5.275a2.308,2.308,0,1,1,2.308-2.308A2.31,2.31,0,0,1,544.18,376.028Z" transform="translate(-3.118 -3.118)"/><path class="a" d="M544.5,372.393a1.648,1.648,0,1,0,1.648,1.648A1.651,1.651,0,0,0,544.5,372.393Zm0,2.637a.989.989,0,1,1,.989-.989A.99.99,0,0,1,544.5,375.03Z" transform="translate(-3.44 -3.44)"/><path class="a" d="M539.029,365.6a2.967,2.967,0,1,0-2.967,2.968A2.97,2.97,0,0,0,539.029,365.6Zm-5.275,0a2.308,2.308,0,1,1,2.308,2.308A2.311,2.311,0,0,1,533.754,365.6Z" transform="translate(-1.528 -1.528)"/><path class="a" d="M538.032,365.923a1.648,1.648,0,1,0-1.648,1.648A1.65,1.65,0,0,0,538.032,365.923Zm-2.637,0a.989.989,0,1,1,.989.989A.99.99,0,0,1,535.394,365.923Z" transform="translate(-1.849 -1.849)"/></g></svg>