<svg xmlns="http://www.w3.org/2000/svg" width="22.233" height="20.009" viewBox="0 0 22.233 20.009"><defs><style>.a{fill:#fff;}</style></defs><path class="a" d="M470.951,463.959h-2.594v-.371a1.112,1.112,0,1,0-2.223,0v.371h-3.705v-.371a1.112,1.112,0,1,0-2.223,0v.371H456.5v-.371a1.112,1.112,0,0,0-2.223,0v.371h-2.594a1.483,1.483,0,0,0-1.482,1.482V481a1.483,1.483,0,0,0,1.482,1.482h19.268A1.484,1.484,0,0,0,472.434,481V465.441A1.485,1.485,0,0,0,470.951,463.959Zm-4.076-.371a.371.371,0,1,1,.741,0v1.482a.371.371,0,0,1-.741,0Zm-5.928,0a.371.371,0,1,1,.741,0v1.482a.371.371,0,0,1-.741,0Zm-5.929,0a.371.371,0,1,1,.741,0v1.482a.371.371,0,0,1-.741,0ZM471.692,481a.74.74,0,0,1-.741.741H451.683a.741.741,0,0,1-.741-.741v-13.34h20.75Zm0-14.081h-20.75v-1.482a.742.742,0,0,1,.741-.741h2.594v.371a1.112,1.112,0,0,0,2.223,0V464.7h3.706v.371a1.112,1.112,0,1,0,2.223,0V464.7h3.705v.371a1.112,1.112,0,1,0,2.223,0V464.7h2.594a.742.742,0,0,1,.741.741Z" transform="translate(-450.201 -462.477)"/><path class="a" d="M454.879,471.014a1.2,1.2,0,1,1-1.2,1.2A1.2,1.2,0,0,1,454.879,471.014Z" transform="translate(-450.841 -464.042)"/><path class="a" d="M454.879,471.014a1.2,1.2,0,1,1-1.2,1.2A1.2,1.2,0,0,1,454.879,471.014Z" transform="translate(-446.13 -464.042)"/><path class="a" d="M454.879,471.014a1.2,1.2,0,1,1-1.2,1.2A1.2,1.2,0,0,1,454.879,471.014Z" transform="translate(-441.419 -464.042)"/><path class="a" d="M454.879,471.014a1.2,1.2,0,1,1-1.2,1.2A1.2,1.2,0,0,1,454.879,471.014Z" transform="translate(-436.708 -464.042)"/><path class="a" d="M454.879,471.014a1.2,1.2,0,1,1-1.2,1.2A1.2,1.2,0,0,1,454.879,471.014Z" transform="translate(-450.841 -460.336)"/><path class="a" d="M454.879,471.014a1.2,1.2,0,1,1-1.2,1.2A1.2,1.2,0,0,1,454.879,471.014Z" transform="translate(-446.13 -460.336)"/><path class="a" d="M454.879,471.014a1.2,1.2,0,1,1-1.2,1.2A1.2,1.2,0,0,1,454.879,471.014Z" transform="translate(-441.419 -460.336)"/><path class="a" d="M454.879,471.014a1.2,1.2,0,1,1-1.2,1.2A1.2,1.2,0,0,1,454.879,471.014Z" transform="translate(-436.708 -460.336)"/><path class="a" d="M454.879,471.014a1.2,1.2,0,1,1-1.2,1.2A1.2,1.2,0,0,1,454.879,471.014Z" transform="translate(-450.841 -456.63)"/><path class="a" d="M454.879,471.014a1.2,1.2,0,1,1-1.2,1.2A1.2,1.2,0,0,1,454.879,471.014Z" transform="translate(-446.13 -456.63)"/></svg>