<svg xmlns="http://www.w3.org/2000/svg" width="16" height="16.024" viewBox="0 0 16 16.024"><g transform="translate(0)"><path d="M558.29,513.126a1.583,1.583,0,0,0-1.149-.527,1.641,1.641,0,0,0-1.163.523l-1.074,1.07c-.088-.048-.176-.092-.261-.136-.123-.061-.238-.119-.337-.18a11.682,11.682,0,0,1-2.8-2.548,6.915,6.915,0,0,1-.918-1.447c.279-.255.537-.52.789-.775.095-.1.19-.194.285-.289a1.558,1.558,0,0,0,0-2.351l-.928-.928c-.1-.106-.214-.214-.316-.323-.2-.211-.418-.429-.639-.632a1.607,1.607,0,0,0-1.139-.5,1.662,1.662,0,0,0-1.155.5l-.007.006-1.156,1.165a2.485,2.485,0,0,0-.737,1.58,5.955,5.955,0,0,0,.435,2.521,14.616,14.616,0,0,0,2.6,4.335,15.987,15.987,0,0,0,5.325,4.168,8.3,8.3,0,0,0,2.99.884c.072,0,.147.007.215.007a2.561,2.561,0,0,0,1.961-.843c0-.007.01-.01.013-.017a7.766,7.766,0,0,1,.595-.615c.146-.14.3-.286.442-.439a1.691,1.691,0,0,0,.513-1.175,1.634,1.634,0,0,0-.523-1.165Zm1.217,3.577h0c-.133.142-.269.272-.415.414a9.105,9.105,0,0,0-.656.68,1.639,1.639,0,0,1-1.278.541c-.051,0-.1,0-.156,0a7.372,7.372,0,0,1-2.651-.795,15.109,15.109,0,0,1-5.016-3.927,13.786,13.786,0,0,1-2.446-4.074,4.865,4.865,0,0,1-.381-2.127,1.557,1.557,0,0,1,.47-1.009l1.159-1.158a.772.772,0,0,1,.516-.241.729.729,0,0,1,.5.238l.01.01c.207.193.4.394.612.608.105.109.214.218.322.33l.928.928a.647.647,0,0,1,0,1.052c-.1.1-.193.2-.292.293-.285.292-.557.564-.853.829-.007.007-.014.01-.017.017a.694.694,0,0,0-.177.772l.01.03a7.49,7.49,0,0,0,1.1,1.791l0,0a12.462,12.462,0,0,0,3.017,2.745,4.445,4.445,0,0,0,.418.228c.122.061.238.119.336.18.014.007.028.017.041.024a.737.737,0,0,0,.337.085.722.722,0,0,0,.516-.235l1.163-1.161a.765.765,0,0,1,.513-.255.7.7,0,0,1,.49.248l.006.007,1.872,1.872A.672.672,0,0,1,559.506,516.7Z" transform="translate(-545.577 -503.228)"/><path d="M554.238,506.913a4.029,4.029,0,0,1,3.281,3.28.419.419,0,0,0,.416.351.473.473,0,0,0,.072-.006.423.423,0,0,0,.347-.488,4.873,4.873,0,0,0-3.969-3.969.425.425,0,0,0-.488.344A.418.418,0,0,0,554.238,506.913Z" transform="translate(-545.353 -503.076)"/><path d="M561.048,509.7a8.021,8.021,0,0,0-6.536-6.536.422.422,0,1,0-.138.833,7.166,7.166,0,0,1,5.842,5.842.42.42,0,0,0,.416.351.633.633,0,0,0,.072-.006A.415.415,0,0,0,561.048,509.7Z" transform="translate(-545.054 -503.154)"/></g></svg>