<svg xmlns="http://www.w3.org/2000/svg" width="22.018" height="24.296" viewBox="0 0 22.018 24.296"><defs><style>.a{fill:#2a364d;}</style></defs><g transform="translate(-491.86 -355.775)"><path class="a" d="M512.518,362.4H501.129a.475.475,0,0,0-.474.475v12.907a.475.475,0,0,0,.474.475h11.389a.474.474,0,0,0,.474-.475V362.876A.474.474,0,0,0,512.518,362.4ZM501.6,375.309v-1.322l3.258-3.259,4.581,4.581Zm10.44,0h-1.259l-4.455-4.455,2.986-2.987,2.727,2.727Zm0-6.057-2.391-2.392a.475.475,0,0,0-.671,0l-3.322,3.323-.462-.462a.475.475,0,0,0-.671,0l-2.922,2.923V363.35h10.44Z" transform="translate(-1.867 -1.407)"/><path class="a" d="M512.454,355.775H495.371a1.425,1.425,0,0,0-1.423,1.423v1.139h-.284a1.8,1.8,0,1,0,0,3.606h.284v1.582h-.284a1.8,1.8,0,0,0,0,3.607h.284v1.582h-.284a1.8,1.8,0,1,0,0,3.606h.284V373.9h-.284a1.8,1.8,0,1,0,0,3.606h.284v1.139a1.425,1.425,0,0,0,1.423,1.423h17.083a1.424,1.424,0,0,0,1.423-1.423V357.2A1.425,1.425,0,0,0,512.454,355.775Zm-18.507,20.784h-.284a.854.854,0,1,1,0-1.708h.284Zm0-5.188h-.284a.854.854,0,1,1,0-1.709h.284Zm0-5.188h-.284a.854.854,0,1,1,0-1.709h.284Zm0-5.189h-.284a.854.854,0,1,1,0-1.708h.284Zm2.088-.854v18.981h-.665a.475.475,0,0,1-.474-.474V357.2a.475.475,0,0,1,.474-.474h.665Zm16.894,18.507a.475.475,0,0,1-.475.474H496.985v-22.4h15.469a.475.475,0,0,1,.475.474Z" transform="translate(0)"/><path class="a" d="M503.817,367.027a1.614,1.614,0,1,0,1.614-1.614A1.616,1.616,0,0,0,503.817,367.027Zm1.614-.665a.664.664,0,1,1-.665.665A.665.665,0,0,1,505.431,366.362Z" transform="translate(-2.538 -2.046)"/></g></svg>