<svg xmlns="http://www.w3.org/2000/svg" width="27.296" height="24.296" viewBox="0 0 27.296 24.296"><defs><style>.a{fill:#2a364d;}</style></defs><g transform="translate(-449.167 -436.599)"><path class="a" d="M476.007,458.165h-.454V445.993l.862-1.724a.455.455,0,0,0-.407-.658h-6.824v-1.987l.862-1.724a.455.455,0,0,0-.407-.658H465.09v-1.364a.455.455,0,0,0-.455-.455h0a.455.455,0,0,0-.455.455v1.364h-.91v-2.184a.455.455,0,0,0-.451-.459h0a.455.455,0,0,0-.455.455v2.188h-.91v-1.364a.455.455,0,0,0-.91,0v1.364h-4.549a.455.455,0,0,0-.407.658l.862,1.724v1.987h-6.824a.455.455,0,0,0-.407.658l.862,1.724v12.172h-.455a.455.455,0,0,0-.455.455v1.82a.455.455,0,0,0,.455.455h26.385a.454.454,0,0,0,.455-.455v-1.82A.455.455,0,0,0,476.007,458.165Zm-10.917,0h-4.549V451.85h4.549Zm.455-7.225h-5.459a.455.455,0,0,0-.455.455v6.77h-2.275V441.972h10.918v16.193H466v-6.77A.454.454,0,0,0,465.545,450.94Zm3.639,7.225V446.341h5.459v11.824Zm6.086-13.648-.453.91h-5.633v-.91Zm-14.3-4.369a.065.065,0,0,0,.05,0h1.765c.011,0,.02.006.03.006a.272.272,0,0,0,.03-.006h1.765a.065.065,0,0,0,.05,0H468.9l-.455.91H457.182l-.455-.91Zm-4.524,4.373v.91h-5.633l-.455-.91Zm-5.459,1.82h5.459v11.824h-5.459Zm24.565,13.644H450.077v-.91h.435a.145.145,0,0,0,.02,0H456.9a.145.145,0,0,0,.02,0h11.788a.144.144,0,0,0,.02,0H475.1a.145.145,0,0,0,.02,0h.434Z"/><path class="a" d="M462.816,448.615A2.913,2.913,0,1,0,459.9,445.7,2.913,2.913,0,0,0,462.816,448.615Zm0-5.1A2.185,2.185,0,0,1,465,445.7h0a2.186,2.186,0,1,1-2.185-2.185Z"/><path class="a" d="M462.816,446.064h.728a.364.364,0,0,0,0-.728h-.364v-.729a.364.364,0,1,0-.728,0V445.7h0A.364.364,0,0,0,462.816,446.064Z"/><path class="a" d="M455.081,447.247h-2.73a.455.455,0,0,0-.455.455v9.1a.455.455,0,0,0,.455.455h2.73a.454.454,0,0,0,.455-.455v-9.1A.455.455,0,0,0,455.081,447.247Zm-.455,9.1h-1.82v-8.189h1.82Z"/><path class="a" d="M473.278,447.247h-2.729a.455.455,0,0,0-.455.455v9.1a.455.455,0,0,0,.455.455h2.729a.454.454,0,0,0,.455-.455v-9.1A.455.455,0,0,0,473.278,447.247Zm-.455,9.1H471v-8.189h1.82Z"/></g></svg>