<svg xmlns="http://www.w3.org/2000/svg" width="42.218" height="30.908" viewBox="0 0 42.218 30.908"><defs><style>.a{fill:#162c5e;}</style></defs><g transform="translate(-401.142 -141.963)"><path class="a" d="M428.858,168.552a1.931,1.931,0,0,0,.5-.306c.047-.037.093-.076.138-.116.241.043.483.087.723.135l.075.014a.534.534,0,0,0,.313-.028.629.629,0,0,0,.047.051.824.824,0,0,0,.351.214.74.74,0,0,0,.559-.089,1.573,1.573,0,0,0,.361-.315c.1-.113.193-.235.3-.346.163-.171.325-.343.483-.521.264-.3.526-.606.788-.908.383-.443.782-.875,1.144-1.334l1.416-1.79c.088-.111.167-.227.247-.344l.69-1.008c.308-.452.628-.895.91-1.365l.958-1.6c.108-.182.213-.363.319-.546.144-.248.287-.5.41-.753a2.935,2.935,0,0,0,.184-.48,3.957,3.957,0,0,0,.078-.448.586.586,0,0,0-.236-.58.83.83,0,0,0,.159-.374,1.435,1.435,0,0,0-.059-.582,2.9,2.9,0,0,0-.24-.6,5.256,5.256,0,0,0-.64-.913,11.434,11.434,0,0,0-.92-1,20.032,20.032,0,0,0-2-1.658,33.832,33.832,0,0,0-3.145-2.029l-1.548-.892c-.395-.227-.8-.432-1.2-.648s-.821-.429-1.235-.641c-.178-.091-.358-.179-.538-.266-.35-.171-.7-.346-1.062-.487-.094-.039-.188-.083-.284-.112a.366.366,0,0,0-.131-.028l-.136-.015-.193.035a.51.51,0,0,0-.165.09.717.717,0,0,0-.211.253.808.808,0,0,0-.078.441c.063.561.538.941.891,1.34.353.44.713.875,1.076,1.307a.583.583,0,0,0,.171.524c.237.222.489.427.735.637l.292.251.187.219q.728.854,1.467,1.7c-.175-.108-.355-.21-.531-.315l-.323-.2c-.438-.516-.881-1.027-1.367-1.5a10.808,10.808,0,0,0-2.016-1.538,5.994,5.994,0,0,0-1.073-.5,2.935,2.935,0,0,0-.471-.123q.143-.232.281-.469a3.026,3.026,0,0,0,.357-.783.539.539,0,0,0-.073-.4.575.575,0,0,0-.155-.589.985.985,0,0,0-.2-.134.5.5,0,0,0-.262-.063.493.493,0,0,0-.265.085.609.609,0,0,0-.217.211,2.4,2.4,0,0,0-.179.306c-.1.218-.173.45-.262.672a2.182,2.182,0,0,0-.115.327.673.673,0,0,0,.076.454l-.034.053.034-.052h0c-.148.229-.294.461-.457.68a.8.8,0,0,0-.252.42.569.569,0,0,0,.283.608.506.506,0,0,0,.628-.114c.028-.034.055-.068.082-.1.042-.015.084-.027.127-.038a2.141,2.141,0,0,1,.349,0,3.275,3.275,0,0,1,.6.155q.075.032.15.066a.46.46,0,0,0-.256.118,2.35,2.35,0,0,0-.275.056.549.549,0,0,0-.264.818c.089.142.171.287.273.42a4.927,4.927,0,0,0,.423.479c.3.315.635.606.961.9.31.276.626.543.946.808.2.166.4.335.609.494l1.712,1.314c.2.152.406.291.61.435l.867.61c.2.141.408.27.614.4-.35.449-.691.9-1.03,1.359-.723.976-1.438,1.961-2.128,2.962-.49.71-.986,1.418-1.476,2.13l-.914,1.323-.309.449c-.174.254-.353.5-.524.763-.19.285-.356.58-.519.88a.573.573,0,0,0,.128.66.516.516,0,0,0,.639.057c.105-.074.21-.147.311-.229a3.757,3.757,0,0,0,.335-.321.545.545,0,0,0,.489.237,1.169,1.169,0,0,0,.565.711c.13.187.26.375.395.559a1.191,1.191,0,0,0,.455.381.907.907,0,0,0,.337.086.478.478,0,0,0,.053,0,.95.95,0,0,0,.316-.062Zm2.007-2c-.063.147-.142.289-.217.432-.034.065-.063.13-.09.2-.045-.031-.092-.06-.139-.088.056-.068.111-.137.166-.206q.154-.2.305-.4l-.025.061Zm-1.254-.332a.493.493,0,0,0-.126.3l-.762-.489c-.176-.113-.354-.226-.533-.337q.391-.6.791-1.192a.573.573,0,0,0,.026.12.54.54,0,0,0,.393.371,1.182,1.182,0,0,0,.23.016.8.8,0,0,0,.325-.117.983.983,0,0,0,.214-.179c.054-.057.1-.114.151-.175.116-.149.228-.3.354-.437l.727-.812c.4-.448.8-.9,1.2-1.348q.941-1.053,1.851-2.131-.367.632-.732,1.264c-.579.7-1.15,1.409-1.7,2.133q-.617.812-1.233,1.623l-.443.587-.735.805Zm6.133-4.442c-.134.2-.269.39-.4.586-.037.054-.082.1-.122.154l-.335.424q-.406.512-.811,1.024c-.118.15-.232.306-.357.45q-.666.77-1.333,1.54l-.16.185c.078-.161.157-.32.237-.48.159-.316.32-.63.488-.941l.728-1.346.518-.568c1.029-1.127,2.064-2.25,3.082-3.387l.048-.054q-.241.4-.48.8c-.364.538-.735,1.074-1.1,1.61Zm-3.579-3.167.825-1.229.082.055h0l-.908,1.173Zm5.748-1.48-.072.074c-.076-.09-.155-.178-.235-.265a.53.53,0,0,0-.007-.318l.034-.057q.179-.294.356-.588c.124.074.25.143.377.212a2.037,2.037,0,0,0,.275.131.8.8,0,0,0,.1.031l-.029.025.029-.025h0c-.284.254-.564.509-.831.78Zm-4.04-.724-.13-.147,0,0,.135-.2.006.005a.544.544,0,0,0,.173.109l-.186.238ZM439,155.295l-.028,0,.028,0Zm-6.24,0-.229-.215.255.182-.026.033Zm6.179-.017.047-.008-.047.008Zm-3.72-.58-.059-.053c-.883-.79-1.763-1.583-2.65-2.371q-.909-.807-1.824-1.609l-.644-.612c-.151-.143-.3-.285-.46-.423l-.7-.822-.256-.31c.115.085.23.17.351.246s.224.131.336.2c.159.091.318.184.476.276l.177.1a8.525,8.525,0,0,0,.812.656c.09.07.178.142.267.212l.3.236.081.076c.357.34.7.686,1.053,1.036l.459.464c.14.143.271.3.4.446.395.435.8.863,1.174,1.311q.373.45.727.914l-.023.03Zm-.715-.959-.047-.056.047.056Zm.614-2.039-.046-.034.01.007.036.027Zm-6.167-2.808-.049-.059.049.059Zm-.593-.993a.623.623,0,0,0,.018.295l-.2-.245-.4-.487-.006-.006.3.147c.111.054.222.11.333.167a.556.556,0,0,0-.042.129Zm-1.126-1.869-.033-.013.033.013Z"/><path class="a" d="M411.034,172.028a1.551,1.551,0,0,0,.368-.39c.05-.072.1-.144.148-.215.114-.159.226-.318.34-.478q.243-.342.484-.686c-.018.057-.033.114-.046.172a.568.568,0,0,0,.172.527.516.516,0,0,0,.238.13.48.48,0,0,0,.4-.071c.059-.052.119-.1.175-.16.04-.061.08-.123.118-.186s.052-.11.076-.165a2.64,2.64,0,0,0,.152-.479c.1-.185.2-.369.292-.553.11-.206.219-.412.329-.617q.439-.817.88-1.632l.676-1.242q.338-.489.67-.98.993-1.46,1.924-2.964c.54-.875,1.09-1.747,1.56-2.663a.527.527,0,0,0,.048-.322c.093-.146.185-.293.279-.439a.636.636,0,0,0-.027-.644.531.531,0,0,0-.242-.2l-.128-.049c-.032,0-.064-.008-.1-.01a.979.979,0,0,1-.117-.035l-.023-.01c.066-.116.131-.234.2-.351a.568.568,0,0,0-.129-.658.551.551,0,0,0-.083-.063,1.656,1.656,0,0,0-.016-.211,1.477,1.477,0,0,0-.26-.651,2.835,2.835,0,0,0-.37-.426c-.105-.1-.228-.181-.335-.277-.063-.055-.125-.109-.187-.165h0a.57.57,0,0,0-.054-.773c-.19-.18-.412-.321-.615-.485l-.413-.331-.537-.459c-.38-.324-.76-.651-1.148-.966-.261-.21-.518-.424-.783-.629-.407-.314-.823-.616-1.25-.9-.435-.324-.872-.647-1.312-.964-.592-.427-1.188-.848-1.783-1.271a.582.582,0,0,0-.084-.228.531.531,0,0,0-.511-.244,2.005,2.005,0,0,0-.443-.32.513.513,0,0,0-.628.115.569.569,0,0,0,.047.766.5.5,0,0,0-.494.037,3.263,3.263,0,0,0-.649.74c-.121.159-.248.315-.373.472a11.858,11.858,0,0,1-1.1,1.241,2.412,2.412,0,0,1-.315.232.518.518,0,0,0-.219.337.606.606,0,0,0,.081.419c.089.166.276.224.431.315.216.167.418.352.636.516.263.2.53.39.8.58l-.064-.046c.438.318.876.634,1.3.97q.417.333.836.664c.23.183.446.385.669.576.183.157.373.309.547.476l.829.793c.158.151.319.3.471.455l.8.831c.327.337.652.675.98,1.011l-.122.126c-.138.148-.264.309-.391.467-.164.205-.325.413-.487.619l-.723.916c-.368.465-.74.925-1.111,1.386q-.908,1.128-1.846,2.23l.054-.089c.644-1.047,1.292-2.092,1.929-3.143.247-.407.495-.815.739-1.224.135-.225.269-.452.4-.677l.17-.289c.084-.144.17-.286.248-.434a3.211,3.211,0,0,0,.177-.483.575.575,0,0,0-.283-.609.509.509,0,0,0-.629.114c-.141.166-.277.33-.4.506-.143.2-.275.416-.408.625-.115.182-.229.363-.342.545q-.363.582-.723,1.163c-.331.533-.656,1.07-.994,1.6h0l.017-.027-.02.031-.053.083.014-.023-.005.008.014-.021q-.469.723-.937,1.446l.046-.072q-1.767,2.628-3.508,5.274a.6.6,0,0,0-.126.387.572.572,0,0,0,.18.386.524.524,0,0,0,.375.144.486.486,0,0,0,.366-.176q.351-.539.705-1.073a.583.583,0,0,0,.163.136.5.5,0,0,0,.527-.022c.163-.131.329-.257.48-.4s.276-.28.407-.426l.368-.412c.217-.243.437-.483.65-.729.379-.438.768-.868,1.141-1.313l.272-.325a.478.478,0,0,0,.079.038q-.212.353-.425.7c-.118.2-.228.4-.343.6l-.8,1.4-.45.789c-.1.176-.191.359-.286.537-.128.239-.251.479-.365.725a6.691,6.691,0,0,0-.3.785,4.34,4.34,0,0,0-.111.725.59.59,0,0,0,.171.528.512.512,0,0,0,.513.12,3.68,3.68,0,0,0,.52-.235,1.539,1.539,0,0,0,.239-.2c.064-.062.125-.126.185-.192.132-.147.26-.3.391-.446.2-.222.394-.442.585-.667.378-.444.759-.884,1.127-1.334.384-.469.768-.937,1.147-1.408.049-.061.1-.121.146-.182-.162.285-.327.569-.489.854-.284.5-.577.988-.866,1.481-.114.2-.223.394-.334.593q-.141.253-.284.507c-.1.188-.192.385-.283.58a.577.577,0,0,0,.128.659.55.55,0,0,0,.368.144.447.447,0,0,0,.271-.087Zm-.219-4.346q-.6.73-1.206,1.447-.2.229-.394.457c.1-.187.2-.374.3-.557l.412-.722q.288-.507.578-1.014a.483.483,0,0,0,.51-.159c.114-.161.23-.32.344-.481a.534.534,0,0,0,.047.028.52.52,0,0,0,.177.058q-.381.473-.766.943Zm-1.527-3.382.007-.01.023-.037-.009.015.049-.076.005-.007-.005.007.014-.021-.053.082-.031.047Zm-.812-.714.021-.031-.021.031Zm1.758-.746.06-.093-.06.093Zm3.68-.1.011-.017-.011.017Zm0,0,.006-.01.031-.049.005-.007-.034.052-.008.014Zm.009-.014.038-.06-.038.06Zm1.54-2.092c-.185.267-.366.535-.55.8l.111-.189c.159-.27.3-.551.458-.826l.147-.265a.533.533,0,0,0,.16.005q-.162.237-.326.473Zm1.7-2.488-.245.36-.447.658-.114.167a.6.6,0,0,0-.027-.168,1.079,1.079,0,0,0-.054-.141c.051-.08.1-.16.152-.241a1.5,1.5,0,0,0,.15-.373.568.568,0,0,0-.284-.608l-.02-.01.075-.142a2.771,2.771,0,0,0,.512.294.5.5,0,0,0,.413.034c-.037.057-.073.115-.111.17Zm-2.2-.5-.443-.43c-.439-.426-.866-.867-1.3-1.3-.4-.4-.8-.8-1.2-1.191l.45.25c.068.038.133.085.2.127.17.11.341.218.512.327.385.247.779.483,1.154.747l1.1.78c-.154.232-.313.462-.473.69Zm2.645-.11a.494.494,0,0,0,0-.094l.052.046c-.018.015-.036.032-.053.048Zm-8.47-7.383a1.278,1.278,0,0,0-.079.253.72.72,0,0,0,.038.35,1.356,1.356,0,0,0,.317.478c.107.119.237.218.354.326.167.154.322.32.489.474.356.332.726.65,1.094.969l.409.352c-.189-.106-.376-.217-.569-.315l-.95-.483c-.5-.254-1-.5-1.5-.743-.447-.219-.9-.438-1.357-.633l.064-.066a.57.57,0,0,0,.353-.08c.1-.056.2-.109.293-.167a2.532,2.532,0,0,0,.382-.311q.219-.2.428-.407.177-.174.353-.35a4.012,4.012,0,0,1,.537,0c.063.008.125.017.188.028.253.178.521.333.777.508q.211.142.42.286l.089.06-.008.006q-.462-.256-.925-.509c-.164-.09-.332-.171-.5-.254a.557.557,0,0,0-.248-.057.474.474,0,0,0-.454.285Zm.268,11.992,0,0,0,0h0l.027-.042c-.021.031-.041.063-.06.094l.013-.021-.022.034.037-.056Zm-.092,2.109.039-.061h0l-.04.061Z"/><path class="a" d="M409.168,171.731a.5.5,0,0,0,.264-.086.547.547,0,0,0,.2-.622,1.169,1.169,0,0,0-.089-.205.457.457,0,0,0-.123-.175,1.559,1.559,0,0,0-.275-.231c-.171-.134-.339-.276-.505-.418q.771.45,1.541.9a.509.509,0,0,0,.7-.228.576.576,0,0,0-.241-.739q-1.482-.871-2.965-1.737c-.295-.172-.594-.339-.89-.508q-.26-.146-.517-.293c-.154-.087-.3-.184-.458-.271a2.287,2.287,0,0,0-.36-.152.986.986,0,0,0-.419-.033.533.533,0,0,0-.333.143.5.5,0,0,0-.186.135.574.574,0,0,0,.055.773c.52.545,1.047,1.089,1.6,1.6.291.266.584.526.885.782.19.163.381.323.575.481s.422.328.64.483a3.482,3.482,0,0,0,.311.2,2.933,2.933,0,0,0,.319.14.525.525,0,0,0,.251.063Zm-.492-.323-.012-.026.012.026Z"/><path class="a" d="M411.752,158.89a.532.532,0,0,0,.218-.336.549.549,0,0,0-.08-.42q-1.551-1.99-3.11-3.975-.26-.331-.524-.659,1.233.855,2.464,1.709c.957.664,1.921,1.317,2.881,1.976a.5.5,0,0,0,.628-.113.57.57,0,0,0-.054-.774c-.279-.258-.578-.5-.871-.737-.185-.153-.372-.3-.559-.451l-.821-.654c-.214-.172-.443-.33-.665-.494-.269-.2-.534-.412-.813-.6l-.807-.544c-.2-.135-.4-.269-.6-.394-.272-.165-.541-.341-.819-.5-.44-.245-.881-.486-1.327-.721q-.119-.063-.24-.123c-.2-.149-.4-.294-.6-.448-.128-.1-.261-.2-.39-.3.238-.336.5-.653.758-.975.2-.246.4-.491.6-.736.173-.213.342-.428.513-.641a8.907,8.907,0,0,0,.891-1.26.565.565,0,0,0-.037-.55.525.525,0,0,0-.466-.252.817.817,0,0,0-.341.1,1.722,1.722,0,0,0-.218.182c-.077.07-.147.152-.221.226q-.171.172-.337.351a4.444,4.444,0,0,0-.73.943.516.516,0,0,0-.033.391l-.469.579a12.11,12.11,0,0,0-.945,1.275.566.566,0,0,0-.173.582v.031a.969.969,0,0,0,.274.59,2.539,2.539,0,0,0,.667.471c.15.174.3.352.443.529l-.019-.023c.706.87,1.417,1.734,2.108,2.616q1.551,1.981,3.1,3.966a.585.585,0,0,0,.33.238.505.505,0,0,0,.4-.072Z"/><path class="a" d="M429.387,172.871a.5.5,0,0,0,.264-.085.7.7,0,0,0,.265-.283.784.784,0,0,0,.111-.411v-.011c.084-.166.174-.329.263-.493q.215-.395.433-.787.468-.843.942-1.682c.589-1.046,1.188-2.084,1.79-3.124q.513-.886,1.018-1.782l.536-.948c.243-.429.469-.87.677-1.315.092-.2.2-.389.277-.59a1.441,1.441,0,0,0,.1-.383.989.989,0,0,0-.065-.456.568.568,0,0,0-.393-.371.515.515,0,0,0-.5.163c-.124.12-.248.238-.361.369-.131.155-.245.322-.364.485-.091.123-.183.246-.273.37-.172.232-.345.465-.516.7-.341.468-.687.932-1.024,1.4q-1.145,1.594-2.277,3.2c-.2.279-.392.559-.59.837-.292.41-.579.823-.877,1.228q.078-.339.142-.68c.035-.182.078-.365.1-.549l.1-.688c.059-.414.088-.835.125-1.251a.621.621,0,0,0-.081-.419.551.551,0,0,0-.33-.239.51.51,0,0,0-.619.409c-.036.4-.062.815-.119,1.217-.034.234-.067.468-.1.7-.025.174-.064.347-.1.52-.064.338-.134.676-.219,1.01-.048.189-.1.38-.146.568-.032.116-.063.232-.1.348-.017.064-.036.127-.055.19-.483-.387-.952-.791-1.423-1.192-.267-.227-.533-.457-.8-.686q-.21-.183-.424-.361c-.126-.106-.257-.2-.382-.31a1.93,1.93,0,0,0-.164-.121c-.059-.025-.118-.047-.178-.067a.486.486,0,0,0-.432.1.582.582,0,0,0-.178.223l-.005,0c-.156-.129-.32-.253-.472-.388.117-.149.248-.286.371-.429l.342-.4.621-.728c.172-.2.327-.419.489-.628l.762-.98c.336-.434.641-.892.957-1.341s.616-.875.914-1.322c.554-.832,1.108-1.664,1.655-2.5l.531-.815a.53.53,0,0,0,.336.112.483.483,0,0,0,.366-.176c.034-.054.07-.108.1-.162a.944.944,0,0,0,.054-.179c.014-.061.022-.124.036-.185.025-.123.062-.245.094-.366a6.147,6.147,0,0,0,.2-.835.6.6,0,0,0-.171-.528.53.53,0,0,0-.514-.12.62.62,0,0,0-.271.166,1.144,1.144,0,0,0-.146.2c-.069.1-.138.2-.206.3l-.038-.049c-.092-.117-.2-.224-.295-.333l-.453-.5c-.058-.063-.116-.123-.175-.183a.534.534,0,0,0,.079-.507c-.07-.15-.134-.3-.206-.451a2.442,2.442,0,0,0-.3-.46,6.514,6.514,0,0,0-.451-.5q-.57-1.236-1.135-2.476-.318-.694-.632-1.39c-.1-.213-.193-.427-.29-.64-.14-.3-.284-.609-.417-.919-.065-.153-.122-.309-.181-.465-.036-.1-.075-.19-.11-.285.047.015.093.032.14.05l-.087-.034c.305.118.611.23.916.343.541.212,1.083.425,1.621.643l.223.091c.218.171.434.343.647.519.272.226.549.446.821.673.35.414.7.826,1.05,1.24.249.295.5.591.747.886q.238.283.478.566c.088.106.179.211.271.315a1.653,1.653,0,0,0,.3.26,3.193,3.193,0,0,0,.291.164.514.514,0,0,0,.746-.359,1.476,1.476,0,0,0,.03-.35.988.988,0,0,0-.148-.424c-.017-.03-.035-.059-.055-.088l.4.238c.213.129.433.246.65.368l.3.167a5.951,5.951,0,0,0,.533.274,2.023,2.023,0,0,0,.313.106,2.477,2.477,0,0,0,.287.041.513.513,0,0,0,.628-.549,1.751,1.751,0,0,0-.056-.355,1.321,1.321,0,0,0-.263-.426,3.625,3.625,0,0,0-.6-.484,17.933,17.933,0,0,0-1.57-1.063l-.959-.553c-.273-.157-.545-.315-.818-.471-.214-.125-.447-.224-.669-.334l-1.071-.533c-.179-.089-.361-.165-.543-.245l-.46-.2-.275-.312c-.137-.154-.269-.314-.411-.464-.24-.254-.482-.506-.722-.76l-.658-.693c-.356-.375-.725-.74-1.062-1.133a3.939,3.939,0,0,1-.49-.7,1.226,1.226,0,0,0-.239-.348.539.539,0,0,0-.67-.048,1.748,1.748,0,0,0-.349.379q-.109.138-.225.273c-.319.372-.652.731-.975,1.1s-.663.757-.974,1.153c-.219.279-.439.556-.643.846a3.828,3.828,0,0,0-.525.975,2.449,2.449,0,0,0-.076.268.5.5,0,0,0-.253.086.556.556,0,0,0-.218.336.694.694,0,0,0,.114.566,2.09,2.09,0,0,0,.211.266c.064.073.13.144.2.214.1.1.2.2.3.3q.359.341.717.679c.44.415.887.824,1.333,1.232s.881.787,1.323,1.18c.415.368.849.715,1.27,1.077.319.276.641.552.961.827.211.181.41.376.613.566.223.209.458.41.664.636.243.264.484.529.726.794l.243.309c-.389.594-.772,1.193-1.161,1.787-.625.953-1.258,1.9-1.914,2.834l-.719,1.024c-.089.125-.177.25-.27.372q-.652.837-1.3,1.674c-.165.212-.351.412-.527.617-.234.274-.465.55-.7.816a1.42,1.42,0,0,0-.429,1.01c.02.369.359.618.62.831.233.191.468.382.7.577.46.393.914.79,1.369,1.19.217.192.437.38.658.57.13.112.26.223.393.331a4.661,4.661,0,0,0,.5.359c.065.04.131.08.2.115a.912.912,0,0,0,.394.09.646.646,0,0,0,.316-.113.52.52,0,0,0,.145-.147c.2.149.394.292.6.432a7.633,7.633,0,0,0,.687.419c.112.063.225.125.339.183l.055.027a.542.542,0,0,0,.005.114.588.588,0,0,0,.293.466.5.5,0,0,0,.245.064Zm1.387-4.355q-.463.814-.916,1.634c-.172.309-.343.617-.512.927-.03.055-.06.11-.089.165l-.022-.009c-.147-.067-.287-.154-.428-.232-.062-.034-.123-.07-.183-.106l.045-.045a2.276,2.276,0,0,0,.169-.185c.11-.133.2-.278.308-.416.142-.189.293-.372.434-.561.34-.455.662-.922.99-1.386q.664-.945,1.332-1.889.2-.28.4-.56-.767,1.329-1.525,2.663Zm-.213-11.866,0,0,.018-.028-.021.033Zm-6.244-10.645a.721.721,0,0,0-.287.175.875.875,0,0,0-.151.216,1.027,1.027,0,0,0-.087.277,1.128,1.128,0,0,0,0,.393,2.47,2.47,0,0,0,.181.607c.075.185.142.373.219.556.154.374.333.737.5,1.1l.811,1.785.192.421c-.276-.234-.553-.469-.834-.7q-.68-.557-1.359-1.107a14.044,14.044,0,0,0-1.68-1.237.469.469,0,0,0-.114-.048c.009-.046.02-.091.031-.136a3.272,3.272,0,0,1,.287-.566c.141-.21.292-.411.447-.609.122-.156.239-.316.366-.467.263-.314.526-.626.8-.934.239-.272.48-.54.722-.809.122-.137.242-.276.362-.416.087.12.18.237.273.353.178.219.367.429.56.634a.517.517,0,0,0-.229.152.535.535,0,0,0-.111.476,2.515,2.515,0,0,0-.309-.1,2.114,2.114,0,0,0-.236-.039,1.489,1.489,0,0,0-.177-.014.48.48,0,0,0-.168.026Zm1.508,1.5-.084-.033.084.033Zm.093-3.149-.036-.044.036.044Z"/><path class="a" d="M416.884,154.882a.573.573,0,0,0,.036-.665c-.13-.229-.251-.462-.38-.693a6.663,6.663,0,0,0-.515-.748c-.366-.474-.77-.919-1.17-1.363a16.445,16.445,0,0,0-2.608-2.351l.113.081c-.63-.457-1.259-.912-1.9-1.353-.313-.215-.627-.426-.943-.636-.271-.179-.547-.344-.833-.5a1.248,1.248,0,0,0-.649-.154.929.929,0,0,0-.409.12,1.273,1.273,0,0,0-.231.183.567.567,0,0,0-.21.329.583.583,0,0,0,.081.419.555.555,0,0,0,.331.239.48.48,0,0,0,.4-.072c.047-.041.094-.082.14-.124h.022l.014,0a5.8,5.8,0,0,1,.847.5l.577.384c.316.209.63.423.938.645l-.113-.08,1.269.915a19.136,19.136,0,0,1,1.693,1.436c.546.534,1.06,1.107,1.551,1.691.206.25.4.506.584.774l.044.067a.467.467,0,0,0-.085.123.568.568,0,0,0-.026.417.592.592,0,0,0,.266.322,2.323,2.323,0,0,0,.665.254.472.472,0,0,0,.118.015.515.515,0,0,0,.384-.178Zm-8.78-7.257.027-.024-.027.024Zm.1-.071.018-.009-.018.009Z"/><path class="a" d="M410.87,158.369a.536.536,0,0,0,.219-.337.543.543,0,0,0-.081-.419c-.455-.555-.9-1.116-1.369-1.663l.066.079c-.762-.913-1.53-1.82-2.295-2.73.03.036.06.073.091.109-.144-.171-.3-.33-.453-.492l-.815-.861c-.112-.12-.221-.244-.341-.356l-.788-.739c-.151-.141-.3-.276-.459-.408-.213-.178-.421-.364-.643-.53-.443-.329-.891-.653-1.339-.974l-.12-.09.112-.042a7.055,7.055,0,0,0,1.228-.617c.225-.142.437-.3.648-.461.081-.063.166-.123.248-.187-.057.124-.113.247-.168.371a.575.575,0,0,0,.239.739.509.509,0,0,0,.7-.228q.313-.7.653-1.383c.105-.212.211-.422.322-.631.064-.12.126-.24.193-.359.029-.046.057-.093.083-.141a.853.853,0,0,0,.088-.274.757.757,0,0,0-.11-.493.522.522,0,0,0-.33-.238.5.5,0,0,0-.4.072,7.433,7.433,0,0,0-.8.708c-.165.157-.332.31-.5.463a10.766,10.766,0,0,1-1.992,1.42c-.328.152-.668.272-1,.406-.067.028-.132.059-.2.092a.955.955,0,0,0-.226.159.654.654,0,0,0-.192.5,1.2,1.2,0,0,0,.519.778c.219.183.457.345.689.511l.46.33.557.414c.178.132.342.283.511.425.126.1.254.207.374.319l.662.621c.116.109.239.213.348.327l.449.476q.34.36.682.721c.1.11.213.215.312.329.728.871,1.462,1.737,2.193,2.606.416.5.827,1.008,1.241,1.511a.6.6,0,0,0,.331.238.521.521,0,0,0,.118.014.5.5,0,0,0,.281-.085Zm-1.916-1.611-.039-.048.011.013-.015-.017-.032-.039-.018-.022.069.083.021.026-.02-.025.023.029Zm-2.274-2.7-.049-.059.049.059Zm-4.59-5.492-.018-.02.018.02Zm6.84,8.166,0,0,.005.006Z"/><path class="a" d="M411.228,171.771a1.267,1.267,0,0,0,.6-.131,1.241,1.241,0,0,0,.42-.429,4.28,4.28,0,0,0,.241-.472c.1-.209.185-.421.269-.635.232-.589.444-1.187.652-1.784.5-1.425,1-2.848,1.48-4.276a.629.629,0,0,0,.025-.417.571.571,0,0,0-.266-.323.51.51,0,0,0-.4-.038.484.484,0,0,0-.3.267c-.357,1.056-.724,2.109-1.091,3.161-.178.513-.355,1.025-.54,1.535-.119.329-.239.658-.357.987-.057.157-.118.313-.18.468-.072.183-.149.365-.233.543-.063.136-.122.271-.2.4l-.03.037a3.5,3.5,0,0,1-.532.006,8.57,8.57,0,0,1-1.622-.446c-.467-.158-.929-.341-1.392-.513-.18-.068-.362-.13-.544-.191-.2-.068-.4-.142-.6-.2-.221-.058-.441-.128-.664-.173l-.3-.059c.215-.287.433-.571.638-.864q.579-.825,1.144-1.658c.716-1.053,1.388-2.137,2.07-3.213.553-.877,1.1-1.759,1.642-2.639.242-.391.463-.8.693-1.2.346-.6.69-1.2,1.022-1.808a.57.57,0,0,0-.24-.738.512.512,0,0,0-.7.228c-.391.719-.8,1.426-1.21,2.135-.242.419-.484.837-.74,1.248q-1.078,1.737-2.17,3.465l-.236.374c-.293.449-.58.9-.881,1.344-.375.549-.749,1.1-1.13,1.642-.328.467-.672.921-1.015,1.377a1.509,1.509,0,0,0-.28.489.612.612,0,0,0,.165.6c.229.213.564.189.851.247l.51.1c.148.031.3.078.442.117a17.781,17.781,0,0,1,1.713.579c.287.108.575.212.864.317.248.09.5.184.753.258l.454.132a3.856,3.856,0,0,0,1.071.146c.047,0,.093,0,.14,0Zm.111-1.123.028-.025-.028.025Z"/><path class="a" d="M426.52,165.266c.037-.055.073-.11.108-.167a.448.448,0,0,0,.054-.22c.047-.15.093-.3.14-.45.271-.8.619-1.574.959-2.346q.408-.922.821-1.844.4-.9.8-1.8.758-1.7,1.515-3.408c.13-.29.258-.58.388-.87l0,.06q-.041.945-.081,1.891-.087,1.959-.18,3.918a.556.556,0,0,0,.182.386.532.532,0,0,0,.375.144.5.5,0,0,0,.365-.177.584.584,0,0,0,.127-.387q.092-1.958.179-3.917.042-.945.081-1.891.015-.361.029-.723c.006-.192.013-.384.02-.575a3.745,3.745,0,0,0-.008-.82c-.021-.11-.047-.214-.076-.322a.555.555,0,0,0-.394-.373.5.5,0,0,0-.5.164c-.109.153-.219.3-.318.466a4.982,4.982,0,0,0-.268.544c-.127.286-.239.577-.366.862s-.242.543-.362.814q-.376.844-.751,1.689-.83,1.863-1.658,3.726c-.3.676-.6,1.351-.9,2.026-.225.51-.443,1.022-.65,1.54-.1.254-.2.509-.287.768s-.167.531-.251.795a.577.577,0,0,0,.017.286.57.57,0,0,0,.267.323.541.541,0,0,0,.254.061.446.446,0,0,0,.374-.175Z"/><path class="a" d="M431.6,171.479l.65-.835a.507.507,0,0,0,.221.043.531.531,0,0,0,.366-.177c.134-.128.269-.254.393-.394s.258-.3.382-.459c.173-.219.343-.441.513-.664l.626-.825c.331-.435.661-.869.985-1.31.731-1,1.465-1.993,2.172-3.008.543-.778,1.078-1.559,1.583-2.362.115-.181.219-.369.32-.558q1.083-1.395,2.16-2.8c.426-.556.858-1.107,1.261-1.681a.59.59,0,0,0,.127-.387.578.578,0,0,0-.181-.386.514.514,0,0,0-.74.033c-.148.166-.3.328-.44.5-.014-.047-.03-.094-.046-.139a4.426,4.426,0,0,0-.27-.58,6.75,6.75,0,0,0-.737-1.077,21.418,21.418,0,0,0-2.432-2.425c-.465-.418-.946-.816-1.424-1.219-.436-.366-.893-.71-1.342-1.062-.279-.219-.575-.42-.867-.621-.371-.256-.756-.491-1.147-.715s-.768-.42-1.159-.62c-1.084-.561-2.183-1.092-3.279-1.629-.646-.316-1.293-.63-1.954-.914-.149-.064-.3-.122-.452-.185a4.26,4.26,0,0,1-.448-.225c-.162-.092-.315-.2-.468-.307a3.728,3.728,0,0,0-.552-.318.537.537,0,0,0-.4-.039.52.52,0,0,0-.3.268.57.57,0,0,0,.24.739,6.417,6.417,0,0,1,.8.487,4.54,4.54,0,0,0,.735.391c.521.217,1.036.441,1.545.686,1.121.541,2.237,1.093,3.354,1.644.376.185.745.383,1.118.575a18.534,18.534,0,0,1,2.312,1.416c.823.6,1.6,1.258,2.385,1.914.333.28.653.573.978.864a19.664,19.664,0,0,1,1.854,1.843,6.977,6.977,0,0,1,.837,1.243,2.9,2.9,0,0,1,.147.407,1.542,1.542,0,0,1,.014.2l-.006.032a2.725,2.725,0,0,1-.185.34c-.059.1-.121.2-.183.3-.432.637-.9,1.255-1.264,1.934-.082.149-.162.3-.243.449-.483.643-.961,1.29-1.443,1.935q-.455.608-.9,1.219-1.827,2.349-3.655,4.7-1.173,1.511-2.35,3.019a.571.571,0,0,0,.054.773.54.54,0,0,0,.367.142.463.463,0,0,0,.373-.175Z"/><path class="a" d="M440.671,155.494a.569.569,0,0,0-.054-.773c-.642-.55-1.289-1.095-1.935-1.64-.458-.386-.925-.76-1.388-1.139-.867-.707-1.736-1.419-2.557-2.181q-.664-.615-1.3-1.261c-.408-.417-.813-.836-1.225-1.249s-.84-.845-1.248-1.28-.837-.883-1.279-1.3c-.282-.27-.569-.535-.859-.8s-.568-.516-.87-.753a11.01,11.01,0,0,0-1.043-.737c-.126-.076-.252-.151-.383-.22a2.911,2.911,0,0,0-.274-.12.56.56,0,0,0-.2-.064.677.677,0,0,0-.316.02.567.567,0,0,0-.332.29.677.677,0,0,0-.028.463,1.094,1.094,0,0,0,.082.206,4.917,4.917,0,0,0-1.247.946.514.514,0,0,0-.289-.079.508.508,0,0,0-.135.014.488.488,0,0,0-.263.086,1.641,1.641,0,0,0-.255.185.551.551,0,0,0-.218.337.567.567,0,0,0,.051.366c-.179.251-.362.5-.551.742l-.039.049-.088.094a10.619,10.619,0,0,0-1.052,1.259.566.566,0,0,0,.053.773.508.508,0,0,0,.741-.034,8.771,8.771,0,0,0,.816-.945q.169-.209.336-.422c.149-.163.3-.325.457-.48l.7-.7c.216-.217.445-.423.67-.631a4.383,4.383,0,0,1,.759-.562,2.237,2.237,0,0,1,.3-.1l.126-.061a.417.417,0,0,0,.177-.13.779.779,0,0,0,.125-.2c.139.091.275.186.41.282a30.39,30.39,0,0,1,2.613,2.373c.215.213.417.442.624.663.186.2.374.4.565.59.4.416.821.822,1.224,1.238.446.459.892.914,1.346,1.362.4.393.81.767,1.231,1.131.961.833,1.945,1.637,2.93,2.441.8.65,1.576,1.32,2.356,1.989a.571.571,0,0,0,.367.139.48.48,0,0,0,.373-.173Z"/><path class="a" d="M413.418,172.431a3.159,3.159,0,0,0,.829-.773c.141-.171.276-.348.4-.528l.668-.942c.142-.2.272-.413.406-.62q.54-.829,1.07-1.665c.633-1,1.261-2.005,1.894-3.006.52-.822,1.042-1.642,1.529-2.484q.378-.654.741-1.316c.108-.2.214-.393.321-.59.061-.109.12-.218.179-.326a1.355,1.355,0,0,0,.2-.493.568.568,0,0,0-.018-.286l-.005-.013c.067-.113.134-.224.2-.336.032-.055.063-.111.093-.166a1.636,1.636,0,0,0,.083-.168.941.941,0,0,0,.066-.343,1.166,1.166,0,0,0-.147-.582,6.235,6.235,0,0,0-.312-.558c-.1-.159-.209-.313-.316-.467-.071-.1-.138-.2-.216-.3-.206-.257-.4-.523-.629-.764-.2-.217-.4-.445-.614-.648s-.427-.416-.652-.61-.441-.376-.663-.562c-.652-.791-1.375-1.519-2.1-2.244-.326-.325-.667-.639-1.006-.953q-.612-.568-1.235-1.125c-.383-.344-.777-.677-1.169-1.013-.156-.135-.321-.26-.484-.389s-.323-.262-.487-.389l-.487-.487c-.3-.3-.59-.624-.87-.95-.2-.238-.388-.477-.572-.725-.1-.138-.2-.282-.293-.426a1.918,1.918,0,0,0-.7-.772.512.512,0,0,0-.7.229.569.569,0,0,0,.241.738l.037.019a.307.307,0,0,1,.036.036c.058.08.114.162.169.246l-.227-.135-.158-.094c-.084-.1-.168-.208-.253-.311-.288-.354-.628-.884-1.152-.8a.51.51,0,0,0-.182.042.819.819,0,0,0-.227-.191.668.668,0,0,0-.652.03,2.431,2.431,0,0,0-.544.5c-.178.2-.348.4-.515.608q-.28.347-.557.694c-.088.11-.172.22-.258.331a3.3,3.3,0,0,0-.452.685.576.576,0,0,0,.037.55.555.555,0,0,0,.2.189.533.533,0,0,0,.4.039,1.132,1.132,0,0,0,.427-.256c.075-.058.147-.117.221-.177.168-.136.334-.275.5-.415.335-.287.66-.585.987-.879l-.008.006c.136-.121.271-.245.41-.363.1.068.21.135.317.2.168.1.338.2.508.3l.16.093c.185.221.373.441.567.656.395.44.8.868,1.238,1.27s.9.825,1.358,1.229c.428.381.886.725,1.346,1.066.335.247.68.48,1.02.719.321.226.641.455.959.682q-.055-.039-.111-.081c.447.324.892.65,1.326.992l.546.578c.138.146.283.289.414.44q.489.564.976,1.131c.349.428.693.861,1.05,1.283.236.282.474.563.711.845.146.171.3.335.455.5a3.593,3.593,0,0,0,.984.814.593.593,0,0,0,.193.057c-.062.108-.13.214-.193.32-.05.083-.1.166-.148.251a.994.994,0,0,0-.21.636,1.185,1.185,0,0,0,.037.156l-.156.284c-.138.253-.274.507-.415.759-.283.51-.573,1.019-.875,1.52-.643,1.068-1.318,2.115-1.982,3.17-.527.837-1.057,1.673-1.583,2.511l-.411.63c-.144.221-.28.449-.433.665l-.6.849a8.1,8.1,0,0,1-.907,1.107,1.437,1.437,0,0,1-.17.119l-.009,0a3.9,3.9,0,0,1-.514-.166c-.147-.051-.293-.1-.439-.157-.706-.285-1.4-.609-2.092-.92q-.648-.291-1.293-.589c-.366-.168-.729-.345-1.084-.536a16.115,16.115,0,0,1-1.532-.975.494.494,0,0,0-.4-.039.515.515,0,0,0-.3.267.568.568,0,0,0-.026.417.614.614,0,0,0,.266.323c.328.227.66.448,1,.66a11.821,11.821,0,0,0,1.149.627c.369.18.743.35,1.116.521.521.241,1.048.47,1.571.707.544.245,1.088.492,1.653.688l.433.151a2.288,2.288,0,0,0,.325.1,1.042,1.042,0,0,0,.191.017,1.081,1.081,0,0,0,.531-.144Zm7.089-14.226-.021-.045a.451.451,0,0,1,.021.045Zm-.09-.132-.046-.055.046.055Zm-.09-.108h0Z"/></g></svg>