<svg xmlns="http://www.w3.org/2000/svg" width="20.941" height="15.84" viewBox="0 0 20.941 15.84"><defs><style>.a{fill:#fff;}</style></defs><g transform="translate(-428.776 -369.182)"><path class="a" d="M443.769,375.052h-6.78a.968.968,0,0,0,0,1.936h6.78l-1.253,1.253a.968.968,0,0,0,1.37,1.369l2.9-2.9c.023-.023.044-.046.064-.071l.014-.019a.612.612,0,0,0,.042-.057l.011-.018c.014-.021.026-.041.038-.063l.007-.014c.012-.023.023-.048.034-.072l0-.01c.011-.026.02-.053.029-.079l0-.011a.786.786,0,0,0,.02-.082l0-.025a.582.582,0,0,0,.01-.068.77.77,0,0,0,.005-.1.755.755,0,0,0-.005-.1.6.6,0,0,0-.01-.07l0-.025q-.008-.041-.02-.082l0-.01a.817.817,0,0,0-.029-.081l0-.008c-.011-.025-.022-.049-.034-.074l-.007-.012c-.012-.022-.025-.044-.038-.064l-.011-.018c-.014-.019-.027-.038-.042-.057l-.014-.018a.786.786,0,0,0-.064-.071l-2.9-2.9a.968.968,0,0,0-1.37,1.369Z" transform="translate(2.642 1.082)"/><path class="a" d="M436.7,385.022a7.916,7.916,0,0,0,6.578-3.506.969.969,0,1,0-1.608-1.081,5.984,5.984,0,1,1-.008-6.677.969.969,0,0,0,1.6-1.085,7.92,7.92,0,1,0-6.567,12.349Z" transform="translate(0 0)"/></g></svg>