<?xml version="1.0" encoding="utf-8"?>
<!-- Generator: Adobe Illustrator 25.1.0, SVG Export Plug-In . SVG Version: 6.00 Build 0)  -->
<svg version="1.1" id="Layer_1" xmlns="http://www.w3.org/2000/svg" xmlns:xlink="http://www.w3.org/1999/xlink" x="0px" y="0px"
	 viewBox="0 0 314.6 91" style="enable-background:new 0 0 314.6 91;" xml:space="preserve">
<style type="text/css">
	.st0{fill:#FF41AA;}
	.st1{fill:#FF0E41;}
	.st2{fill:#FFAF00;}
	.st3{fill:#00D339;}
	.st4{fill:#008DF0;}
</style>
<g transform="translate(-267.041 373.695)">
	<path class="st0" d="M430.8-332.4c-1.4,0-2.7-0.6-3.4-1.8c-0.1-0.2,0-0.5,0.2-0.7c0.2-0.1,0.5-0.1,0.7,0.2c1,1.4,3,1.7,4.4,0.8
		c1.5-1,2.4-2.7,2.4-4.5c0-1.9-0.3-3.7-0.9-5.5l0,0c-0.7,0.3-1.4,0.4-2.1,0.4c-1.1,0.1-2.2-0.3-3.1-0.9c-1-0.8-1.3-2.1-0.9-3.2
		c0.3-0.7,1-1.3,1.7-1.4c1.1-0.3,2.2,0,3.1,0.6c1,0.8,1.7,1.9,2,3.2c2.4-1.6,3.9-4.2,4-7.1c0.1-4.3-2.6-8.1-4.8-10.5
		c-0.2-0.2-0.2-0.5,0-0.7c0.2-0.2,0.5-0.2,0.7,0c2.4,2.6,5.2,6.6,5.1,11.2c-0.1,3.3-1.8,6.4-4.7,8.1c0,0.1,0,0.1,0,0.2
		c0.6,1.9,0.9,3.8,0.9,5.8c-0.1,2.1-1.1,4.1-2.9,5.3C432.5-332.7,431.7-332.5,430.8-332.4z M430.6-348.2c-0.2,0-0.4,0-0.6,0.1
		c-0.5,0.1-0.9,0.4-1.1,0.9c-0.2,0.8,0,1.6,0.6,2.1c0.7,0.5,1.6,0.8,2.4,0.7c0.6,0,1.3-0.2,1.9-0.4c-0.3-1.1-0.9-2.1-1.7-2.8
		C431.7-348,431.2-348.2,430.6-348.2L430.6-348.2z"/>
</g>
<g transform="translate(-162.512 389.419)">
	<path class="st1" d="M433.6-332.6c-0.3,0-0.5-0.3-0.5-0.6c0-0.2,0.1-0.4,0.2-0.5c1.6-1.7,2.3-4,2.1-6.3c-0.1-1.3-0.3-2.5-0.7-3.7
		c-0.9,0.4-1.8,0.6-2.8,0.5c-1.7-0.2-3.2-1.3-4-2.8c-0.6-1.1-0.8-2.3-0.5-3.5c0.2-0.7,0.7-1.4,1.3-1.7c0.8-0.4,1.8-0.4,2.6,0
		c1.3,0.9,2.3,2.2,2.9,3.7c0.4,0.7,0.7,1.5,1,2.3c0.4-0.3,0.7-0.6,1-1c1.9-2.6,2.1-7.1,0.5-10.4c-1.5-3-4.2-5.2-7.5-5.9
		c-0.3-0.1-0.4-0.4-0.4-0.7c0-0.3,0.3-0.5,0.5-0.5h0c3.5,0.8,6.5,3.2,8.1,6.4c1.9,3.8,1.6,8.9-0.6,11.9c-0.4,0.5-0.8,0.9-1.3,1.3
		c0.4,1.3,0.7,2.7,0.8,4.1c0.3,2.7-0.7,5.4-2.5,7.4C433.8-332.6,433.7-332.5,433.6-332.6z M430.1-350.4c-0.3,0-0.6,0.1-0.9,0.2
		c-0.4,0.2-0.7,0.6-0.8,1c-0.2,0.8,0,1.7,0.4,2.4c0.6,1.3,1.9,2.1,3.3,2.3c0.8,0.1,1.6-0.1,2.4-0.4c-0.3-0.7-0.6-1.5-0.9-2.2
		c-0.5-1.3-1.3-2.4-2.4-3.2C430.7-350.3,430.4-350.4,430.1-350.4z"/>
</g>
<g transform="translate(-407.161 405.15)">
	<path class="st2" d="M430.4-328.2c-0.2,0-0.4-0.1-0.4-0.4c0-0.2,0.1-0.4,0.3-0.4c2.2-0.7,3.7-2.7,3.9-4.9c0-0.3,0-0.6,0-1
		c-2,0.6-4.3,0-5.8-1.4c-0.9-0.8-1.2-2-0.8-3.1c0.7-1.3,2.5-1.3,3.8-0.7c1.7,0.8,2.9,2.4,3.3,4.2c0.2-0.1,0.3-0.2,0.5-0.3
		c2-1.3,3.1-3.6,2.8-5.9c-0.3-2.5-1.8-4.6-3.5-6.8c-1.6-2.1-3.3-4.3-3.6-7c-0.4-3.1,1.1-6.1,3.7-7.8c0.2-0.1,0.4-0.1,0.5,0.1
		c0,0,0,0,0,0c0.1,0.2,0.1,0.4-0.1,0.5l0,0c-2.4,1.5-3.7,4.2-3.4,7c0.3,2.5,1.9,4.5,3.5,6.7c1.7,2.2,3.4,4.5,3.7,7.2
		c0.3,2.7-1,5.2-3.2,6.7c-0.2,0.1-0.5,0.3-0.7,0.4c0.1,0.4,0.1,0.9,0,1.3c-0.2,2.6-2,4.8-4.4,5.6
		C430.4-328.2,430.4-328.2,430.4-328.2z M429.6-339.7c-0.5-0.1-1.1,0.2-1.4,0.7c-0.3,0.8,0,1.6,0.6,2.2c1.4,1.3,3.3,1.7,5.1,1.2
		c-0.4-1.6-1.5-3-3-3.7C430.6-339.6,430.1-339.7,429.6-339.7L429.6-339.7z"/>
</g>
<g transform="translate(-427.732 363.782)">
	<path class="st1" d="M434.8-339.1c0.6,0.8,0.9,1.9,0.7,2.9c2.8-0.4,5.5-1.2,8.1-2.4c0.1-1.3-0.2-2.5-0.8-3.6
		C440.5-340.4,437.7-339.4,434.8-339.1z"/>
	<path class="st0" d="M546.3-359c-1.1-0.1-2.2,0.4-3,1.2c0.5,1.8,0.8,3.6,0.9,5.5c0.5-0.3,1.2-0.4,1.8-0.3
		C545.8-354.8,545.9-357,546.3-359z"/>
	<path class="st2" d="M485.3-358c-1.8,2.4-3.1,5.2-3.9,8.1c1.8,0.5,3.7,0.5,5.5,0c0.1-1.9,0.9-3.2,2.3-5
		C487.5-355.3,486.1-356.5,485.3-358z"/>
	<path class="st1" d="M713-319.6c1.8,0.6,3.8,0.4,5.4-0.7c-0.1-3.1,0.2-6.3,0.9-9.3c-1,0.2-2,0.1-3-0.2
		C715.7-326.3,714.6-322.9,713-319.6z"/>
	<path class="st3" d="M631.3-313.5c-1.8-0.2-3.6,0.2-5.2,1.2c-0.3,1.3-0.8,2.5-1.5,3.6c1.2-0.3,2,0.2,3.2,1.5
		C628.7-309.6,629.8-311.6,631.3-313.5z"/>
	<path class="st1" d="M603.7-348.1c1.3-1.8,2.3-3.8,2.9-5.9c-1.3-0.4-2.7-0.4-4,0c-0.1,1.4-0.7,2.7-1.7,3.7
		C602.1-350.1,603.1-349.2,603.7-348.1z"/>
	<path class="st3" d="M683.2-319.5c-1,1.7-1.4,3.6-1.4,5.5c1,0.6,2.2,0.9,3.4,0.8c-0.1-1.9,0.4-3.8,1.4-5.4
		C685.4-318.3,684.2-318.7,683.2-319.5z"/>
	<path class="st4" d="M612.1-325.3c-0.8,0-1.6,0.3-2.2,0.8c-0.1,0.6-0.2,1.1-0.5,1.7c0.5-0.2,0.9,0,1.5,0.5
		C611.2-323.4,611.6-324.4,612.1-325.3z"/>
	<path class="st0" d="M507.6-300.2c0.6,0.2,1.2,0.2,1.7-0.1c-0.5-1.8-0.6-3.7-0.4-5.6c-0.5,0.1-1.1,0.1-1.6-0.2
		C506.9-304,507-302,507.6-300.2z"/>
	<path class="st0" d="M566.5-308.8c-0.7,1.5-0.6,3.3,0.4,4.7c1.5,0.4,3.2,0.2,4.6-0.4c0.2-2,0.9-3.3,2.3-5.4
		C571.5-309.1,569-308.7,566.5-308.8z"/>
	<path class="st4" d="M476.2-310.3c0.5-3,0.9-4.5,2.5-6.5c-1.1-0.5-1.7-1-1.9-1.7c-1.9,2.1-2.6,3.9-3.4,7
		C474.1-310.8,475.1-310.4,476.2-310.3z"/>
	<path class="st0" d="M663-352c0.5,0.7,0.6,1.5,0.4,2.3c2.2-0.2,4.4-0.7,6.4-1.6c0.1-1-0.1-2-0.5-2.9
		C667.5-352.9,665.3-352.1,663-352z"/>
	<path class="st3" d="M533.8-343.1c-0.7-0.6-1.1-1.4-1.2-2.3c-2.2,0.9-4.3,2.1-6.2,3.6c0.2,1.1,0.7,2,1.4,2.8
		C529.4-340.8,531.4-342.3,533.8-343.1z"/>
	<path class="st0" d="M738.7-363.8c-0.5,0.4-0.7,1.1-0.6,1.8c0.5,0.4,1.1,0.6,1.8,0.6c0.4-0.7,1-1.3,1.7-1.6
		C740.6-363.1,739.6-363.3,738.7-363.8z"/>
</g>
</svg>
