<svg xmlns="http://www.w3.org/2000/svg" width="15.596" height="17.468" viewBox="0 0 15.596 17.468"><defs><style>.a{fill:#fd8803;}</style></defs><g transform="translate(-42 -418.057)"><circle class="a" cx="4" cy="4" r="4" transform="translate(46 423)"/><g transform="translate(42 418.057)"><path d="M526.308,505.2l.207-.007v.932a.111.111,0,0,0,.016.057.1.1,0,0,0,.065.043.094.094,0,0,0,.074-.016l2.057-1.4a.136.136,0,0,0,.026-.027.1.1,0,0,0,.013-.071.094.094,0,0,0-.042-.064l-2.052-1.4a.11.11,0,0,0-.058-.017.1.1,0,0,0-.1.1v.933l-.2,0a7.713,7.713,0,0,0-4.264,14.035.475.475,0,0,0,.559-.023.441.441,0,0,0,.094-.1.466.466,0,0,0-.117-.646,6.784,6.784,0,0,1-2.9-5.555h0A6.832,6.832,0,0,1,526.308,505.2Z" transform="translate(-518.758 -503.229)"/><path d="M534.354,511.951a7.719,7.719,0,0,0-3.3-6.326.469.469,0,1,0-.535.771,6.8,6.8,0,0,1,2.9,5.442v.113a6.816,6.816,0,0,1-6.614,6.778l-.207.006V517.8a.1.1,0,0,0-.1-.1.1.1,0,0,0-.055.017l-2.054,1.4a.107.107,0,0,0-.026.026.1.1,0,0,0,.027.137l2.052,1.4a.106.106,0,0,0,.1-.006.094.094,0,0,0,.053-.078v-.932l.2-.005A7.726,7.726,0,0,0,534.354,511.951Z" transform="translate(-518.758 -503.229)"/><path d="M523.238,512.367l1.37,1.82a.685.685,0,0,0,.946.069l4.311-3.574a.468.468,0,0,0-.32-.8.462.462,0,0,0-.327.121l-4.005,3.311-.266-.241-.931-1.229a.705.705,0,0,0-.054-.073.481.481,0,0,0-.368-.166.457.457,0,0,0-.3.1.47.47,0,0,0-.06.659Z" transform="translate(-518.758 -503.229)"/></g></g></svg>