<svg xmlns="http://www.w3.org/2000/svg" width="14" height="15.043" viewBox="0 0 14 15.043"><defs><style>.a{fill:#2a364d;}</style></defs><path class="a" d="M771.737,684.221c-4.513,0-7,2.129-7,5.994a.431.431,0,0,0,.126.309.438.438,0,0,0,.309.129H778.3a.437.437,0,0,0,.435-.435C778.737,686.35,776.25,684.221,771.737,684.221Zm-6.12,5.559.01-.132c.225-3.025,2.281-4.559,6.11-4.559s5.884,1.534,6.11,4.557l.01.134Z" transform="translate(-764.738 -675.609)"/><path class="a" d="M771.505,682.993h0c.1.01.2.014.293.014a3.609,3.609,0,0,0,3.576-3.3,3.245,3.245,0,0,0,0-.57,3.552,3.552,0,0,0-3.415-3.675c-.055,0-.108,0-.163,0h-.045a3.546,3.546,0,0,0-3.533,3.489c0,.053,0,.106,0,.146A3.613,3.613,0,0,0,771.505,682.993Zm-2.416-3.9a2.6,2.6,0,0,1,.688-1.891,2.638,2.638,0,0,1,1.841-.869c.038,0,.08,0,.121,0h.068A2.685,2.685,0,0,1,774.5,679c0,.034,0,.075,0,.125a2.879,2.879,0,0,1-2.684,3.013A2.908,2.908,0,0,1,769.089,679.094Z" transform="translate(-764.797 -675.461)"/></svg>