<svg xmlns="http://www.w3.org/2000/svg" width="426.222" height="185.698" viewBox="0 0 426.222 185.698"><defs><style>.a{fill:#35bdbc;}.b{fill:#fbb116;}</style></defs><g transform="translate(0)"><g transform="translate(0 0)"><path class="a" d="M-692.158-683.058a169.066,169.066,0,0,0-25.829-4.265c-3.081-.325-5.741-.6-7.477-.941-2.311-.481-3.776-1.244-4.019-2.092s.288-2.659,4.212-6.4c.293-.279.518-.5.646-.636,8.255-8.972,16.787-20.274,17.487-36.066a29.115,29.115,0,0,0-9.537-22.3,34.966,34.966,0,0,0-27.662-9.228c-21.43,2.239-38.816,19.3-40.435,39.621-2.421,19.943,6.533,48.557,22.285,71.2,3.414,4.909,11.61,15.333,19.592,15.333a8.647,8.647,0,0,0,2.947-.511,2.118,2.118,0,0,0,.341-.16,11.823,11.823,0,0,0,5.915-7.636c1.7-7.77-4.952-17.49-12-27.78-5.68-8.3-11.555-16.882-12.846-24.238a2.057,2.057,0,0,0-.122-.416c-3.718-8.846-2.367-25.94,4.942-34.719,4.1-4.926,9.478-6.693,15.975-5.275,4.088.895,6.555,3.85,7.543,9.037a23.926,23.926,0,0,1-.8,11.414c-2.317,7.055-7.007,13.309-14.762,19.682-4.523,3.719-6.5,6.662-6.607,9.846-.107,3.093,1.6,6.128,5.537,9.844a373.373,373.373,0,0,0,28.983,24.763c6.328,4.9,16.388,9.5,25.649,7.733,5.04-.966,13.282-5.73,14.966-12.876,2.742-11.622-2.266-19.335-14.921-22.934" transform="translate(785.165 781.071)"/><path class="a" d="M-469.614-711.075c-3.785-9.169-13.991-14.526-24.262-12.735-16.86,2.931-27.317,12.853-31.086,29.492-1.436,6.336-.653,11.832,2.261,15.893,2.929,4.082,7.917,6.592,14.43,7.266,5.894.6,11.5-.982,17.657-5.005.955-.625,1.924-1.227,3.027-1.9a45.214,45.214,0,0,0-.325,5.986c.073,4.4,3.207,7.754,7.8,8.357a13.672,13.672,0,0,0,1.788.12,10.621,10.621,0,0,0,9.05-4.737,16.164,16.164,0,0,0,2.709-5.808c3.152-15.244,3.134-21.94-3.051-36.924m-15.394,8.82c-4.084,5.621-12.946,14.308-15.2,14.371a2.714,2.714,0,0,1-2.351-1.269,3.329,3.329,0,0,1-.183-3.181c3.126-6.962,8.46-11.283,16.306-13.209a7.05,7.05,0,0,1,1.59-.227c.534,0,.9.117,1.052.346.2.315-.179,1.74-1.215,3.168" transform="translate(890.712 797.757)"/><path class="a" d="M-588.036-735.982c-3.964-9.721-14.676-15.39-25.472-13.488-17.756,3.137-28.776,13.7-32.757,31.4-1.519,6.758-.69,12.6,2.4,16.9,3.071,4.271,8.288,6.9,15.087,7.6,6.188.639,12.1-1.058,18.576-5.34,1.09-.72,2.2-1.415,3.482-2.21a49.461,49.461,0,0,0-.385,6.724,8.86,8.86,0,0,0,8.1,8.747,14.291,14.291,0,0,0,1.857.124,11.064,11.064,0,0,0,9.457-5,17.256,17.256,0,0,0,2.84-6.138c3.335-16.242,3.323-23.375-3.185-39.333m-16.011,9.474c-4.382,6.1-13.839,15.437-16.207,15.439h0a3.011,3.011,0,0,1-2.6-1.405,3.774,3.774,0,0,1-.217-3.611c3.335-7.5,9.017-12.154,17.363-14.229a7.65,7.65,0,0,1,1.725-.246,1.414,1.414,0,0,1,1.232.438c.291.456-.17,2.052-1.3,3.615" transform="translate(841.358 787.312)"/><path class="a" d="M-564.433-652.577a40.5,40.5,0,0,1-9.787-1.139c-.988-.245-1.94-.552-2.861-.848-.413-.134-.824-.266-1.238-.394-13.585-4.12-23.17-16.228-24.6-23.02-2.2-10.444.19-18.61,7.305-24.968,5.78-5.165,10.118-4.477,12.191-3.608,3.345,1.407,5.557,5.171,5.771,9.826a7.091,7.091,0,0,0,3.02,5.9,8.2,8.2,0,0,0,7.444.5,4.523,4.523,0,0,0,3.169-3.224c.8-3.472-1.968-8.235-3.2-9.545-.575-.612-1.54-1.5-2.655-2.531-7.864-7.259-26.276-24.259-15.433-41.615,5.986-9.581,25.7-16.549,38.446-10.819,9.125,4.109,15.2,10.552,17.556,18.636,2.2,7.56,2.182,12.814-.069,16.06a8.064,8.064,0,0,1-6.384,3.347c-4.369.328-7.935-1.009-10.064-3.762-2.292-2.968-2.667-7.19-1.058-11.885a4.67,4.67,0,0,0-.425-4.365c-1.319-1.913-4.164-3.128-7.613-3.248a10.632,10.632,0,0,0-9.488,4.9,8.073,8.073,0,0,0-.308,8.327c1.735,3.134,5.665,5.566,10.216,8.381,5.942,3.676,12.673,7.84,17.7,15.218,9.1,13.354,10.465,28.963,3.48,39.766-6.181,9.563-19.268,14.121-31.111,14.121" transform="translate(858.968 783.118)"/><path class="a" d="M-560.778-651.751c-2.177,0-3.709-.474-4.673-1.441a3.178,3.178,0,0,1-.94-2.567c.246-2.642,3.432-4.942,9.511-9.118,4.7-3.222,10.013-6.878,12.094-10.213,7.919-12.7,6.993-20.542,5.922-29.623-.627-5.319-1.277-10.82-.373-17.811.789-6.112,3.359-10.974,7.432-14.06,4.15-3.143,9.538-4.258,16.011-3.3,15.124,2.221,15.684,13.44,14.961,24.74-.931,14.554-6.558,28.163-16.719,40.448-11.012,13.313-32.507,22.473-42.466,22.928-.263.011-.515.018-.76.018" transform="translate(874.14 791.224)"/><path class="a" d="M-659.6-740.484c-5.026-9.557-13.641-15.606-25.607-17.978-12.291-2.437-23.31-.008-31.867,7.02-9.026,7.412-14.413,19.437-14.413,32.172,0,22.336,17.849,36.9,35.479,39.744a28.5,28.5,0,0,0,4.54.362c15.584,0,29.1-12.517,32.407-20.2,4.727-10.967,6.394-27.936-.539-41.12m-26.492,23.329c-1.7,3.942-3.672,5.593-6.206,5.179-7.091-1.144-7.912-4.956-7.912-7.727,0-3.556.944-6.292,2.659-7.7a5.964,5.964,0,0,1,3.9-1.23,11.9,11.9,0,0,1,2.323.249c3.015.6,4.991,1.753,5.876,3.434,1.234,2.349.332,5.534-.641,7.793" transform="translate(806.999 783.429)"/><path class="a" d="M-571.046-759.175c-2.734-4.822-10.3-7.384-17.971-6.087-6,1.013-25.632-1.075-42.728-6.654-23.462-7.658-49.546-3.442-51.759-3.062-11.031.666-18.09,7.253-17.767,13.017.222,4,4.056,8.059,14.15,7.513,13.509-.753,24.561,1.592,34.453,4.448-3.2,4.746-7.278,12.037-10.739,23.619-6.548,21.9-1.408,44.758,11.954,53.163,6.388,4.021,11.6,5.392,15.736,5.391a15.768,15.768,0,0,0,10.487-3.769c2.237-1.922,3.632-5.437,3.644-9.173.017-4.926-2.3-9.664-6.522-13.337-6.672-5.807-6.8-11.563-6.9-16.189-.016-.575-.026-1.125-.051-1.642.48-9.411,4.234-22.744,6.785-30.869,1.827.432,3.531.785,5.168,1.072,19.948,3.494,44.18-.423,50.841-8.221,2.462-2.881,2.906-6.243,1.218-9.22" transform="translate(819.283 776.476)"/><path class="a" d="M-528.384-731.839a18.715,18.715,0,0,1-11.058-4.126c-4.414-3.4-7.051-8.093-7.051-12.561,0-9.895,9.173-19.251,18.874-19.251A17.883,17.883,0,0,1-509.866-749.8c0,9.951-8.381,15.7-15.557,17.6a11.457,11.457,0,0,1-2.961.368" transform="translate(882.239 780.014)"/></g><path class="b" d="M-640.514-659.016a84.059,84.059,0,0,1,1.256,10.77,22.916,22.916,0,0,1-1.276,6.568q-1.661,6.106-4.7,8.771a12.364,12.364,0,0,1-6.647,2.91,13.176,13.176,0,0,1-1.646.154q-5.165.386-7.675-1-2.53-1.488-5.157-6.3a45.742,45.742,0,0,1-3.98-12.851c-.084-.544-.165-1.055-.238-1.532a47.821,47.821,0,0,1-.543-12.236,22.245,22.245,0,0,1,2.753-8.47,15.994,15.994,0,0,1,5.021-6,19.045,19.045,0,0,1,6.861-2.214,10.317,10.317,0,0,1,7.046.992,13.627,13.627,0,0,1,5.51,6.558q1.92,4.3,3.41,13.88M-656.877-673.6a9.559,9.559,0,0,0-3.694,1.1,8.7,8.7,0,0,0-2.1,2.625q-2.083,4.077-2.242,11.1a43.886,43.886,0,0,0,.5,7.232,36.411,36.411,0,0,0,1.46,6.039q1.807,5.569,3.348,7.418a6.169,6.169,0,0,0,4.417,2.237,8.117,8.117,0,0,0,1.767-.069q5.2-.806,6.92-9.22a27.3,27.3,0,0,0,.611-6.15c-.091-1.03-.262-2.363-.515-3.991-.211-1.359-.487-2.885-.817-4.576q-1.747-9.226-3.618-11.862a5.1,5.1,0,0,0-2.3-2.043,10.68,10.68,0,0,0-3.733.162" transform="translate(831.477 815.456)"/><path class="b" d="M-665.023-675.612q-1.53,11.548-11.779,20.742-1.591,1.313-4.673,4.059,1.175.156,4.81.637,6.63.878,7.866,3.871a2.662,2.662,0,0,1,.084.99q-.2,1.5-2.533,2.711a8.147,8.147,0,0,1-3.763.48,7.6,7.6,0,0,1-1.405-.076q-2.353-.317-6.907-1.245-3.395-.665-5.381-1.255-2-.483-3.672-1.033c-1.173-.443-1.84-.9-2-1.353a5.057,5.057,0,0,1-.457-1.476,3.458,3.458,0,0,1,1.261-2.117,31.121,31.121,0,0,1,2.855-2.666q1.6-1.422,4.4-3.659,7.8-6.36,10.092-9.652,2.391-3.273,3.244-9.688a22.977,22.977,0,0,0,.322-5.721,4.644,4.644,0,0,0-1.6-2.716q-4.024-4.121-11.19.695a9.357,9.357,0,0,1-3.141,1.539,2.3,2.3,0,0,1-2.045-.162A2.8,2.8,0,0,1-691-684.82q.243-1.821,2.6-4.009a17.573,17.573,0,0,1,5.213-3.224,14.3,14.3,0,0,1,6.75-.847,12.483,12.483,0,0,1,3.151.854,14.486,14.486,0,0,1,7.56,6.985q1.6,2.72.7,9.45" transform="translate(821.906 810.425)"/><path class="b" d="M-626.223-686.26q2.249,10.474-3.781,21.612-.971,1.627-2.788,4.962,1.063-.23,4.361-.937,6.016-1.292,8.01.916a2.478,2.478,0,0,1,.382.833q.291,1.357-1.359,3.13a7.4,7.4,0,0,1-3.107,1.582,6.926,6.926,0,0,1-1.241.369q-2.133.46-6.365,1.061-3.148.475-5.053.577c-1.255.138-2.422.216-3.5.243q-1.735-.029-2.148-.554a4.374,4.374,0,0,1-.853-1.134,3.14,3.14,0,0,1,.435-2.223,27.643,27.643,0,0,1,1.649-3.2q.945-1.724,2.678-4.532,4.79-7.922,5.754-11.48,1.057-3.577-.193-9.4a21.173,21.173,0,0,0-1.49-5.054,4.287,4.287,0,0,0-2.225-1.857q-4.762-2.323-9.476,4.064a8.627,8.627,0,0,1-2.244,2.306,2.121,2.121,0,0,1-1.822.5,2.574,2.574,0,0,1-.978-1.717,6.7,6.7,0,0,1,1.009-4.277,16.245,16.245,0,0,1,3.52-4.409,13.112,13.112,0,0,1,5.582-2.819,11.506,11.506,0,0,1,2.994-.238,13.319,13.319,0,0,1,8.709,3.709q2.226,1.857,3.536,7.965" transform="translate(839.471 808.415)"/><path class="b" d="M-594.718-671.563q-2.564,11.162-13.44,19.217-1.678,1.138-4.948,3.542l4.651,1.068q6.406,1.471,7.342,4.511a2.623,2.623,0,0,1-.008.978c-.22.965-1.133,1.772-2.729,2.421a7.978,7.978,0,0,1-3.728.122,7.544,7.544,0,0,1-1.367-.2q-2.277-.527-6.647-1.853-3.262-.962-5.153-1.727-1.916-.654-3.5-1.346c-1.11-.542-1.72-1.047-1.832-1.508a4.776,4.776,0,0,1-.31-1.487,3.375,3.375,0,0,1,1.426-1.957,30.053,30.053,0,0,1,3.041-2.345q1.694-1.243,4.644-3.178,8.227-5.507,10.768-8.518,2.642-2.979,4.064-9.182a22.623,22.623,0,0,0,.844-5.571,4.568,4.568,0,0,0-1.314-2.805q-3.557-4.406-11.016-.353a9.128,9.128,0,0,1-3.216,1.218,2.262,2.262,0,0,1-1.988-.346,2.756,2.756,0,0,1-.17-2.106q.4-1.758,2.913-3.683a17.285,17.285,0,0,1,5.4-2.678,14.083,14.083,0,0,1,6.682-.205,12.481,12.481,0,0,1,3.008,1.124,14.255,14.255,0,0,1,6.755,7.536q1.315,2.8-.179,9.314" transform="translate(849.746 811.711)"/></g></svg>