<svg xmlns="http://www.w3.org/2000/svg" width="32.107" height="32.916" viewBox="0 0 32.107 32.916">
  <g id="Group_57" data-name="Group 57" transform="translate(-1132.469 -598.809)">
    <g id="Group_56" data-name="Group 56">
      <g id="telephone" transform="translate(1132.469 601.031)">
        <g id="Group_22" data-name="Group 22" transform="translate(21.637 18.069)">
          <g id="Group_21" data-name="Group 21">
            <path id="Path_18" data-name="Path 18" d="M369.184,305.972l-3.815-3.816a2.764,2.764,0,0,0-3.816,0l-.636.636,7.631,7.63.636-.636A2.7,2.7,0,0,0,369.184,305.972Z" transform="translate(-360.917 -301.393)" fill="#1e90e5"/>
          </g>
        </g>
        <g id="Group_24" data-name="Group 24" transform="translate(0 2.724)">
          <g id="Group_23" data-name="Group 23">
            <path id="Path_19" data-name="Path 19" d="M20.33,63.424a2.023,2.023,0,0,1-2.681-.138l-7.543-7.548a2.024,2.024,0,0,1-.138-2.682L2.355,45.443a9.71,9.71,0,0,0,.468,13.185L14.759,70.569a9.654,9.654,0,0,0,13.185.467Z" transform="translate(0 -45.443)" fill="#1e90e5"/>
          </g>
        </g>
        <g id="Group_26" data-name="Group 26" transform="translate(3.574 0)">
          <g id="Group_25" data-name="Group 25">
            <path id="Path_20" data-name="Path 20" d="M67.879,4.579,64.064.764a2.764,2.764,0,0,0-3.816,0l-.636.636,7.631,7.63.636-.636A2.7,2.7,0,0,0,67.879,4.579Z" transform="translate(-59.612 0)" fill="#1e90e5"/>
          </g>
        </g>
      </g>
      <g id="refresh" transform="translate(1148.254 598.809)">
        <g id="Group_27" data-name="Group 27" transform="translate(0 0)">
          <path id="Path_28" data-name="Path 28" d="M4.071,12.969a5.678,5.678,0,0,1-1.46-2.09A5.735,5.735,0,0,1,3.8,4.72l1.5,1.5a.154.154,0,0,0,.252-.1L6.372.749A.134.134,0,0,0,6.22.6L.842,1.418a.154.154,0,0,0-.1.252L2.25,3.177A7.906,7.906,0,0,0,8.078,16.615l.338-2.209A5.737,5.737,0,0,1,4.071,12.969Z" transform="translate(0 -0.596)" fill="#1e90e5"/>
          <path id="Path_29" data-name="Path 29" d="M244.907,21.93a7.906,7.906,0,0,0-5.828-13.438l-.338,2.209a5.741,5.741,0,0,1,4.345,1.437,5.678,5.678,0,0,1,1.46,2.09,5.735,5.735,0,0,1-1.186,6.159l-1.5-1.5a.154.154,0,0,0-.252.1l-.821,5.375a.134.134,0,0,0,.152.152l5.378-.821a.155.155,0,0,0,.1-.252Z" transform="translate(-230.835 -8.229)" fill="#1e90e5"/>
        </g>
      </g>
      <g id="Ellipse_21" data-name="Ellipse 21" transform="translate(1134.521 617.089)" fill="#1e90e5" stroke="#1e90e5" stroke-width="0.5">
        <ellipse cx="6.748" cy="6.748" rx="6.748" ry="6.748" stroke="none"/>
        <ellipse cx="6.748" cy="6.748" rx="6.498" ry="6.498" fill="none"/>
      </g>
    </g>
    <g id="check-mark" transform="translate(1137.327 619.258)">
      <g id="Group_29" data-name="Group 29" transform="translate(0)">
        <g id="Group_28" data-name="Group 28">
          <path id="Path_30" data-name="Path 30" d="M4.457,7.953a.792.792,0,0,1-.631-.314L1.8,4.958A.792.792,0,0,1,3.059,4L4.394,5.765,7.752.374A.792.792,0,1,1,9.1,1.211L5.13,7.58a.792.792,0,0,1-.636.373Z" transform="translate(-1.636 0)" fill="#fefbfb"/>
        </g>
      </g>
    </g>
  </g>
</svg>
