<svg xmlns="http://www.w3.org/2000/svg" width="30" height="25" viewBox="0 0 30 25">
  <g id="missed-call-phone-receiver-with-left-arrow" transform="translate(0 -80.325)">
    <g id="phone-missed" transform="translate(0 80.325)">
      <path id="Path_17" data-name="Path 17" d="M8.058,83.817,14.876,91.5l8.678-9.777-1.24-1.4L14.876,88.7,9.3,82.42h4.339V80.325H6.2V88.7h1.86ZM29.38,99.459a19.793,19.793,0,0,0-14.5-6.564,19.793,19.793,0,0,0-14.5,6.564,1.471,1.471,0,0,0,0,1.955l3.1,3.492a1.108,1.108,0,0,0,1.736,0,16.378,16.378,0,0,1,3.347-2.654A1.624,1.624,0,0,0,9.3,101v-4.33a15.414,15.414,0,0,1,5.7-.978,18.935,18.935,0,0,1,5.7.978V101a1.356,1.356,0,0,0,.744,1.257,12.7,12.7,0,0,1,3.347,2.654,1.108,1.108,0,0,0,1.736,0l3.1-3.492a1.348,1.348,0,0,0,.372-.978C30,100.018,29.628,99.738,29.38,99.459Z" transform="translate(0 -80.325)" fill="#1e90e5"/>
    </g>
  </g>
</svg>
