<svg xmlns="http://www.w3.org/2000/svg" width="36.653" height="31.423" viewBox="0 0 36.653 31.423">
  <g id="Group_53" data-name="Group 53" transform="translate(-1126.347 -410)">
    <path id="Path_21" data-name="Path 21" d="M34.2,43.022a16.58,16.58,0,0,0-6.668-4.766,23.777,23.777,0,0,0-9.2-1.749,24.322,24.322,0,0,0-7.118,1.033,19.907,19.907,0,0,0-5.85,2.792,13.953,13.953,0,0,0-3.907,4.183A9.742,9.742,0,0,0,0,49.6a9.925,9.925,0,0,0,1.851,5.748,15.019,15.019,0,0,0,5.062,4.5A13,13,0,0,1,6.381,61.4q-.307.736-.552,1.207a8.31,8.31,0,0,1-.665,1.043q-.419.573-.634.808l-.706.777q-.491.542-.634.706a1.43,1.43,0,0,0-.164.184l-.143.174-.123.184q-.1.154-.092.194a.545.545,0,0,1-.041.2.27.27,0,0,0,.01.246v.02A1.028,1.028,0,0,0,3,67.739a.8.8,0,0,0,.624.184,15.352,15.352,0,0,0,2.332-.45,22.356,22.356,0,0,0,9.409-4.95,27.981,27.981,0,0,0,2.966.164,23.77,23.77,0,0,0,9.2-1.749A16.577,16.577,0,0,0,34.2,56.172a10.036,10.036,0,0,0,0-13.151Z" transform="translate(1126.347 373.493)" fill="#1e90e5"/>
    <g id="missed-call-phone-receiver-with-left-arrow" transform="translate(1135.395 415.89)">
      <g id="phone-missed" transform="translate(0 0)">
        <path id="Path_22" data-name="Path 22" d="M5.3,82.364l4.487,4.487,5.71-5.71-.816-.816L9.789,85.22,6.118,81.549H8.973V80.325H4.079V85.22H5.3ZM19.334,91.5a13.8,13.8,0,0,0-19.089,0,.789.789,0,0,0,0,1.142l2.039,2.039a.74.74,0,0,0,.571.245.74.74,0,0,0,.571-.245,10.679,10.679,0,0,1,2.2-1.55.938.938,0,0,0,.489-.734V89.869A11.3,11.3,0,0,1,9.871,89.3a13.894,13.894,0,0,1,3.753.571V92.4a.784.784,0,0,0,.489.734,8.28,8.28,0,0,1,2.2,1.55.789.789,0,0,0,1.142,0L19.5,92.643a.741.741,0,0,0,.245-.571C19.741,91.827,19.5,91.664,19.334,91.5Z" transform="translate(0 -80.325)" fill="#fff"/>
      </g>
    </g>
  </g>
</svg>
