<?xml version="1.0" encoding="utf-8"?>
<!-- Generator: Adobe Illustrator 16.0.0, SVG Export Plug-In . SVG Version: 6.00 Build 0)  -->
<!DOCTYPE svg PUBLIC "-//W3C//DTD SVG 1.1//EN" "http://www.w3.org/Graphics/SVG/1.1/DTD/svg11.dtd">
<svg version="1.1" id="Layer_1" xmlns="http://www.w3.org/2000/svg" xmlns:xlink="http://www.w3.org/1999/xlink" x="0px" y="0px"
	 width="32px" height="32px" viewBox="0 0 32 32" enable-background="new 0 0 32 32" xml:space="preserve">
<g>
	<path fill="#3D8CCB" d="M26.635,24.771c0.758,0,1.414-0.271,1.95-0.808s0.809-1.192,0.809-1.95s-0.272-1.414-0.809-1.95
		s-1.192-0.808-1.95-0.808s-1.414,0.271-1.95,0.808s-0.809,1.192-0.809,1.95s0.272,1.414,0.809,1.95S25.877,24.771,26.635,24.771z"
		/>
	<path fill="#3D8CCB" d="M31.461,28.063c-0.016-0.224-0.046-0.467-0.093-0.725c-0.046-0.259-0.105-0.503-0.178-0.728
		c-0.074-0.23-0.175-0.459-0.299-0.679c-0.13-0.227-0.281-0.424-0.451-0.587c-0.178-0.171-0.396-0.308-0.648-0.408
		c-0.25-0.099-0.529-0.149-0.826-0.149c-0.117,0-0.23,0.048-0.448,0.191c-0.136,0.087-0.292,0.188-0.468,0.301
		c-0.149,0.095-0.353,0.186-0.604,0.266c-0.245,0.08-0.494,0.119-0.739,0.119c-0.246,0-0.495-0.039-0.74-0.119
		c-0.25-0.08-0.453-0.171-0.604-0.266c-0.174-0.111-0.33-0.213-0.467-0.301c-0.218-0.144-0.332-0.191-0.449-0.191
		c-0.297,0-0.575,0.051-0.826,0.15c-0.252,0.1-0.47,0.236-0.648,0.407c-0.17,0.163-0.321,0.36-0.45,0.587
		c-0.124,0.22-0.226,0.448-0.299,0.68c-0.072,0.224-0.132,0.468-0.178,0.727c-0.047,0.257-0.078,0.501-0.094,0.725
		c-0.016,0.219-0.022,0.446-0.022,0.676c0,0.598,0.189,1.082,0.564,1.438c0.37,0.353,0.859,0.531,1.455,0.531h5.515
		c0.596,0,1.086-0.179,1.456-0.531c0.374-0.356,0.564-0.841,0.564-1.438C31.484,28.507,31.477,28.28,31.461,28.063z"/>
</g>
<path fill="#3D8CCB" d="M21.073,6.619c-4.384-4.383-11.478-4.383-15.86,0c-4.383,4.382-4.383,11.477,0,15.86
	c4.382,4.383,11.476,4.383,15.86,0C25.456,18.097,25.456,11.002,21.073,6.619z M12.192,17.824c0,0.509-0.413,0.921-0.921,0.921
	c-0.509,0-0.921-0.412-0.921-0.921v-6.55c0-0.509,0.412-0.921,0.921-0.921c0.508,0,0.921,0.413,0.921,0.921V17.824z M15.936,17.824
	c0,0.509-0.413,0.921-0.921,0.921c-0.509,0-0.922-0.412-0.922-0.921v-6.55c0-0.509,0.413-0.921,0.922-0.921
	c0.508,0,0.921,0.413,0.921,0.921V17.824z"/>
</svg>
