<svg xmlns="http://www.w3.org/2000/svg" width="32.142" height="39.577" viewBox="0 0 32.142 39.577">
  <g id="incoming-call" transform="translate(-3.93 5.705) rotate(-11)">
    <g id="Group_30" data-name="Group 30" transform="translate(4.003 -0.002)">
      <path id="Path_32" data-name="Path 32" d="M29.638,30.519l-4.109-5.093a2.309,2.309,0,0,0-1.61-.754l-1.735.033c-1.487.856-4.4,2.118-8.426-4.859s-1.479-8.866.007-9.724l.895-1.486a2.3,2.3,0,0,0,.154-1.772L12.459.76A1.242,1.242,0,0,0,11.13.016L8.239.547c-5.607,3.239-5.653,12.931-.1,22.545S22.105,37.517,27.714,34.279l1.905-2.24A1.241,1.241,0,0,0,29.638,30.519Z" transform="translate(-4.003 0.002)" fill="#2c97e6"/>
      <path id="Path_33" data-name="Path 33" d="M18.015,6.656A10.45,10.45,0,0,1,25.4,19.442a.746.746,0,1,0,1.442.383A11.94,11.94,0,0,0,18.4,5.217a.745.745,0,0,0-.386,1.439Z" transform="translate(-1.662 0.905)" fill="#2c97e6"/>
      <path id="Path_34" data-name="Path 34" d="M17.359,9.112a7.464,7.464,0,0,1,5.272,9.13.744.744,0,1,0,1.438.384A8.956,8.956,0,0,0,17.744,7.669a.747.747,0,0,0-.385,1.443Z" transform="translate(-1.776 1.332)" fill="#2c97e6"/>
      <path id="Path_35" data-name="Path 35" d="M16.7,11.564a4.479,4.479,0,0,1,3.163,5.478.745.745,0,1,0,1.439.385,5.97,5.97,0,0,0-4.218-7.3.745.745,0,1,0-.384,1.44Z" transform="translate(-1.891 1.759)" fill="#2c97e6"/>
      <path id="Path_36" data-name="Path 36" d="M16.044,14.018A1.492,1.492,0,0,1,17.1,15.843a.745.745,0,1,0,1.439.387A2.983,2.983,0,0,0,16.43,12.58a.745.745,0,1,0-.386,1.438Z" transform="translate(-2.005 2.186)" fill="#2c97e6"/>
    </g>
  </g>
</svg>
